M48
; DRILL file {KiCad 5.1.9-73d0e3b20d~88~ubuntu20.04.1} date Sun Feb  7 23:06:20 2021
; FORMAT={-:-/ absolute / inch / decimal}
; #@! TF.CreationDate,2021-02-07T23:06:20+01:00
; #@! TF.GenerationSoftware,Kicad,Pcbnew,5.1.9-73d0e3b20d~88~ubuntu20.04.1
FMAT,2
INCH
T1C0.0157
T2C0.0276
T3C0.0315
T4C0.0394
%
G90
G05
T1
X-5.2Y1.15
X-5.2Y0.95
X-5.15Y0.2
X-5.1Y1.15
X-5.1Y0.95
X-5.1Y0.25
X-5.05Y0.7
X-5.0402Y0.1807
X-4.95Y1.15
X-4.8Y0.95
X-4.75Y0.55
X-4.7Y0.9
X-4.55Y0.1
X-4.5Y3.0
X-4.5Y0.3
X-4.4228Y0.5
X-4.4Y1.15
X-4.3Y1.45
X-4.3Y1.15
X-4.3Y0.85
X-4.25Y0.4
X-4.2Y1.55
X-4.2Y0.45
X-4.2Y0.3
X-4.15Y0.95
X-4.1Y1.05
X-4.1Y0.45
X-4.1Y0.3
X-4.05Y1.15
X-4.05Y0.3
X-4.0Y1.65
X-3.95Y1.15
X-3.9Y0.95
X-3.9Y0.65
X-3.9Y0.5
X-3.85Y1.95
X-3.85Y1.2
X-3.8Y1.5083
X-3.8Y1.4335
X-3.8Y0.85
X-3.75Y0.2
X-3.7Y1.6
X-3.7Y0.85
X-3.7Y0.1
X-3.6528Y1.5522
X-3.65Y1.95
X-3.65Y0.95
X-3.6121Y1.1467
X-3.6106Y1.5118
X-3.6Y3.05
X-3.55Y1.4051
X-3.55Y1.2
X-3.55Y1.15
X-3.55Y1.05
X-3.55Y0.55
X-3.5075Y1.5866
X-3.5Y1.25
X-3.4884Y1.6285
X-3.45Y1.5
X-3.45Y1.45
X-3.45Y1.2949
X-3.45Y0.95
X-3.45Y0.5
X-3.4Y1.4
X-3.4Y1.2
X-3.4Y1.1
X-3.4Y0.3
X-3.35Y1.95
X-3.35Y1.55
X-3.35Y0.5
X-3.3054Y1.3167
X-3.3Y3.0
X-3.3Y1.65
X-3.3Y1.15
X-3.3Y0.45
X-3.3Y0.35
X-3.3Y0.3
X-3.25Y2.9
X-3.25Y1.8
X-3.25Y1.75
X-3.25Y1.564
X-3.25Y1.45
X-3.25Y0.9
X-3.25Y0.5
X-3.25Y0.4
X-3.203Y0.803
X-3.2Y0.7
X-3.2Y0.5
X-3.15Y1.55
X-3.15Y1.05
X-3.15Y0.95
X-3.15Y0.45
X-3.15Y0.35
X-3.1Y1.95
X-3.1Y1.7
X-3.1Y1.2
X-3.1Y0.65
X-3.1Y0.35
X-3.05Y1.65
X-3.05Y1.45
X-3.05Y0.85
X-3.05Y0.55
X-3.0Y1.3
X-3.0Y0.55
X-3.0Y0.4
X-3.0Y0.3
X-2.95Y1.55
X-2.95Y1.45
X-2.95Y0.7
X-2.95Y0.55
X-2.9Y0.85
X-2.9Y0.75
X-2.9Y0.6
X-2.85Y1.55
X-2.85Y1.45
X-2.85Y0.85
X-2.8Y1.7
X-2.8Y0.9
X-2.75Y1.55
X-2.75Y1.45
X-2.7Y2.65
X-2.7Y2.0
X-2.7Y1.7
X-2.65Y1.55
X-2.65Y1.05
X-2.65Y0.7
X-2.65Y0.55
X-2.6Y2.9
X-2.6Y1.7
X-2.6Y1.45
X-2.6Y0.5
X-2.5Y1.7
X-2.5Y1.55
X-2.45Y1.95
X-2.45Y0.1
X-2.35Y3.3
X-2.35Y3.05
X-2.35Y1.95
X-2.35Y1.7
X-2.35Y1.55
X-2.35Y1.45
X-2.35Y1.3
X-2.35Y0.1
X-2.25Y3.3
X-2.25Y3.05
X-2.25Y1.95
X-2.2Y0.1
X-2.15Y3.05
X-2.15Y2.65
X-2.15Y0.9
X-2.05Y2.75
X-2.05Y1.7
X-2.05Y1.6
X-2.05Y1.55
X-2.0Y2.0
X-2.0Y1.9
X-2.0Y1.8
X-1.95Y2.15
X-1.95Y1.65
X-1.95Y1.55
X-1.95Y1.5
X-1.9Y2.7
X-1.9Y2.1
X-1.9Y1.95
X-1.9Y1.8
X-1.85Y2.45
X-1.85Y1.55
X-1.8Y1.9
X-1.8Y1.8
X-1.8Y1.7
X-1.7Y2.7
X-1.7Y2.0
X-1.7Y1.6
X-1.65Y1.9
X-1.6Y2.7
X-1.6Y2.1
X-1.6Y2.0
X-1.55Y1.95
X-1.55Y1.75
X-1.55Y0.9
X-1.55Y0.5
X-1.55Y0.3
X-1.5Y2.55
X-1.5Y0.95
X-1.4894Y0.8882
X-1.45Y2.1
X-1.45Y1.9
X-1.4Y2.65
X-1.4Y0.85
X-1.25Y1.6
X-1.2Y1.65
X-1.05Y1.5
X-0.75Y2.35
T2
X-3.9Y3.2
X-3.7Y3.2
X-3.55Y2.95
X-3.35Y2.95
T3
X-5.3Y1.1
X-5.3Y1.0016
X-4.95Y1.35
X-4.95Y0.75
X-4.85Y1.35
X-4.85Y0.75
X-4.8Y3.2
X-4.8Y2.9
X-4.75Y1.35
X-4.75Y0.75
X-4.7Y3.2
X-4.7Y2.9
X-4.65Y1.35
X-4.65Y0.75
X-4.6Y3.2
X-4.6Y2.9
X-4.55Y1.35
X-4.55Y0.75
X-4.5Y3.2
X-4.5Y2.9
X-4.45Y1.35
X-4.45Y0.75
X-4.4Y3.2
X-4.4Y2.9
X-4.35Y1.35
X-4.35Y0.75
X-4.3Y3.2
X-4.3Y2.9
X-4.25Y1.35
X-4.25Y0.75
X-4.2Y3.2
X-4.2Y2.9
X-4.15Y1.35
X-4.15Y0.75
X-4.05Y1.35
X-4.05Y0.75
X-4.0Y2.65
X-4.0Y2.4531
X-3.95Y1.35
X-3.95Y0.75
X-3.9Y2.95
X-3.85Y2.05
X-3.85Y1.75
X-3.85Y1.35
X-3.85Y0.75
X-3.7504Y2.95
X-3.75Y1.35
X-3.75Y0.75
X-3.65Y2.65
X-3.65Y2.4531
X-3.65Y1.35
X-3.65Y0.75
X-3.55Y2.05
X-3.55Y1.75
X-3.55Y1.35
X-3.55Y0.75
X-3.45Y1.35
X-3.45Y0.75
X-3.35Y1.35
X-3.35Y0.75
X-3.25Y1.35
X-3.25Y0.75
X-3.15Y3.15
X-3.15Y3.05
X-3.15Y2.95
X-3.15Y2.85
X-3.15Y2.75
X-3.15Y2.65
X-3.15Y2.55
X-3.15Y1.35
X-3.15Y0.75
X-3.05Y1.35
X-3.05Y0.75
X-2.85Y3.15
X-2.85Y3.05
X-2.85Y2.95
X-2.85Y2.85
X-2.85Y2.75
X-2.85Y2.65
X-2.85Y2.55
X-2.75Y0.45
X-2.6516Y0.45
X-2.5Y1.35
X-2.5Y1.25
X-2.5Y1.15
X-2.5Y1.05
X-2.5Y0.95
X-2.5Y0.85
X-2.5Y0.75
X-2.2Y1.35
X-2.2Y1.25
X-2.2Y1.15
X-2.2Y1.05
X-2.2Y0.95
X-2.2Y0.85
X-2.2Y0.75
X-0.6Y2.6
X-0.6Y2.5016
T4
X-4.95Y2.1
X-4.95Y2.0
X-4.95Y0.2
X-4.85Y0.2
X-4.75Y0.2
X-4.7Y2.1
X-4.7Y2.0
X-4.65Y0.2
X-4.55Y0.2
X-4.45Y2.1
X-4.45Y2.0
X-4.45Y0.2
X-4.35Y0.2
X-4.25Y0.2
X-4.2Y2.1
X-4.2Y2.0
X-4.15Y0.2
X-4.05Y0.2
X-3.95Y0.2
X-3.85Y0.2
X-3.75Y0.2
X-3.65Y0.2
X-3.55Y0.2
X-3.45Y3.3
X-3.45Y3.2
X-3.45Y0.2
X-3.35Y0.2
X-3.25Y0.2
X-3.15Y0.2
X-3.05Y0.2
X-3.0Y2.3
X-3.0Y2.2
X-2.95Y0.2
X-2.85Y0.2
X-2.75Y0.2
X-2.65Y0.2
X-2.55Y0.2
X-2.45Y2.85
X-2.45Y2.25
X-2.45Y0.2
X-2.35Y2.85
X-2.35Y2.25
X-2.35Y0.2
X-2.25Y2.85
X-2.25Y2.25
X-2.25Y0.2
X-2.15Y2.85
X-2.15Y2.25
X-2.15Y0.2
X-2.05Y2.85
X-2.05Y2.25
X-2.05Y0.2
X-1.95Y2.85
X-1.95Y2.25
X-1.95Y0.2
X-1.85Y2.85
X-1.85Y2.25
X-1.85Y0.2
X-1.75Y2.85
X-1.75Y2.25
X-1.75Y0.2
X-1.65Y2.85
X-1.65Y2.25
X-1.65Y0.2
X-1.55Y2.85
X-1.55Y2.25
X-1.55Y0.2
X-1.45Y2.85
X-1.45Y2.25
X-1.45Y0.2
X-1.35Y2.85
X-1.35Y2.25
X-1.35Y0.2
X-1.25Y2.85
X-1.25Y2.25
X-1.25Y0.2
X-1.15Y2.85
X-1.15Y2.25
X-1.15Y0.2
X-1.05Y0.2
T0
M30
