G04 #@! TF.GenerationSoftware,KiCad,Pcbnew,5.1.9-73d0e3b20d~88~ubuntu20.04.1*
G04 #@! TF.CreationDate,2021-02-07T23:06:09+01:00*
G04 #@! TF.ProjectId,dtZ80,64745a38-302e-46b6-9963-61645f706362,1*
G04 #@! TF.SameCoordinates,PX60e4b00PY6bcb370*
G04 #@! TF.FileFunction,Legend,Top*
G04 #@! TF.FilePolarity,Positive*
%FSLAX46Y46*%
G04 Gerber Fmt 4.6, Leading zero omitted, Abs format (unit mm)*
G04 Created by KiCad (PCBNEW 5.1.9-73d0e3b20d~88~ubuntu20.04.1) date 2021-02-07 23:06:09*
%MOMM*%
%LPD*%
G01*
G04 APERTURE LIST*
%ADD10C,0.150000*%
G04 #@! TA.AperFunction,Profile*
%ADD11C,0.050000*%
G04 #@! TD*
%ADD12C,0.120000*%
G04 APERTURE END LIST*
D10*
X-93749048Y88082381D02*
X-93701429Y88130000D01*
X-93606191Y88177620D01*
X-93368096Y88177620D01*
X-93272858Y88130000D01*
X-93225239Y88082381D01*
X-93177620Y87987143D01*
X-93177620Y87891905D01*
X-93225239Y87749048D01*
X-93796667Y87177620D01*
X-93177620Y87177620D01*
X-91987143Y87177620D02*
X-91987143Y88177620D01*
X-91606191Y88177620D01*
X-91510953Y88130000D01*
X-91463334Y88082381D01*
X-91415715Y87987143D01*
X-91415715Y87844286D01*
X-91463334Y87749048D01*
X-91510953Y87701429D01*
X-91606191Y87653810D01*
X-91987143Y87653810D01*
X-90987143Y87177620D02*
X-90987143Y87844286D01*
X-90987143Y88177620D02*
X-91034762Y88130000D01*
X-90987143Y88082381D01*
X-90939524Y88130000D01*
X-90987143Y88177620D01*
X-90987143Y88082381D01*
X-90510953Y87844286D02*
X-90510953Y87177620D01*
X-90510953Y87749048D02*
X-90463334Y87796667D01*
X-90368096Y87844286D01*
X-90225239Y87844286D01*
X-90130001Y87796667D01*
X-90082381Y87701429D01*
X-90082381Y87177620D01*
X-88272858Y87272858D02*
X-88320477Y87225239D01*
X-88463334Y87177620D01*
X-88558572Y87177620D01*
X-88701429Y87225239D01*
X-88796667Y87320477D01*
X-88844286Y87415715D01*
X-88891905Y87606191D01*
X-88891905Y87749048D01*
X-88844286Y87939524D01*
X-88796667Y88034762D01*
X-88701429Y88130000D01*
X-88558572Y88177620D01*
X-88463334Y88177620D01*
X-88320477Y88130000D01*
X-88272858Y88082381D01*
X-87844286Y87177620D02*
X-87844286Y87844286D01*
X-87844286Y87653810D02*
X-87796667Y87749048D01*
X-87749048Y87796667D01*
X-87653810Y87844286D01*
X-87558572Y87844286D01*
X-87320477Y87844286D02*
X-87082381Y87177620D01*
X-86844286Y87844286D02*
X-87082381Y87177620D01*
X-87177620Y86939524D01*
X-87225239Y86891905D01*
X-87320477Y86844286D01*
X-86510953Y87225239D02*
X-86415715Y87177620D01*
X-86225239Y87177620D01*
X-86130000Y87225239D01*
X-86082381Y87320477D01*
X-86082381Y87368096D01*
X-86130000Y87463334D01*
X-86225239Y87510953D01*
X-86368096Y87510953D01*
X-86463334Y87558572D01*
X-86510953Y87653810D01*
X-86510953Y87701429D01*
X-86463334Y87796667D01*
X-86368096Y87844286D01*
X-86225239Y87844286D01*
X-86130000Y87796667D01*
X-85796667Y87844286D02*
X-85415715Y87844286D01*
X-85653810Y88177620D02*
X-85653810Y87320477D01*
X-85606191Y87225239D01*
X-85510953Y87177620D01*
X-85415715Y87177620D01*
X-84653810Y87177620D02*
X-84653810Y87701429D01*
X-84701429Y87796667D01*
X-84796667Y87844286D01*
X-84987143Y87844286D01*
X-85082381Y87796667D01*
X-84653810Y87225239D02*
X-84749048Y87177620D01*
X-84987143Y87177620D01*
X-85082381Y87225239D01*
X-85130000Y87320477D01*
X-85130000Y87415715D01*
X-85082381Y87510953D01*
X-84987143Y87558572D01*
X-84749048Y87558572D01*
X-84653810Y87606191D01*
X-84034762Y87177620D02*
X-84130000Y87225239D01*
X-84177620Y87320477D01*
X-84177620Y88177620D01*
X-82701429Y87653810D02*
X-82701429Y87177620D01*
X-83034762Y88177620D02*
X-82701429Y87653810D01*
X-82368096Y88177620D01*
X-81510953Y87177620D02*
X-82082381Y87177620D01*
X-81796667Y87177620D02*
X-81796667Y88177620D01*
X-81891905Y88034762D01*
X-81987143Y87939524D01*
X-82082381Y87891905D01*
X-81890477Y51014286D02*
X-81890477Y50347620D01*
X-82128572Y51395239D02*
X-82366667Y50680953D01*
X-81747620Y50680953D01*
X-80604762Y50347620D02*
X-80604762Y51347620D01*
X-80223810Y51347620D01*
X-80128572Y51300000D01*
X-80080953Y51252381D01*
X-80033334Y51157143D01*
X-80033334Y51014286D01*
X-80080953Y50919048D01*
X-80128572Y50871429D01*
X-80223810Y50823810D01*
X-80604762Y50823810D01*
X-79604762Y50347620D02*
X-79604762Y51014286D01*
X-79604762Y51347620D02*
X-79652381Y51300000D01*
X-79604762Y51252381D01*
X-79557143Y51300000D01*
X-79604762Y51347620D01*
X-79604762Y51252381D01*
X-79128572Y51014286D02*
X-79128572Y50347620D01*
X-79128572Y50919048D02*
X-79080953Y50966667D01*
X-78985715Y51014286D01*
X-78842858Y51014286D01*
X-78747620Y50966667D01*
X-78700000Y50871429D01*
X-78700000Y50347620D01*
X-76890477Y50442858D02*
X-76938096Y50395239D01*
X-77080953Y50347620D01*
X-77176191Y50347620D01*
X-77319048Y50395239D01*
X-77414286Y50490477D01*
X-77461905Y50585715D01*
X-77509524Y50776191D01*
X-77509524Y50919048D01*
X-77461905Y51109524D01*
X-77414286Y51204762D01*
X-77319048Y51300000D01*
X-77176191Y51347620D01*
X-77080953Y51347620D01*
X-76938096Y51300000D01*
X-76890477Y51252381D01*
X-76461905Y50347620D02*
X-76461905Y51014286D01*
X-76461905Y50823810D02*
X-76414286Y50919048D01*
X-76366667Y50966667D01*
X-76271429Y51014286D01*
X-76176191Y51014286D01*
X-75938096Y51014286D02*
X-75700000Y50347620D01*
X-75461905Y51014286D02*
X-75700000Y50347620D01*
X-75795239Y50109524D01*
X-75842858Y50061905D01*
X-75938096Y50014286D01*
X-75128572Y50395239D02*
X-75033334Y50347620D01*
X-74842858Y50347620D01*
X-74747620Y50395239D01*
X-74700000Y50490477D01*
X-74700000Y50538096D01*
X-74747620Y50633334D01*
X-74842858Y50680953D01*
X-74985715Y50680953D01*
X-75080953Y50728572D01*
X-75128572Y50823810D01*
X-75128572Y50871429D01*
X-75080953Y50966667D01*
X-74985715Y51014286D01*
X-74842858Y51014286D01*
X-74747620Y50966667D01*
X-74414286Y51014286D02*
X-74033334Y51014286D01*
X-74271429Y51347620D02*
X-74271429Y50490477D01*
X-74223810Y50395239D01*
X-74128572Y50347620D01*
X-74033334Y50347620D01*
X-73271429Y50347620D02*
X-73271429Y50871429D01*
X-73319048Y50966667D01*
X-73414286Y51014286D01*
X-73604762Y51014286D01*
X-73700000Y50966667D01*
X-73271429Y50395239D02*
X-73366667Y50347620D01*
X-73604762Y50347620D01*
X-73700000Y50395239D01*
X-73747620Y50490477D01*
X-73747620Y50585715D01*
X-73700000Y50680953D01*
X-73604762Y50728572D01*
X-73366667Y50728572D01*
X-73271429Y50776191D01*
X-72652381Y50347620D02*
X-72747620Y50395239D01*
X-72795239Y50490477D01*
X-72795239Y51347620D01*
X-71604762Y51347620D02*
X-70938096Y50347620D01*
X-70938096Y51347620D02*
X-71604762Y50347620D01*
X-70033334Y50347620D02*
X-70604762Y50347620D01*
X-70319048Y50347620D02*
X-70319048Y51347620D01*
X-70414286Y51204762D01*
X-70509524Y51109524D01*
X-70604762Y51061905D01*
X-33058572Y84637620D02*
X-33058572Y85637620D01*
X-33058572Y84685239D02*
X-33153810Y84637620D01*
X-33344286Y84637620D01*
X-33439524Y84685239D01*
X-33487143Y84732858D01*
X-33534762Y84828096D01*
X-33534762Y85113810D01*
X-33487143Y85209048D01*
X-33439524Y85256667D01*
X-33344286Y85304286D01*
X-33153810Y85304286D01*
X-33058572Y85256667D01*
X-32725239Y85304286D02*
X-32344286Y85304286D01*
X-32582381Y85637620D02*
X-32582381Y84780477D01*
X-32534762Y84685239D01*
X-32439524Y84637620D01*
X-32344286Y84637620D01*
X-32106191Y85637620D02*
X-31439524Y85637620D01*
X-32106191Y84637620D01*
X-31439524Y84637620D01*
X-30915715Y85209048D02*
X-31010953Y85256667D01*
X-31058572Y85304286D01*
X-31106191Y85399524D01*
X-31106191Y85447143D01*
X-31058572Y85542381D01*
X-31010953Y85590000D01*
X-30915715Y85637620D01*
X-30725239Y85637620D01*
X-30630000Y85590000D01*
X-30582381Y85542381D01*
X-30534762Y85447143D01*
X-30534762Y85399524D01*
X-30582381Y85304286D01*
X-30630000Y85256667D01*
X-30725239Y85209048D01*
X-30915715Y85209048D01*
X-31010953Y85161429D01*
X-31058572Y85113810D01*
X-31106191Y85018572D01*
X-31106191Y84828096D01*
X-31058572Y84732858D01*
X-31010953Y84685239D01*
X-30915715Y84637620D01*
X-30725239Y84637620D01*
X-30630000Y84685239D01*
X-30582381Y84732858D01*
X-30534762Y84828096D01*
X-30534762Y85018572D01*
X-30582381Y85113810D01*
X-30630000Y85161429D01*
X-30725239Y85209048D01*
X-29915715Y85637620D02*
X-29820477Y85637620D01*
X-29725239Y85590000D01*
X-29677620Y85542381D01*
X-29630000Y85447143D01*
X-29582381Y85256667D01*
X-29582381Y85018572D01*
X-29630000Y84828096D01*
X-29677620Y84732858D01*
X-29725239Y84685239D01*
X-29820477Y84637620D01*
X-29915715Y84637620D01*
X-30010953Y84685239D01*
X-30058572Y84732858D01*
X-30106191Y84828096D01*
X-30153810Y85018572D01*
X-30153810Y85256667D01*
X-30106191Y85447143D01*
X-30058572Y85542381D01*
X-30010953Y85590000D01*
X-29915715Y85637620D01*
X-27820477Y84732858D02*
X-27868096Y84685239D01*
X-28010953Y84637620D01*
X-28106191Y84637620D01*
X-28249048Y84685239D01*
X-28344286Y84780477D01*
X-28391905Y84875715D01*
X-28439524Y85066191D01*
X-28439524Y85209048D01*
X-28391905Y85399524D01*
X-28344286Y85494762D01*
X-28249048Y85590000D01*
X-28106191Y85637620D01*
X-28010953Y85637620D01*
X-27868096Y85590000D01*
X-27820477Y85542381D01*
X-27391905Y84637620D02*
X-27391905Y85637620D01*
X-27010953Y85637620D01*
X-26915715Y85590000D01*
X-26868096Y85542381D01*
X-26820477Y85447143D01*
X-26820477Y85304286D01*
X-26868096Y85209048D01*
X-26915715Y85161429D01*
X-27010953Y85113810D01*
X-27391905Y85113810D01*
X-26391905Y85637620D02*
X-26391905Y84828096D01*
X-26344286Y84732858D01*
X-26296667Y84685239D01*
X-26201429Y84637620D01*
X-26010953Y84637620D01*
X-25915715Y84685239D01*
X-25868096Y84732858D01*
X-25820477Y84828096D01*
X-25820477Y85637620D01*
X-23772858Y84637620D02*
X-23820477Y84637620D01*
X-23915715Y84685239D01*
X-24058572Y84828096D01*
X-24296667Y85113810D01*
X-24391905Y85256667D01*
X-24439524Y85399524D01*
X-24439524Y85494762D01*
X-24391905Y85590000D01*
X-24296667Y85637620D01*
X-24249048Y85637620D01*
X-24153810Y85590000D01*
X-24106191Y85494762D01*
X-24106191Y85447143D01*
X-24153810Y85351905D01*
X-24201429Y85304286D01*
X-24487143Y85113810D01*
X-24534762Y85066191D01*
X-24582381Y84970953D01*
X-24582381Y84828096D01*
X-24534762Y84732858D01*
X-24487143Y84685239D01*
X-24391905Y84637620D01*
X-24249048Y84637620D01*
X-24153810Y84685239D01*
X-24106191Y84732858D01*
X-23963334Y84923334D01*
X-23915715Y85066191D01*
X-23915715Y85161429D01*
X-22010953Y84637620D02*
X-22344286Y85113810D01*
X-22582381Y84637620D02*
X-22582381Y85637620D01*
X-22201429Y85637620D01*
X-22106191Y85590000D01*
X-22058572Y85542381D01*
X-22010953Y85447143D01*
X-22010953Y85304286D01*
X-22058572Y85209048D01*
X-22106191Y85161429D01*
X-22201429Y85113810D01*
X-22582381Y85113810D01*
X-21391905Y85637620D02*
X-21201429Y85637620D01*
X-21106191Y85590000D01*
X-21010953Y85494762D01*
X-20963334Y85304286D01*
X-20963334Y84970953D01*
X-21010953Y84780477D01*
X-21106191Y84685239D01*
X-21201429Y84637620D01*
X-21391905Y84637620D01*
X-21487143Y84685239D01*
X-21582381Y84780477D01*
X-21630000Y84970953D01*
X-21630000Y85304286D01*
X-21582381Y85494762D01*
X-21487143Y85590000D01*
X-21391905Y85637620D01*
X-20534762Y84637620D02*
X-20534762Y85637620D01*
X-20201429Y84923334D01*
X-19868096Y85637620D01*
X-19868096Y84637620D01*
X-18296667Y85161429D02*
X-18153810Y85113810D01*
X-18106191Y85066191D01*
X-18058572Y84970953D01*
X-18058572Y84828096D01*
X-18106191Y84732858D01*
X-18153810Y84685239D01*
X-18249048Y84637620D01*
X-18630000Y84637620D01*
X-18630000Y85637620D01*
X-18296667Y85637620D01*
X-18201429Y85590000D01*
X-18153810Y85542381D01*
X-18106191Y85447143D01*
X-18106191Y85351905D01*
X-18153810Y85256667D01*
X-18201429Y85209048D01*
X-18296667Y85161429D01*
X-18630000Y85161429D01*
X-17487143Y84637620D02*
X-17582381Y84685239D01*
X-17630000Y84732858D01*
X-17677620Y84828096D01*
X-17677620Y85113810D01*
X-17630000Y85209048D01*
X-17582381Y85256667D01*
X-17487143Y85304286D01*
X-17344286Y85304286D01*
X-17249048Y85256667D01*
X-17201429Y85209048D01*
X-17153810Y85113810D01*
X-17153810Y84828096D01*
X-17201429Y84732858D01*
X-17249048Y84685239D01*
X-17344286Y84637620D01*
X-17487143Y84637620D01*
X-16296667Y84637620D02*
X-16296667Y85161429D01*
X-16344286Y85256667D01*
X-16439524Y85304286D01*
X-16630000Y85304286D01*
X-16725239Y85256667D01*
X-16296667Y84685239D02*
X-16391905Y84637620D01*
X-16630000Y84637620D01*
X-16725239Y84685239D01*
X-16772858Y84780477D01*
X-16772858Y84875715D01*
X-16725239Y84970953D01*
X-16630000Y85018572D01*
X-16391905Y85018572D01*
X-16296667Y85066191D01*
X-15820477Y84637620D02*
X-15820477Y85304286D01*
X-15820477Y85113810D02*
X-15772858Y85209048D01*
X-15725239Y85256667D01*
X-15630000Y85304286D01*
X-15534762Y85304286D01*
X-14772858Y84637620D02*
X-14772858Y85637620D01*
X-14772858Y84685239D02*
X-14868096Y84637620D01*
X-15058572Y84637620D01*
X-15153810Y84685239D01*
X-15201429Y84732858D01*
X-15249048Y84828096D01*
X-15249048Y85113810D01*
X-15201429Y85209048D01*
X-15153810Y85256667D01*
X-15058572Y85304286D01*
X-14868096Y85304286D01*
X-14772858Y85256667D01*
D11*
X-11430000Y0D02*
X-139700000Y0D01*
X-11430000Y88900000D02*
X-11430000Y0D01*
X-139700000Y88900000D02*
X-139700000Y0D01*
X-11430000Y88900000D02*
X-139700000Y88900000D01*
D12*
X-99510000Y76780000D02*
X-94810000Y76780000D01*
X-99510000Y73080000D02*
X-94810000Y73080000D01*
X-94810000Y73080000D02*
G75*
G03*
X-94810000Y76780000I0J1850000D01*
G01*
X-99510000Y73080000D02*
G75*
G02*
X-99510000Y76780000I0J1850000D01*
G01*
X-27820000Y55820000D02*
X-27820000Y73720000D01*
X-63620000Y55820000D02*
X-27820000Y55820000D01*
X-63620000Y73720000D02*
X-63620000Y55820000D01*
X-27820000Y73720000D02*
X-63620000Y73720000D01*
X-27880000Y58310000D02*
X-27880000Y63770000D01*
X-63560000Y58310000D02*
X-27880000Y58310000D01*
X-63560000Y71230000D02*
X-63560000Y58310000D01*
X-27880000Y71230000D02*
X-63560000Y71230000D01*
X-27880000Y65770000D02*
X-27880000Y71230000D01*
X-27880000Y63770000D02*
G75*
G02*
X-27880000Y65770000I0J1000000D01*
G01*
X-100430000Y53960000D02*
X-100430000Y41810000D01*
X-88280000Y54710000D02*
X-99680000Y54710000D01*
X-87530000Y42560000D02*
X-87530000Y53960000D01*
X-100430000Y41810000D02*
X-88280000Y41810000D01*
X-99680000Y54710000D02*
G75*
G03*
X-100430000Y53960000I0J-750000D01*
G01*
X-87530000Y53960000D02*
G75*
G03*
X-88280000Y54710000I-750000J0D01*
G01*
X-88280000Y41810000D02*
G75*
G03*
X-87530000Y42560000I0J750000D01*
G01*
X-60690000Y35620000D02*
X-62340000Y35620000D01*
X-62340000Y35620000D02*
X-62340000Y17720000D01*
X-62340000Y17720000D02*
X-57040000Y17720000D01*
X-57040000Y17720000D02*
X-57040000Y35620000D01*
X-57040000Y35620000D02*
X-58690000Y35620000D01*
X-58690000Y35620000D02*
G75*
G02*
X-60690000Y35620000I-1000000J0D01*
G01*
X-127060000Y25670000D02*
X-127060000Y20210000D01*
X-127060000Y20210000D02*
X-76140000Y20210000D01*
X-76140000Y20210000D02*
X-76140000Y33130000D01*
X-76140000Y33130000D02*
X-127060000Y33130000D01*
X-127060000Y33130000D02*
X-127060000Y27670000D01*
X-127060000Y27670000D02*
G75*
G02*
X-127060000Y25670000I0J-1000000D01*
G01*
X-74870000Y59750000D02*
X-77530000Y59750000D01*
X-74870000Y57150000D02*
X-74870000Y59750000D01*
X-77530000Y57150000D02*
X-77530000Y59750000D01*
X-74870000Y57150000D02*
X-77530000Y57150000D01*
X-74870000Y55880000D02*
X-74870000Y54550000D01*
X-74870000Y54550000D02*
X-76200000Y54550000D01*
X-14120000Y66410000D02*
X-14120000Y63170000D01*
X-16360000Y66410000D02*
X-16360000Y63170000D01*
X-14120000Y66410000D02*
X-14185000Y66410000D01*
X-16295000Y66410000D02*
X-16360000Y66410000D01*
X-14120000Y63170000D02*
X-14185000Y63170000D01*
X-16295000Y63170000D02*
X-16360000Y63170000D01*
X-133500000Y28310000D02*
X-133500000Y25070000D01*
X-135740000Y28310000D02*
X-135740000Y25070000D01*
X-133500000Y28310000D02*
X-133565000Y28310000D01*
X-135675000Y28310000D02*
X-135740000Y28310000D01*
X-133500000Y25070000D02*
X-133565000Y25070000D01*
X-135675000Y25070000D02*
X-135740000Y25070000D01*
X-70220000Y12550000D02*
X-66980000Y12550000D01*
X-70220000Y10310000D02*
X-66980000Y10310000D01*
X-70220000Y12550000D02*
X-70220000Y12485000D01*
X-70220000Y10375000D02*
X-70220000Y10310000D01*
X-66980000Y12550000D02*
X-66980000Y12485000D01*
X-66980000Y10375000D02*
X-66980000Y10310000D01*
X-123250000Y76470000D02*
X-123250000Y74820000D01*
X-123250000Y74820000D02*
X-105350000Y74820000D01*
X-105350000Y74820000D02*
X-105350000Y80120000D01*
X-105350000Y80120000D02*
X-123250000Y80120000D01*
X-123250000Y80120000D02*
X-123250000Y78470000D01*
X-123310000Y72330000D02*
X-105290000Y72330000D01*
X-105290000Y72330000D02*
X-105290000Y82610000D01*
X-105290000Y82610000D02*
X-123310000Y82610000D01*
X-123310000Y82610000D02*
X-123310000Y72330000D01*
X-123250000Y78470000D02*
G75*
G02*
X-123250000Y76470000I0J-1000000D01*
G01*
X-77200000Y81340000D02*
X-78850000Y81340000D01*
X-78850000Y81340000D02*
X-78850000Y63440000D01*
X-78850000Y63440000D02*
X-73550000Y63440000D01*
X-73550000Y63440000D02*
X-73550000Y81340000D01*
X-73550000Y81340000D02*
X-75200000Y81340000D01*
X-81340000Y81400000D02*
X-81340000Y63380000D01*
X-81340000Y63380000D02*
X-71060000Y63380000D01*
X-71060000Y63380000D02*
X-71060000Y81400000D01*
X-71060000Y81400000D02*
X-81340000Y81400000D01*
X-75200000Y81340000D02*
G75*
G02*
X-77200000Y81340000I-1000000J0D01*
G01*
X-85710000Y74010000D02*
X-89550000Y74010000D01*
X-85710000Y75850000D02*
X-89550000Y75850000D01*
X-94600000Y80360000D02*
X-98440000Y80360000D01*
X-94600000Y82200000D02*
X-98440000Y82200000D01*
X-108010000Y49470000D02*
X-105350000Y49470000D01*
X-108010000Y52070000D02*
X-108010000Y49470000D01*
X-105350000Y52070000D02*
X-105350000Y49470000D01*
X-108010000Y52070000D02*
X-105350000Y52070000D01*
X-108010000Y53340000D02*
X-108010000Y54670000D01*
X-108010000Y54670000D02*
X-106680000Y54670000D01*
X-114360000Y49470000D02*
X-111700000Y49470000D01*
X-114360000Y52070000D02*
X-114360000Y49470000D01*
X-111700000Y52070000D02*
X-111700000Y49470000D01*
X-114360000Y52070000D02*
X-111700000Y52070000D01*
X-114360000Y53340000D02*
X-114360000Y54670000D01*
X-114360000Y54670000D02*
X-113030000Y54670000D01*
X-120710000Y49470000D02*
X-118050000Y49470000D01*
X-120710000Y52070000D02*
X-120710000Y49470000D01*
X-118050000Y52070000D02*
X-118050000Y49470000D01*
X-120710000Y52070000D02*
X-118050000Y52070000D01*
X-120710000Y53340000D02*
X-120710000Y54670000D01*
X-120710000Y54670000D02*
X-119380000Y54670000D01*
X-127060000Y49470000D02*
X-124400000Y49470000D01*
X-127060000Y52070000D02*
X-127060000Y49470000D01*
X-124400000Y52070000D02*
X-124400000Y49470000D01*
X-127060000Y52070000D02*
X-124400000Y52070000D01*
X-127060000Y53340000D02*
X-127060000Y54670000D01*
X-127060000Y54670000D02*
X-125730000Y54670000D01*
X-86300000Y85150000D02*
X-88960000Y85150000D01*
X-86300000Y82550000D02*
X-86300000Y85150000D01*
X-88960000Y82550000D02*
X-88960000Y85150000D01*
X-86300000Y82550000D02*
X-88960000Y82550000D01*
X-86300000Y81280000D02*
X-86300000Y79950000D01*
X-86300000Y79950000D02*
X-87630000Y79950000D01*
X-127060000Y6410000D02*
X-127060000Y3750000D01*
X-27940000Y6410000D02*
X-127060000Y6410000D01*
X-27940000Y3750000D02*
X-127060000Y3750000D01*
X-27940000Y6410000D02*
X-27940000Y3750000D01*
X-26670000Y6410000D02*
X-25340000Y6410000D01*
X-25340000Y6410000D02*
X-25340000Y5080000D01*
X-91640000Y67080000D02*
X-91640000Y62540000D01*
X-93780000Y67080000D02*
X-93780000Y62540000D01*
X-91640000Y67080000D02*
X-91655000Y67080000D01*
X-93765000Y67080000D02*
X-93780000Y67080000D01*
X-91640000Y62540000D02*
X-91655000Y62540000D01*
X-93765000Y62540000D02*
X-93780000Y62540000D01*
X-100530000Y67080000D02*
X-100530000Y62540000D01*
X-102670000Y67080000D02*
X-102670000Y62540000D01*
X-100530000Y67080000D02*
X-100545000Y67080000D01*
X-102655000Y67080000D02*
X-102670000Y67080000D01*
X-100530000Y62540000D02*
X-100545000Y62540000D01*
X-102655000Y62540000D02*
X-102670000Y62540000D01*
D10*
X-97636191Y77803810D02*
X-97636191Y77327620D01*
X-97969524Y78327620D02*
X-97636191Y77803810D01*
X-97302858Y78327620D01*
X-96445715Y77327620D02*
X-97017143Y77327620D01*
X-96731429Y77327620D02*
X-96731429Y78327620D01*
X-96826667Y78184762D01*
X-96921905Y78089524D01*
X-97017143Y78041905D01*
X-27427620Y64008096D02*
X-26618096Y64008096D01*
X-26522858Y64055715D01*
X-26475239Y64103334D01*
X-26427620Y64198572D01*
X-26427620Y64389048D01*
X-26475239Y64484286D01*
X-26522858Y64531905D01*
X-26618096Y64579524D01*
X-27427620Y64579524D01*
X-27332381Y65008096D02*
X-27380000Y65055715D01*
X-27427620Y65150953D01*
X-27427620Y65389048D01*
X-27380000Y65484286D01*
X-27332381Y65531905D01*
X-27237143Y65579524D01*
X-27141905Y65579524D01*
X-26999048Y65531905D01*
X-26427620Y64960477D01*
X-26427620Y65579524D01*
X-94789524Y56257620D02*
X-94122858Y55257620D01*
X-94122858Y56257620D02*
X-94789524Y55257620D01*
X-93218096Y55257620D02*
X-93789524Y55257620D01*
X-93503810Y55257620D02*
X-93503810Y56257620D01*
X-93599048Y56114762D01*
X-93694286Y56019524D01*
X-93789524Y55971905D01*
X-60451905Y37167620D02*
X-60451905Y36358096D01*
X-60404286Y36262858D01*
X-60356667Y36215239D01*
X-60261429Y36167620D01*
X-60070953Y36167620D01*
X-59975715Y36215239D01*
X-59928096Y36262858D01*
X-59880477Y36358096D01*
X-59880477Y37167620D01*
X-59499524Y37167620D02*
X-58880477Y37167620D01*
X-59213810Y36786667D01*
X-59070953Y36786667D01*
X-58975715Y36739048D01*
X-58928096Y36691429D01*
X-58880477Y36596191D01*
X-58880477Y36358096D01*
X-58928096Y36262858D01*
X-58975715Y36215239D01*
X-59070953Y36167620D01*
X-59356667Y36167620D01*
X-59451905Y36215239D01*
X-59499524Y36262858D01*
X-128607619Y25908096D02*
X-127798095Y25908096D01*
X-127702857Y25955715D01*
X-127655238Y26003334D01*
X-127607619Y26098572D01*
X-127607619Y26289048D01*
X-127655238Y26384286D01*
X-127702857Y26431905D01*
X-127798095Y26479524D01*
X-128607619Y26479524D01*
X-127607619Y27479524D02*
X-127607619Y26908096D01*
X-127607619Y27193810D02*
X-128607619Y27193810D01*
X-128464761Y27098572D01*
X-128369523Y27003334D01*
X-128321904Y26908096D01*
X-77033334Y54097620D02*
X-77033334Y53383334D01*
X-77080953Y53240477D01*
X-77176191Y53145239D01*
X-77319048Y53097620D01*
X-77414286Y53097620D01*
X-76557143Y53097620D02*
X-76557143Y54097620D01*
X-76176191Y54097620D01*
X-76080953Y54050000D01*
X-76033334Y54002381D01*
X-75985715Y53907143D01*
X-75985715Y53764286D01*
X-76033334Y53669048D01*
X-76080953Y53621429D01*
X-76176191Y53573810D01*
X-76557143Y53573810D01*
X-75033334Y53097620D02*
X-75604762Y53097620D01*
X-75319048Y53097620D02*
X-75319048Y54097620D01*
X-75414286Y53954762D01*
X-75509524Y53859524D01*
X-75604762Y53811905D01*
X-12632858Y64623334D02*
X-12585239Y64575715D01*
X-12537620Y64432858D01*
X-12537620Y64337620D01*
X-12585239Y64194762D01*
X-12680477Y64099524D01*
X-12775715Y64051905D01*
X-12966191Y64004286D01*
X-13109048Y64004286D01*
X-13299524Y64051905D01*
X-13394762Y64099524D01*
X-13490000Y64194762D01*
X-13537620Y64337620D01*
X-13537620Y64432858D01*
X-13490000Y64575715D01*
X-13442381Y64623334D01*
X-13537620Y64956667D02*
X-13537620Y65575715D01*
X-13156667Y65242381D01*
X-13156667Y65385239D01*
X-13109048Y65480477D01*
X-13061429Y65528096D01*
X-12966191Y65575715D01*
X-12728096Y65575715D01*
X-12632858Y65528096D01*
X-12585239Y65480477D01*
X-12537620Y65385239D01*
X-12537620Y65099524D01*
X-12585239Y65004286D01*
X-12632858Y64956667D01*
X-132012857Y26523334D02*
X-131965238Y26475715D01*
X-131917619Y26332858D01*
X-131917619Y26237620D01*
X-131965238Y26094762D01*
X-132060476Y25999524D01*
X-132155714Y25951905D01*
X-132346190Y25904286D01*
X-132489047Y25904286D01*
X-132679523Y25951905D01*
X-132774761Y25999524D01*
X-132870000Y26094762D01*
X-132917619Y26237620D01*
X-132917619Y26332858D01*
X-132870000Y26475715D01*
X-132822380Y26523334D01*
X-132822380Y26904286D02*
X-132870000Y26951905D01*
X-132917619Y27047143D01*
X-132917619Y27285239D01*
X-132870000Y27380477D01*
X-132822380Y27428096D01*
X-132727142Y27475715D01*
X-132631904Y27475715D01*
X-132489047Y27428096D01*
X-131917619Y26856667D01*
X-131917619Y27475715D01*
X-68766667Y13322858D02*
X-68814286Y13275239D01*
X-68957143Y13227620D01*
X-69052381Y13227620D01*
X-69195239Y13275239D01*
X-69290477Y13370477D01*
X-69338096Y13465715D01*
X-69385715Y13656191D01*
X-69385715Y13799048D01*
X-69338096Y13989524D01*
X-69290477Y14084762D01*
X-69195239Y14180000D01*
X-69052381Y14227620D01*
X-68957143Y14227620D01*
X-68814286Y14180000D01*
X-68766667Y14132381D01*
X-67814286Y13227620D02*
X-68385715Y13227620D01*
X-68100000Y13227620D02*
X-68100000Y14227620D01*
X-68195239Y14084762D01*
X-68290477Y13989524D01*
X-68385715Y13941905D01*
X-124797619Y76708096D02*
X-123988095Y76708096D01*
X-123892857Y76755715D01*
X-123845238Y76803334D01*
X-123797619Y76898572D01*
X-123797619Y77089048D01*
X-123845238Y77184286D01*
X-123892857Y77231905D01*
X-123988095Y77279524D01*
X-124797619Y77279524D01*
X-124797619Y78231905D02*
X-124797619Y77755715D01*
X-124321428Y77708096D01*
X-124369047Y77755715D01*
X-124416666Y77850953D01*
X-124416666Y78089048D01*
X-124369047Y78184286D01*
X-124321428Y78231905D01*
X-124226190Y78279524D01*
X-123988095Y78279524D01*
X-123892857Y78231905D01*
X-123845238Y78184286D01*
X-123797619Y78089048D01*
X-123797619Y77850953D01*
X-123845238Y77755715D01*
X-123892857Y77708096D01*
X-76961905Y82887620D02*
X-76961905Y82078096D01*
X-76914286Y81982858D01*
X-76866667Y81935239D01*
X-76771429Y81887620D01*
X-76580953Y81887620D01*
X-76485715Y81935239D01*
X-76438096Y81982858D01*
X-76390477Y82078096D01*
X-76390477Y82887620D01*
X-75485715Y82554286D02*
X-75485715Y81887620D01*
X-75723810Y82935239D02*
X-75961905Y82220953D01*
X-75342858Y82220953D01*
X-87796667Y72557620D02*
X-88130000Y73033810D01*
X-88368096Y72557620D02*
X-88368096Y73557620D01*
X-87987143Y73557620D01*
X-87891905Y73510000D01*
X-87844286Y73462381D01*
X-87796667Y73367143D01*
X-87796667Y73224286D01*
X-87844286Y73129048D01*
X-87891905Y73081429D01*
X-87987143Y73033810D01*
X-88368096Y73033810D01*
X-87415715Y73462381D02*
X-87368096Y73510000D01*
X-87272858Y73557620D01*
X-87034762Y73557620D01*
X-86939524Y73510000D01*
X-86891905Y73462381D01*
X-86844286Y73367143D01*
X-86844286Y73271905D01*
X-86891905Y73129048D01*
X-87463334Y72557620D01*
X-86844286Y72557620D01*
X-96686667Y78907620D02*
X-97020000Y79383810D01*
X-97258096Y78907620D02*
X-97258096Y79907620D01*
X-96877143Y79907620D01*
X-96781905Y79860000D01*
X-96734286Y79812381D01*
X-96686667Y79717143D01*
X-96686667Y79574286D01*
X-96734286Y79479048D01*
X-96781905Y79431429D01*
X-96877143Y79383810D01*
X-97258096Y79383810D01*
X-95734286Y78907620D02*
X-96305715Y78907620D01*
X-96020000Y78907620D02*
X-96020000Y79907620D01*
X-96115239Y79764762D01*
X-96210477Y79669524D01*
X-96305715Y79621905D01*
X-107513333Y56217620D02*
X-107513333Y55503334D01*
X-107560952Y55360477D01*
X-107656190Y55265239D01*
X-107799047Y55217620D01*
X-107894285Y55217620D01*
X-107037142Y55217620D02*
X-107037142Y56217620D01*
X-106656190Y56217620D01*
X-106560952Y56170000D01*
X-106513333Y56122381D01*
X-106465714Y56027143D01*
X-106465714Y55884286D01*
X-106513333Y55789048D01*
X-106560952Y55741429D01*
X-106656190Y55693810D01*
X-107037142Y55693810D01*
X-105608571Y56217620D02*
X-105799047Y56217620D01*
X-105894285Y56170000D01*
X-105941904Y56122381D01*
X-106037142Y55979524D01*
X-106084761Y55789048D01*
X-106084761Y55408096D01*
X-106037142Y55312858D01*
X-105989523Y55265239D01*
X-105894285Y55217620D01*
X-105703809Y55217620D01*
X-105608571Y55265239D01*
X-105560952Y55312858D01*
X-105513333Y55408096D01*
X-105513333Y55646191D01*
X-105560952Y55741429D01*
X-105608571Y55789048D01*
X-105703809Y55836667D01*
X-105894285Y55836667D01*
X-105989523Y55789048D01*
X-106037142Y55741429D01*
X-106084761Y55646191D01*
X-108918095Y46632858D02*
X-108965714Y46585239D01*
X-109108571Y46537620D01*
X-109203809Y46537620D01*
X-109346666Y46585239D01*
X-109441904Y46680477D01*
X-109489523Y46775715D01*
X-109537142Y46966191D01*
X-109537142Y47109048D01*
X-109489523Y47299524D01*
X-109441904Y47394762D01*
X-109346666Y47490000D01*
X-109203809Y47537620D01*
X-109108571Y47537620D01*
X-108965714Y47490000D01*
X-108918095Y47442381D01*
X-108346666Y46537620D02*
X-108441904Y46585239D01*
X-108489523Y46680477D01*
X-108489523Y47537620D01*
X-107822857Y46537620D02*
X-107918095Y46585239D01*
X-107965714Y46632858D01*
X-108013333Y46728096D01*
X-108013333Y47013810D01*
X-107965714Y47109048D01*
X-107918095Y47156667D01*
X-107822857Y47204286D01*
X-107680000Y47204286D01*
X-107584761Y47156667D01*
X-107537142Y47109048D01*
X-107489523Y47013810D01*
X-107489523Y46728096D01*
X-107537142Y46632858D01*
X-107584761Y46585239D01*
X-107680000Y46537620D01*
X-107822857Y46537620D01*
X-106632380Y46585239D02*
X-106727619Y46537620D01*
X-106918095Y46537620D01*
X-107013333Y46585239D01*
X-107060952Y46632858D01*
X-107108571Y46728096D01*
X-107108571Y47013810D01*
X-107060952Y47109048D01*
X-107013333Y47156667D01*
X-106918095Y47204286D01*
X-106727619Y47204286D01*
X-106632380Y47156667D01*
X-106203809Y46537620D02*
X-106203809Y47537620D01*
X-106108571Y46918572D02*
X-105822857Y46537620D01*
X-105822857Y47204286D02*
X-106203809Y46823334D01*
X-104680000Y47585239D02*
X-105537142Y46299524D01*
X-104203809Y47109048D02*
X-104299047Y47156667D01*
X-104346666Y47204286D01*
X-104394285Y47299524D01*
X-104394285Y47347143D01*
X-104346666Y47442381D01*
X-104299047Y47490000D01*
X-104203809Y47537620D01*
X-104013333Y47537620D01*
X-103918095Y47490000D01*
X-103870476Y47442381D01*
X-103822857Y47347143D01*
X-103822857Y47299524D01*
X-103870476Y47204286D01*
X-103918095Y47156667D01*
X-104013333Y47109048D01*
X-104203809Y47109048D01*
X-104299047Y47061429D01*
X-104346666Y47013810D01*
X-104394285Y46918572D01*
X-104394285Y46728096D01*
X-104346666Y46632858D01*
X-104299047Y46585239D01*
X-104203809Y46537620D01*
X-104013333Y46537620D01*
X-103918095Y46585239D01*
X-103870476Y46632858D01*
X-103822857Y46728096D01*
X-103822857Y46918572D01*
X-103870476Y47013810D01*
X-103918095Y47061429D01*
X-104013333Y47109048D01*
X-113863333Y56217620D02*
X-113863333Y55503334D01*
X-113910952Y55360477D01*
X-114006190Y55265239D01*
X-114149047Y55217620D01*
X-114244285Y55217620D01*
X-113387142Y55217620D02*
X-113387142Y56217620D01*
X-113006190Y56217620D01*
X-112910952Y56170000D01*
X-112863333Y56122381D01*
X-112815714Y56027143D01*
X-112815714Y55884286D01*
X-112863333Y55789048D01*
X-112910952Y55741429D01*
X-113006190Y55693810D01*
X-113387142Y55693810D01*
X-111910952Y56217620D02*
X-112387142Y56217620D01*
X-112434761Y55741429D01*
X-112387142Y55789048D01*
X-112291904Y55836667D01*
X-112053809Y55836667D01*
X-111958571Y55789048D01*
X-111910952Y55741429D01*
X-111863333Y55646191D01*
X-111863333Y55408096D01*
X-111910952Y55312858D01*
X-111958571Y55265239D01*
X-112053809Y55217620D01*
X-112291904Y55217620D01*
X-112387142Y55265239D01*
X-112434761Y55312858D01*
X-115268095Y48112858D02*
X-115315714Y48065239D01*
X-115458571Y48017620D01*
X-115553809Y48017620D01*
X-115696666Y48065239D01*
X-115791904Y48160477D01*
X-115839523Y48255715D01*
X-115887142Y48446191D01*
X-115887142Y48589048D01*
X-115839523Y48779524D01*
X-115791904Y48874762D01*
X-115696666Y48970000D01*
X-115553809Y49017620D01*
X-115458571Y49017620D01*
X-115315714Y48970000D01*
X-115268095Y48922381D01*
X-114696666Y48017620D02*
X-114791904Y48065239D01*
X-114839523Y48160477D01*
X-114839523Y49017620D01*
X-114172857Y48017620D02*
X-114268095Y48065239D01*
X-114315714Y48112858D01*
X-114363333Y48208096D01*
X-114363333Y48493810D01*
X-114315714Y48589048D01*
X-114268095Y48636667D01*
X-114172857Y48684286D01*
X-114030000Y48684286D01*
X-113934761Y48636667D01*
X-113887142Y48589048D01*
X-113839523Y48493810D01*
X-113839523Y48208096D01*
X-113887142Y48112858D01*
X-113934761Y48065239D01*
X-114030000Y48017620D01*
X-114172857Y48017620D01*
X-112982380Y48065239D02*
X-113077619Y48017620D01*
X-113268095Y48017620D01*
X-113363333Y48065239D01*
X-113410952Y48112858D01*
X-113458571Y48208096D01*
X-113458571Y48493810D01*
X-113410952Y48589048D01*
X-113363333Y48636667D01*
X-113268095Y48684286D01*
X-113077619Y48684286D01*
X-112982380Y48636667D01*
X-112553809Y48017620D02*
X-112553809Y49017620D01*
X-112458571Y48398572D02*
X-112172857Y48017620D01*
X-112172857Y48684286D02*
X-112553809Y48303334D01*
X-111030000Y49065239D02*
X-111887142Y47779524D01*
X-110268095Y48684286D02*
X-110268095Y48017620D01*
X-110506190Y49065239D02*
X-110744285Y48350953D01*
X-110125238Y48350953D01*
X-120213333Y56217620D02*
X-120213333Y55503334D01*
X-120260952Y55360477D01*
X-120356190Y55265239D01*
X-120499047Y55217620D01*
X-120594285Y55217620D01*
X-119737142Y55217620D02*
X-119737142Y56217620D01*
X-119356190Y56217620D01*
X-119260952Y56170000D01*
X-119213333Y56122381D01*
X-119165714Y56027143D01*
X-119165714Y55884286D01*
X-119213333Y55789048D01*
X-119260952Y55741429D01*
X-119356190Y55693810D01*
X-119737142Y55693810D01*
X-118308571Y55884286D02*
X-118308571Y55217620D01*
X-118546666Y56265239D02*
X-118784761Y55550953D01*
X-118165714Y55550953D01*
X-121618095Y46632858D02*
X-121665714Y46585239D01*
X-121808571Y46537620D01*
X-121903809Y46537620D01*
X-122046666Y46585239D01*
X-122141904Y46680477D01*
X-122189523Y46775715D01*
X-122237142Y46966191D01*
X-122237142Y47109048D01*
X-122189523Y47299524D01*
X-122141904Y47394762D01*
X-122046666Y47490000D01*
X-121903809Y47537620D01*
X-121808571Y47537620D01*
X-121665714Y47490000D01*
X-121618095Y47442381D01*
X-121046666Y46537620D02*
X-121141904Y46585239D01*
X-121189523Y46680477D01*
X-121189523Y47537620D01*
X-120522857Y46537620D02*
X-120618095Y46585239D01*
X-120665714Y46632858D01*
X-120713333Y46728096D01*
X-120713333Y47013810D01*
X-120665714Y47109048D01*
X-120618095Y47156667D01*
X-120522857Y47204286D01*
X-120380000Y47204286D01*
X-120284761Y47156667D01*
X-120237142Y47109048D01*
X-120189523Y47013810D01*
X-120189523Y46728096D01*
X-120237142Y46632858D01*
X-120284761Y46585239D01*
X-120380000Y46537620D01*
X-120522857Y46537620D01*
X-119332380Y46585239D02*
X-119427619Y46537620D01*
X-119618095Y46537620D01*
X-119713333Y46585239D01*
X-119760952Y46632858D01*
X-119808571Y46728096D01*
X-119808571Y47013810D01*
X-119760952Y47109048D01*
X-119713333Y47156667D01*
X-119618095Y47204286D01*
X-119427619Y47204286D01*
X-119332380Y47156667D01*
X-118903809Y46537620D02*
X-118903809Y47537620D01*
X-118808571Y46918572D02*
X-118522857Y46537620D01*
X-118522857Y47204286D02*
X-118903809Y46823334D01*
X-117380000Y47585239D02*
X-118237142Y46299524D01*
X-117094285Y47442381D02*
X-117046666Y47490000D01*
X-116951428Y47537620D01*
X-116713333Y47537620D01*
X-116618095Y47490000D01*
X-116570476Y47442381D01*
X-116522857Y47347143D01*
X-116522857Y47251905D01*
X-116570476Y47109048D01*
X-117141904Y46537620D01*
X-116522857Y46537620D01*
X-126563333Y56217620D02*
X-126563333Y55503334D01*
X-126610952Y55360477D01*
X-126706190Y55265239D01*
X-126849047Y55217620D01*
X-126944285Y55217620D01*
X-126087142Y55217620D02*
X-126087142Y56217620D01*
X-125706190Y56217620D01*
X-125610952Y56170000D01*
X-125563333Y56122381D01*
X-125515714Y56027143D01*
X-125515714Y55884286D01*
X-125563333Y55789048D01*
X-125610952Y55741429D01*
X-125706190Y55693810D01*
X-126087142Y55693810D01*
X-125182380Y56217620D02*
X-124563333Y56217620D01*
X-124896666Y55836667D01*
X-124753809Y55836667D01*
X-124658571Y55789048D01*
X-124610952Y55741429D01*
X-124563333Y55646191D01*
X-124563333Y55408096D01*
X-124610952Y55312858D01*
X-124658571Y55265239D01*
X-124753809Y55217620D01*
X-125039523Y55217620D01*
X-125134761Y55265239D01*
X-125182380Y55312858D01*
X-129372857Y48541429D02*
X-129230000Y48493810D01*
X-129182380Y48446191D01*
X-129134761Y48350953D01*
X-129134761Y48208096D01*
X-129182380Y48112858D01*
X-129230000Y48065239D01*
X-129325238Y48017620D01*
X-129706190Y48017620D01*
X-129706190Y49017620D01*
X-129372857Y49017620D01*
X-129277619Y48970000D01*
X-129230000Y48922381D01*
X-129182380Y48827143D01*
X-129182380Y48731905D01*
X-129230000Y48636667D01*
X-129277619Y48589048D01*
X-129372857Y48541429D01*
X-129706190Y48541429D01*
X-128277619Y48017620D02*
X-128277619Y48541429D01*
X-128325238Y48636667D01*
X-128420476Y48684286D01*
X-128610952Y48684286D01*
X-128706190Y48636667D01*
X-128277619Y48065239D02*
X-128372857Y48017620D01*
X-128610952Y48017620D01*
X-128706190Y48065239D01*
X-128753809Y48160477D01*
X-128753809Y48255715D01*
X-128706190Y48350953D01*
X-128610952Y48398572D01*
X-128372857Y48398572D01*
X-128277619Y48446191D01*
X-127849047Y48065239D02*
X-127753809Y48017620D01*
X-127563333Y48017620D01*
X-127468095Y48065239D01*
X-127420476Y48160477D01*
X-127420476Y48208096D01*
X-127468095Y48303334D01*
X-127563333Y48350953D01*
X-127706190Y48350953D01*
X-127801428Y48398572D01*
X-127849047Y48493810D01*
X-127849047Y48541429D01*
X-127801428Y48636667D01*
X-127706190Y48684286D01*
X-127563333Y48684286D01*
X-127468095Y48636667D01*
X-126610952Y48065239D02*
X-126706190Y48017620D01*
X-126896666Y48017620D01*
X-126991904Y48065239D01*
X-127039523Y48160477D01*
X-127039523Y48541429D01*
X-126991904Y48636667D01*
X-126896666Y48684286D01*
X-126706190Y48684286D01*
X-126610952Y48636667D01*
X-126563333Y48541429D01*
X-126563333Y48446191D01*
X-127039523Y48350953D01*
X-124801428Y48112858D02*
X-124849047Y48065239D01*
X-124991904Y48017620D01*
X-125087142Y48017620D01*
X-125230000Y48065239D01*
X-125325238Y48160477D01*
X-125372857Y48255715D01*
X-125420476Y48446191D01*
X-125420476Y48589048D01*
X-125372857Y48779524D01*
X-125325238Y48874762D01*
X-125230000Y48970000D01*
X-125087142Y49017620D01*
X-124991904Y49017620D01*
X-124849047Y48970000D01*
X-124801428Y48922381D01*
X-124230000Y48017620D02*
X-124325238Y48065239D01*
X-124372857Y48160477D01*
X-124372857Y49017620D01*
X-123706190Y48017620D02*
X-123801428Y48065239D01*
X-123849047Y48112858D01*
X-123896666Y48208096D01*
X-123896666Y48493810D01*
X-123849047Y48589048D01*
X-123801428Y48636667D01*
X-123706190Y48684286D01*
X-123563333Y48684286D01*
X-123468095Y48636667D01*
X-123420476Y48589048D01*
X-123372857Y48493810D01*
X-123372857Y48208096D01*
X-123420476Y48112858D01*
X-123468095Y48065239D01*
X-123563333Y48017620D01*
X-123706190Y48017620D01*
X-122515714Y48065239D02*
X-122610952Y48017620D01*
X-122801428Y48017620D01*
X-122896666Y48065239D01*
X-122944285Y48112858D01*
X-122991904Y48208096D01*
X-122991904Y48493810D01*
X-122944285Y48589048D01*
X-122896666Y48636667D01*
X-122801428Y48684286D01*
X-122610952Y48684286D01*
X-122515714Y48636667D01*
X-122087142Y48017620D02*
X-122087142Y49017620D01*
X-121991904Y48398572D02*
X-121706190Y48017620D01*
X-121706190Y48684286D02*
X-122087142Y48303334D01*
X-88463334Y79497620D02*
X-88463334Y78783334D01*
X-88510953Y78640477D01*
X-88606191Y78545239D01*
X-88749048Y78497620D01*
X-88844286Y78497620D01*
X-87987143Y78497620D02*
X-87987143Y79497620D01*
X-87606191Y79497620D01*
X-87510953Y79450000D01*
X-87463334Y79402381D01*
X-87415715Y79307143D01*
X-87415715Y79164286D01*
X-87463334Y79069048D01*
X-87510953Y79021429D01*
X-87606191Y78973810D01*
X-87987143Y78973810D01*
X-87034762Y79402381D02*
X-86987143Y79450000D01*
X-86891905Y79497620D01*
X-86653810Y79497620D01*
X-86558572Y79450000D01*
X-86510953Y79402381D01*
X-86463334Y79307143D01*
X-86463334Y79211905D01*
X-86510953Y79069048D01*
X-87082381Y78497620D01*
X-86463334Y78497620D01*
X-24887620Y4746667D02*
X-24173334Y4746667D01*
X-24030477Y4699048D01*
X-23935239Y4603810D01*
X-23887620Y4460953D01*
X-23887620Y4365715D01*
X-23887620Y5746667D02*
X-23887620Y5175239D01*
X-23887620Y5460953D02*
X-24887620Y5460953D01*
X-24744762Y5365715D01*
X-24649524Y5270477D01*
X-24601905Y5175239D01*
X-90152858Y64643334D02*
X-90105239Y64595715D01*
X-90057620Y64452858D01*
X-90057620Y64357620D01*
X-90105239Y64214762D01*
X-90200477Y64119524D01*
X-90295715Y64071905D01*
X-90486191Y64024286D01*
X-90629048Y64024286D01*
X-90819524Y64071905D01*
X-90914762Y64119524D01*
X-91010000Y64214762D01*
X-91057620Y64357620D01*
X-91057620Y64452858D01*
X-91010000Y64595715D01*
X-90962381Y64643334D01*
X-91057620Y65548096D02*
X-91057620Y65071905D01*
X-90581429Y65024286D01*
X-90629048Y65071905D01*
X-90676667Y65167143D01*
X-90676667Y65405239D01*
X-90629048Y65500477D01*
X-90581429Y65548096D01*
X-90486191Y65595715D01*
X-90248096Y65595715D01*
X-90152858Y65548096D01*
X-90105239Y65500477D01*
X-90057620Y65405239D01*
X-90057620Y65167143D01*
X-90105239Y65071905D01*
X-90152858Y65024286D01*
X-99042858Y64643334D02*
X-98995239Y64595715D01*
X-98947620Y64452858D01*
X-98947620Y64357620D01*
X-98995239Y64214762D01*
X-99090477Y64119524D01*
X-99185715Y64071905D01*
X-99376191Y64024286D01*
X-99519048Y64024286D01*
X-99709524Y64071905D01*
X-99804762Y64119524D01*
X-99900000Y64214762D01*
X-99947620Y64357620D01*
X-99947620Y64452858D01*
X-99900000Y64595715D01*
X-99852381Y64643334D01*
X-99614286Y65500477D02*
X-98947620Y65500477D01*
X-99995239Y65262381D02*
X-99280953Y65024286D01*
X-99280953Y65643334D01*
M02*
