G04 #@! TF.GenerationSoftware,KiCad,Pcbnew,5.1.8-db9833491~88~ubuntu20.04.1*
G04 #@! TF.CreationDate,2020-12-16T12:57:10+01:00*
G04 #@! TF.ProjectId,dtZ80-memory,64745a38-302d-46d6-956d-6f72792e6b69,rev?*
G04 #@! TF.SameCoordinates,Original*
G04 #@! TF.FileFunction,Copper,L2,Bot*
G04 #@! TF.FilePolarity,Positive*
%FSLAX46Y46*%
G04 Gerber Fmt 4.6, Leading zero omitted, Abs format (unit mm)*
G04 Created by KiCad (PCBNEW 5.1.8-db9833491~88~ubuntu20.04.1) date 2020-12-16 12:57:10*
%MOMM*%
%LPD*%
G01*
G04 APERTURE LIST*
G04 #@! TA.AperFunction,NonConductor*
%ADD10C,0.300000*%
G04 #@! TD*
G04 #@! TA.AperFunction,ComponentPad*
%ADD11O,1.600000X1.600000*%
G04 #@! TD*
G04 #@! TA.AperFunction,ComponentPad*
%ADD12R,1.600000X1.600000*%
G04 #@! TD*
G04 #@! TA.AperFunction,ComponentPad*
%ADD13O,1.700000X1.700000*%
G04 #@! TD*
G04 #@! TA.AperFunction,ComponentPad*
%ADD14R,1.700000X1.700000*%
G04 #@! TD*
G04 #@! TA.AperFunction,ComponentPad*
%ADD15C,1.600000*%
G04 #@! TD*
G04 #@! TA.AperFunction,ViaPad*
%ADD16C,0.800000*%
G04 #@! TD*
G04 #@! TA.AperFunction,Conductor*
%ADD17C,0.250000*%
G04 #@! TD*
G04 #@! TA.AperFunction,Conductor*
%ADD18C,0.500000*%
G04 #@! TD*
G04 #@! TA.AperFunction,Conductor*
%ADD19C,0.254000*%
G04 #@! TD*
G04 #@! TA.AperFunction,Conductor*
%ADD20C,0.100000*%
G04 #@! TD*
G04 APERTURE END LIST*
D10*
X179217142Y-102278571D02*
X178717142Y-101564285D01*
X178360000Y-102278571D02*
X178360000Y-100778571D01*
X178931428Y-100778571D01*
X179074285Y-100850000D01*
X179145714Y-100921428D01*
X179217142Y-101064285D01*
X179217142Y-101278571D01*
X179145714Y-101421428D01*
X179074285Y-101492857D01*
X178931428Y-101564285D01*
X178360000Y-101564285D01*
X180431428Y-102207142D02*
X180288571Y-102278571D01*
X180002857Y-102278571D01*
X179860000Y-102207142D01*
X179788571Y-102064285D01*
X179788571Y-101492857D01*
X179860000Y-101350000D01*
X180002857Y-101278571D01*
X180288571Y-101278571D01*
X180431428Y-101350000D01*
X180502857Y-101492857D01*
X180502857Y-101635714D01*
X179788571Y-101778571D01*
X181002857Y-101278571D02*
X181360000Y-102278571D01*
X181717142Y-101278571D01*
X182288571Y-102135714D02*
X182360000Y-102207142D01*
X182288571Y-102278571D01*
X182217142Y-102207142D01*
X182288571Y-102135714D01*
X182288571Y-102278571D01*
X184931428Y-102278571D02*
X184074285Y-102278571D01*
X184502857Y-102278571D02*
X184502857Y-100778571D01*
X184360000Y-100992857D01*
X184217142Y-101135714D01*
X184074285Y-101207142D01*
X79007142Y-126163571D02*
X79935714Y-126163571D01*
X79435714Y-126735000D01*
X79650000Y-126735000D01*
X79792857Y-126806428D01*
X79864285Y-126877857D01*
X79935714Y-127020714D01*
X79935714Y-127377857D01*
X79864285Y-127520714D01*
X79792857Y-127592142D01*
X79650000Y-127663571D01*
X79221428Y-127663571D01*
X79078571Y-127592142D01*
X79007142Y-127520714D01*
X80507142Y-126306428D02*
X80578571Y-126235000D01*
X80721428Y-126163571D01*
X81078571Y-126163571D01*
X81221428Y-126235000D01*
X81292857Y-126306428D01*
X81364285Y-126449285D01*
X81364285Y-126592142D01*
X81292857Y-126806428D01*
X80435714Y-127663571D01*
X81364285Y-127663571D01*
X82007142Y-127663571D02*
X82007142Y-126163571D01*
X82864285Y-127663571D02*
X82221428Y-126806428D01*
X82864285Y-126163571D02*
X82007142Y-127020714D01*
X84650000Y-127663571D02*
X84650000Y-126163571D01*
X85150000Y-127235000D01*
X85650000Y-126163571D01*
X85650000Y-127663571D01*
X86935714Y-127592142D02*
X86792857Y-127663571D01*
X86507142Y-127663571D01*
X86364285Y-127592142D01*
X86292857Y-127449285D01*
X86292857Y-126877857D01*
X86364285Y-126735000D01*
X86507142Y-126663571D01*
X86792857Y-126663571D01*
X86935714Y-126735000D01*
X87007142Y-126877857D01*
X87007142Y-127020714D01*
X86292857Y-127163571D01*
X87650000Y-127663571D02*
X87650000Y-126663571D01*
X87650000Y-126806428D02*
X87721428Y-126735000D01*
X87864285Y-126663571D01*
X88078571Y-126663571D01*
X88221428Y-126735000D01*
X88292857Y-126877857D01*
X88292857Y-127663571D01*
X88292857Y-126877857D02*
X88364285Y-126735000D01*
X88507142Y-126663571D01*
X88721428Y-126663571D01*
X88864285Y-126735000D01*
X88935714Y-126877857D01*
X88935714Y-127663571D01*
X89864285Y-127663571D02*
X89721428Y-127592142D01*
X89650000Y-127520714D01*
X89578571Y-127377857D01*
X89578571Y-126949285D01*
X89650000Y-126806428D01*
X89721428Y-126735000D01*
X89864285Y-126663571D01*
X90078571Y-126663571D01*
X90221428Y-126735000D01*
X90292857Y-126806428D01*
X90364285Y-126949285D01*
X90364285Y-127377857D01*
X90292857Y-127520714D01*
X90221428Y-127592142D01*
X90078571Y-127663571D01*
X89864285Y-127663571D01*
X91007142Y-127663571D02*
X91007142Y-126663571D01*
X91007142Y-126949285D02*
X91078571Y-126806428D01*
X91150000Y-126735000D01*
X91292857Y-126663571D01*
X91435714Y-126663571D01*
X91792857Y-126663571D02*
X92150000Y-127663571D01*
X92507142Y-126663571D02*
X92150000Y-127663571D01*
X92007142Y-128020714D01*
X91935714Y-128092142D01*
X91792857Y-128163571D01*
X95078571Y-127520714D02*
X95007142Y-127592142D01*
X94792857Y-127663571D01*
X94650000Y-127663571D01*
X94435714Y-127592142D01*
X94292857Y-127449285D01*
X94221428Y-127306428D01*
X94150000Y-127020714D01*
X94150000Y-126806428D01*
X94221428Y-126520714D01*
X94292857Y-126377857D01*
X94435714Y-126235000D01*
X94650000Y-126163571D01*
X94792857Y-126163571D01*
X95007142Y-126235000D01*
X95078571Y-126306428D01*
X96364285Y-127663571D02*
X96364285Y-126877857D01*
X96292857Y-126735000D01*
X96150000Y-126663571D01*
X95864285Y-126663571D01*
X95721428Y-126735000D01*
X96364285Y-127592142D02*
X96221428Y-127663571D01*
X95864285Y-127663571D01*
X95721428Y-127592142D01*
X95650000Y-127449285D01*
X95650000Y-127306428D01*
X95721428Y-127163571D01*
X95864285Y-127092142D01*
X96221428Y-127092142D01*
X96364285Y-127020714D01*
X97078571Y-127663571D02*
X97078571Y-126663571D01*
X97078571Y-126949285D02*
X97150000Y-126806428D01*
X97221428Y-126735000D01*
X97364285Y-126663571D01*
X97507142Y-126663571D01*
X98650000Y-127663571D02*
X98650000Y-126163571D01*
X98650000Y-127592142D02*
X98507142Y-127663571D01*
X98221428Y-127663571D01*
X98078571Y-127592142D01*
X98007142Y-127520714D01*
X97935714Y-127377857D01*
X97935714Y-126949285D01*
X98007142Y-126806428D01*
X98078571Y-126735000D01*
X98221428Y-126663571D01*
X98507142Y-126663571D01*
X98650000Y-126735000D01*
X86650000Y-130213571D02*
X86650000Y-128713571D01*
X86650000Y-130142142D02*
X86507142Y-130213571D01*
X86221428Y-130213571D01*
X86078571Y-130142142D01*
X86007142Y-130070714D01*
X85935714Y-129927857D01*
X85935714Y-129499285D01*
X86007142Y-129356428D01*
X86078571Y-129285000D01*
X86221428Y-129213571D01*
X86507142Y-129213571D01*
X86650000Y-129285000D01*
X87150000Y-129213571D02*
X87721428Y-129213571D01*
X87364285Y-128713571D02*
X87364285Y-129999285D01*
X87435714Y-130142142D01*
X87578571Y-130213571D01*
X87721428Y-130213571D01*
X88078571Y-128713571D02*
X89078571Y-128713571D01*
X88078571Y-130213571D01*
X89078571Y-130213571D01*
X89864285Y-129356428D02*
X89721428Y-129285000D01*
X89650000Y-129213571D01*
X89578571Y-129070714D01*
X89578571Y-128999285D01*
X89650000Y-128856428D01*
X89721428Y-128785000D01*
X89864285Y-128713571D01*
X90150000Y-128713571D01*
X90292857Y-128785000D01*
X90364285Y-128856428D01*
X90435714Y-128999285D01*
X90435714Y-129070714D01*
X90364285Y-129213571D01*
X90292857Y-129285000D01*
X90150000Y-129356428D01*
X89864285Y-129356428D01*
X89721428Y-129427857D01*
X89650000Y-129499285D01*
X89578571Y-129642142D01*
X89578571Y-129927857D01*
X89650000Y-130070714D01*
X89721428Y-130142142D01*
X89864285Y-130213571D01*
X90150000Y-130213571D01*
X90292857Y-130142142D01*
X90364285Y-130070714D01*
X90435714Y-129927857D01*
X90435714Y-129642142D01*
X90364285Y-129499285D01*
X90292857Y-129427857D01*
X90150000Y-129356428D01*
X91364285Y-128713571D02*
X91507142Y-128713571D01*
X91650000Y-128785000D01*
X91721428Y-128856428D01*
X91792857Y-128999285D01*
X91864285Y-129285000D01*
X91864285Y-129642142D01*
X91792857Y-129927857D01*
X91721428Y-130070714D01*
X91650000Y-130142142D01*
X91507142Y-130213571D01*
X91364285Y-130213571D01*
X91221428Y-130142142D01*
X91150000Y-130070714D01*
X91078571Y-129927857D01*
X91007142Y-129642142D01*
X91007142Y-129285000D01*
X91078571Y-128999285D01*
X91150000Y-128856428D01*
X91221428Y-128785000D01*
X91364285Y-128713571D01*
X78257142Y-132620714D02*
X78185714Y-132692142D01*
X77971428Y-132763571D01*
X77828571Y-132763571D01*
X77614285Y-132692142D01*
X77471428Y-132549285D01*
X77399999Y-132406428D01*
X77328571Y-132120714D01*
X77328571Y-131906428D01*
X77399999Y-131620714D01*
X77471428Y-131477857D01*
X77614285Y-131335000D01*
X77828571Y-131263571D01*
X77971428Y-131263571D01*
X78185714Y-131335000D01*
X78257142Y-131406428D01*
X79114285Y-132763571D02*
X78971428Y-132692142D01*
X78899999Y-132620714D01*
X78828571Y-132477857D01*
X78828571Y-132049285D01*
X78899999Y-131906428D01*
X78971428Y-131835000D01*
X79114285Y-131763571D01*
X79328571Y-131763571D01*
X79471428Y-131835000D01*
X79542857Y-131906428D01*
X79614285Y-132049285D01*
X79614285Y-132477857D01*
X79542857Y-132620714D01*
X79471428Y-132692142D01*
X79328571Y-132763571D01*
X79114285Y-132763571D01*
X80257142Y-132763571D02*
X80257142Y-131763571D01*
X80257142Y-132049285D02*
X80328571Y-131906428D01*
X80399999Y-131835000D01*
X80542857Y-131763571D01*
X80685714Y-131763571D01*
X81399999Y-132763571D02*
X81257142Y-132692142D01*
X81185714Y-132620714D01*
X81114285Y-132477857D01*
X81114285Y-132049285D01*
X81185714Y-131906428D01*
X81257142Y-131835000D01*
X81399999Y-131763571D01*
X81614285Y-131763571D01*
X81757142Y-131835000D01*
X81828571Y-131906428D01*
X81899999Y-132049285D01*
X81899999Y-132477857D01*
X81828571Y-132620714D01*
X81757142Y-132692142D01*
X81614285Y-132763571D01*
X81399999Y-132763571D01*
X82542857Y-131763571D02*
X82542857Y-132763571D01*
X82542857Y-131906428D02*
X82614285Y-131835000D01*
X82757142Y-131763571D01*
X82971428Y-131763571D01*
X83114285Y-131835000D01*
X83185714Y-131977857D01*
X83185714Y-132763571D01*
X84542857Y-132763571D02*
X84542857Y-131977857D01*
X84471428Y-131835000D01*
X84328571Y-131763571D01*
X84042857Y-131763571D01*
X83899999Y-131835000D01*
X84542857Y-132692142D02*
X84399999Y-132763571D01*
X84042857Y-132763571D01*
X83899999Y-132692142D01*
X83828571Y-132549285D01*
X83828571Y-132406428D01*
X83899999Y-132263571D01*
X84042857Y-132192142D01*
X84399999Y-132192142D01*
X84542857Y-132120714D01*
X86399999Y-132763571D02*
X86399999Y-131263571D01*
X86971428Y-131263571D01*
X87114285Y-131335000D01*
X87185714Y-131406428D01*
X87257142Y-131549285D01*
X87257142Y-131763571D01*
X87185714Y-131906428D01*
X87114285Y-131977857D01*
X86971428Y-132049285D01*
X86399999Y-132049285D01*
X87899999Y-132763571D02*
X87899999Y-131763571D01*
X87899999Y-132049285D02*
X87971428Y-131906428D01*
X88042857Y-131835000D01*
X88185714Y-131763571D01*
X88328571Y-131763571D01*
X89042857Y-132763571D02*
X88900000Y-132692142D01*
X88828571Y-132620714D01*
X88757142Y-132477857D01*
X88757142Y-132049285D01*
X88828571Y-131906428D01*
X88900000Y-131835000D01*
X89042857Y-131763571D01*
X89257142Y-131763571D01*
X89400000Y-131835000D01*
X89471428Y-131906428D01*
X89542857Y-132049285D01*
X89542857Y-132477857D01*
X89471428Y-132620714D01*
X89400000Y-132692142D01*
X89257142Y-132763571D01*
X89042857Y-132763571D01*
X90185714Y-131763571D02*
X90185714Y-133049285D01*
X90114285Y-133192142D01*
X89971428Y-133263571D01*
X89899999Y-133263571D01*
X90185714Y-131263571D02*
X90114285Y-131335000D01*
X90185714Y-131406428D01*
X90257142Y-131335000D01*
X90185714Y-131263571D01*
X90185714Y-131406428D01*
X91471428Y-132692142D02*
X91328571Y-132763571D01*
X91042857Y-132763571D01*
X90899999Y-132692142D01*
X90828571Y-132549285D01*
X90828571Y-131977857D01*
X90899999Y-131835000D01*
X91042857Y-131763571D01*
X91328571Y-131763571D01*
X91471428Y-131835000D01*
X91542857Y-131977857D01*
X91542857Y-132120714D01*
X90828571Y-132263571D01*
X92185714Y-132763571D02*
X92185714Y-131263571D01*
X92328571Y-132192142D02*
X92757142Y-132763571D01*
X92757142Y-131763571D02*
X92185714Y-132335000D01*
X93185714Y-131763571D02*
X93757142Y-131763571D01*
X93399999Y-131263571D02*
X93399999Y-132549285D01*
X93471428Y-132692142D01*
X93614285Y-132763571D01*
X93757142Y-132763571D01*
X95328571Y-131406428D02*
X95400000Y-131335000D01*
X95542857Y-131263571D01*
X95900000Y-131263571D01*
X96042857Y-131335000D01*
X96114285Y-131406428D01*
X96185714Y-131549285D01*
X96185714Y-131692142D01*
X96114285Y-131906428D01*
X95257142Y-132763571D01*
X96185714Y-132763571D01*
X97114285Y-131263571D02*
X97257142Y-131263571D01*
X97400000Y-131335000D01*
X97471428Y-131406428D01*
X97542857Y-131549285D01*
X97614285Y-131835000D01*
X97614285Y-132192142D01*
X97542857Y-132477857D01*
X97471428Y-132620714D01*
X97400000Y-132692142D01*
X97257142Y-132763571D01*
X97114285Y-132763571D01*
X96971428Y-132692142D01*
X96900000Y-132620714D01*
X96828571Y-132477857D01*
X96757142Y-132192142D01*
X96757142Y-131835000D01*
X96828571Y-131549285D01*
X96900000Y-131406428D01*
X96971428Y-131335000D01*
X97114285Y-131263571D01*
X98185714Y-131406428D02*
X98257142Y-131335000D01*
X98400000Y-131263571D01*
X98757142Y-131263571D01*
X98900000Y-131335000D01*
X98971428Y-131406428D01*
X99042857Y-131549285D01*
X99042857Y-131692142D01*
X98971428Y-131906428D01*
X98114285Y-132763571D01*
X99042857Y-132763571D01*
X99971428Y-131263571D02*
X100114285Y-131263571D01*
X100257142Y-131335000D01*
X100328571Y-131406428D01*
X100400000Y-131549285D01*
X100471428Y-131835000D01*
X100471428Y-132192142D01*
X100400000Y-132477857D01*
X100328571Y-132620714D01*
X100257142Y-132692142D01*
X100114285Y-132763571D01*
X99971428Y-132763571D01*
X99828571Y-132692142D01*
X99757142Y-132620714D01*
X99685714Y-132477857D01*
X99614285Y-132192142D01*
X99614285Y-131835000D01*
X99685714Y-131549285D01*
X99757142Y-131406428D01*
X99828571Y-131335000D01*
X99971428Y-131263571D01*
X79078571Y-135242142D02*
X79292857Y-135313571D01*
X79650000Y-135313571D01*
X79792857Y-135242142D01*
X79864285Y-135170714D01*
X79935714Y-135027857D01*
X79935714Y-134885000D01*
X79864285Y-134742142D01*
X79792857Y-134670714D01*
X79650000Y-134599285D01*
X79364285Y-134527857D01*
X79221428Y-134456428D01*
X79150000Y-134385000D01*
X79078571Y-134242142D01*
X79078571Y-134099285D01*
X79150000Y-133956428D01*
X79221428Y-133885000D01*
X79364285Y-133813571D01*
X79721428Y-133813571D01*
X79935714Y-133885000D01*
X80364285Y-134313571D02*
X80935714Y-134313571D01*
X80578571Y-133813571D02*
X80578571Y-135099285D01*
X80650000Y-135242142D01*
X80792857Y-135313571D01*
X80935714Y-135313571D01*
X82007142Y-135242142D02*
X81864285Y-135313571D01*
X81578571Y-135313571D01*
X81435714Y-135242142D01*
X81364285Y-135099285D01*
X81364285Y-134527857D01*
X81435714Y-134385000D01*
X81578571Y-134313571D01*
X81864285Y-134313571D01*
X82007142Y-134385000D01*
X82078571Y-134527857D01*
X82078571Y-134670714D01*
X81364285Y-134813571D01*
X82507142Y-134313571D02*
X83078571Y-134313571D01*
X82721428Y-135313571D02*
X82721428Y-134027857D01*
X82792857Y-133885000D01*
X82935714Y-133813571D01*
X83078571Y-133813571D01*
X84221428Y-135313571D02*
X84221428Y-134527857D01*
X84150000Y-134385000D01*
X84007142Y-134313571D01*
X83721428Y-134313571D01*
X83578571Y-134385000D01*
X84221428Y-135242142D02*
X84078571Y-135313571D01*
X83721428Y-135313571D01*
X83578571Y-135242142D01*
X83507142Y-135099285D01*
X83507142Y-134956428D01*
X83578571Y-134813571D01*
X83721428Y-134742142D01*
X84078571Y-134742142D01*
X84221428Y-134670714D01*
X84935714Y-134313571D02*
X84935714Y-135313571D01*
X84935714Y-134456428D02*
X85007142Y-134385000D01*
X85150000Y-134313571D01*
X85364285Y-134313571D01*
X85507142Y-134385000D01*
X85578571Y-134527857D01*
X85578571Y-135313571D01*
X87721428Y-133813571D02*
X88007142Y-133813571D01*
X88150000Y-133885000D01*
X88292857Y-134027857D01*
X88364285Y-134313571D01*
X88364285Y-134813571D01*
X88292857Y-135099285D01*
X88150000Y-135242142D01*
X88007142Y-135313571D01*
X87721428Y-135313571D01*
X87578571Y-135242142D01*
X87435714Y-135099285D01*
X87364285Y-134813571D01*
X87364285Y-134313571D01*
X87435714Y-134027857D01*
X87578571Y-133885000D01*
X87721428Y-133813571D01*
X88935714Y-135242142D02*
X89078571Y-135313571D01*
X89364285Y-135313571D01*
X89507142Y-135242142D01*
X89578571Y-135099285D01*
X89578571Y-135027857D01*
X89507142Y-134885000D01*
X89364285Y-134813571D01*
X89150000Y-134813571D01*
X89007142Y-134742142D01*
X88935714Y-134599285D01*
X88935714Y-134527857D01*
X89007142Y-134385000D01*
X89150000Y-134313571D01*
X89364285Y-134313571D01*
X89507142Y-134385000D01*
X90007142Y-134313571D02*
X90578571Y-134313571D01*
X90221428Y-133813571D02*
X90221428Y-135099285D01*
X90292857Y-135242142D01*
X90435714Y-135313571D01*
X90578571Y-135313571D01*
X91650000Y-135242142D02*
X91507142Y-135313571D01*
X91221428Y-135313571D01*
X91078571Y-135242142D01*
X91007142Y-135099285D01*
X91007142Y-134527857D01*
X91078571Y-134385000D01*
X91221428Y-134313571D01*
X91507142Y-134313571D01*
X91650000Y-134385000D01*
X91721428Y-134527857D01*
X91721428Y-134670714D01*
X91007142Y-134813571D01*
X92364285Y-135313571D02*
X92364285Y-134313571D01*
X92364285Y-134599285D02*
X92435714Y-134456428D01*
X92507142Y-134385000D01*
X92650000Y-134313571D01*
X92792857Y-134313571D01*
X93292857Y-135313571D02*
X93292857Y-134313571D01*
X93292857Y-134456428D02*
X93364285Y-134385000D01*
X93507142Y-134313571D01*
X93721428Y-134313571D01*
X93864285Y-134385000D01*
X93935714Y-134527857D01*
X93935714Y-135313571D01*
X93935714Y-134527857D02*
X94007142Y-134385000D01*
X94150000Y-134313571D01*
X94364285Y-134313571D01*
X94507142Y-134385000D01*
X94578571Y-134527857D01*
X94578571Y-135313571D01*
X95935714Y-135313571D02*
X95935714Y-134527857D01*
X95864285Y-134385000D01*
X95721428Y-134313571D01*
X95435714Y-134313571D01*
X95292857Y-134385000D01*
X95935714Y-135242142D02*
X95792857Y-135313571D01*
X95435714Y-135313571D01*
X95292857Y-135242142D01*
X95221428Y-135099285D01*
X95221428Y-134956428D01*
X95292857Y-134813571D01*
X95435714Y-134742142D01*
X95792857Y-134742142D01*
X95935714Y-134670714D01*
X96650000Y-134313571D02*
X96650000Y-135313571D01*
X96650000Y-134456428D02*
X96721428Y-134385000D01*
X96864285Y-134313571D01*
X97078571Y-134313571D01*
X97221428Y-134385000D01*
X97292857Y-134527857D01*
X97292857Y-135313571D01*
X98007142Y-134313571D02*
X98007142Y-135313571D01*
X98007142Y-134456428D02*
X98078571Y-134385000D01*
X98221428Y-134313571D01*
X98435714Y-134313571D01*
X98578571Y-134385000D01*
X98650000Y-134527857D01*
X98650000Y-135313571D01*
D11*
X95250000Y-104140000D03*
X87630000Y-119380000D03*
X95250000Y-106680000D03*
X87630000Y-116840000D03*
X95250000Y-109220000D03*
X87630000Y-114300000D03*
X95250000Y-111760000D03*
X87630000Y-111760000D03*
X95250000Y-114300000D03*
X87630000Y-109220000D03*
X95250000Y-116840000D03*
X87630000Y-106680000D03*
X95250000Y-119380000D03*
D12*
X87630000Y-104140000D03*
D11*
X168910000Y-119380000D03*
X135890000Y-104140000D03*
X166370000Y-119380000D03*
X138430000Y-104140000D03*
X163830000Y-119380000D03*
X140970000Y-104140000D03*
X161290000Y-119380000D03*
X143510000Y-104140000D03*
X158750000Y-119380000D03*
X146050000Y-104140000D03*
X156210000Y-119380000D03*
X148590000Y-104140000D03*
X153670000Y-119380000D03*
X151130000Y-104140000D03*
X151130000Y-119380000D03*
X153670000Y-104140000D03*
X148590000Y-119380000D03*
X156210000Y-104140000D03*
X146050000Y-119380000D03*
X158750000Y-104140000D03*
X143510000Y-119380000D03*
X161290000Y-104140000D03*
X140970000Y-119380000D03*
X163830000Y-104140000D03*
X138430000Y-119380000D03*
X166370000Y-104140000D03*
X135890000Y-119380000D03*
D12*
X168910000Y-104140000D03*
D11*
X115570000Y-104140000D03*
X107950000Y-119380000D03*
X115570000Y-106680000D03*
X107950000Y-116840000D03*
X115570000Y-109220000D03*
X107950000Y-114300000D03*
X115570000Y-111760000D03*
X107950000Y-111760000D03*
X115570000Y-114300000D03*
X107950000Y-109220000D03*
X115570000Y-116840000D03*
X107950000Y-106680000D03*
X115570000Y-119380000D03*
D12*
X107950000Y-104140000D03*
D13*
X85090000Y-146050000D03*
X87630000Y-146050000D03*
X90170000Y-146050000D03*
X92710000Y-146050000D03*
X95250000Y-146050000D03*
X97790000Y-146050000D03*
X100330000Y-146050000D03*
X102870000Y-146050000D03*
X105410000Y-146050000D03*
X107950000Y-146050000D03*
X110490000Y-146050000D03*
X113030000Y-146050000D03*
X115570000Y-146050000D03*
X118110000Y-146050000D03*
X120650000Y-146050000D03*
X123190000Y-146050000D03*
X125730000Y-146050000D03*
X128270000Y-146050000D03*
X130810000Y-146050000D03*
X133350000Y-146050000D03*
X135890000Y-146050000D03*
X138430000Y-146050000D03*
X140970000Y-146050000D03*
X143510000Y-146050000D03*
X146050000Y-146050000D03*
X148590000Y-146050000D03*
X151130000Y-146050000D03*
X153670000Y-146050000D03*
X156210000Y-146050000D03*
X158750000Y-146050000D03*
X161290000Y-146050000D03*
X163830000Y-146050000D03*
X166370000Y-146050000D03*
X168910000Y-146050000D03*
X171450000Y-146050000D03*
X173990000Y-146050000D03*
X176530000Y-146050000D03*
X179070000Y-146050000D03*
X181610000Y-146050000D03*
D14*
X184150000Y-146050000D03*
D15*
X127000000Y-112990000D03*
X127000000Y-110490000D03*
X143470000Y-138430000D03*
X140970000Y-138430000D03*
D16*
X115570000Y-129540000D03*
X119380000Y-128270000D03*
X134620000Y-124460000D03*
X135890000Y-113030000D03*
X129540000Y-116840000D03*
X124460000Y-116840000D03*
X120650000Y-120650000D03*
X140970000Y-113030000D03*
X140970000Y-116840000D03*
X132080000Y-116840000D03*
X129540000Y-115570000D03*
X127000000Y-115570000D03*
X133350000Y-140970000D03*
X119380000Y-143510000D03*
X118110000Y-110490000D03*
X118110000Y-119380000D03*
X118110000Y-121920000D03*
X123190000Y-137160000D03*
X166370000Y-133350000D03*
X168910000Y-138430000D03*
X116840000Y-127000000D03*
X119380000Y-127000000D03*
X134620000Y-129540000D03*
X127000000Y-134620000D03*
X142240000Y-115570000D03*
X143510000Y-114300000D03*
X153670000Y-114300000D03*
D17*
X88755001Y-120505001D02*
X106824999Y-120505001D01*
X106824999Y-120505001D02*
X107950000Y-119380000D01*
X87630000Y-119380000D02*
X88755001Y-120505001D01*
X116840000Y-128270000D02*
X119380000Y-128270000D01*
X115570000Y-129540000D02*
X116840000Y-128270000D01*
D18*
X143470000Y-133310000D02*
X134620000Y-124460000D01*
X143470000Y-138430000D02*
X143470000Y-133310000D01*
X127040000Y-113030000D02*
X127000000Y-112990000D01*
X135890000Y-113030000D02*
X127040000Y-113030000D01*
D17*
X129540000Y-116840000D02*
X124460000Y-116840000D01*
X100330000Y-140970000D02*
X100330000Y-146050000D01*
X120650000Y-120650000D02*
X100330000Y-140970000D01*
X143510000Y-119380000D02*
X141695001Y-117565001D01*
X141695001Y-117565001D02*
X140621999Y-117565001D01*
X131354998Y-117565002D02*
X102870000Y-146050000D01*
X140621999Y-117565001D02*
X140411975Y-117354977D01*
X140411975Y-117354977D02*
X132638027Y-117354977D01*
X132638027Y-117354977D02*
X132428002Y-117565002D01*
X132428002Y-117565002D02*
X131354998Y-117565002D01*
X133655012Y-117804988D02*
X105410000Y-146050000D01*
X139394988Y-117804988D02*
X133655012Y-117804988D01*
X140970000Y-119380000D02*
X139394988Y-117804988D01*
X107950000Y-144847919D02*
X107950000Y-146050000D01*
X134542920Y-118254999D02*
X107950000Y-144847919D01*
X137304999Y-118254999D02*
X134542920Y-118254999D01*
X138430000Y-119380000D02*
X137304999Y-118254999D01*
X135890000Y-120650000D02*
X110490000Y-146050000D01*
X135890000Y-119380000D02*
X135890000Y-120650000D01*
X140970000Y-104140000D02*
X140970000Y-113030000D01*
X140970000Y-116840000D02*
X132080000Y-116840000D01*
X129540000Y-115570000D02*
X127000000Y-115570000D01*
X121920000Y-140970000D02*
X119380000Y-143510000D01*
X133350000Y-140970000D02*
X121920000Y-140970000D01*
X125585001Y-103014999D02*
X118110000Y-110490000D01*
X142384999Y-103014999D02*
X125585001Y-103014999D01*
X143510000Y-104140000D02*
X142384999Y-103014999D01*
X118110000Y-119380000D02*
X118110000Y-121920000D01*
X118110000Y-142240000D02*
X118110000Y-146050000D01*
X123190000Y-137160000D02*
X118110000Y-142240000D01*
X144924999Y-105265001D02*
X144924999Y-144924999D01*
X144924999Y-144924999D02*
X146050000Y-146050000D01*
X146050000Y-104140000D02*
X144924999Y-105265001D01*
X147464999Y-144924999D02*
X148590000Y-146050000D01*
X147464999Y-105265001D02*
X147464999Y-144924999D01*
X148590000Y-104140000D02*
X147464999Y-105265001D01*
X150004999Y-144924999D02*
X151130000Y-146050000D01*
X150004999Y-105265001D02*
X150004999Y-144924999D01*
X151130000Y-104140000D02*
X150004999Y-105265001D01*
X152544999Y-105265001D02*
X152544999Y-144924999D01*
X152544999Y-144924999D02*
X153670000Y-146050000D01*
X153670000Y-104140000D02*
X152544999Y-105265001D01*
X155084999Y-144924999D02*
X156210000Y-146050000D01*
X155084999Y-105265001D02*
X155084999Y-144924999D01*
X156210000Y-104140000D02*
X155084999Y-105265001D01*
X157624999Y-144924999D02*
X158750000Y-146050000D01*
X157624999Y-105265001D02*
X157624999Y-144924999D01*
X158750000Y-104140000D02*
X157624999Y-105265001D01*
X160164999Y-144924999D02*
X161290000Y-146050000D01*
X160164999Y-105265001D02*
X160164999Y-144924999D01*
X161290000Y-104140000D02*
X160164999Y-105265001D01*
X162704999Y-144924999D02*
X163830000Y-146050000D01*
X162704999Y-105265001D02*
X162704999Y-144924999D01*
X163830000Y-104140000D02*
X162704999Y-105265001D01*
X166370000Y-133350000D02*
X166370000Y-146050000D01*
X168910000Y-138430000D02*
X168910000Y-146050000D01*
X175260000Y-147320000D02*
X176530000Y-146050000D01*
X173520998Y-147320000D02*
X175260000Y-147320000D01*
X172814999Y-110584999D02*
X172814999Y-146614001D01*
X166370000Y-104140000D02*
X172814999Y-110584999D01*
X172814999Y-146614001D02*
X173520998Y-147320000D01*
X170274999Y-146614001D02*
X171431009Y-147770011D01*
X163830000Y-119380000D02*
X170274999Y-125824999D01*
X170274999Y-125824999D02*
X170274999Y-146614001D01*
X171431009Y-147770011D02*
X177349989Y-147770011D01*
X177349989Y-147770011D02*
X179070000Y-146050000D01*
X168910000Y-104140000D02*
X169960000Y-104140000D01*
X181610000Y-115790000D02*
X181610000Y-146050000D01*
X169960000Y-104140000D02*
X181610000Y-115790000D01*
X116840000Y-127000000D02*
X119380000Y-127000000D01*
X134620000Y-129540000D02*
X132080000Y-129540000D01*
X132080000Y-129540000D02*
X127000000Y-134620000D01*
X88755001Y-117965001D02*
X129684999Y-117965001D01*
X87630000Y-116840000D02*
X88755001Y-117965001D01*
X132080000Y-115570000D02*
X142240000Y-115570000D01*
X129684999Y-117965001D02*
X132080000Y-115570000D01*
X120065000Y-114300000D02*
X143510000Y-114300000D01*
X116110001Y-110345001D02*
X120065000Y-114300000D01*
X88755001Y-110345001D02*
X116110001Y-110345001D01*
X87630000Y-109220000D02*
X88755001Y-110345001D01*
X153670000Y-114300000D02*
X153670000Y-119380000D01*
D19*
X193650000Y-150470000D02*
X75590000Y-150470000D01*
X75590000Y-145903740D01*
X83605000Y-145903740D01*
X83605000Y-146196260D01*
X83662068Y-146483158D01*
X83774010Y-146753411D01*
X83936525Y-146996632D01*
X84143368Y-147203475D01*
X84386589Y-147365990D01*
X84656842Y-147477932D01*
X84943740Y-147535000D01*
X85236260Y-147535000D01*
X85523158Y-147477932D01*
X85793411Y-147365990D01*
X86036632Y-147203475D01*
X86243475Y-146996632D01*
X86360000Y-146822240D01*
X86476525Y-146996632D01*
X86683368Y-147203475D01*
X86926589Y-147365990D01*
X87196842Y-147477932D01*
X87483740Y-147535000D01*
X87776260Y-147535000D01*
X88063158Y-147477932D01*
X88333411Y-147365990D01*
X88576632Y-147203475D01*
X88783475Y-146996632D01*
X88900000Y-146822240D01*
X89016525Y-146996632D01*
X89223368Y-147203475D01*
X89466589Y-147365990D01*
X89736842Y-147477932D01*
X90023740Y-147535000D01*
X90316260Y-147535000D01*
X90603158Y-147477932D01*
X90873411Y-147365990D01*
X91116632Y-147203475D01*
X91323475Y-146996632D01*
X91440000Y-146822240D01*
X91556525Y-146996632D01*
X91763368Y-147203475D01*
X92006589Y-147365990D01*
X92276842Y-147477932D01*
X92563740Y-147535000D01*
X92856260Y-147535000D01*
X93143158Y-147477932D01*
X93413411Y-147365990D01*
X93656632Y-147203475D01*
X93863475Y-146996632D01*
X93980000Y-146822240D01*
X94096525Y-146996632D01*
X94303368Y-147203475D01*
X94546589Y-147365990D01*
X94816842Y-147477932D01*
X95103740Y-147535000D01*
X95396260Y-147535000D01*
X95683158Y-147477932D01*
X95953411Y-147365990D01*
X96196632Y-147203475D01*
X96403475Y-146996632D01*
X96520000Y-146822240D01*
X96636525Y-146996632D01*
X96843368Y-147203475D01*
X97086589Y-147365990D01*
X97356842Y-147477932D01*
X97643740Y-147535000D01*
X97936260Y-147535000D01*
X98223158Y-147477932D01*
X98493411Y-147365990D01*
X98736632Y-147203475D01*
X98943475Y-146996632D01*
X99060000Y-146822240D01*
X99176525Y-146996632D01*
X99383368Y-147203475D01*
X99626589Y-147365990D01*
X99896842Y-147477932D01*
X100183740Y-147535000D01*
X100476260Y-147535000D01*
X100763158Y-147477932D01*
X101033411Y-147365990D01*
X101276632Y-147203475D01*
X101483475Y-146996632D01*
X101600000Y-146822240D01*
X101716525Y-146996632D01*
X101923368Y-147203475D01*
X102166589Y-147365990D01*
X102436842Y-147477932D01*
X102723740Y-147535000D01*
X103016260Y-147535000D01*
X103303158Y-147477932D01*
X103573411Y-147365990D01*
X103816632Y-147203475D01*
X104023475Y-146996632D01*
X104140000Y-146822240D01*
X104256525Y-146996632D01*
X104463368Y-147203475D01*
X104706589Y-147365990D01*
X104976842Y-147477932D01*
X105263740Y-147535000D01*
X105556260Y-147535000D01*
X105843158Y-147477932D01*
X106113411Y-147365990D01*
X106356632Y-147203475D01*
X106563475Y-146996632D01*
X106680000Y-146822240D01*
X106796525Y-146996632D01*
X107003368Y-147203475D01*
X107246589Y-147365990D01*
X107516842Y-147477932D01*
X107803740Y-147535000D01*
X108096260Y-147535000D01*
X108383158Y-147477932D01*
X108653411Y-147365990D01*
X108896632Y-147203475D01*
X109103475Y-146996632D01*
X109220000Y-146822240D01*
X109336525Y-146996632D01*
X109543368Y-147203475D01*
X109786589Y-147365990D01*
X110056842Y-147477932D01*
X110343740Y-147535000D01*
X110636260Y-147535000D01*
X110923158Y-147477932D01*
X111193411Y-147365990D01*
X111436632Y-147203475D01*
X111643475Y-146996632D01*
X111760000Y-146822240D01*
X111876525Y-146996632D01*
X112083368Y-147203475D01*
X112326589Y-147365990D01*
X112596842Y-147477932D01*
X112883740Y-147535000D01*
X113176260Y-147535000D01*
X113463158Y-147477932D01*
X113733411Y-147365990D01*
X113976632Y-147203475D01*
X114183475Y-146996632D01*
X114300000Y-146822240D01*
X114416525Y-146996632D01*
X114623368Y-147203475D01*
X114866589Y-147365990D01*
X115136842Y-147477932D01*
X115423740Y-147535000D01*
X115716260Y-147535000D01*
X116003158Y-147477932D01*
X116273411Y-147365990D01*
X116516632Y-147203475D01*
X116723475Y-146996632D01*
X116840000Y-146822240D01*
X116956525Y-146996632D01*
X117163368Y-147203475D01*
X117406589Y-147365990D01*
X117676842Y-147477932D01*
X117963740Y-147535000D01*
X118256260Y-147535000D01*
X118543158Y-147477932D01*
X118813411Y-147365990D01*
X119056632Y-147203475D01*
X119263475Y-146996632D01*
X119380000Y-146822240D01*
X119496525Y-146996632D01*
X119703368Y-147203475D01*
X119946589Y-147365990D01*
X120216842Y-147477932D01*
X120503740Y-147535000D01*
X120796260Y-147535000D01*
X121083158Y-147477932D01*
X121353411Y-147365990D01*
X121596632Y-147203475D01*
X121803475Y-146996632D01*
X121920000Y-146822240D01*
X122036525Y-146996632D01*
X122243368Y-147203475D01*
X122486589Y-147365990D01*
X122756842Y-147477932D01*
X123043740Y-147535000D01*
X123336260Y-147535000D01*
X123623158Y-147477932D01*
X123893411Y-147365990D01*
X124136632Y-147203475D01*
X124343475Y-146996632D01*
X124460000Y-146822240D01*
X124576525Y-146996632D01*
X124783368Y-147203475D01*
X125026589Y-147365990D01*
X125296842Y-147477932D01*
X125583740Y-147535000D01*
X125876260Y-147535000D01*
X126163158Y-147477932D01*
X126433411Y-147365990D01*
X126676632Y-147203475D01*
X126883475Y-146996632D01*
X127000000Y-146822240D01*
X127116525Y-146996632D01*
X127323368Y-147203475D01*
X127566589Y-147365990D01*
X127836842Y-147477932D01*
X128123740Y-147535000D01*
X128416260Y-147535000D01*
X128703158Y-147477932D01*
X128973411Y-147365990D01*
X129216632Y-147203475D01*
X129423475Y-146996632D01*
X129540000Y-146822240D01*
X129656525Y-146996632D01*
X129863368Y-147203475D01*
X130106589Y-147365990D01*
X130376842Y-147477932D01*
X130663740Y-147535000D01*
X130956260Y-147535000D01*
X131243158Y-147477932D01*
X131513411Y-147365990D01*
X131756632Y-147203475D01*
X131963475Y-146996632D01*
X132080000Y-146822240D01*
X132196525Y-146996632D01*
X132403368Y-147203475D01*
X132646589Y-147365990D01*
X132916842Y-147477932D01*
X133203740Y-147535000D01*
X133496260Y-147535000D01*
X133783158Y-147477932D01*
X134053411Y-147365990D01*
X134296632Y-147203475D01*
X134503475Y-146996632D01*
X134620000Y-146822240D01*
X134736525Y-146996632D01*
X134943368Y-147203475D01*
X135186589Y-147365990D01*
X135456842Y-147477932D01*
X135743740Y-147535000D01*
X136036260Y-147535000D01*
X136323158Y-147477932D01*
X136593411Y-147365990D01*
X136836632Y-147203475D01*
X137043475Y-146996632D01*
X137160000Y-146822240D01*
X137276525Y-146996632D01*
X137483368Y-147203475D01*
X137726589Y-147365990D01*
X137996842Y-147477932D01*
X138283740Y-147535000D01*
X138576260Y-147535000D01*
X138863158Y-147477932D01*
X139133411Y-147365990D01*
X139376632Y-147203475D01*
X139583475Y-146996632D01*
X139700000Y-146822240D01*
X139816525Y-146996632D01*
X140023368Y-147203475D01*
X140266589Y-147365990D01*
X140536842Y-147477932D01*
X140823740Y-147535000D01*
X141116260Y-147535000D01*
X141403158Y-147477932D01*
X141673411Y-147365990D01*
X141916632Y-147203475D01*
X142123475Y-146996632D01*
X142245195Y-146814466D01*
X142314822Y-146931355D01*
X142509731Y-147147588D01*
X142743080Y-147321641D01*
X143005901Y-147446825D01*
X143153110Y-147491476D01*
X143383000Y-147370155D01*
X143383000Y-146177000D01*
X143363000Y-146177000D01*
X143363000Y-145923000D01*
X143383000Y-145923000D01*
X143383000Y-144729845D01*
X143153110Y-144608524D01*
X143005901Y-144653175D01*
X142743080Y-144778359D01*
X142509731Y-144952412D01*
X142314822Y-145168645D01*
X142245195Y-145285534D01*
X142123475Y-145103368D01*
X141916632Y-144896525D01*
X141673411Y-144734010D01*
X141403158Y-144622068D01*
X141116260Y-144565000D01*
X140823740Y-144565000D01*
X140536842Y-144622068D01*
X140266589Y-144734010D01*
X140023368Y-144896525D01*
X139816525Y-145103368D01*
X139700000Y-145277760D01*
X139583475Y-145103368D01*
X139376632Y-144896525D01*
X139133411Y-144734010D01*
X138863158Y-144622068D01*
X138576260Y-144565000D01*
X138283740Y-144565000D01*
X137996842Y-144622068D01*
X137726589Y-144734010D01*
X137483368Y-144896525D01*
X137276525Y-145103368D01*
X137160000Y-145277760D01*
X137043475Y-145103368D01*
X136836632Y-144896525D01*
X136593411Y-144734010D01*
X136323158Y-144622068D01*
X136036260Y-144565000D01*
X135743740Y-144565000D01*
X135456842Y-144622068D01*
X135186589Y-144734010D01*
X134943368Y-144896525D01*
X134736525Y-145103368D01*
X134620000Y-145277760D01*
X134503475Y-145103368D01*
X134296632Y-144896525D01*
X134053411Y-144734010D01*
X133783158Y-144622068D01*
X133496260Y-144565000D01*
X133203740Y-144565000D01*
X132916842Y-144622068D01*
X132646589Y-144734010D01*
X132403368Y-144896525D01*
X132196525Y-145103368D01*
X132080000Y-145277760D01*
X131963475Y-145103368D01*
X131756632Y-144896525D01*
X131513411Y-144734010D01*
X131243158Y-144622068D01*
X130956260Y-144565000D01*
X130663740Y-144565000D01*
X130376842Y-144622068D01*
X130106589Y-144734010D01*
X129863368Y-144896525D01*
X129656525Y-145103368D01*
X129540000Y-145277760D01*
X129423475Y-145103368D01*
X129216632Y-144896525D01*
X128973411Y-144734010D01*
X128703158Y-144622068D01*
X128416260Y-144565000D01*
X128123740Y-144565000D01*
X127836842Y-144622068D01*
X127566589Y-144734010D01*
X127323368Y-144896525D01*
X127116525Y-145103368D01*
X127000000Y-145277760D01*
X126883475Y-145103368D01*
X126676632Y-144896525D01*
X126433411Y-144734010D01*
X126163158Y-144622068D01*
X125876260Y-144565000D01*
X125583740Y-144565000D01*
X125296842Y-144622068D01*
X125026589Y-144734010D01*
X124783368Y-144896525D01*
X124576525Y-145103368D01*
X124460000Y-145277760D01*
X124343475Y-145103368D01*
X124136632Y-144896525D01*
X123893411Y-144734010D01*
X123623158Y-144622068D01*
X123336260Y-144565000D01*
X123043740Y-144565000D01*
X122756842Y-144622068D01*
X122486589Y-144734010D01*
X122243368Y-144896525D01*
X122036525Y-145103368D01*
X121920000Y-145277760D01*
X121803475Y-145103368D01*
X121596632Y-144896525D01*
X121353411Y-144734010D01*
X121083158Y-144622068D01*
X120796260Y-144565000D01*
X120503740Y-144565000D01*
X120216842Y-144622068D01*
X119946589Y-144734010D01*
X119703368Y-144896525D01*
X119496525Y-145103368D01*
X119380000Y-145277760D01*
X119263475Y-145103368D01*
X119056632Y-144896525D01*
X118870000Y-144771822D01*
X118870000Y-144414013D01*
X118889744Y-144427205D01*
X119078102Y-144505226D01*
X119278061Y-144545000D01*
X119481939Y-144545000D01*
X119681898Y-144505226D01*
X119870256Y-144427205D01*
X120039774Y-144313937D01*
X120183937Y-144169774D01*
X120297205Y-144000256D01*
X120375226Y-143811898D01*
X120415000Y-143611939D01*
X120415000Y-143549801D01*
X122234803Y-141730000D01*
X132646289Y-141730000D01*
X132690226Y-141773937D01*
X132859744Y-141887205D01*
X133048102Y-141965226D01*
X133248061Y-142005000D01*
X133451939Y-142005000D01*
X133651898Y-141965226D01*
X133840256Y-141887205D01*
X134009774Y-141773937D01*
X134153937Y-141629774D01*
X134267205Y-141460256D01*
X134345226Y-141271898D01*
X134385000Y-141071939D01*
X134385000Y-140868061D01*
X134345226Y-140668102D01*
X134267205Y-140479744D01*
X134153937Y-140310226D01*
X134009774Y-140166063D01*
X133840256Y-140052795D01*
X133651898Y-139974774D01*
X133451939Y-139935000D01*
X133248061Y-139935000D01*
X133048102Y-139974774D01*
X132859744Y-140052795D01*
X132690226Y-140166063D01*
X132646289Y-140210000D01*
X121957322Y-140210000D01*
X121919999Y-140206324D01*
X121882676Y-140210000D01*
X121882667Y-140210000D01*
X121771014Y-140220997D01*
X121627753Y-140264454D01*
X121495724Y-140335026D01*
X121495722Y-140335027D01*
X121495723Y-140335027D01*
X121408996Y-140406201D01*
X121408992Y-140406205D01*
X121379999Y-140429999D01*
X121356205Y-140458992D01*
X119340199Y-142475000D01*
X119278061Y-142475000D01*
X119078102Y-142514774D01*
X118889744Y-142592795D01*
X118870000Y-142605987D01*
X118870000Y-142554801D01*
X123136136Y-138288665D01*
X139535000Y-138288665D01*
X139535000Y-138571335D01*
X139590147Y-138848574D01*
X139698320Y-139109727D01*
X139855363Y-139344759D01*
X140055241Y-139544637D01*
X140290273Y-139701680D01*
X140551426Y-139809853D01*
X140828665Y-139865000D01*
X141111335Y-139865000D01*
X141388574Y-139809853D01*
X141649727Y-139701680D01*
X141884759Y-139544637D01*
X142084637Y-139344759D01*
X142218692Y-139144131D01*
X142233329Y-139171514D01*
X142477298Y-139243097D01*
X143290395Y-138430000D01*
X142477298Y-137616903D01*
X142233329Y-137688486D01*
X142219676Y-137717341D01*
X142084637Y-137515241D01*
X141884759Y-137315363D01*
X141649727Y-137158320D01*
X141388574Y-137050147D01*
X141111335Y-136995000D01*
X140828665Y-136995000D01*
X140551426Y-137050147D01*
X140290273Y-137158320D01*
X140055241Y-137315363D01*
X139855363Y-137515241D01*
X139698320Y-137750273D01*
X139590147Y-138011426D01*
X139535000Y-138288665D01*
X123136136Y-138288665D01*
X123229802Y-138195000D01*
X123291939Y-138195000D01*
X123491898Y-138155226D01*
X123680256Y-138077205D01*
X123849774Y-137963937D01*
X123993937Y-137819774D01*
X124107205Y-137650256D01*
X124185226Y-137461898D01*
X124225000Y-137261939D01*
X124225000Y-137058061D01*
X124185226Y-136858102D01*
X124107205Y-136669744D01*
X123993937Y-136500226D01*
X123849774Y-136356063D01*
X123680256Y-136242795D01*
X123491898Y-136164774D01*
X123291939Y-136125000D01*
X123088061Y-136125000D01*
X122888102Y-136164774D01*
X122699744Y-136242795D01*
X122530226Y-136356063D01*
X122386063Y-136500226D01*
X122272795Y-136669744D01*
X122194774Y-136858102D01*
X122155000Y-137058061D01*
X122155000Y-137120198D01*
X117599003Y-141676196D01*
X117569999Y-141699999D01*
X117514871Y-141767174D01*
X117475026Y-141815724D01*
X117404455Y-141947753D01*
X117404454Y-141947754D01*
X117360997Y-142091015D01*
X117350000Y-142202668D01*
X117350000Y-142202678D01*
X117346324Y-142240000D01*
X117350000Y-142277323D01*
X117350001Y-144771821D01*
X117163368Y-144896525D01*
X116956525Y-145103368D01*
X116840000Y-145277760D01*
X116723475Y-145103368D01*
X116516632Y-144896525D01*
X116273411Y-144734010D01*
X116003158Y-144622068D01*
X115716260Y-144565000D01*
X115423740Y-144565000D01*
X115136842Y-144622068D01*
X114866589Y-144734010D01*
X114623368Y-144896525D01*
X114416525Y-145103368D01*
X114300000Y-145277760D01*
X114183475Y-145103368D01*
X113976632Y-144896525D01*
X113733411Y-144734010D01*
X113463158Y-144622068D01*
X113176260Y-144565000D01*
X113049801Y-144565000D01*
X123096740Y-134518061D01*
X125965000Y-134518061D01*
X125965000Y-134721939D01*
X126004774Y-134921898D01*
X126082795Y-135110256D01*
X126196063Y-135279774D01*
X126340226Y-135423937D01*
X126509744Y-135537205D01*
X126698102Y-135615226D01*
X126898061Y-135655000D01*
X127101939Y-135655000D01*
X127301898Y-135615226D01*
X127490256Y-135537205D01*
X127659774Y-135423937D01*
X127803937Y-135279774D01*
X127917205Y-135110256D01*
X127995226Y-134921898D01*
X128035000Y-134721939D01*
X128035000Y-134659801D01*
X132394802Y-130300000D01*
X133916289Y-130300000D01*
X133960226Y-130343937D01*
X134129744Y-130457205D01*
X134318102Y-130535226D01*
X134518061Y-130575000D01*
X134721939Y-130575000D01*
X134921898Y-130535226D01*
X135110256Y-130457205D01*
X135279774Y-130343937D01*
X135423937Y-130199774D01*
X135537205Y-130030256D01*
X135615226Y-129841898D01*
X135655000Y-129641939D01*
X135655000Y-129438061D01*
X135615226Y-129238102D01*
X135537205Y-129049744D01*
X135423937Y-128880226D01*
X135279774Y-128736063D01*
X135110256Y-128622795D01*
X134921898Y-128544774D01*
X134721939Y-128505000D01*
X134518061Y-128505000D01*
X134318102Y-128544774D01*
X134129744Y-128622795D01*
X133960226Y-128736063D01*
X133916289Y-128780000D01*
X132117323Y-128780000D01*
X132080000Y-128776324D01*
X132042677Y-128780000D01*
X132042667Y-128780000D01*
X131931014Y-128790997D01*
X131787753Y-128834454D01*
X131655723Y-128905026D01*
X131572083Y-128973668D01*
X131539999Y-128999999D01*
X131516201Y-129028997D01*
X126960199Y-133585000D01*
X126898061Y-133585000D01*
X126698102Y-133624774D01*
X126509744Y-133702795D01*
X126340226Y-133816063D01*
X126196063Y-133960226D01*
X126082795Y-134129744D01*
X126004774Y-134318102D01*
X125965000Y-134518061D01*
X123096740Y-134518061D01*
X136401008Y-121213795D01*
X136430001Y-121190001D01*
X136453795Y-121161008D01*
X136453799Y-121161004D01*
X136524973Y-121074277D01*
X136524974Y-121074276D01*
X136595546Y-120942247D01*
X136639003Y-120798986D01*
X136650000Y-120687333D01*
X136650000Y-120687324D01*
X136653676Y-120650001D01*
X136650000Y-120612678D01*
X136650000Y-120598043D01*
X136804759Y-120494637D01*
X137004637Y-120294759D01*
X137160000Y-120062241D01*
X137315363Y-120294759D01*
X137515241Y-120494637D01*
X137750273Y-120651680D01*
X138011426Y-120759853D01*
X138288665Y-120815000D01*
X138571335Y-120815000D01*
X138848574Y-120759853D01*
X139109727Y-120651680D01*
X139344759Y-120494637D01*
X139544637Y-120294759D01*
X139700000Y-120062241D01*
X139855363Y-120294759D01*
X140055241Y-120494637D01*
X140290273Y-120651680D01*
X140551426Y-120759853D01*
X140828665Y-120815000D01*
X141111335Y-120815000D01*
X141388574Y-120759853D01*
X141649727Y-120651680D01*
X141884759Y-120494637D01*
X142084637Y-120294759D01*
X142240000Y-120062241D01*
X142395363Y-120294759D01*
X142595241Y-120494637D01*
X142830273Y-120651680D01*
X143091426Y-120759853D01*
X143368665Y-120815000D01*
X143651335Y-120815000D01*
X143928574Y-120759853D01*
X144164999Y-120661923D01*
X144165000Y-137171320D01*
X143956004Y-137072429D01*
X143681816Y-137003700D01*
X143399488Y-136989783D01*
X143119870Y-137031213D01*
X142853708Y-137126397D01*
X142728486Y-137193329D01*
X142656903Y-137437298D01*
X143470000Y-138250395D01*
X143484143Y-138236253D01*
X143663748Y-138415858D01*
X143649605Y-138430000D01*
X143663748Y-138444143D01*
X143484143Y-138623748D01*
X143470000Y-138609605D01*
X142656903Y-139422702D01*
X142728486Y-139666671D01*
X142983996Y-139787571D01*
X143258184Y-139856300D01*
X143540512Y-139870217D01*
X143820130Y-139828787D01*
X144086292Y-139733603D01*
X144165000Y-139691533D01*
X144165000Y-144725050D01*
X144014099Y-144653175D01*
X143866890Y-144608524D01*
X143637000Y-144729845D01*
X143637000Y-145923000D01*
X143657000Y-145923000D01*
X143657000Y-146177000D01*
X143637000Y-146177000D01*
X143637000Y-147370155D01*
X143866890Y-147491476D01*
X144014099Y-147446825D01*
X144276920Y-147321641D01*
X144510269Y-147147588D01*
X144705178Y-146931355D01*
X144774805Y-146814466D01*
X144896525Y-146996632D01*
X145103368Y-147203475D01*
X145346589Y-147365990D01*
X145616842Y-147477932D01*
X145903740Y-147535000D01*
X146196260Y-147535000D01*
X146483158Y-147477932D01*
X146753411Y-147365990D01*
X146996632Y-147203475D01*
X147203475Y-146996632D01*
X147320000Y-146822240D01*
X147436525Y-146996632D01*
X147643368Y-147203475D01*
X147886589Y-147365990D01*
X148156842Y-147477932D01*
X148443740Y-147535000D01*
X148736260Y-147535000D01*
X149023158Y-147477932D01*
X149293411Y-147365990D01*
X149536632Y-147203475D01*
X149743475Y-146996632D01*
X149860000Y-146822240D01*
X149976525Y-146996632D01*
X150183368Y-147203475D01*
X150426589Y-147365990D01*
X150696842Y-147477932D01*
X150983740Y-147535000D01*
X151276260Y-147535000D01*
X151563158Y-147477932D01*
X151833411Y-147365990D01*
X152076632Y-147203475D01*
X152283475Y-146996632D01*
X152400000Y-146822240D01*
X152516525Y-146996632D01*
X152723368Y-147203475D01*
X152966589Y-147365990D01*
X153236842Y-147477932D01*
X153523740Y-147535000D01*
X153816260Y-147535000D01*
X154103158Y-147477932D01*
X154373411Y-147365990D01*
X154616632Y-147203475D01*
X154823475Y-146996632D01*
X154940000Y-146822240D01*
X155056525Y-146996632D01*
X155263368Y-147203475D01*
X155506589Y-147365990D01*
X155776842Y-147477932D01*
X156063740Y-147535000D01*
X156356260Y-147535000D01*
X156643158Y-147477932D01*
X156913411Y-147365990D01*
X157156632Y-147203475D01*
X157363475Y-146996632D01*
X157480000Y-146822240D01*
X157596525Y-146996632D01*
X157803368Y-147203475D01*
X158046589Y-147365990D01*
X158316842Y-147477932D01*
X158603740Y-147535000D01*
X158896260Y-147535000D01*
X159183158Y-147477932D01*
X159453411Y-147365990D01*
X159696632Y-147203475D01*
X159903475Y-146996632D01*
X160020000Y-146822240D01*
X160136525Y-146996632D01*
X160343368Y-147203475D01*
X160586589Y-147365990D01*
X160856842Y-147477932D01*
X161143740Y-147535000D01*
X161436260Y-147535000D01*
X161723158Y-147477932D01*
X161993411Y-147365990D01*
X162236632Y-147203475D01*
X162443475Y-146996632D01*
X162560000Y-146822240D01*
X162676525Y-146996632D01*
X162883368Y-147203475D01*
X163126589Y-147365990D01*
X163396842Y-147477932D01*
X163683740Y-147535000D01*
X163976260Y-147535000D01*
X164263158Y-147477932D01*
X164533411Y-147365990D01*
X164776632Y-147203475D01*
X164983475Y-146996632D01*
X165100000Y-146822240D01*
X165216525Y-146996632D01*
X165423368Y-147203475D01*
X165666589Y-147365990D01*
X165936842Y-147477932D01*
X166223740Y-147535000D01*
X166516260Y-147535000D01*
X166803158Y-147477932D01*
X167073411Y-147365990D01*
X167316632Y-147203475D01*
X167523475Y-146996632D01*
X167640000Y-146822240D01*
X167756525Y-146996632D01*
X167963368Y-147203475D01*
X168206589Y-147365990D01*
X168476842Y-147477932D01*
X168763740Y-147535000D01*
X169056260Y-147535000D01*
X169343158Y-147477932D01*
X169613411Y-147365990D01*
X169816492Y-147230295D01*
X170867210Y-148281014D01*
X170891008Y-148310012D01*
X170920006Y-148333810D01*
X171006732Y-148404985D01*
X171138762Y-148475557D01*
X171282023Y-148519014D01*
X171393676Y-148530011D01*
X171393686Y-148530011D01*
X171431008Y-148533687D01*
X171468331Y-148530011D01*
X177312667Y-148530011D01*
X177349989Y-148533687D01*
X177387311Y-148530011D01*
X177387322Y-148530011D01*
X177498975Y-148519014D01*
X177642236Y-148475557D01*
X177774265Y-148404985D01*
X177889990Y-148310012D01*
X177913793Y-148281008D01*
X178703592Y-147491209D01*
X178923740Y-147535000D01*
X179216260Y-147535000D01*
X179503158Y-147477932D01*
X179773411Y-147365990D01*
X180016632Y-147203475D01*
X180223475Y-146996632D01*
X180340000Y-146822240D01*
X180456525Y-146996632D01*
X180663368Y-147203475D01*
X180906589Y-147365990D01*
X181176842Y-147477932D01*
X181463740Y-147535000D01*
X181756260Y-147535000D01*
X182043158Y-147477932D01*
X182313411Y-147365990D01*
X182556632Y-147203475D01*
X182688487Y-147071620D01*
X182710498Y-147144180D01*
X182769463Y-147254494D01*
X182848815Y-147351185D01*
X182945506Y-147430537D01*
X183055820Y-147489502D01*
X183175518Y-147525812D01*
X183300000Y-147538072D01*
X185000000Y-147538072D01*
X185124482Y-147525812D01*
X185244180Y-147489502D01*
X185354494Y-147430537D01*
X185451185Y-147351185D01*
X185530537Y-147254494D01*
X185589502Y-147144180D01*
X185625812Y-147024482D01*
X185638072Y-146900000D01*
X185638072Y-145200000D01*
X185625812Y-145075518D01*
X185589502Y-144955820D01*
X185530537Y-144845506D01*
X185451185Y-144748815D01*
X185354494Y-144669463D01*
X185244180Y-144610498D01*
X185124482Y-144574188D01*
X185000000Y-144561928D01*
X183300000Y-144561928D01*
X183175518Y-144574188D01*
X183055820Y-144610498D01*
X182945506Y-144669463D01*
X182848815Y-144748815D01*
X182769463Y-144845506D01*
X182710498Y-144955820D01*
X182688487Y-145028380D01*
X182556632Y-144896525D01*
X182370000Y-144771822D01*
X182370000Y-115827322D01*
X182373676Y-115789999D01*
X182370000Y-115752677D01*
X182370000Y-115752667D01*
X182359003Y-115641014D01*
X182315546Y-115497753D01*
X182244975Y-115365725D01*
X182244974Y-115365723D01*
X182173799Y-115278997D01*
X182150001Y-115249999D01*
X182121004Y-115226202D01*
X170523804Y-103629003D01*
X170500001Y-103599999D01*
X170384276Y-103505026D01*
X170348072Y-103485674D01*
X170348072Y-103340000D01*
X170335812Y-103215518D01*
X170299502Y-103095820D01*
X170240537Y-102985506D01*
X170161185Y-102888815D01*
X170064494Y-102809463D01*
X169954180Y-102750498D01*
X169834482Y-102714188D01*
X169710000Y-102701928D01*
X168110000Y-102701928D01*
X167985518Y-102714188D01*
X167865820Y-102750498D01*
X167755506Y-102809463D01*
X167658815Y-102888815D01*
X167579463Y-102985506D01*
X167520498Y-103095820D01*
X167484188Y-103215518D01*
X167483357Y-103223961D01*
X167284759Y-103025363D01*
X167049727Y-102868320D01*
X166788574Y-102760147D01*
X166511335Y-102705000D01*
X166228665Y-102705000D01*
X165951426Y-102760147D01*
X165690273Y-102868320D01*
X165455241Y-103025363D01*
X165255363Y-103225241D01*
X165100000Y-103457759D01*
X164944637Y-103225241D01*
X164744759Y-103025363D01*
X164509727Y-102868320D01*
X164248574Y-102760147D01*
X163971335Y-102705000D01*
X163688665Y-102705000D01*
X163411426Y-102760147D01*
X163150273Y-102868320D01*
X162915241Y-103025363D01*
X162715363Y-103225241D01*
X162560000Y-103457759D01*
X162404637Y-103225241D01*
X162204759Y-103025363D01*
X161969727Y-102868320D01*
X161708574Y-102760147D01*
X161431335Y-102705000D01*
X161148665Y-102705000D01*
X160871426Y-102760147D01*
X160610273Y-102868320D01*
X160375241Y-103025363D01*
X160175363Y-103225241D01*
X160020000Y-103457759D01*
X159864637Y-103225241D01*
X159664759Y-103025363D01*
X159429727Y-102868320D01*
X159168574Y-102760147D01*
X158891335Y-102705000D01*
X158608665Y-102705000D01*
X158331426Y-102760147D01*
X158070273Y-102868320D01*
X157835241Y-103025363D01*
X157635363Y-103225241D01*
X157480000Y-103457759D01*
X157324637Y-103225241D01*
X157124759Y-103025363D01*
X156889727Y-102868320D01*
X156628574Y-102760147D01*
X156351335Y-102705000D01*
X156068665Y-102705000D01*
X155791426Y-102760147D01*
X155530273Y-102868320D01*
X155295241Y-103025363D01*
X155095363Y-103225241D01*
X154940000Y-103457759D01*
X154784637Y-103225241D01*
X154584759Y-103025363D01*
X154349727Y-102868320D01*
X154088574Y-102760147D01*
X153811335Y-102705000D01*
X153528665Y-102705000D01*
X153251426Y-102760147D01*
X152990273Y-102868320D01*
X152755241Y-103025363D01*
X152555363Y-103225241D01*
X152400000Y-103457759D01*
X152244637Y-103225241D01*
X152044759Y-103025363D01*
X151809727Y-102868320D01*
X151548574Y-102760147D01*
X151271335Y-102705000D01*
X150988665Y-102705000D01*
X150711426Y-102760147D01*
X150450273Y-102868320D01*
X150215241Y-103025363D01*
X150015363Y-103225241D01*
X149860000Y-103457759D01*
X149704637Y-103225241D01*
X149504759Y-103025363D01*
X149269727Y-102868320D01*
X149008574Y-102760147D01*
X148731335Y-102705000D01*
X148448665Y-102705000D01*
X148171426Y-102760147D01*
X147910273Y-102868320D01*
X147675241Y-103025363D01*
X147475363Y-103225241D01*
X147320000Y-103457759D01*
X147164637Y-103225241D01*
X146964759Y-103025363D01*
X146729727Y-102868320D01*
X146468574Y-102760147D01*
X146191335Y-102705000D01*
X145908665Y-102705000D01*
X145631426Y-102760147D01*
X145370273Y-102868320D01*
X145135241Y-103025363D01*
X144935363Y-103225241D01*
X144780000Y-103457759D01*
X144624637Y-103225241D01*
X144424759Y-103025363D01*
X144189727Y-102868320D01*
X143928574Y-102760147D01*
X143651335Y-102705000D01*
X143368665Y-102705000D01*
X143186113Y-102741312D01*
X142948803Y-102504001D01*
X142925000Y-102474998D01*
X142809275Y-102380025D01*
X142677246Y-102309453D01*
X142533985Y-102265996D01*
X142422332Y-102254999D01*
X142422321Y-102254999D01*
X142384999Y-102251323D01*
X142347677Y-102254999D01*
X125622326Y-102254999D01*
X125585001Y-102251323D01*
X125547676Y-102254999D01*
X125547668Y-102254999D01*
X125436015Y-102265996D01*
X125292754Y-102309453D01*
X125160725Y-102380025D01*
X125045000Y-102474998D01*
X125021202Y-102503996D01*
X118070199Y-109455000D01*
X118008061Y-109455000D01*
X117808102Y-109494774D01*
X117619744Y-109572795D01*
X117450226Y-109686063D01*
X117306063Y-109830226D01*
X117192795Y-109999744D01*
X117114774Y-110188102D01*
X117100361Y-110260560D01*
X116800764Y-109960963D01*
X116841680Y-109899727D01*
X116949853Y-109638574D01*
X117005000Y-109361335D01*
X117005000Y-109078665D01*
X116949853Y-108801426D01*
X116841680Y-108540273D01*
X116684637Y-108305241D01*
X116484759Y-108105363D01*
X116252241Y-107950000D01*
X116484759Y-107794637D01*
X116684637Y-107594759D01*
X116841680Y-107359727D01*
X116949853Y-107098574D01*
X117005000Y-106821335D01*
X117005000Y-106538665D01*
X116949853Y-106261426D01*
X116841680Y-106000273D01*
X116684637Y-105765241D01*
X116484759Y-105565363D01*
X116252241Y-105410000D01*
X116484759Y-105254637D01*
X116684637Y-105054759D01*
X116841680Y-104819727D01*
X116949853Y-104558574D01*
X117005000Y-104281335D01*
X117005000Y-103998665D01*
X116949853Y-103721426D01*
X116841680Y-103460273D01*
X116684637Y-103225241D01*
X116484759Y-103025363D01*
X116249727Y-102868320D01*
X115988574Y-102760147D01*
X115711335Y-102705000D01*
X115428665Y-102705000D01*
X115151426Y-102760147D01*
X114890273Y-102868320D01*
X114655241Y-103025363D01*
X114455363Y-103225241D01*
X114298320Y-103460273D01*
X114190147Y-103721426D01*
X114135000Y-103998665D01*
X114135000Y-104281335D01*
X114190147Y-104558574D01*
X114298320Y-104819727D01*
X114455363Y-105054759D01*
X114655241Y-105254637D01*
X114887759Y-105410000D01*
X114655241Y-105565363D01*
X114455363Y-105765241D01*
X114298320Y-106000273D01*
X114190147Y-106261426D01*
X114135000Y-106538665D01*
X114135000Y-106821335D01*
X114190147Y-107098574D01*
X114298320Y-107359727D01*
X114455363Y-107594759D01*
X114655241Y-107794637D01*
X114887759Y-107950000D01*
X114655241Y-108105363D01*
X114455363Y-108305241D01*
X114298320Y-108540273D01*
X114190147Y-108801426D01*
X114135000Y-109078665D01*
X114135000Y-109361335D01*
X114179491Y-109585001D01*
X109340509Y-109585001D01*
X109385000Y-109361335D01*
X109385000Y-109078665D01*
X109329853Y-108801426D01*
X109221680Y-108540273D01*
X109064637Y-108305241D01*
X108864759Y-108105363D01*
X108632241Y-107950000D01*
X108864759Y-107794637D01*
X109064637Y-107594759D01*
X109221680Y-107359727D01*
X109329853Y-107098574D01*
X109385000Y-106821335D01*
X109385000Y-106538665D01*
X109329853Y-106261426D01*
X109221680Y-106000273D01*
X109064637Y-105765241D01*
X108866039Y-105566643D01*
X108874482Y-105565812D01*
X108994180Y-105529502D01*
X109104494Y-105470537D01*
X109201185Y-105391185D01*
X109280537Y-105294494D01*
X109339502Y-105184180D01*
X109375812Y-105064482D01*
X109388072Y-104940000D01*
X109388072Y-103340000D01*
X109375812Y-103215518D01*
X109339502Y-103095820D01*
X109280537Y-102985506D01*
X109201185Y-102888815D01*
X109104494Y-102809463D01*
X108994180Y-102750498D01*
X108874482Y-102714188D01*
X108750000Y-102701928D01*
X107150000Y-102701928D01*
X107025518Y-102714188D01*
X106905820Y-102750498D01*
X106795506Y-102809463D01*
X106698815Y-102888815D01*
X106619463Y-102985506D01*
X106560498Y-103095820D01*
X106524188Y-103215518D01*
X106511928Y-103340000D01*
X106511928Y-104940000D01*
X106524188Y-105064482D01*
X106560498Y-105184180D01*
X106619463Y-105294494D01*
X106698815Y-105391185D01*
X106795506Y-105470537D01*
X106905820Y-105529502D01*
X107025518Y-105565812D01*
X107033961Y-105566643D01*
X106835363Y-105765241D01*
X106678320Y-106000273D01*
X106570147Y-106261426D01*
X106515000Y-106538665D01*
X106515000Y-106821335D01*
X106570147Y-107098574D01*
X106678320Y-107359727D01*
X106835363Y-107594759D01*
X107035241Y-107794637D01*
X107267759Y-107950000D01*
X107035241Y-108105363D01*
X106835363Y-108305241D01*
X106678320Y-108540273D01*
X106570147Y-108801426D01*
X106515000Y-109078665D01*
X106515000Y-109361335D01*
X106559491Y-109585001D01*
X96640509Y-109585001D01*
X96685000Y-109361335D01*
X96685000Y-109078665D01*
X96629853Y-108801426D01*
X96521680Y-108540273D01*
X96364637Y-108305241D01*
X96164759Y-108105363D01*
X95932241Y-107950000D01*
X96164759Y-107794637D01*
X96364637Y-107594759D01*
X96521680Y-107359727D01*
X96629853Y-107098574D01*
X96685000Y-106821335D01*
X96685000Y-106538665D01*
X96629853Y-106261426D01*
X96521680Y-106000273D01*
X96364637Y-105765241D01*
X96164759Y-105565363D01*
X95932241Y-105410000D01*
X96164759Y-105254637D01*
X96364637Y-105054759D01*
X96521680Y-104819727D01*
X96629853Y-104558574D01*
X96685000Y-104281335D01*
X96685000Y-103998665D01*
X96629853Y-103721426D01*
X96521680Y-103460273D01*
X96364637Y-103225241D01*
X96164759Y-103025363D01*
X95929727Y-102868320D01*
X95668574Y-102760147D01*
X95391335Y-102705000D01*
X95108665Y-102705000D01*
X94831426Y-102760147D01*
X94570273Y-102868320D01*
X94335241Y-103025363D01*
X94135363Y-103225241D01*
X93978320Y-103460273D01*
X93870147Y-103721426D01*
X93815000Y-103998665D01*
X93815000Y-104281335D01*
X93870147Y-104558574D01*
X93978320Y-104819727D01*
X94135363Y-105054759D01*
X94335241Y-105254637D01*
X94567759Y-105410000D01*
X94335241Y-105565363D01*
X94135363Y-105765241D01*
X93978320Y-106000273D01*
X93870147Y-106261426D01*
X93815000Y-106538665D01*
X93815000Y-106821335D01*
X93870147Y-107098574D01*
X93978320Y-107359727D01*
X94135363Y-107594759D01*
X94335241Y-107794637D01*
X94567759Y-107950000D01*
X94335241Y-108105363D01*
X94135363Y-108305241D01*
X93978320Y-108540273D01*
X93870147Y-108801426D01*
X93815000Y-109078665D01*
X93815000Y-109361335D01*
X93859491Y-109585001D01*
X89069803Y-109585001D01*
X89028688Y-109543886D01*
X89065000Y-109361335D01*
X89065000Y-109078665D01*
X89009853Y-108801426D01*
X88901680Y-108540273D01*
X88744637Y-108305241D01*
X88544759Y-108105363D01*
X88312241Y-107950000D01*
X88544759Y-107794637D01*
X88744637Y-107594759D01*
X88901680Y-107359727D01*
X89009853Y-107098574D01*
X89065000Y-106821335D01*
X89065000Y-106538665D01*
X89009853Y-106261426D01*
X88901680Y-106000273D01*
X88744637Y-105765241D01*
X88546039Y-105566643D01*
X88554482Y-105565812D01*
X88674180Y-105529502D01*
X88784494Y-105470537D01*
X88881185Y-105391185D01*
X88960537Y-105294494D01*
X89019502Y-105184180D01*
X89055812Y-105064482D01*
X89068072Y-104940000D01*
X89068072Y-103340000D01*
X89055812Y-103215518D01*
X89019502Y-103095820D01*
X88960537Y-102985506D01*
X88881185Y-102888815D01*
X88784494Y-102809463D01*
X88674180Y-102750498D01*
X88554482Y-102714188D01*
X88430000Y-102701928D01*
X86830000Y-102701928D01*
X86705518Y-102714188D01*
X86585820Y-102750498D01*
X86475506Y-102809463D01*
X86378815Y-102888815D01*
X86299463Y-102985506D01*
X86240498Y-103095820D01*
X86204188Y-103215518D01*
X86191928Y-103340000D01*
X86191928Y-104940000D01*
X86204188Y-105064482D01*
X86240498Y-105184180D01*
X86299463Y-105294494D01*
X86378815Y-105391185D01*
X86475506Y-105470537D01*
X86585820Y-105529502D01*
X86705518Y-105565812D01*
X86713961Y-105566643D01*
X86515363Y-105765241D01*
X86358320Y-106000273D01*
X86250147Y-106261426D01*
X86195000Y-106538665D01*
X86195000Y-106821335D01*
X86250147Y-107098574D01*
X86358320Y-107359727D01*
X86515363Y-107594759D01*
X86715241Y-107794637D01*
X86947759Y-107950000D01*
X86715241Y-108105363D01*
X86515363Y-108305241D01*
X86358320Y-108540273D01*
X86250147Y-108801426D01*
X86195000Y-109078665D01*
X86195000Y-109361335D01*
X86250147Y-109638574D01*
X86358320Y-109899727D01*
X86515363Y-110134759D01*
X86715241Y-110334637D01*
X86947759Y-110490000D01*
X86715241Y-110645363D01*
X86515363Y-110845241D01*
X86358320Y-111080273D01*
X86250147Y-111341426D01*
X86195000Y-111618665D01*
X86195000Y-111901335D01*
X86250147Y-112178574D01*
X86358320Y-112439727D01*
X86515363Y-112674759D01*
X86715241Y-112874637D01*
X86947759Y-113030000D01*
X86715241Y-113185363D01*
X86515363Y-113385241D01*
X86358320Y-113620273D01*
X86250147Y-113881426D01*
X86195000Y-114158665D01*
X86195000Y-114441335D01*
X86250147Y-114718574D01*
X86358320Y-114979727D01*
X86515363Y-115214759D01*
X86715241Y-115414637D01*
X86947759Y-115570000D01*
X86715241Y-115725363D01*
X86515363Y-115925241D01*
X86358320Y-116160273D01*
X86250147Y-116421426D01*
X86195000Y-116698665D01*
X86195000Y-116981335D01*
X86250147Y-117258574D01*
X86358320Y-117519727D01*
X86515363Y-117754759D01*
X86715241Y-117954637D01*
X86950273Y-118111680D01*
X86960865Y-118116067D01*
X86774869Y-118227615D01*
X86566481Y-118416586D01*
X86398963Y-118642580D01*
X86278754Y-118896913D01*
X86238096Y-119030961D01*
X86360085Y-119253000D01*
X87503000Y-119253000D01*
X87503000Y-119233000D01*
X87757000Y-119233000D01*
X87757000Y-119253000D01*
X88899915Y-119253000D01*
X89021904Y-119030961D01*
X88981246Y-118896913D01*
X88899993Y-118725001D01*
X93968077Y-118725001D01*
X93870147Y-118961426D01*
X93815000Y-119238665D01*
X93815000Y-119521335D01*
X93870147Y-119798574D01*
X93978320Y-120059727D01*
X94135363Y-120294759D01*
X94335241Y-120494637D01*
X94570273Y-120651680D01*
X94831426Y-120759853D01*
X95108665Y-120815000D01*
X95391335Y-120815000D01*
X95668574Y-120759853D01*
X95929727Y-120651680D01*
X96164759Y-120494637D01*
X96364637Y-120294759D01*
X96521680Y-120059727D01*
X96629853Y-119798574D01*
X96643684Y-119729039D01*
X106558096Y-119729039D01*
X106598754Y-119863087D01*
X106718963Y-120117420D01*
X106886481Y-120343414D01*
X107094869Y-120532385D01*
X107336119Y-120677070D01*
X107600960Y-120771909D01*
X107823000Y-120650624D01*
X107823000Y-119507000D01*
X108077000Y-119507000D01*
X108077000Y-120650624D01*
X108299040Y-120771909D01*
X108563881Y-120677070D01*
X108805131Y-120532385D01*
X109013519Y-120343414D01*
X109181037Y-120117420D01*
X109301246Y-119863087D01*
X109341904Y-119729039D01*
X109219915Y-119507000D01*
X108077000Y-119507000D01*
X107823000Y-119507000D01*
X106680085Y-119507000D01*
X106558096Y-119729039D01*
X96643684Y-119729039D01*
X96685000Y-119521335D01*
X96685000Y-119238665D01*
X96629853Y-118961426D01*
X96531923Y-118725001D01*
X106680007Y-118725001D01*
X106598754Y-118896913D01*
X106558096Y-119030961D01*
X106680085Y-119253000D01*
X107823000Y-119253000D01*
X107823000Y-119233000D01*
X108077000Y-119233000D01*
X108077000Y-119253000D01*
X109219915Y-119253000D01*
X109341904Y-119030961D01*
X109301246Y-118896913D01*
X109219993Y-118725001D01*
X114288077Y-118725001D01*
X114190147Y-118961426D01*
X114135000Y-119238665D01*
X114135000Y-119521335D01*
X114190147Y-119798574D01*
X114298320Y-120059727D01*
X114455363Y-120294759D01*
X114655241Y-120494637D01*
X114890273Y-120651680D01*
X115151426Y-120759853D01*
X115428665Y-120815000D01*
X115711335Y-120815000D01*
X115988574Y-120759853D01*
X116249727Y-120651680D01*
X116484759Y-120494637D01*
X116684637Y-120294759D01*
X116841680Y-120059727D01*
X116949853Y-119798574D01*
X117005000Y-119521335D01*
X117005000Y-119238665D01*
X116949853Y-118961426D01*
X116851923Y-118725001D01*
X117302872Y-118725001D01*
X117192795Y-118889744D01*
X117114774Y-119078102D01*
X117075000Y-119278061D01*
X117075000Y-119481939D01*
X117114774Y-119681898D01*
X117192795Y-119870256D01*
X117306063Y-120039774D01*
X117350000Y-120083711D01*
X117350001Y-121216288D01*
X117306063Y-121260226D01*
X117192795Y-121429744D01*
X117114774Y-121618102D01*
X117075000Y-121818061D01*
X117075000Y-122021939D01*
X117114774Y-122221898D01*
X117192795Y-122410256D01*
X117306063Y-122579774D01*
X117450226Y-122723937D01*
X117480819Y-122744379D01*
X99819003Y-140406196D01*
X99789999Y-140429999D01*
X99749175Y-140479744D01*
X99695026Y-140545724D01*
X99629613Y-140668102D01*
X99624454Y-140677754D01*
X99580997Y-140821015D01*
X99570000Y-140932668D01*
X99570000Y-140932678D01*
X99566324Y-140970000D01*
X99570000Y-141007323D01*
X99570001Y-144771821D01*
X99383368Y-144896525D01*
X99176525Y-145103368D01*
X99060000Y-145277760D01*
X98943475Y-145103368D01*
X98736632Y-144896525D01*
X98493411Y-144734010D01*
X98223158Y-144622068D01*
X97936260Y-144565000D01*
X97643740Y-144565000D01*
X97356842Y-144622068D01*
X97086589Y-144734010D01*
X96843368Y-144896525D01*
X96636525Y-145103368D01*
X96520000Y-145277760D01*
X96403475Y-145103368D01*
X96196632Y-144896525D01*
X95953411Y-144734010D01*
X95683158Y-144622068D01*
X95396260Y-144565000D01*
X95103740Y-144565000D01*
X94816842Y-144622068D01*
X94546589Y-144734010D01*
X94303368Y-144896525D01*
X94096525Y-145103368D01*
X93980000Y-145277760D01*
X93863475Y-145103368D01*
X93656632Y-144896525D01*
X93413411Y-144734010D01*
X93143158Y-144622068D01*
X92856260Y-144565000D01*
X92563740Y-144565000D01*
X92276842Y-144622068D01*
X92006589Y-144734010D01*
X91763368Y-144896525D01*
X91556525Y-145103368D01*
X91440000Y-145277760D01*
X91323475Y-145103368D01*
X91116632Y-144896525D01*
X90873411Y-144734010D01*
X90603158Y-144622068D01*
X90316260Y-144565000D01*
X90023740Y-144565000D01*
X89736842Y-144622068D01*
X89466589Y-144734010D01*
X89223368Y-144896525D01*
X89016525Y-145103368D01*
X88900000Y-145277760D01*
X88783475Y-145103368D01*
X88576632Y-144896525D01*
X88333411Y-144734010D01*
X88063158Y-144622068D01*
X87776260Y-144565000D01*
X87483740Y-144565000D01*
X87196842Y-144622068D01*
X86926589Y-144734010D01*
X86683368Y-144896525D01*
X86476525Y-145103368D01*
X86360000Y-145277760D01*
X86243475Y-145103368D01*
X86036632Y-144896525D01*
X85793411Y-144734010D01*
X85523158Y-144622068D01*
X85236260Y-144565000D01*
X84943740Y-144565000D01*
X84656842Y-144622068D01*
X84386589Y-144734010D01*
X84143368Y-144896525D01*
X83936525Y-145103368D01*
X83774010Y-145346589D01*
X83662068Y-145616842D01*
X83605000Y-145903740D01*
X75590000Y-145903740D01*
X75590000Y-125195000D01*
X76257857Y-125195000D01*
X76257857Y-136665000D01*
X101542143Y-136665000D01*
X101542143Y-125195000D01*
X76257857Y-125195000D01*
X75590000Y-125195000D01*
X75590000Y-119729039D01*
X86238096Y-119729039D01*
X86278754Y-119863087D01*
X86398963Y-120117420D01*
X86566481Y-120343414D01*
X86774869Y-120532385D01*
X87016119Y-120677070D01*
X87280960Y-120771909D01*
X87503000Y-120650624D01*
X87503000Y-119507000D01*
X87757000Y-119507000D01*
X87757000Y-120650624D01*
X87979040Y-120771909D01*
X88243881Y-120677070D01*
X88485131Y-120532385D01*
X88693519Y-120343414D01*
X88861037Y-120117420D01*
X88981246Y-119863087D01*
X89021904Y-119729039D01*
X88899915Y-119507000D01*
X87757000Y-119507000D01*
X87503000Y-119507000D01*
X86360085Y-119507000D01*
X86238096Y-119729039D01*
X75590000Y-119729039D01*
X75590000Y-99810000D01*
X177217857Y-99810000D01*
X177217857Y-103630000D01*
X186002143Y-103630000D01*
X186002143Y-99810000D01*
X177217857Y-99810000D01*
X75590000Y-99810000D01*
X75590000Y-95910000D01*
X193650001Y-95910000D01*
X193650000Y-150470000D01*
G04 #@! TA.AperFunction,Conductor*
D20*
G36*
X193650000Y-150470000D02*
G01*
X75590000Y-150470000D01*
X75590000Y-145903740D01*
X83605000Y-145903740D01*
X83605000Y-146196260D01*
X83662068Y-146483158D01*
X83774010Y-146753411D01*
X83936525Y-146996632D01*
X84143368Y-147203475D01*
X84386589Y-147365990D01*
X84656842Y-147477932D01*
X84943740Y-147535000D01*
X85236260Y-147535000D01*
X85523158Y-147477932D01*
X85793411Y-147365990D01*
X86036632Y-147203475D01*
X86243475Y-146996632D01*
X86360000Y-146822240D01*
X86476525Y-146996632D01*
X86683368Y-147203475D01*
X86926589Y-147365990D01*
X87196842Y-147477932D01*
X87483740Y-147535000D01*
X87776260Y-147535000D01*
X88063158Y-147477932D01*
X88333411Y-147365990D01*
X88576632Y-147203475D01*
X88783475Y-146996632D01*
X88900000Y-146822240D01*
X89016525Y-146996632D01*
X89223368Y-147203475D01*
X89466589Y-147365990D01*
X89736842Y-147477932D01*
X90023740Y-147535000D01*
X90316260Y-147535000D01*
X90603158Y-147477932D01*
X90873411Y-147365990D01*
X91116632Y-147203475D01*
X91323475Y-146996632D01*
X91440000Y-146822240D01*
X91556525Y-146996632D01*
X91763368Y-147203475D01*
X92006589Y-147365990D01*
X92276842Y-147477932D01*
X92563740Y-147535000D01*
X92856260Y-147535000D01*
X93143158Y-147477932D01*
X93413411Y-147365990D01*
X93656632Y-147203475D01*
X93863475Y-146996632D01*
X93980000Y-146822240D01*
X94096525Y-146996632D01*
X94303368Y-147203475D01*
X94546589Y-147365990D01*
X94816842Y-147477932D01*
X95103740Y-147535000D01*
X95396260Y-147535000D01*
X95683158Y-147477932D01*
X95953411Y-147365990D01*
X96196632Y-147203475D01*
X96403475Y-146996632D01*
X96520000Y-146822240D01*
X96636525Y-146996632D01*
X96843368Y-147203475D01*
X97086589Y-147365990D01*
X97356842Y-147477932D01*
X97643740Y-147535000D01*
X97936260Y-147535000D01*
X98223158Y-147477932D01*
X98493411Y-147365990D01*
X98736632Y-147203475D01*
X98943475Y-146996632D01*
X99060000Y-146822240D01*
X99176525Y-146996632D01*
X99383368Y-147203475D01*
X99626589Y-147365990D01*
X99896842Y-147477932D01*
X100183740Y-147535000D01*
X100476260Y-147535000D01*
X100763158Y-147477932D01*
X101033411Y-147365990D01*
X101276632Y-147203475D01*
X101483475Y-146996632D01*
X101600000Y-146822240D01*
X101716525Y-146996632D01*
X101923368Y-147203475D01*
X102166589Y-147365990D01*
X102436842Y-147477932D01*
X102723740Y-147535000D01*
X103016260Y-147535000D01*
X103303158Y-147477932D01*
X103573411Y-147365990D01*
X103816632Y-147203475D01*
X104023475Y-146996632D01*
X104140000Y-146822240D01*
X104256525Y-146996632D01*
X104463368Y-147203475D01*
X104706589Y-147365990D01*
X104976842Y-147477932D01*
X105263740Y-147535000D01*
X105556260Y-147535000D01*
X105843158Y-147477932D01*
X106113411Y-147365990D01*
X106356632Y-147203475D01*
X106563475Y-146996632D01*
X106680000Y-146822240D01*
X106796525Y-146996632D01*
X107003368Y-147203475D01*
X107246589Y-147365990D01*
X107516842Y-147477932D01*
X107803740Y-147535000D01*
X108096260Y-147535000D01*
X108383158Y-147477932D01*
X108653411Y-147365990D01*
X108896632Y-147203475D01*
X109103475Y-146996632D01*
X109220000Y-146822240D01*
X109336525Y-146996632D01*
X109543368Y-147203475D01*
X109786589Y-147365990D01*
X110056842Y-147477932D01*
X110343740Y-147535000D01*
X110636260Y-147535000D01*
X110923158Y-147477932D01*
X111193411Y-147365990D01*
X111436632Y-147203475D01*
X111643475Y-146996632D01*
X111760000Y-146822240D01*
X111876525Y-146996632D01*
X112083368Y-147203475D01*
X112326589Y-147365990D01*
X112596842Y-147477932D01*
X112883740Y-147535000D01*
X113176260Y-147535000D01*
X113463158Y-147477932D01*
X113733411Y-147365990D01*
X113976632Y-147203475D01*
X114183475Y-146996632D01*
X114300000Y-146822240D01*
X114416525Y-146996632D01*
X114623368Y-147203475D01*
X114866589Y-147365990D01*
X115136842Y-147477932D01*
X115423740Y-147535000D01*
X115716260Y-147535000D01*
X116003158Y-147477932D01*
X116273411Y-147365990D01*
X116516632Y-147203475D01*
X116723475Y-146996632D01*
X116840000Y-146822240D01*
X116956525Y-146996632D01*
X117163368Y-147203475D01*
X117406589Y-147365990D01*
X117676842Y-147477932D01*
X117963740Y-147535000D01*
X118256260Y-147535000D01*
X118543158Y-147477932D01*
X118813411Y-147365990D01*
X119056632Y-147203475D01*
X119263475Y-146996632D01*
X119380000Y-146822240D01*
X119496525Y-146996632D01*
X119703368Y-147203475D01*
X119946589Y-147365990D01*
X120216842Y-147477932D01*
X120503740Y-147535000D01*
X120796260Y-147535000D01*
X121083158Y-147477932D01*
X121353411Y-147365990D01*
X121596632Y-147203475D01*
X121803475Y-146996632D01*
X121920000Y-146822240D01*
X122036525Y-146996632D01*
X122243368Y-147203475D01*
X122486589Y-147365990D01*
X122756842Y-147477932D01*
X123043740Y-147535000D01*
X123336260Y-147535000D01*
X123623158Y-147477932D01*
X123893411Y-147365990D01*
X124136632Y-147203475D01*
X124343475Y-146996632D01*
X124460000Y-146822240D01*
X124576525Y-146996632D01*
X124783368Y-147203475D01*
X125026589Y-147365990D01*
X125296842Y-147477932D01*
X125583740Y-147535000D01*
X125876260Y-147535000D01*
X126163158Y-147477932D01*
X126433411Y-147365990D01*
X126676632Y-147203475D01*
X126883475Y-146996632D01*
X127000000Y-146822240D01*
X127116525Y-146996632D01*
X127323368Y-147203475D01*
X127566589Y-147365990D01*
X127836842Y-147477932D01*
X128123740Y-147535000D01*
X128416260Y-147535000D01*
X128703158Y-147477932D01*
X128973411Y-147365990D01*
X129216632Y-147203475D01*
X129423475Y-146996632D01*
X129540000Y-146822240D01*
X129656525Y-146996632D01*
X129863368Y-147203475D01*
X130106589Y-147365990D01*
X130376842Y-147477932D01*
X130663740Y-147535000D01*
X130956260Y-147535000D01*
X131243158Y-147477932D01*
X131513411Y-147365990D01*
X131756632Y-147203475D01*
X131963475Y-146996632D01*
X132080000Y-146822240D01*
X132196525Y-146996632D01*
X132403368Y-147203475D01*
X132646589Y-147365990D01*
X132916842Y-147477932D01*
X133203740Y-147535000D01*
X133496260Y-147535000D01*
X133783158Y-147477932D01*
X134053411Y-147365990D01*
X134296632Y-147203475D01*
X134503475Y-146996632D01*
X134620000Y-146822240D01*
X134736525Y-146996632D01*
X134943368Y-147203475D01*
X135186589Y-147365990D01*
X135456842Y-147477932D01*
X135743740Y-147535000D01*
X136036260Y-147535000D01*
X136323158Y-147477932D01*
X136593411Y-147365990D01*
X136836632Y-147203475D01*
X137043475Y-146996632D01*
X137160000Y-146822240D01*
X137276525Y-146996632D01*
X137483368Y-147203475D01*
X137726589Y-147365990D01*
X137996842Y-147477932D01*
X138283740Y-147535000D01*
X138576260Y-147535000D01*
X138863158Y-147477932D01*
X139133411Y-147365990D01*
X139376632Y-147203475D01*
X139583475Y-146996632D01*
X139700000Y-146822240D01*
X139816525Y-146996632D01*
X140023368Y-147203475D01*
X140266589Y-147365990D01*
X140536842Y-147477932D01*
X140823740Y-147535000D01*
X141116260Y-147535000D01*
X141403158Y-147477932D01*
X141673411Y-147365990D01*
X141916632Y-147203475D01*
X142123475Y-146996632D01*
X142245195Y-146814466D01*
X142314822Y-146931355D01*
X142509731Y-147147588D01*
X142743080Y-147321641D01*
X143005901Y-147446825D01*
X143153110Y-147491476D01*
X143383000Y-147370155D01*
X143383000Y-146177000D01*
X143363000Y-146177000D01*
X143363000Y-145923000D01*
X143383000Y-145923000D01*
X143383000Y-144729845D01*
X143153110Y-144608524D01*
X143005901Y-144653175D01*
X142743080Y-144778359D01*
X142509731Y-144952412D01*
X142314822Y-145168645D01*
X142245195Y-145285534D01*
X142123475Y-145103368D01*
X141916632Y-144896525D01*
X141673411Y-144734010D01*
X141403158Y-144622068D01*
X141116260Y-144565000D01*
X140823740Y-144565000D01*
X140536842Y-144622068D01*
X140266589Y-144734010D01*
X140023368Y-144896525D01*
X139816525Y-145103368D01*
X139700000Y-145277760D01*
X139583475Y-145103368D01*
X139376632Y-144896525D01*
X139133411Y-144734010D01*
X138863158Y-144622068D01*
X138576260Y-144565000D01*
X138283740Y-144565000D01*
X137996842Y-144622068D01*
X137726589Y-144734010D01*
X137483368Y-144896525D01*
X137276525Y-145103368D01*
X137160000Y-145277760D01*
X137043475Y-145103368D01*
X136836632Y-144896525D01*
X136593411Y-144734010D01*
X136323158Y-144622068D01*
X136036260Y-144565000D01*
X135743740Y-144565000D01*
X135456842Y-144622068D01*
X135186589Y-144734010D01*
X134943368Y-144896525D01*
X134736525Y-145103368D01*
X134620000Y-145277760D01*
X134503475Y-145103368D01*
X134296632Y-144896525D01*
X134053411Y-144734010D01*
X133783158Y-144622068D01*
X133496260Y-144565000D01*
X133203740Y-144565000D01*
X132916842Y-144622068D01*
X132646589Y-144734010D01*
X132403368Y-144896525D01*
X132196525Y-145103368D01*
X132080000Y-145277760D01*
X131963475Y-145103368D01*
X131756632Y-144896525D01*
X131513411Y-144734010D01*
X131243158Y-144622068D01*
X130956260Y-144565000D01*
X130663740Y-144565000D01*
X130376842Y-144622068D01*
X130106589Y-144734010D01*
X129863368Y-144896525D01*
X129656525Y-145103368D01*
X129540000Y-145277760D01*
X129423475Y-145103368D01*
X129216632Y-144896525D01*
X128973411Y-144734010D01*
X128703158Y-144622068D01*
X128416260Y-144565000D01*
X128123740Y-144565000D01*
X127836842Y-144622068D01*
X127566589Y-144734010D01*
X127323368Y-144896525D01*
X127116525Y-145103368D01*
X127000000Y-145277760D01*
X126883475Y-145103368D01*
X126676632Y-144896525D01*
X126433411Y-144734010D01*
X126163158Y-144622068D01*
X125876260Y-144565000D01*
X125583740Y-144565000D01*
X125296842Y-144622068D01*
X125026589Y-144734010D01*
X124783368Y-144896525D01*
X124576525Y-145103368D01*
X124460000Y-145277760D01*
X124343475Y-145103368D01*
X124136632Y-144896525D01*
X123893411Y-144734010D01*
X123623158Y-144622068D01*
X123336260Y-144565000D01*
X123043740Y-144565000D01*
X122756842Y-144622068D01*
X122486589Y-144734010D01*
X122243368Y-144896525D01*
X122036525Y-145103368D01*
X121920000Y-145277760D01*
X121803475Y-145103368D01*
X121596632Y-144896525D01*
X121353411Y-144734010D01*
X121083158Y-144622068D01*
X120796260Y-144565000D01*
X120503740Y-144565000D01*
X120216842Y-144622068D01*
X119946589Y-144734010D01*
X119703368Y-144896525D01*
X119496525Y-145103368D01*
X119380000Y-145277760D01*
X119263475Y-145103368D01*
X119056632Y-144896525D01*
X118870000Y-144771822D01*
X118870000Y-144414013D01*
X118889744Y-144427205D01*
X119078102Y-144505226D01*
X119278061Y-144545000D01*
X119481939Y-144545000D01*
X119681898Y-144505226D01*
X119870256Y-144427205D01*
X120039774Y-144313937D01*
X120183937Y-144169774D01*
X120297205Y-144000256D01*
X120375226Y-143811898D01*
X120415000Y-143611939D01*
X120415000Y-143549801D01*
X122234803Y-141730000D01*
X132646289Y-141730000D01*
X132690226Y-141773937D01*
X132859744Y-141887205D01*
X133048102Y-141965226D01*
X133248061Y-142005000D01*
X133451939Y-142005000D01*
X133651898Y-141965226D01*
X133840256Y-141887205D01*
X134009774Y-141773937D01*
X134153937Y-141629774D01*
X134267205Y-141460256D01*
X134345226Y-141271898D01*
X134385000Y-141071939D01*
X134385000Y-140868061D01*
X134345226Y-140668102D01*
X134267205Y-140479744D01*
X134153937Y-140310226D01*
X134009774Y-140166063D01*
X133840256Y-140052795D01*
X133651898Y-139974774D01*
X133451939Y-139935000D01*
X133248061Y-139935000D01*
X133048102Y-139974774D01*
X132859744Y-140052795D01*
X132690226Y-140166063D01*
X132646289Y-140210000D01*
X121957322Y-140210000D01*
X121919999Y-140206324D01*
X121882676Y-140210000D01*
X121882667Y-140210000D01*
X121771014Y-140220997D01*
X121627753Y-140264454D01*
X121495724Y-140335026D01*
X121495722Y-140335027D01*
X121495723Y-140335027D01*
X121408996Y-140406201D01*
X121408992Y-140406205D01*
X121379999Y-140429999D01*
X121356205Y-140458992D01*
X119340199Y-142475000D01*
X119278061Y-142475000D01*
X119078102Y-142514774D01*
X118889744Y-142592795D01*
X118870000Y-142605987D01*
X118870000Y-142554801D01*
X123136136Y-138288665D01*
X139535000Y-138288665D01*
X139535000Y-138571335D01*
X139590147Y-138848574D01*
X139698320Y-139109727D01*
X139855363Y-139344759D01*
X140055241Y-139544637D01*
X140290273Y-139701680D01*
X140551426Y-139809853D01*
X140828665Y-139865000D01*
X141111335Y-139865000D01*
X141388574Y-139809853D01*
X141649727Y-139701680D01*
X141884759Y-139544637D01*
X142084637Y-139344759D01*
X142218692Y-139144131D01*
X142233329Y-139171514D01*
X142477298Y-139243097D01*
X143290395Y-138430000D01*
X142477298Y-137616903D01*
X142233329Y-137688486D01*
X142219676Y-137717341D01*
X142084637Y-137515241D01*
X141884759Y-137315363D01*
X141649727Y-137158320D01*
X141388574Y-137050147D01*
X141111335Y-136995000D01*
X140828665Y-136995000D01*
X140551426Y-137050147D01*
X140290273Y-137158320D01*
X140055241Y-137315363D01*
X139855363Y-137515241D01*
X139698320Y-137750273D01*
X139590147Y-138011426D01*
X139535000Y-138288665D01*
X123136136Y-138288665D01*
X123229802Y-138195000D01*
X123291939Y-138195000D01*
X123491898Y-138155226D01*
X123680256Y-138077205D01*
X123849774Y-137963937D01*
X123993937Y-137819774D01*
X124107205Y-137650256D01*
X124185226Y-137461898D01*
X124225000Y-137261939D01*
X124225000Y-137058061D01*
X124185226Y-136858102D01*
X124107205Y-136669744D01*
X123993937Y-136500226D01*
X123849774Y-136356063D01*
X123680256Y-136242795D01*
X123491898Y-136164774D01*
X123291939Y-136125000D01*
X123088061Y-136125000D01*
X122888102Y-136164774D01*
X122699744Y-136242795D01*
X122530226Y-136356063D01*
X122386063Y-136500226D01*
X122272795Y-136669744D01*
X122194774Y-136858102D01*
X122155000Y-137058061D01*
X122155000Y-137120198D01*
X117599003Y-141676196D01*
X117569999Y-141699999D01*
X117514871Y-141767174D01*
X117475026Y-141815724D01*
X117404455Y-141947753D01*
X117404454Y-141947754D01*
X117360997Y-142091015D01*
X117350000Y-142202668D01*
X117350000Y-142202678D01*
X117346324Y-142240000D01*
X117350000Y-142277323D01*
X117350001Y-144771821D01*
X117163368Y-144896525D01*
X116956525Y-145103368D01*
X116840000Y-145277760D01*
X116723475Y-145103368D01*
X116516632Y-144896525D01*
X116273411Y-144734010D01*
X116003158Y-144622068D01*
X115716260Y-144565000D01*
X115423740Y-144565000D01*
X115136842Y-144622068D01*
X114866589Y-144734010D01*
X114623368Y-144896525D01*
X114416525Y-145103368D01*
X114300000Y-145277760D01*
X114183475Y-145103368D01*
X113976632Y-144896525D01*
X113733411Y-144734010D01*
X113463158Y-144622068D01*
X113176260Y-144565000D01*
X113049801Y-144565000D01*
X123096740Y-134518061D01*
X125965000Y-134518061D01*
X125965000Y-134721939D01*
X126004774Y-134921898D01*
X126082795Y-135110256D01*
X126196063Y-135279774D01*
X126340226Y-135423937D01*
X126509744Y-135537205D01*
X126698102Y-135615226D01*
X126898061Y-135655000D01*
X127101939Y-135655000D01*
X127301898Y-135615226D01*
X127490256Y-135537205D01*
X127659774Y-135423937D01*
X127803937Y-135279774D01*
X127917205Y-135110256D01*
X127995226Y-134921898D01*
X128035000Y-134721939D01*
X128035000Y-134659801D01*
X132394802Y-130300000D01*
X133916289Y-130300000D01*
X133960226Y-130343937D01*
X134129744Y-130457205D01*
X134318102Y-130535226D01*
X134518061Y-130575000D01*
X134721939Y-130575000D01*
X134921898Y-130535226D01*
X135110256Y-130457205D01*
X135279774Y-130343937D01*
X135423937Y-130199774D01*
X135537205Y-130030256D01*
X135615226Y-129841898D01*
X135655000Y-129641939D01*
X135655000Y-129438061D01*
X135615226Y-129238102D01*
X135537205Y-129049744D01*
X135423937Y-128880226D01*
X135279774Y-128736063D01*
X135110256Y-128622795D01*
X134921898Y-128544774D01*
X134721939Y-128505000D01*
X134518061Y-128505000D01*
X134318102Y-128544774D01*
X134129744Y-128622795D01*
X133960226Y-128736063D01*
X133916289Y-128780000D01*
X132117323Y-128780000D01*
X132080000Y-128776324D01*
X132042677Y-128780000D01*
X132042667Y-128780000D01*
X131931014Y-128790997D01*
X131787753Y-128834454D01*
X131655723Y-128905026D01*
X131572083Y-128973668D01*
X131539999Y-128999999D01*
X131516201Y-129028997D01*
X126960199Y-133585000D01*
X126898061Y-133585000D01*
X126698102Y-133624774D01*
X126509744Y-133702795D01*
X126340226Y-133816063D01*
X126196063Y-133960226D01*
X126082795Y-134129744D01*
X126004774Y-134318102D01*
X125965000Y-134518061D01*
X123096740Y-134518061D01*
X136401008Y-121213795D01*
X136430001Y-121190001D01*
X136453795Y-121161008D01*
X136453799Y-121161004D01*
X136524973Y-121074277D01*
X136524974Y-121074276D01*
X136595546Y-120942247D01*
X136639003Y-120798986D01*
X136650000Y-120687333D01*
X136650000Y-120687324D01*
X136653676Y-120650001D01*
X136650000Y-120612678D01*
X136650000Y-120598043D01*
X136804759Y-120494637D01*
X137004637Y-120294759D01*
X137160000Y-120062241D01*
X137315363Y-120294759D01*
X137515241Y-120494637D01*
X137750273Y-120651680D01*
X138011426Y-120759853D01*
X138288665Y-120815000D01*
X138571335Y-120815000D01*
X138848574Y-120759853D01*
X139109727Y-120651680D01*
X139344759Y-120494637D01*
X139544637Y-120294759D01*
X139700000Y-120062241D01*
X139855363Y-120294759D01*
X140055241Y-120494637D01*
X140290273Y-120651680D01*
X140551426Y-120759853D01*
X140828665Y-120815000D01*
X141111335Y-120815000D01*
X141388574Y-120759853D01*
X141649727Y-120651680D01*
X141884759Y-120494637D01*
X142084637Y-120294759D01*
X142240000Y-120062241D01*
X142395363Y-120294759D01*
X142595241Y-120494637D01*
X142830273Y-120651680D01*
X143091426Y-120759853D01*
X143368665Y-120815000D01*
X143651335Y-120815000D01*
X143928574Y-120759853D01*
X144164999Y-120661923D01*
X144165000Y-137171320D01*
X143956004Y-137072429D01*
X143681816Y-137003700D01*
X143399488Y-136989783D01*
X143119870Y-137031213D01*
X142853708Y-137126397D01*
X142728486Y-137193329D01*
X142656903Y-137437298D01*
X143470000Y-138250395D01*
X143484143Y-138236253D01*
X143663748Y-138415858D01*
X143649605Y-138430000D01*
X143663748Y-138444143D01*
X143484143Y-138623748D01*
X143470000Y-138609605D01*
X142656903Y-139422702D01*
X142728486Y-139666671D01*
X142983996Y-139787571D01*
X143258184Y-139856300D01*
X143540512Y-139870217D01*
X143820130Y-139828787D01*
X144086292Y-139733603D01*
X144165000Y-139691533D01*
X144165000Y-144725050D01*
X144014099Y-144653175D01*
X143866890Y-144608524D01*
X143637000Y-144729845D01*
X143637000Y-145923000D01*
X143657000Y-145923000D01*
X143657000Y-146177000D01*
X143637000Y-146177000D01*
X143637000Y-147370155D01*
X143866890Y-147491476D01*
X144014099Y-147446825D01*
X144276920Y-147321641D01*
X144510269Y-147147588D01*
X144705178Y-146931355D01*
X144774805Y-146814466D01*
X144896525Y-146996632D01*
X145103368Y-147203475D01*
X145346589Y-147365990D01*
X145616842Y-147477932D01*
X145903740Y-147535000D01*
X146196260Y-147535000D01*
X146483158Y-147477932D01*
X146753411Y-147365990D01*
X146996632Y-147203475D01*
X147203475Y-146996632D01*
X147320000Y-146822240D01*
X147436525Y-146996632D01*
X147643368Y-147203475D01*
X147886589Y-147365990D01*
X148156842Y-147477932D01*
X148443740Y-147535000D01*
X148736260Y-147535000D01*
X149023158Y-147477932D01*
X149293411Y-147365990D01*
X149536632Y-147203475D01*
X149743475Y-146996632D01*
X149860000Y-146822240D01*
X149976525Y-146996632D01*
X150183368Y-147203475D01*
X150426589Y-147365990D01*
X150696842Y-147477932D01*
X150983740Y-147535000D01*
X151276260Y-147535000D01*
X151563158Y-147477932D01*
X151833411Y-147365990D01*
X152076632Y-147203475D01*
X152283475Y-146996632D01*
X152400000Y-146822240D01*
X152516525Y-146996632D01*
X152723368Y-147203475D01*
X152966589Y-147365990D01*
X153236842Y-147477932D01*
X153523740Y-147535000D01*
X153816260Y-147535000D01*
X154103158Y-147477932D01*
X154373411Y-147365990D01*
X154616632Y-147203475D01*
X154823475Y-146996632D01*
X154940000Y-146822240D01*
X155056525Y-146996632D01*
X155263368Y-147203475D01*
X155506589Y-147365990D01*
X155776842Y-147477932D01*
X156063740Y-147535000D01*
X156356260Y-147535000D01*
X156643158Y-147477932D01*
X156913411Y-147365990D01*
X157156632Y-147203475D01*
X157363475Y-146996632D01*
X157480000Y-146822240D01*
X157596525Y-146996632D01*
X157803368Y-147203475D01*
X158046589Y-147365990D01*
X158316842Y-147477932D01*
X158603740Y-147535000D01*
X158896260Y-147535000D01*
X159183158Y-147477932D01*
X159453411Y-147365990D01*
X159696632Y-147203475D01*
X159903475Y-146996632D01*
X160020000Y-146822240D01*
X160136525Y-146996632D01*
X160343368Y-147203475D01*
X160586589Y-147365990D01*
X160856842Y-147477932D01*
X161143740Y-147535000D01*
X161436260Y-147535000D01*
X161723158Y-147477932D01*
X161993411Y-147365990D01*
X162236632Y-147203475D01*
X162443475Y-146996632D01*
X162560000Y-146822240D01*
X162676525Y-146996632D01*
X162883368Y-147203475D01*
X163126589Y-147365990D01*
X163396842Y-147477932D01*
X163683740Y-147535000D01*
X163976260Y-147535000D01*
X164263158Y-147477932D01*
X164533411Y-147365990D01*
X164776632Y-147203475D01*
X164983475Y-146996632D01*
X165100000Y-146822240D01*
X165216525Y-146996632D01*
X165423368Y-147203475D01*
X165666589Y-147365990D01*
X165936842Y-147477932D01*
X166223740Y-147535000D01*
X166516260Y-147535000D01*
X166803158Y-147477932D01*
X167073411Y-147365990D01*
X167316632Y-147203475D01*
X167523475Y-146996632D01*
X167640000Y-146822240D01*
X167756525Y-146996632D01*
X167963368Y-147203475D01*
X168206589Y-147365990D01*
X168476842Y-147477932D01*
X168763740Y-147535000D01*
X169056260Y-147535000D01*
X169343158Y-147477932D01*
X169613411Y-147365990D01*
X169816492Y-147230295D01*
X170867210Y-148281014D01*
X170891008Y-148310012D01*
X170920006Y-148333810D01*
X171006732Y-148404985D01*
X171138762Y-148475557D01*
X171282023Y-148519014D01*
X171393676Y-148530011D01*
X171393686Y-148530011D01*
X171431008Y-148533687D01*
X171468331Y-148530011D01*
X177312667Y-148530011D01*
X177349989Y-148533687D01*
X177387311Y-148530011D01*
X177387322Y-148530011D01*
X177498975Y-148519014D01*
X177642236Y-148475557D01*
X177774265Y-148404985D01*
X177889990Y-148310012D01*
X177913793Y-148281008D01*
X178703592Y-147491209D01*
X178923740Y-147535000D01*
X179216260Y-147535000D01*
X179503158Y-147477932D01*
X179773411Y-147365990D01*
X180016632Y-147203475D01*
X180223475Y-146996632D01*
X180340000Y-146822240D01*
X180456525Y-146996632D01*
X180663368Y-147203475D01*
X180906589Y-147365990D01*
X181176842Y-147477932D01*
X181463740Y-147535000D01*
X181756260Y-147535000D01*
X182043158Y-147477932D01*
X182313411Y-147365990D01*
X182556632Y-147203475D01*
X182688487Y-147071620D01*
X182710498Y-147144180D01*
X182769463Y-147254494D01*
X182848815Y-147351185D01*
X182945506Y-147430537D01*
X183055820Y-147489502D01*
X183175518Y-147525812D01*
X183300000Y-147538072D01*
X185000000Y-147538072D01*
X185124482Y-147525812D01*
X185244180Y-147489502D01*
X185354494Y-147430537D01*
X185451185Y-147351185D01*
X185530537Y-147254494D01*
X185589502Y-147144180D01*
X185625812Y-147024482D01*
X185638072Y-146900000D01*
X185638072Y-145200000D01*
X185625812Y-145075518D01*
X185589502Y-144955820D01*
X185530537Y-144845506D01*
X185451185Y-144748815D01*
X185354494Y-144669463D01*
X185244180Y-144610498D01*
X185124482Y-144574188D01*
X185000000Y-144561928D01*
X183300000Y-144561928D01*
X183175518Y-144574188D01*
X183055820Y-144610498D01*
X182945506Y-144669463D01*
X182848815Y-144748815D01*
X182769463Y-144845506D01*
X182710498Y-144955820D01*
X182688487Y-145028380D01*
X182556632Y-144896525D01*
X182370000Y-144771822D01*
X182370000Y-115827322D01*
X182373676Y-115789999D01*
X182370000Y-115752677D01*
X182370000Y-115752667D01*
X182359003Y-115641014D01*
X182315546Y-115497753D01*
X182244975Y-115365725D01*
X182244974Y-115365723D01*
X182173799Y-115278997D01*
X182150001Y-115249999D01*
X182121004Y-115226202D01*
X170523804Y-103629003D01*
X170500001Y-103599999D01*
X170384276Y-103505026D01*
X170348072Y-103485674D01*
X170348072Y-103340000D01*
X170335812Y-103215518D01*
X170299502Y-103095820D01*
X170240537Y-102985506D01*
X170161185Y-102888815D01*
X170064494Y-102809463D01*
X169954180Y-102750498D01*
X169834482Y-102714188D01*
X169710000Y-102701928D01*
X168110000Y-102701928D01*
X167985518Y-102714188D01*
X167865820Y-102750498D01*
X167755506Y-102809463D01*
X167658815Y-102888815D01*
X167579463Y-102985506D01*
X167520498Y-103095820D01*
X167484188Y-103215518D01*
X167483357Y-103223961D01*
X167284759Y-103025363D01*
X167049727Y-102868320D01*
X166788574Y-102760147D01*
X166511335Y-102705000D01*
X166228665Y-102705000D01*
X165951426Y-102760147D01*
X165690273Y-102868320D01*
X165455241Y-103025363D01*
X165255363Y-103225241D01*
X165100000Y-103457759D01*
X164944637Y-103225241D01*
X164744759Y-103025363D01*
X164509727Y-102868320D01*
X164248574Y-102760147D01*
X163971335Y-102705000D01*
X163688665Y-102705000D01*
X163411426Y-102760147D01*
X163150273Y-102868320D01*
X162915241Y-103025363D01*
X162715363Y-103225241D01*
X162560000Y-103457759D01*
X162404637Y-103225241D01*
X162204759Y-103025363D01*
X161969727Y-102868320D01*
X161708574Y-102760147D01*
X161431335Y-102705000D01*
X161148665Y-102705000D01*
X160871426Y-102760147D01*
X160610273Y-102868320D01*
X160375241Y-103025363D01*
X160175363Y-103225241D01*
X160020000Y-103457759D01*
X159864637Y-103225241D01*
X159664759Y-103025363D01*
X159429727Y-102868320D01*
X159168574Y-102760147D01*
X158891335Y-102705000D01*
X158608665Y-102705000D01*
X158331426Y-102760147D01*
X158070273Y-102868320D01*
X157835241Y-103025363D01*
X157635363Y-103225241D01*
X157480000Y-103457759D01*
X157324637Y-103225241D01*
X157124759Y-103025363D01*
X156889727Y-102868320D01*
X156628574Y-102760147D01*
X156351335Y-102705000D01*
X156068665Y-102705000D01*
X155791426Y-102760147D01*
X155530273Y-102868320D01*
X155295241Y-103025363D01*
X155095363Y-103225241D01*
X154940000Y-103457759D01*
X154784637Y-103225241D01*
X154584759Y-103025363D01*
X154349727Y-102868320D01*
X154088574Y-102760147D01*
X153811335Y-102705000D01*
X153528665Y-102705000D01*
X153251426Y-102760147D01*
X152990273Y-102868320D01*
X152755241Y-103025363D01*
X152555363Y-103225241D01*
X152400000Y-103457759D01*
X152244637Y-103225241D01*
X152044759Y-103025363D01*
X151809727Y-102868320D01*
X151548574Y-102760147D01*
X151271335Y-102705000D01*
X150988665Y-102705000D01*
X150711426Y-102760147D01*
X150450273Y-102868320D01*
X150215241Y-103025363D01*
X150015363Y-103225241D01*
X149860000Y-103457759D01*
X149704637Y-103225241D01*
X149504759Y-103025363D01*
X149269727Y-102868320D01*
X149008574Y-102760147D01*
X148731335Y-102705000D01*
X148448665Y-102705000D01*
X148171426Y-102760147D01*
X147910273Y-102868320D01*
X147675241Y-103025363D01*
X147475363Y-103225241D01*
X147320000Y-103457759D01*
X147164637Y-103225241D01*
X146964759Y-103025363D01*
X146729727Y-102868320D01*
X146468574Y-102760147D01*
X146191335Y-102705000D01*
X145908665Y-102705000D01*
X145631426Y-102760147D01*
X145370273Y-102868320D01*
X145135241Y-103025363D01*
X144935363Y-103225241D01*
X144780000Y-103457759D01*
X144624637Y-103225241D01*
X144424759Y-103025363D01*
X144189727Y-102868320D01*
X143928574Y-102760147D01*
X143651335Y-102705000D01*
X143368665Y-102705000D01*
X143186113Y-102741312D01*
X142948803Y-102504001D01*
X142925000Y-102474998D01*
X142809275Y-102380025D01*
X142677246Y-102309453D01*
X142533985Y-102265996D01*
X142422332Y-102254999D01*
X142422321Y-102254999D01*
X142384999Y-102251323D01*
X142347677Y-102254999D01*
X125622326Y-102254999D01*
X125585001Y-102251323D01*
X125547676Y-102254999D01*
X125547668Y-102254999D01*
X125436015Y-102265996D01*
X125292754Y-102309453D01*
X125160725Y-102380025D01*
X125045000Y-102474998D01*
X125021202Y-102503996D01*
X118070199Y-109455000D01*
X118008061Y-109455000D01*
X117808102Y-109494774D01*
X117619744Y-109572795D01*
X117450226Y-109686063D01*
X117306063Y-109830226D01*
X117192795Y-109999744D01*
X117114774Y-110188102D01*
X117100361Y-110260560D01*
X116800764Y-109960963D01*
X116841680Y-109899727D01*
X116949853Y-109638574D01*
X117005000Y-109361335D01*
X117005000Y-109078665D01*
X116949853Y-108801426D01*
X116841680Y-108540273D01*
X116684637Y-108305241D01*
X116484759Y-108105363D01*
X116252241Y-107950000D01*
X116484759Y-107794637D01*
X116684637Y-107594759D01*
X116841680Y-107359727D01*
X116949853Y-107098574D01*
X117005000Y-106821335D01*
X117005000Y-106538665D01*
X116949853Y-106261426D01*
X116841680Y-106000273D01*
X116684637Y-105765241D01*
X116484759Y-105565363D01*
X116252241Y-105410000D01*
X116484759Y-105254637D01*
X116684637Y-105054759D01*
X116841680Y-104819727D01*
X116949853Y-104558574D01*
X117005000Y-104281335D01*
X117005000Y-103998665D01*
X116949853Y-103721426D01*
X116841680Y-103460273D01*
X116684637Y-103225241D01*
X116484759Y-103025363D01*
X116249727Y-102868320D01*
X115988574Y-102760147D01*
X115711335Y-102705000D01*
X115428665Y-102705000D01*
X115151426Y-102760147D01*
X114890273Y-102868320D01*
X114655241Y-103025363D01*
X114455363Y-103225241D01*
X114298320Y-103460273D01*
X114190147Y-103721426D01*
X114135000Y-103998665D01*
X114135000Y-104281335D01*
X114190147Y-104558574D01*
X114298320Y-104819727D01*
X114455363Y-105054759D01*
X114655241Y-105254637D01*
X114887759Y-105410000D01*
X114655241Y-105565363D01*
X114455363Y-105765241D01*
X114298320Y-106000273D01*
X114190147Y-106261426D01*
X114135000Y-106538665D01*
X114135000Y-106821335D01*
X114190147Y-107098574D01*
X114298320Y-107359727D01*
X114455363Y-107594759D01*
X114655241Y-107794637D01*
X114887759Y-107950000D01*
X114655241Y-108105363D01*
X114455363Y-108305241D01*
X114298320Y-108540273D01*
X114190147Y-108801426D01*
X114135000Y-109078665D01*
X114135000Y-109361335D01*
X114179491Y-109585001D01*
X109340509Y-109585001D01*
X109385000Y-109361335D01*
X109385000Y-109078665D01*
X109329853Y-108801426D01*
X109221680Y-108540273D01*
X109064637Y-108305241D01*
X108864759Y-108105363D01*
X108632241Y-107950000D01*
X108864759Y-107794637D01*
X109064637Y-107594759D01*
X109221680Y-107359727D01*
X109329853Y-107098574D01*
X109385000Y-106821335D01*
X109385000Y-106538665D01*
X109329853Y-106261426D01*
X109221680Y-106000273D01*
X109064637Y-105765241D01*
X108866039Y-105566643D01*
X108874482Y-105565812D01*
X108994180Y-105529502D01*
X109104494Y-105470537D01*
X109201185Y-105391185D01*
X109280537Y-105294494D01*
X109339502Y-105184180D01*
X109375812Y-105064482D01*
X109388072Y-104940000D01*
X109388072Y-103340000D01*
X109375812Y-103215518D01*
X109339502Y-103095820D01*
X109280537Y-102985506D01*
X109201185Y-102888815D01*
X109104494Y-102809463D01*
X108994180Y-102750498D01*
X108874482Y-102714188D01*
X108750000Y-102701928D01*
X107150000Y-102701928D01*
X107025518Y-102714188D01*
X106905820Y-102750498D01*
X106795506Y-102809463D01*
X106698815Y-102888815D01*
X106619463Y-102985506D01*
X106560498Y-103095820D01*
X106524188Y-103215518D01*
X106511928Y-103340000D01*
X106511928Y-104940000D01*
X106524188Y-105064482D01*
X106560498Y-105184180D01*
X106619463Y-105294494D01*
X106698815Y-105391185D01*
X106795506Y-105470537D01*
X106905820Y-105529502D01*
X107025518Y-105565812D01*
X107033961Y-105566643D01*
X106835363Y-105765241D01*
X106678320Y-106000273D01*
X106570147Y-106261426D01*
X106515000Y-106538665D01*
X106515000Y-106821335D01*
X106570147Y-107098574D01*
X106678320Y-107359727D01*
X106835363Y-107594759D01*
X107035241Y-107794637D01*
X107267759Y-107950000D01*
X107035241Y-108105363D01*
X106835363Y-108305241D01*
X106678320Y-108540273D01*
X106570147Y-108801426D01*
X106515000Y-109078665D01*
X106515000Y-109361335D01*
X106559491Y-109585001D01*
X96640509Y-109585001D01*
X96685000Y-109361335D01*
X96685000Y-109078665D01*
X96629853Y-108801426D01*
X96521680Y-108540273D01*
X96364637Y-108305241D01*
X96164759Y-108105363D01*
X95932241Y-107950000D01*
X96164759Y-107794637D01*
X96364637Y-107594759D01*
X96521680Y-107359727D01*
X96629853Y-107098574D01*
X96685000Y-106821335D01*
X96685000Y-106538665D01*
X96629853Y-106261426D01*
X96521680Y-106000273D01*
X96364637Y-105765241D01*
X96164759Y-105565363D01*
X95932241Y-105410000D01*
X96164759Y-105254637D01*
X96364637Y-105054759D01*
X96521680Y-104819727D01*
X96629853Y-104558574D01*
X96685000Y-104281335D01*
X96685000Y-103998665D01*
X96629853Y-103721426D01*
X96521680Y-103460273D01*
X96364637Y-103225241D01*
X96164759Y-103025363D01*
X95929727Y-102868320D01*
X95668574Y-102760147D01*
X95391335Y-102705000D01*
X95108665Y-102705000D01*
X94831426Y-102760147D01*
X94570273Y-102868320D01*
X94335241Y-103025363D01*
X94135363Y-103225241D01*
X93978320Y-103460273D01*
X93870147Y-103721426D01*
X93815000Y-103998665D01*
X93815000Y-104281335D01*
X93870147Y-104558574D01*
X93978320Y-104819727D01*
X94135363Y-105054759D01*
X94335241Y-105254637D01*
X94567759Y-105410000D01*
X94335241Y-105565363D01*
X94135363Y-105765241D01*
X93978320Y-106000273D01*
X93870147Y-106261426D01*
X93815000Y-106538665D01*
X93815000Y-106821335D01*
X93870147Y-107098574D01*
X93978320Y-107359727D01*
X94135363Y-107594759D01*
X94335241Y-107794637D01*
X94567759Y-107950000D01*
X94335241Y-108105363D01*
X94135363Y-108305241D01*
X93978320Y-108540273D01*
X93870147Y-108801426D01*
X93815000Y-109078665D01*
X93815000Y-109361335D01*
X93859491Y-109585001D01*
X89069803Y-109585001D01*
X89028688Y-109543886D01*
X89065000Y-109361335D01*
X89065000Y-109078665D01*
X89009853Y-108801426D01*
X88901680Y-108540273D01*
X88744637Y-108305241D01*
X88544759Y-108105363D01*
X88312241Y-107950000D01*
X88544759Y-107794637D01*
X88744637Y-107594759D01*
X88901680Y-107359727D01*
X89009853Y-107098574D01*
X89065000Y-106821335D01*
X89065000Y-106538665D01*
X89009853Y-106261426D01*
X88901680Y-106000273D01*
X88744637Y-105765241D01*
X88546039Y-105566643D01*
X88554482Y-105565812D01*
X88674180Y-105529502D01*
X88784494Y-105470537D01*
X88881185Y-105391185D01*
X88960537Y-105294494D01*
X89019502Y-105184180D01*
X89055812Y-105064482D01*
X89068072Y-104940000D01*
X89068072Y-103340000D01*
X89055812Y-103215518D01*
X89019502Y-103095820D01*
X88960537Y-102985506D01*
X88881185Y-102888815D01*
X88784494Y-102809463D01*
X88674180Y-102750498D01*
X88554482Y-102714188D01*
X88430000Y-102701928D01*
X86830000Y-102701928D01*
X86705518Y-102714188D01*
X86585820Y-102750498D01*
X86475506Y-102809463D01*
X86378815Y-102888815D01*
X86299463Y-102985506D01*
X86240498Y-103095820D01*
X86204188Y-103215518D01*
X86191928Y-103340000D01*
X86191928Y-104940000D01*
X86204188Y-105064482D01*
X86240498Y-105184180D01*
X86299463Y-105294494D01*
X86378815Y-105391185D01*
X86475506Y-105470537D01*
X86585820Y-105529502D01*
X86705518Y-105565812D01*
X86713961Y-105566643D01*
X86515363Y-105765241D01*
X86358320Y-106000273D01*
X86250147Y-106261426D01*
X86195000Y-106538665D01*
X86195000Y-106821335D01*
X86250147Y-107098574D01*
X86358320Y-107359727D01*
X86515363Y-107594759D01*
X86715241Y-107794637D01*
X86947759Y-107950000D01*
X86715241Y-108105363D01*
X86515363Y-108305241D01*
X86358320Y-108540273D01*
X86250147Y-108801426D01*
X86195000Y-109078665D01*
X86195000Y-109361335D01*
X86250147Y-109638574D01*
X86358320Y-109899727D01*
X86515363Y-110134759D01*
X86715241Y-110334637D01*
X86947759Y-110490000D01*
X86715241Y-110645363D01*
X86515363Y-110845241D01*
X86358320Y-111080273D01*
X86250147Y-111341426D01*
X86195000Y-111618665D01*
X86195000Y-111901335D01*
X86250147Y-112178574D01*
X86358320Y-112439727D01*
X86515363Y-112674759D01*
X86715241Y-112874637D01*
X86947759Y-113030000D01*
X86715241Y-113185363D01*
X86515363Y-113385241D01*
X86358320Y-113620273D01*
X86250147Y-113881426D01*
X86195000Y-114158665D01*
X86195000Y-114441335D01*
X86250147Y-114718574D01*
X86358320Y-114979727D01*
X86515363Y-115214759D01*
X86715241Y-115414637D01*
X86947759Y-115570000D01*
X86715241Y-115725363D01*
X86515363Y-115925241D01*
X86358320Y-116160273D01*
X86250147Y-116421426D01*
X86195000Y-116698665D01*
X86195000Y-116981335D01*
X86250147Y-117258574D01*
X86358320Y-117519727D01*
X86515363Y-117754759D01*
X86715241Y-117954637D01*
X86950273Y-118111680D01*
X86960865Y-118116067D01*
X86774869Y-118227615D01*
X86566481Y-118416586D01*
X86398963Y-118642580D01*
X86278754Y-118896913D01*
X86238096Y-119030961D01*
X86360085Y-119253000D01*
X87503000Y-119253000D01*
X87503000Y-119233000D01*
X87757000Y-119233000D01*
X87757000Y-119253000D01*
X88899915Y-119253000D01*
X89021904Y-119030961D01*
X88981246Y-118896913D01*
X88899993Y-118725001D01*
X93968077Y-118725001D01*
X93870147Y-118961426D01*
X93815000Y-119238665D01*
X93815000Y-119521335D01*
X93870147Y-119798574D01*
X93978320Y-120059727D01*
X94135363Y-120294759D01*
X94335241Y-120494637D01*
X94570273Y-120651680D01*
X94831426Y-120759853D01*
X95108665Y-120815000D01*
X95391335Y-120815000D01*
X95668574Y-120759853D01*
X95929727Y-120651680D01*
X96164759Y-120494637D01*
X96364637Y-120294759D01*
X96521680Y-120059727D01*
X96629853Y-119798574D01*
X96643684Y-119729039D01*
X106558096Y-119729039D01*
X106598754Y-119863087D01*
X106718963Y-120117420D01*
X106886481Y-120343414D01*
X107094869Y-120532385D01*
X107336119Y-120677070D01*
X107600960Y-120771909D01*
X107823000Y-120650624D01*
X107823000Y-119507000D01*
X108077000Y-119507000D01*
X108077000Y-120650624D01*
X108299040Y-120771909D01*
X108563881Y-120677070D01*
X108805131Y-120532385D01*
X109013519Y-120343414D01*
X109181037Y-120117420D01*
X109301246Y-119863087D01*
X109341904Y-119729039D01*
X109219915Y-119507000D01*
X108077000Y-119507000D01*
X107823000Y-119507000D01*
X106680085Y-119507000D01*
X106558096Y-119729039D01*
X96643684Y-119729039D01*
X96685000Y-119521335D01*
X96685000Y-119238665D01*
X96629853Y-118961426D01*
X96531923Y-118725001D01*
X106680007Y-118725001D01*
X106598754Y-118896913D01*
X106558096Y-119030961D01*
X106680085Y-119253000D01*
X107823000Y-119253000D01*
X107823000Y-119233000D01*
X108077000Y-119233000D01*
X108077000Y-119253000D01*
X109219915Y-119253000D01*
X109341904Y-119030961D01*
X109301246Y-118896913D01*
X109219993Y-118725001D01*
X114288077Y-118725001D01*
X114190147Y-118961426D01*
X114135000Y-119238665D01*
X114135000Y-119521335D01*
X114190147Y-119798574D01*
X114298320Y-120059727D01*
X114455363Y-120294759D01*
X114655241Y-120494637D01*
X114890273Y-120651680D01*
X115151426Y-120759853D01*
X115428665Y-120815000D01*
X115711335Y-120815000D01*
X115988574Y-120759853D01*
X116249727Y-120651680D01*
X116484759Y-120494637D01*
X116684637Y-120294759D01*
X116841680Y-120059727D01*
X116949853Y-119798574D01*
X117005000Y-119521335D01*
X117005000Y-119238665D01*
X116949853Y-118961426D01*
X116851923Y-118725001D01*
X117302872Y-118725001D01*
X117192795Y-118889744D01*
X117114774Y-119078102D01*
X117075000Y-119278061D01*
X117075000Y-119481939D01*
X117114774Y-119681898D01*
X117192795Y-119870256D01*
X117306063Y-120039774D01*
X117350000Y-120083711D01*
X117350001Y-121216288D01*
X117306063Y-121260226D01*
X117192795Y-121429744D01*
X117114774Y-121618102D01*
X117075000Y-121818061D01*
X117075000Y-122021939D01*
X117114774Y-122221898D01*
X117192795Y-122410256D01*
X117306063Y-122579774D01*
X117450226Y-122723937D01*
X117480819Y-122744379D01*
X99819003Y-140406196D01*
X99789999Y-140429999D01*
X99749175Y-140479744D01*
X99695026Y-140545724D01*
X99629613Y-140668102D01*
X99624454Y-140677754D01*
X99580997Y-140821015D01*
X99570000Y-140932668D01*
X99570000Y-140932678D01*
X99566324Y-140970000D01*
X99570000Y-141007323D01*
X99570001Y-144771821D01*
X99383368Y-144896525D01*
X99176525Y-145103368D01*
X99060000Y-145277760D01*
X98943475Y-145103368D01*
X98736632Y-144896525D01*
X98493411Y-144734010D01*
X98223158Y-144622068D01*
X97936260Y-144565000D01*
X97643740Y-144565000D01*
X97356842Y-144622068D01*
X97086589Y-144734010D01*
X96843368Y-144896525D01*
X96636525Y-145103368D01*
X96520000Y-145277760D01*
X96403475Y-145103368D01*
X96196632Y-144896525D01*
X95953411Y-144734010D01*
X95683158Y-144622068D01*
X95396260Y-144565000D01*
X95103740Y-144565000D01*
X94816842Y-144622068D01*
X94546589Y-144734010D01*
X94303368Y-144896525D01*
X94096525Y-145103368D01*
X93980000Y-145277760D01*
X93863475Y-145103368D01*
X93656632Y-144896525D01*
X93413411Y-144734010D01*
X93143158Y-144622068D01*
X92856260Y-144565000D01*
X92563740Y-144565000D01*
X92276842Y-144622068D01*
X92006589Y-144734010D01*
X91763368Y-144896525D01*
X91556525Y-145103368D01*
X91440000Y-145277760D01*
X91323475Y-145103368D01*
X91116632Y-144896525D01*
X90873411Y-144734010D01*
X90603158Y-144622068D01*
X90316260Y-144565000D01*
X90023740Y-144565000D01*
X89736842Y-144622068D01*
X89466589Y-144734010D01*
X89223368Y-144896525D01*
X89016525Y-145103368D01*
X88900000Y-145277760D01*
X88783475Y-145103368D01*
X88576632Y-144896525D01*
X88333411Y-144734010D01*
X88063158Y-144622068D01*
X87776260Y-144565000D01*
X87483740Y-144565000D01*
X87196842Y-144622068D01*
X86926589Y-144734010D01*
X86683368Y-144896525D01*
X86476525Y-145103368D01*
X86360000Y-145277760D01*
X86243475Y-145103368D01*
X86036632Y-144896525D01*
X85793411Y-144734010D01*
X85523158Y-144622068D01*
X85236260Y-144565000D01*
X84943740Y-144565000D01*
X84656842Y-144622068D01*
X84386589Y-144734010D01*
X84143368Y-144896525D01*
X83936525Y-145103368D01*
X83774010Y-145346589D01*
X83662068Y-145616842D01*
X83605000Y-145903740D01*
X75590000Y-145903740D01*
X75590000Y-125195000D01*
X76257857Y-125195000D01*
X76257857Y-136665000D01*
X101542143Y-136665000D01*
X101542143Y-125195000D01*
X76257857Y-125195000D01*
X75590000Y-125195000D01*
X75590000Y-119729039D01*
X86238096Y-119729039D01*
X86278754Y-119863087D01*
X86398963Y-120117420D01*
X86566481Y-120343414D01*
X86774869Y-120532385D01*
X87016119Y-120677070D01*
X87280960Y-120771909D01*
X87503000Y-120650624D01*
X87503000Y-119507000D01*
X87757000Y-119507000D01*
X87757000Y-120650624D01*
X87979040Y-120771909D01*
X88243881Y-120677070D01*
X88485131Y-120532385D01*
X88693519Y-120343414D01*
X88861037Y-120117420D01*
X88981246Y-119863087D01*
X89021904Y-119729039D01*
X88899915Y-119507000D01*
X87757000Y-119507000D01*
X87503000Y-119507000D01*
X86360085Y-119507000D01*
X86238096Y-119729039D01*
X75590000Y-119729039D01*
X75590000Y-99810000D01*
X177217857Y-99810000D01*
X177217857Y-103630000D01*
X186002143Y-103630000D01*
X186002143Y-99810000D01*
X177217857Y-99810000D01*
X75590000Y-99810000D01*
X75590000Y-95910000D01*
X193650001Y-95910000D01*
X193650000Y-150470000D01*
G37*
G04 #@! TD.AperFunction*
D19*
X103236408Y-144608791D02*
X103016260Y-144565000D01*
X102723740Y-144565000D01*
X102436842Y-144622068D01*
X102166589Y-144734010D01*
X101923368Y-144896525D01*
X101716525Y-145103368D01*
X101600000Y-145277760D01*
X101483475Y-145103368D01*
X101276632Y-144896525D01*
X101090000Y-144771822D01*
X101090000Y-141284801D01*
X115476740Y-126898061D01*
X115805000Y-126898061D01*
X115805000Y-127101939D01*
X115844774Y-127301898D01*
X115922795Y-127490256D01*
X116036063Y-127659774D01*
X116180226Y-127803937D01*
X116349744Y-127917205D01*
X116538102Y-127995226D01*
X116738061Y-128035000D01*
X116941939Y-128035000D01*
X117141898Y-127995226D01*
X117330256Y-127917205D01*
X117499774Y-127803937D01*
X117543711Y-127760000D01*
X118676289Y-127760000D01*
X118720226Y-127803937D01*
X118889744Y-127917205D01*
X119078102Y-127995226D01*
X119278061Y-128035000D01*
X119481939Y-128035000D01*
X119681898Y-127995226D01*
X119870256Y-127917205D01*
X120039774Y-127803937D01*
X120183937Y-127659774D01*
X120297205Y-127490256D01*
X120375226Y-127301898D01*
X120415000Y-127101939D01*
X120415000Y-126898061D01*
X120375226Y-126698102D01*
X120297205Y-126509744D01*
X120183937Y-126340226D01*
X120039774Y-126196063D01*
X119870256Y-126082795D01*
X119681898Y-126004774D01*
X119481939Y-125965000D01*
X119278061Y-125965000D01*
X119078102Y-126004774D01*
X118889744Y-126082795D01*
X118720226Y-126196063D01*
X118676289Y-126240000D01*
X117543711Y-126240000D01*
X117499774Y-126196063D01*
X117330256Y-126082795D01*
X117141898Y-126004774D01*
X116941939Y-125965000D01*
X116738061Y-125965000D01*
X116538102Y-126004774D01*
X116349744Y-126082795D01*
X116180226Y-126196063D01*
X116036063Y-126340226D01*
X115922795Y-126509744D01*
X115844774Y-126698102D01*
X115805000Y-126898061D01*
X115476740Y-126898061D01*
X120689802Y-121685000D01*
X120751939Y-121685000D01*
X120951898Y-121645226D01*
X121140256Y-121567205D01*
X121309774Y-121453937D01*
X121453937Y-121309774D01*
X121567205Y-121140256D01*
X121645226Y-120951898D01*
X121685000Y-120751939D01*
X121685000Y-120548061D01*
X121645226Y-120348102D01*
X121567205Y-120159744D01*
X121453937Y-119990226D01*
X121309774Y-119846063D01*
X121140256Y-119732795D01*
X120951898Y-119654774D01*
X120751939Y-119615000D01*
X120548061Y-119615000D01*
X120348102Y-119654774D01*
X120159744Y-119732795D01*
X119990226Y-119846063D01*
X119846063Y-119990226D01*
X119732795Y-120159744D01*
X119654774Y-120348102D01*
X119615000Y-120548061D01*
X119615000Y-120610198D01*
X118934379Y-121290819D01*
X118913937Y-121260226D01*
X118870000Y-121216289D01*
X118870000Y-120083711D01*
X118913937Y-120039774D01*
X119027205Y-119870256D01*
X119105226Y-119681898D01*
X119145000Y-119481939D01*
X119145000Y-119278061D01*
X119105226Y-119078102D01*
X119027205Y-118889744D01*
X118917128Y-118725001D01*
X129120196Y-118725001D01*
X103236408Y-144608791D01*
G04 #@! TA.AperFunction,Conductor*
D20*
G36*
X103236408Y-144608791D02*
G01*
X103016260Y-144565000D01*
X102723740Y-144565000D01*
X102436842Y-144622068D01*
X102166589Y-144734010D01*
X101923368Y-144896525D01*
X101716525Y-145103368D01*
X101600000Y-145277760D01*
X101483475Y-145103368D01*
X101276632Y-144896525D01*
X101090000Y-144771822D01*
X101090000Y-141284801D01*
X115476740Y-126898061D01*
X115805000Y-126898061D01*
X115805000Y-127101939D01*
X115844774Y-127301898D01*
X115922795Y-127490256D01*
X116036063Y-127659774D01*
X116180226Y-127803937D01*
X116349744Y-127917205D01*
X116538102Y-127995226D01*
X116738061Y-128035000D01*
X116941939Y-128035000D01*
X117141898Y-127995226D01*
X117330256Y-127917205D01*
X117499774Y-127803937D01*
X117543711Y-127760000D01*
X118676289Y-127760000D01*
X118720226Y-127803937D01*
X118889744Y-127917205D01*
X119078102Y-127995226D01*
X119278061Y-128035000D01*
X119481939Y-128035000D01*
X119681898Y-127995226D01*
X119870256Y-127917205D01*
X120039774Y-127803937D01*
X120183937Y-127659774D01*
X120297205Y-127490256D01*
X120375226Y-127301898D01*
X120415000Y-127101939D01*
X120415000Y-126898061D01*
X120375226Y-126698102D01*
X120297205Y-126509744D01*
X120183937Y-126340226D01*
X120039774Y-126196063D01*
X119870256Y-126082795D01*
X119681898Y-126004774D01*
X119481939Y-125965000D01*
X119278061Y-125965000D01*
X119078102Y-126004774D01*
X118889744Y-126082795D01*
X118720226Y-126196063D01*
X118676289Y-126240000D01*
X117543711Y-126240000D01*
X117499774Y-126196063D01*
X117330256Y-126082795D01*
X117141898Y-126004774D01*
X116941939Y-125965000D01*
X116738061Y-125965000D01*
X116538102Y-126004774D01*
X116349744Y-126082795D01*
X116180226Y-126196063D01*
X116036063Y-126340226D01*
X115922795Y-126509744D01*
X115844774Y-126698102D01*
X115805000Y-126898061D01*
X115476740Y-126898061D01*
X120689802Y-121685000D01*
X120751939Y-121685000D01*
X120951898Y-121645226D01*
X121140256Y-121567205D01*
X121309774Y-121453937D01*
X121453937Y-121309774D01*
X121567205Y-121140256D01*
X121645226Y-120951898D01*
X121685000Y-120751939D01*
X121685000Y-120548061D01*
X121645226Y-120348102D01*
X121567205Y-120159744D01*
X121453937Y-119990226D01*
X121309774Y-119846063D01*
X121140256Y-119732795D01*
X120951898Y-119654774D01*
X120751939Y-119615000D01*
X120548061Y-119615000D01*
X120348102Y-119654774D01*
X120159744Y-119732795D01*
X119990226Y-119846063D01*
X119846063Y-119990226D01*
X119732795Y-120159744D01*
X119654774Y-120348102D01*
X119615000Y-120548061D01*
X119615000Y-120610198D01*
X118934379Y-121290819D01*
X118913937Y-121260226D01*
X118870000Y-121216289D01*
X118870000Y-120083711D01*
X118913937Y-120039774D01*
X119027205Y-119870256D01*
X119105226Y-119681898D01*
X119145000Y-119481939D01*
X119145000Y-119278061D01*
X119105226Y-119078102D01*
X119027205Y-118889744D01*
X118917128Y-118725001D01*
X129120196Y-118725001D01*
X103236408Y-144608791D01*
G37*
G04 #@! TD.AperFunction*
D19*
X134498091Y-103790960D02*
X134619376Y-104013000D01*
X135763000Y-104013000D01*
X135763000Y-103993000D01*
X136017000Y-103993000D01*
X136017000Y-104013000D01*
X136037000Y-104013000D01*
X136037000Y-104267000D01*
X136017000Y-104267000D01*
X136017000Y-105409915D01*
X136239039Y-105531904D01*
X136373087Y-105491246D01*
X136627420Y-105371037D01*
X136853414Y-105203519D01*
X137042385Y-104995131D01*
X137153933Y-104809135D01*
X137158320Y-104819727D01*
X137315363Y-105054759D01*
X137515241Y-105254637D01*
X137750273Y-105411680D01*
X138011426Y-105519853D01*
X138288665Y-105575000D01*
X138571335Y-105575000D01*
X138848574Y-105519853D01*
X139109727Y-105411680D01*
X139344759Y-105254637D01*
X139544637Y-105054759D01*
X139700000Y-104822241D01*
X139855363Y-105054759D01*
X140055241Y-105254637D01*
X140210000Y-105358044D01*
X140210001Y-112326288D01*
X140166063Y-112370226D01*
X140052795Y-112539744D01*
X139974774Y-112728102D01*
X139935000Y-112928061D01*
X139935000Y-113131939D01*
X139974774Y-113331898D01*
X140052795Y-113520256D01*
X140065987Y-113540000D01*
X128327290Y-113540000D01*
X128357571Y-113476004D01*
X128426300Y-113201816D01*
X128440217Y-112919488D01*
X128398787Y-112639870D01*
X128303603Y-112373708D01*
X128236671Y-112248486D01*
X127992702Y-112176903D01*
X127179605Y-112990000D01*
X127193748Y-113004143D01*
X127014143Y-113183748D01*
X127000000Y-113169605D01*
X126985858Y-113183748D01*
X126806253Y-113004143D01*
X126820395Y-112990000D01*
X126007298Y-112176903D01*
X125763329Y-112248486D01*
X125642429Y-112503996D01*
X125573700Y-112778184D01*
X125559783Y-113060512D01*
X125601213Y-113340130D01*
X125672690Y-113540000D01*
X120379802Y-113540000D01*
X118339440Y-111499639D01*
X118411898Y-111485226D01*
X118600256Y-111407205D01*
X118769774Y-111293937D01*
X118913937Y-111149774D01*
X119027205Y-110980256D01*
X119105226Y-110791898D01*
X119145000Y-110591939D01*
X119145000Y-110529801D01*
X119326136Y-110348665D01*
X125565000Y-110348665D01*
X125565000Y-110631335D01*
X125620147Y-110908574D01*
X125728320Y-111169727D01*
X125885363Y-111404759D01*
X126085241Y-111604637D01*
X126285869Y-111738692D01*
X126258486Y-111753329D01*
X126186903Y-111997298D01*
X127000000Y-112810395D01*
X127813097Y-111997298D01*
X127741514Y-111753329D01*
X127712659Y-111739676D01*
X127914759Y-111604637D01*
X128114637Y-111404759D01*
X128271680Y-111169727D01*
X128379853Y-110908574D01*
X128435000Y-110631335D01*
X128435000Y-110348665D01*
X128379853Y-110071426D01*
X128271680Y-109810273D01*
X128114637Y-109575241D01*
X127914759Y-109375363D01*
X127679727Y-109218320D01*
X127418574Y-109110147D01*
X127141335Y-109055000D01*
X126858665Y-109055000D01*
X126581426Y-109110147D01*
X126320273Y-109218320D01*
X126085241Y-109375363D01*
X125885363Y-109575241D01*
X125728320Y-109810273D01*
X125620147Y-110071426D01*
X125565000Y-110348665D01*
X119326136Y-110348665D01*
X125185761Y-104489040D01*
X134498091Y-104489040D01*
X134592930Y-104753881D01*
X134737615Y-104995131D01*
X134926586Y-105203519D01*
X135152580Y-105371037D01*
X135406913Y-105491246D01*
X135540961Y-105531904D01*
X135763000Y-105409915D01*
X135763000Y-104267000D01*
X134619376Y-104267000D01*
X134498091Y-104489040D01*
X125185761Y-104489040D01*
X125899803Y-103774999D01*
X134503807Y-103774999D01*
X134498091Y-103790960D01*
G04 #@! TA.AperFunction,Conductor*
D20*
G36*
X134498091Y-103790960D02*
G01*
X134619376Y-104013000D01*
X135763000Y-104013000D01*
X135763000Y-103993000D01*
X136017000Y-103993000D01*
X136017000Y-104013000D01*
X136037000Y-104013000D01*
X136037000Y-104267000D01*
X136017000Y-104267000D01*
X136017000Y-105409915D01*
X136239039Y-105531904D01*
X136373087Y-105491246D01*
X136627420Y-105371037D01*
X136853414Y-105203519D01*
X137042385Y-104995131D01*
X137153933Y-104809135D01*
X137158320Y-104819727D01*
X137315363Y-105054759D01*
X137515241Y-105254637D01*
X137750273Y-105411680D01*
X138011426Y-105519853D01*
X138288665Y-105575000D01*
X138571335Y-105575000D01*
X138848574Y-105519853D01*
X139109727Y-105411680D01*
X139344759Y-105254637D01*
X139544637Y-105054759D01*
X139700000Y-104822241D01*
X139855363Y-105054759D01*
X140055241Y-105254637D01*
X140210000Y-105358044D01*
X140210001Y-112326288D01*
X140166063Y-112370226D01*
X140052795Y-112539744D01*
X139974774Y-112728102D01*
X139935000Y-112928061D01*
X139935000Y-113131939D01*
X139974774Y-113331898D01*
X140052795Y-113520256D01*
X140065987Y-113540000D01*
X128327290Y-113540000D01*
X128357571Y-113476004D01*
X128426300Y-113201816D01*
X128440217Y-112919488D01*
X128398787Y-112639870D01*
X128303603Y-112373708D01*
X128236671Y-112248486D01*
X127992702Y-112176903D01*
X127179605Y-112990000D01*
X127193748Y-113004143D01*
X127014143Y-113183748D01*
X127000000Y-113169605D01*
X126985858Y-113183748D01*
X126806253Y-113004143D01*
X126820395Y-112990000D01*
X126007298Y-112176903D01*
X125763329Y-112248486D01*
X125642429Y-112503996D01*
X125573700Y-112778184D01*
X125559783Y-113060512D01*
X125601213Y-113340130D01*
X125672690Y-113540000D01*
X120379802Y-113540000D01*
X118339440Y-111499639D01*
X118411898Y-111485226D01*
X118600256Y-111407205D01*
X118769774Y-111293937D01*
X118913937Y-111149774D01*
X119027205Y-110980256D01*
X119105226Y-110791898D01*
X119145000Y-110591939D01*
X119145000Y-110529801D01*
X119326136Y-110348665D01*
X125565000Y-110348665D01*
X125565000Y-110631335D01*
X125620147Y-110908574D01*
X125728320Y-111169727D01*
X125885363Y-111404759D01*
X126085241Y-111604637D01*
X126285869Y-111738692D01*
X126258486Y-111753329D01*
X126186903Y-111997298D01*
X127000000Y-112810395D01*
X127813097Y-111997298D01*
X127741514Y-111753329D01*
X127712659Y-111739676D01*
X127914759Y-111604637D01*
X128114637Y-111404759D01*
X128271680Y-111169727D01*
X128379853Y-110908574D01*
X128435000Y-110631335D01*
X128435000Y-110348665D01*
X128379853Y-110071426D01*
X128271680Y-109810273D01*
X128114637Y-109575241D01*
X127914759Y-109375363D01*
X127679727Y-109218320D01*
X127418574Y-109110147D01*
X127141335Y-109055000D01*
X126858665Y-109055000D01*
X126581426Y-109110147D01*
X126320273Y-109218320D01*
X126085241Y-109375363D01*
X125885363Y-109575241D01*
X125728320Y-109810273D01*
X125620147Y-110071426D01*
X125565000Y-110348665D01*
X119326136Y-110348665D01*
X125185761Y-104489040D01*
X134498091Y-104489040D01*
X134592930Y-104753881D01*
X134737615Y-104995131D01*
X134926586Y-105203519D01*
X135152580Y-105371037D01*
X135406913Y-105491246D01*
X135540961Y-105531904D01*
X135763000Y-105409915D01*
X135763000Y-104267000D01*
X134619376Y-104267000D01*
X134498091Y-104489040D01*
X125185761Y-104489040D01*
X125899803Y-103774999D01*
X134503807Y-103774999D01*
X134498091Y-103790960D01*
G37*
G04 #@! TD.AperFunction*
M02*
