G04 #@! TF.GenerationSoftware,KiCad,Pcbnew,5.1.8-db9833491~88~ubuntu20.04.1*
G04 #@! TF.CreationDate,2020-12-16T12:59:07+01:00*
G04 #@! TF.ProjectId,dtZ80,64745a38-302e-46b6-9963-61645f706362,1*
G04 #@! TF.SameCoordinates,Original*
G04 #@! TF.FileFunction,Copper,L1,Top*
G04 #@! TF.FilePolarity,Positive*
%FSLAX46Y46*%
G04 Gerber Fmt 4.6, Leading zero omitted, Abs format (unit mm)*
G04 Created by KiCad (PCBNEW 5.1.8-db9833491~88~ubuntu20.04.1) date 2020-12-16 12:59:07*
%MOMM*%
%LPD*%
G01*
G04 APERTURE LIST*
G04 #@! TA.AperFunction,NonConductor*
%ADD10C,0.200000*%
G04 #@! TD*
G04 #@! TA.AperFunction,ComponentPad*
%ADD11C,1.600000*%
G04 #@! TD*
G04 #@! TA.AperFunction,ComponentPad*
%ADD12O,1.700000X1.700000*%
G04 #@! TD*
G04 #@! TA.AperFunction,ComponentPad*
%ADD13R,1.700000X1.700000*%
G04 #@! TD*
G04 #@! TA.AperFunction,ComponentPad*
%ADD14R,1.600000X1.600000*%
G04 #@! TD*
G04 #@! TA.AperFunction,ComponentPad*
%ADD15O,1.600000X1.600000*%
G04 #@! TD*
G04 #@! TA.AperFunction,ViaPad*
%ADD16C,0.800000*%
G04 #@! TD*
G04 #@! TA.AperFunction,Conductor*
%ADD17C,0.250000*%
G04 #@! TD*
G04 #@! TA.AperFunction,Conductor*
%ADD18C,0.500000*%
G04 #@! TD*
G04 #@! TA.AperFunction,Conductor*
%ADD19C,0.254000*%
G04 #@! TD*
G04 #@! TA.AperFunction,Conductor*
%ADD20C,0.100000*%
G04 #@! TD*
G04 APERTURE END LIST*
D10*
X85710000Y-95062857D02*
X85710000Y-93862857D01*
X85710000Y-95005714D02*
X85595714Y-95062857D01*
X85367142Y-95062857D01*
X85252857Y-95005714D01*
X85195714Y-94948571D01*
X85138571Y-94834285D01*
X85138571Y-94491428D01*
X85195714Y-94377142D01*
X85252857Y-94320000D01*
X85367142Y-94262857D01*
X85595714Y-94262857D01*
X85710000Y-94320000D01*
X86110000Y-94262857D02*
X86567142Y-94262857D01*
X86281428Y-93862857D02*
X86281428Y-94891428D01*
X86338571Y-95005714D01*
X86452857Y-95062857D01*
X86567142Y-95062857D01*
X86852857Y-93862857D02*
X87652857Y-93862857D01*
X86852857Y-95062857D01*
X87652857Y-95062857D01*
X88281428Y-94377142D02*
X88167142Y-94320000D01*
X88110000Y-94262857D01*
X88052857Y-94148571D01*
X88052857Y-94091428D01*
X88110000Y-93977142D01*
X88167142Y-93920000D01*
X88281428Y-93862857D01*
X88510000Y-93862857D01*
X88624285Y-93920000D01*
X88681428Y-93977142D01*
X88738571Y-94091428D01*
X88738571Y-94148571D01*
X88681428Y-94262857D01*
X88624285Y-94320000D01*
X88510000Y-94377142D01*
X88281428Y-94377142D01*
X88167142Y-94434285D01*
X88110000Y-94491428D01*
X88052857Y-94605714D01*
X88052857Y-94834285D01*
X88110000Y-94948571D01*
X88167142Y-95005714D01*
X88281428Y-95062857D01*
X88510000Y-95062857D01*
X88624285Y-95005714D01*
X88681428Y-94948571D01*
X88738571Y-94834285D01*
X88738571Y-94605714D01*
X88681428Y-94491428D01*
X88624285Y-94434285D01*
X88510000Y-94377142D01*
X89481428Y-93862857D02*
X89595714Y-93862857D01*
X89710000Y-93920000D01*
X89767142Y-93977142D01*
X89824285Y-94091428D01*
X89881428Y-94320000D01*
X89881428Y-94605714D01*
X89824285Y-94834285D01*
X89767142Y-94948571D01*
X89710000Y-95005714D01*
X89595714Y-95062857D01*
X89481428Y-95062857D01*
X89367142Y-95005714D01*
X89310000Y-94948571D01*
X89252857Y-94834285D01*
X89195714Y-94605714D01*
X89195714Y-94320000D01*
X89252857Y-94091428D01*
X89310000Y-93977142D01*
X89367142Y-93920000D01*
X89481428Y-93862857D01*
X91995714Y-95062857D02*
X91595714Y-94491428D01*
X91310000Y-95062857D02*
X91310000Y-93862857D01*
X91767142Y-93862857D01*
X91881428Y-93920000D01*
X91938571Y-93977142D01*
X91995714Y-94091428D01*
X91995714Y-94262857D01*
X91938571Y-94377142D01*
X91881428Y-94434285D01*
X91767142Y-94491428D01*
X91310000Y-94491428D01*
X92967142Y-95005714D02*
X92852857Y-95062857D01*
X92624285Y-95062857D01*
X92510000Y-95005714D01*
X92452857Y-94891428D01*
X92452857Y-94434285D01*
X92510000Y-94320000D01*
X92624285Y-94262857D01*
X92852857Y-94262857D01*
X92967142Y-94320000D01*
X93024285Y-94434285D01*
X93024285Y-94548571D01*
X92452857Y-94662857D01*
X93424285Y-94262857D02*
X93710000Y-95062857D01*
X93995714Y-94262857D01*
X94452857Y-95062857D02*
X94452857Y-94262857D01*
X94452857Y-93862857D02*
X94395714Y-93920000D01*
X94452857Y-93977142D01*
X94510000Y-93920000D01*
X94452857Y-93862857D01*
X94452857Y-93977142D01*
X94967142Y-95005714D02*
X95081428Y-95062857D01*
X95310000Y-95062857D01*
X95424285Y-95005714D01*
X95481428Y-94891428D01*
X95481428Y-94834285D01*
X95424285Y-94720000D01*
X95310000Y-94662857D01*
X95138571Y-94662857D01*
X95024285Y-94605714D01*
X94967142Y-94491428D01*
X94967142Y-94434285D01*
X95024285Y-94320000D01*
X95138571Y-94262857D01*
X95310000Y-94262857D01*
X95424285Y-94320000D01*
X95995714Y-95062857D02*
X95995714Y-94262857D01*
X95995714Y-93862857D02*
X95938571Y-93920000D01*
X95995714Y-93977142D01*
X96052857Y-93920000D01*
X95995714Y-93862857D01*
X95995714Y-93977142D01*
X96738571Y-95062857D02*
X96624285Y-95005714D01*
X96567142Y-94948571D01*
X96510000Y-94834285D01*
X96510000Y-94491428D01*
X96567142Y-94377142D01*
X96624285Y-94320000D01*
X96738571Y-94262857D01*
X96910000Y-94262857D01*
X97024285Y-94320000D01*
X97081428Y-94377142D01*
X97138571Y-94491428D01*
X97138571Y-94834285D01*
X97081428Y-94948571D01*
X97024285Y-95005714D01*
X96910000Y-95062857D01*
X96738571Y-95062857D01*
X97652857Y-94262857D02*
X97652857Y-95062857D01*
X97652857Y-94377142D02*
X97710000Y-94320000D01*
X97824285Y-94262857D01*
X97995714Y-94262857D01*
X98110000Y-94320000D01*
X98167142Y-94434285D01*
X98167142Y-95062857D01*
X100281428Y-95062857D02*
X99595714Y-95062857D01*
X99938571Y-95062857D02*
X99938571Y-93862857D01*
X99824285Y-94034285D01*
X99710000Y-94148571D01*
X99595714Y-94205714D01*
X84195714Y-96948571D02*
X84138571Y-97005714D01*
X83967142Y-97062857D01*
X83852857Y-97062857D01*
X83681428Y-97005714D01*
X83567142Y-96891428D01*
X83510000Y-96777142D01*
X83452857Y-96548571D01*
X83452857Y-96377142D01*
X83510000Y-96148571D01*
X83567142Y-96034285D01*
X83681428Y-95920000D01*
X83852857Y-95862857D01*
X83967142Y-95862857D01*
X84138571Y-95920000D01*
X84195714Y-95977142D01*
X84881428Y-97062857D02*
X84767142Y-97005714D01*
X84710000Y-96948571D01*
X84652857Y-96834285D01*
X84652857Y-96491428D01*
X84710000Y-96377142D01*
X84767142Y-96320000D01*
X84881428Y-96262857D01*
X85052857Y-96262857D01*
X85167142Y-96320000D01*
X85224285Y-96377142D01*
X85281428Y-96491428D01*
X85281428Y-96834285D01*
X85224285Y-96948571D01*
X85167142Y-97005714D01*
X85052857Y-97062857D01*
X84881428Y-97062857D01*
X85795714Y-97062857D02*
X85795714Y-96262857D01*
X85795714Y-96491428D02*
X85852857Y-96377142D01*
X85910000Y-96320000D01*
X86024285Y-96262857D01*
X86138571Y-96262857D01*
X86710000Y-97062857D02*
X86595714Y-97005714D01*
X86538571Y-96948571D01*
X86481428Y-96834285D01*
X86481428Y-96491428D01*
X86538571Y-96377142D01*
X86595714Y-96320000D01*
X86710000Y-96262857D01*
X86881428Y-96262857D01*
X86995714Y-96320000D01*
X87052857Y-96377142D01*
X87110000Y-96491428D01*
X87110000Y-96834285D01*
X87052857Y-96948571D01*
X86995714Y-97005714D01*
X86881428Y-97062857D01*
X86710000Y-97062857D01*
X87624285Y-96262857D02*
X87624285Y-97062857D01*
X87624285Y-96377142D02*
X87681428Y-96320000D01*
X87795714Y-96262857D01*
X87967142Y-96262857D01*
X88081428Y-96320000D01*
X88138571Y-96434285D01*
X88138571Y-97062857D01*
X89224285Y-97062857D02*
X89224285Y-96434285D01*
X89167142Y-96320000D01*
X89052857Y-96262857D01*
X88824285Y-96262857D01*
X88710000Y-96320000D01*
X89224285Y-97005714D02*
X89110000Y-97062857D01*
X88824285Y-97062857D01*
X88710000Y-97005714D01*
X88652857Y-96891428D01*
X88652857Y-96777142D01*
X88710000Y-96662857D01*
X88824285Y-96605714D01*
X89110000Y-96605714D01*
X89224285Y-96548571D01*
X90710000Y-97062857D02*
X90710000Y-95862857D01*
X91167142Y-95862857D01*
X91281428Y-95920000D01*
X91338571Y-95977142D01*
X91395714Y-96091428D01*
X91395714Y-96262857D01*
X91338571Y-96377142D01*
X91281428Y-96434285D01*
X91167142Y-96491428D01*
X90710000Y-96491428D01*
X91910000Y-97062857D02*
X91910000Y-96262857D01*
X91910000Y-96491428D02*
X91967142Y-96377142D01*
X92024285Y-96320000D01*
X92138571Y-96262857D01*
X92252857Y-96262857D01*
X92824285Y-97062857D02*
X92710000Y-97005714D01*
X92652857Y-96948571D01*
X92595714Y-96834285D01*
X92595714Y-96491428D01*
X92652857Y-96377142D01*
X92710000Y-96320000D01*
X92824285Y-96262857D01*
X92995714Y-96262857D01*
X93110000Y-96320000D01*
X93167142Y-96377142D01*
X93224285Y-96491428D01*
X93224285Y-96834285D01*
X93167142Y-96948571D01*
X93110000Y-97005714D01*
X92995714Y-97062857D01*
X92824285Y-97062857D01*
X93738571Y-96262857D02*
X93738571Y-97291428D01*
X93681428Y-97405714D01*
X93567142Y-97462857D01*
X93510000Y-97462857D01*
X93738571Y-95862857D02*
X93681428Y-95920000D01*
X93738571Y-95977142D01*
X93795714Y-95920000D01*
X93738571Y-95862857D01*
X93738571Y-95977142D01*
X94767142Y-97005714D02*
X94652857Y-97062857D01*
X94424285Y-97062857D01*
X94310000Y-97005714D01*
X94252857Y-96891428D01*
X94252857Y-96434285D01*
X94310000Y-96320000D01*
X94424285Y-96262857D01*
X94652857Y-96262857D01*
X94767142Y-96320000D01*
X94824285Y-96434285D01*
X94824285Y-96548571D01*
X94252857Y-96662857D01*
X95338571Y-97062857D02*
X95338571Y-95862857D01*
X95452857Y-96605714D02*
X95795714Y-97062857D01*
X95795714Y-96262857D02*
X95338571Y-96720000D01*
X96138571Y-96262857D02*
X96595714Y-96262857D01*
X96310000Y-95862857D02*
X96310000Y-96891428D01*
X96367142Y-97005714D01*
X96481428Y-97062857D01*
X96595714Y-97062857D01*
X97852857Y-95977142D02*
X97910000Y-95920000D01*
X98024285Y-95862857D01*
X98310000Y-95862857D01*
X98424285Y-95920000D01*
X98481428Y-95977142D01*
X98538571Y-96091428D01*
X98538571Y-96205714D01*
X98481428Y-96377142D01*
X97795714Y-97062857D01*
X98538571Y-97062857D01*
X99281428Y-95862857D02*
X99395714Y-95862857D01*
X99510000Y-95920000D01*
X99567142Y-95977142D01*
X99624285Y-96091428D01*
X99681428Y-96320000D01*
X99681428Y-96605714D01*
X99624285Y-96834285D01*
X99567142Y-96948571D01*
X99510000Y-97005714D01*
X99395714Y-97062857D01*
X99281428Y-97062857D01*
X99167142Y-97005714D01*
X99110000Y-96948571D01*
X99052857Y-96834285D01*
X98995714Y-96605714D01*
X98995714Y-96320000D01*
X99052857Y-96091428D01*
X99110000Y-95977142D01*
X99167142Y-95920000D01*
X99281428Y-95862857D01*
X100138571Y-95977142D02*
X100195714Y-95920000D01*
X100310000Y-95862857D01*
X100595714Y-95862857D01*
X100710000Y-95920000D01*
X100767142Y-95977142D01*
X100824285Y-96091428D01*
X100824285Y-96205714D01*
X100767142Y-96377142D01*
X100081428Y-97062857D01*
X100824285Y-97062857D01*
X101567142Y-95862857D02*
X101681428Y-95862857D01*
X101795714Y-95920000D01*
X101852857Y-95977142D01*
X101910000Y-96091428D01*
X101967142Y-96320000D01*
X101967142Y-96605714D01*
X101910000Y-96834285D01*
X101852857Y-96948571D01*
X101795714Y-97005714D01*
X101681428Y-97062857D01*
X101567142Y-97062857D01*
X101452857Y-97005714D01*
X101395714Y-96948571D01*
X101338571Y-96834285D01*
X101281428Y-96605714D01*
X101281428Y-96320000D01*
X101338571Y-96091428D01*
X101395714Y-95977142D01*
X101452857Y-95920000D01*
X101567142Y-95862857D01*
X84852857Y-99005714D02*
X85024285Y-99062857D01*
X85310000Y-99062857D01*
X85424285Y-99005714D01*
X85481428Y-98948571D01*
X85538571Y-98834285D01*
X85538571Y-98720000D01*
X85481428Y-98605714D01*
X85424285Y-98548571D01*
X85310000Y-98491428D01*
X85081428Y-98434285D01*
X84967142Y-98377142D01*
X84910000Y-98320000D01*
X84852857Y-98205714D01*
X84852857Y-98091428D01*
X84910000Y-97977142D01*
X84967142Y-97920000D01*
X85081428Y-97862857D01*
X85367142Y-97862857D01*
X85538571Y-97920000D01*
X85881428Y-98262857D02*
X86338571Y-98262857D01*
X86052857Y-97862857D02*
X86052857Y-98891428D01*
X86110000Y-99005714D01*
X86224285Y-99062857D01*
X86338571Y-99062857D01*
X87195714Y-99005714D02*
X87081428Y-99062857D01*
X86852857Y-99062857D01*
X86738571Y-99005714D01*
X86681428Y-98891428D01*
X86681428Y-98434285D01*
X86738571Y-98320000D01*
X86852857Y-98262857D01*
X87081428Y-98262857D01*
X87195714Y-98320000D01*
X87252857Y-98434285D01*
X87252857Y-98548571D01*
X86681428Y-98662857D01*
X87595714Y-98262857D02*
X88052857Y-98262857D01*
X87767142Y-99062857D02*
X87767142Y-98034285D01*
X87824285Y-97920000D01*
X87938571Y-97862857D01*
X88052857Y-97862857D01*
X88967142Y-99062857D02*
X88967142Y-98434285D01*
X88910000Y-98320000D01*
X88795714Y-98262857D01*
X88567142Y-98262857D01*
X88452857Y-98320000D01*
X88967142Y-99005714D02*
X88852857Y-99062857D01*
X88567142Y-99062857D01*
X88452857Y-99005714D01*
X88395714Y-98891428D01*
X88395714Y-98777142D01*
X88452857Y-98662857D01*
X88567142Y-98605714D01*
X88852857Y-98605714D01*
X88967142Y-98548571D01*
X89538571Y-98262857D02*
X89538571Y-99062857D01*
X89538571Y-98377142D02*
X89595714Y-98320000D01*
X89710000Y-98262857D01*
X89881428Y-98262857D01*
X89995714Y-98320000D01*
X90052857Y-98434285D01*
X90052857Y-99062857D01*
X91767142Y-97862857D02*
X91995714Y-97862857D01*
X92110000Y-97920000D01*
X92224285Y-98034285D01*
X92281428Y-98262857D01*
X92281428Y-98662857D01*
X92224285Y-98891428D01*
X92110000Y-99005714D01*
X91995714Y-99062857D01*
X91767142Y-99062857D01*
X91652857Y-99005714D01*
X91538571Y-98891428D01*
X91481428Y-98662857D01*
X91481428Y-98262857D01*
X91538571Y-98034285D01*
X91652857Y-97920000D01*
X91767142Y-97862857D01*
X92738571Y-99005714D02*
X92852857Y-99062857D01*
X93081428Y-99062857D01*
X93195714Y-99005714D01*
X93252857Y-98891428D01*
X93252857Y-98834285D01*
X93195714Y-98720000D01*
X93081428Y-98662857D01*
X92910000Y-98662857D01*
X92795714Y-98605714D01*
X92738571Y-98491428D01*
X92738571Y-98434285D01*
X92795714Y-98320000D01*
X92910000Y-98262857D01*
X93081428Y-98262857D01*
X93195714Y-98320000D01*
X93595714Y-98262857D02*
X94052857Y-98262857D01*
X93767142Y-97862857D02*
X93767142Y-98891428D01*
X93824285Y-99005714D01*
X93938571Y-99062857D01*
X94052857Y-99062857D01*
X94910000Y-99005714D02*
X94795714Y-99062857D01*
X94567142Y-99062857D01*
X94452857Y-99005714D01*
X94395714Y-98891428D01*
X94395714Y-98434285D01*
X94452857Y-98320000D01*
X94567142Y-98262857D01*
X94795714Y-98262857D01*
X94910000Y-98320000D01*
X94967142Y-98434285D01*
X94967142Y-98548571D01*
X94395714Y-98662857D01*
X95481428Y-99062857D02*
X95481428Y-98262857D01*
X95481428Y-98491428D02*
X95538571Y-98377142D01*
X95595714Y-98320000D01*
X95710000Y-98262857D01*
X95824285Y-98262857D01*
X96224285Y-99062857D02*
X96224285Y-98262857D01*
X96224285Y-98377142D02*
X96281428Y-98320000D01*
X96395714Y-98262857D01*
X96567142Y-98262857D01*
X96681428Y-98320000D01*
X96738571Y-98434285D01*
X96738571Y-99062857D01*
X96738571Y-98434285D02*
X96795714Y-98320000D01*
X96910000Y-98262857D01*
X97081428Y-98262857D01*
X97195714Y-98320000D01*
X97252857Y-98434285D01*
X97252857Y-99062857D01*
X98338571Y-99062857D02*
X98338571Y-98434285D01*
X98281428Y-98320000D01*
X98167142Y-98262857D01*
X97938571Y-98262857D01*
X97824285Y-98320000D01*
X98338571Y-99005714D02*
X98224285Y-99062857D01*
X97938571Y-99062857D01*
X97824285Y-99005714D01*
X97767142Y-98891428D01*
X97767142Y-98777142D01*
X97824285Y-98662857D01*
X97938571Y-98605714D01*
X98224285Y-98605714D01*
X98338571Y-98548571D01*
X98910000Y-98262857D02*
X98910000Y-99062857D01*
X98910000Y-98377142D02*
X98967142Y-98320000D01*
X99081428Y-98262857D01*
X99252857Y-98262857D01*
X99367142Y-98320000D01*
X99424285Y-98434285D01*
X99424285Y-99062857D01*
X99995714Y-98262857D02*
X99995714Y-99062857D01*
X99995714Y-98377142D02*
X100052857Y-98320000D01*
X100167142Y-98262857D01*
X100338571Y-98262857D01*
X100452857Y-98320000D01*
X100510000Y-98434285D01*
X100510000Y-99062857D01*
D11*
X100330000Y-64730000D03*
X100330000Y-62230000D03*
X-12700000Y-91400000D03*
X-12700000Y-88900000D03*
X50760000Y-106680000D03*
X48260000Y-106680000D03*
D12*
X-7620000Y-111760000D03*
X-5080000Y-111760000D03*
X-2540000Y-111760000D03*
X0Y-111760000D03*
X2540000Y-111760000D03*
X5080000Y-111760000D03*
X7620000Y-111760000D03*
X10160000Y-111760000D03*
X12700000Y-111760000D03*
X15240000Y-111760000D03*
X17780000Y-111760000D03*
X20320000Y-111760000D03*
X22860000Y-111760000D03*
X25400000Y-111760000D03*
X27940000Y-111760000D03*
X30480000Y-111760000D03*
X33020000Y-111760000D03*
X35560000Y-111760000D03*
X38100000Y-111760000D03*
X40640000Y-111760000D03*
X43180000Y-111760000D03*
X45720000Y-111760000D03*
X48260000Y-111760000D03*
X50800000Y-111760000D03*
X53340000Y-111760000D03*
X55880000Y-111760000D03*
X58420000Y-111760000D03*
X60960000Y-111760000D03*
X63500000Y-111760000D03*
X66040000Y-111760000D03*
X68580000Y-111760000D03*
X71120000Y-111760000D03*
X73660000Y-111760000D03*
X76200000Y-111760000D03*
X78740000Y-111760000D03*
X81280000Y-111760000D03*
X83820000Y-111760000D03*
X86360000Y-111760000D03*
X88900000Y-111760000D03*
D13*
X91440000Y-111760000D03*
D12*
X30480000Y-59690000D03*
D13*
X30480000Y-57150000D03*
D14*
X50800000Y-82550000D03*
D15*
X58420000Y-97790000D03*
X50800000Y-85090000D03*
X58420000Y-95250000D03*
X50800000Y-87630000D03*
X58420000Y-92710000D03*
X50800000Y-90170000D03*
X58420000Y-90170000D03*
X50800000Y-92710000D03*
X58420000Y-87630000D03*
X50800000Y-95250000D03*
X58420000Y-85090000D03*
X50800000Y-97790000D03*
X58420000Y-82550000D03*
D11*
X20320000Y-64770000D03*
X20320000Y-57150000D03*
X12700000Y-57150000D03*
D14*
X12700000Y-64770000D03*
D15*
X88900000Y-72390000D03*
X55880000Y-57150000D03*
X86360000Y-72390000D03*
X58420000Y-57150000D03*
X83820000Y-72390000D03*
X60960000Y-57150000D03*
X81280000Y-72390000D03*
X63500000Y-57150000D03*
X78740000Y-72390000D03*
X66040000Y-57150000D03*
X76200000Y-72390000D03*
X68580000Y-57150000D03*
X73660000Y-72390000D03*
X71120000Y-57150000D03*
X71120000Y-72390000D03*
X73660000Y-57150000D03*
X68580000Y-72390000D03*
X76200000Y-57150000D03*
X66040000Y-72390000D03*
X78740000Y-57150000D03*
X63500000Y-72390000D03*
X81280000Y-57150000D03*
X60960000Y-72390000D03*
X83820000Y-57150000D03*
X58420000Y-72390000D03*
X86360000Y-57150000D03*
X55880000Y-72390000D03*
D14*
X88900000Y-57150000D03*
D15*
X-7620000Y-82550000D03*
X40640000Y-97790000D03*
X-5080000Y-82550000D03*
X38100000Y-97790000D03*
X-2540000Y-82550000D03*
X35560000Y-97790000D03*
X0Y-82550000D03*
X33020000Y-97790000D03*
X2540000Y-82550000D03*
X30480000Y-97790000D03*
X5080000Y-82550000D03*
X27940000Y-97790000D03*
X7620000Y-82550000D03*
X25400000Y-97790000D03*
X10160000Y-82550000D03*
X22860000Y-97790000D03*
X12700000Y-82550000D03*
X20320000Y-97790000D03*
X15240000Y-82550000D03*
X17780000Y-97790000D03*
X17780000Y-82550000D03*
X15240000Y-97790000D03*
X20320000Y-82550000D03*
X12700000Y-97790000D03*
X22860000Y-82550000D03*
X10160000Y-97790000D03*
X25400000Y-82550000D03*
X7620000Y-97790000D03*
X27940000Y-82550000D03*
X5080000Y-97790000D03*
X30480000Y-82550000D03*
X2540000Y-97790000D03*
X33020000Y-82550000D03*
X0Y-97790000D03*
X35560000Y-82550000D03*
X-2540000Y-97790000D03*
X38100000Y-82550000D03*
X-5080000Y-97790000D03*
X40640000Y-82550000D03*
D14*
X-7620000Y-97790000D03*
D16*
X78740000Y-104140000D03*
X31750000Y-93980000D03*
X53340000Y-101600000D03*
X55955154Y-102945154D03*
X58420000Y-105410000D03*
X55880000Y-106680000D03*
X54685154Y-104215154D03*
X60960000Y-101600000D03*
X57225154Y-101675154D03*
X34290000Y-85090000D03*
X38100000Y-80010000D03*
X26670000Y-74930000D03*
X-6350000Y-105410000D03*
X-2332847Y-103932847D03*
X0Y-104140000D03*
X7620000Y-100330000D03*
X11430000Y-102870000D03*
X16510000Y-101600000D03*
X20320000Y-101600000D03*
X27215000Y-101600000D03*
X35560000Y-101600000D03*
X52070000Y-104140000D03*
X54402847Y-105202847D03*
X55880000Y-107950000D03*
X26594846Y-81204846D03*
X29134846Y-78664846D03*
X30404846Y-79934846D03*
X32944846Y-77394846D03*
X66040000Y-78740000D03*
X68580000Y-76200000D03*
X76200000Y-81280000D03*
X73660000Y-68580000D03*
X15240000Y-80010000D03*
X36754846Y-65964846D03*
X55880000Y-66040000D03*
X57150000Y-60960000D03*
X67310000Y-80010000D03*
X33020000Y-68580000D03*
X50592847Y-109012847D03*
X52270047Y-110275742D03*
X55880000Y-50800000D03*
X55880000Y-53340000D03*
X22860000Y-72390000D03*
X17780000Y-73660000D03*
X20320000Y-77470000D03*
X34460153Y-90340153D03*
X34069847Y-88679847D03*
X31750000Y-90170000D03*
X-11620153Y-88709847D03*
X8890000Y-87630000D03*
X19050000Y-87630000D03*
X21590000Y-85090000D03*
X26745154Y-91515154D03*
X30480000Y-88900000D03*
X77470000Y-81280000D03*
X77470000Y-85090000D03*
X82550000Y-80010000D03*
X-10160000Y-86360000D03*
X63500000Y-80010000D03*
X60960000Y-83820000D03*
X44450000Y-92710000D03*
X41910000Y-95250000D03*
X34290000Y-95250000D03*
X31750000Y-95250000D03*
X25475154Y-90245154D03*
X21590000Y-93980000D03*
X26670000Y-95250000D03*
X22860000Y-100330000D03*
X33020000Y-80010000D03*
X21590000Y-92710000D03*
X15240000Y-92710000D03*
X13970000Y-100330000D03*
X8890000Y-92710000D03*
X15240000Y-86360000D03*
X1270000Y-86360000D03*
X0Y-71120000D03*
X16510000Y-64770000D03*
X7620000Y-109220000D03*
X15240000Y-102870000D03*
X19050000Y-102870000D03*
X26670000Y-102870000D03*
X35560000Y-102870000D03*
X68580000Y-81280000D03*
X73660000Y-80010000D03*
X73660000Y-85090000D03*
X34290000Y-87630000D03*
X8890000Y-102870000D03*
X12700000Y-107950000D03*
X26670000Y-106680000D03*
X19050000Y-80010000D03*
X17780000Y-85090000D03*
X30480000Y-95250000D03*
X44525154Y-98984846D03*
X45720000Y-105410000D03*
X39370000Y-112660010D03*
X35560000Y-107950000D03*
D17*
X78740000Y-109220000D02*
X76200000Y-111760000D01*
X78740000Y-104140000D02*
X78740000Y-109220000D01*
X83275001Y-74385001D02*
X81280000Y-72390000D01*
X82898001Y-80735001D02*
X83275001Y-80358001D01*
X72534999Y-72930001D02*
X80339999Y-80735001D01*
X66580001Y-56024999D02*
X67165001Y-56609999D01*
X83275001Y-80358001D02*
X83275001Y-74385001D01*
X59323177Y-63281823D02*
X64914999Y-57690001D01*
X12159999Y-56024999D02*
X13240001Y-56024999D01*
X11574999Y-56609999D02*
X12159999Y-56024999D01*
X72534999Y-63008589D02*
X72534999Y-72930001D01*
X67165001Y-57638591D02*
X72534999Y-63008589D01*
X67165001Y-56609999D02*
X67165001Y-57638591D01*
X64914999Y-57690001D02*
X64914999Y-56609999D01*
X13240001Y-56024999D02*
X20496825Y-63281823D01*
X11574999Y-57690001D02*
X11574999Y-56609999D01*
X18494989Y-64609991D02*
X11574999Y-57690001D01*
X80339999Y-80735001D02*
X82898001Y-80735001D01*
X18494989Y-71378175D02*
X18494989Y-64609991D01*
X29354999Y-82238185D02*
X18494989Y-71378175D01*
X65499999Y-56024999D02*
X66580001Y-56024999D01*
X64914999Y-56609999D02*
X65499999Y-56024999D01*
X29354999Y-83090001D02*
X29354999Y-82238185D01*
X28769999Y-83675001D02*
X29354999Y-83090001D01*
X-1414999Y-83675001D02*
X28769999Y-83675001D01*
X20496825Y-63281823D02*
X59323177Y-63281823D01*
X-2540000Y-82550000D02*
X-1414999Y-83675001D01*
X-2629991Y-84125011D02*
X21895011Y-84125011D01*
X-3665001Y-83090001D02*
X-2629991Y-84125011D01*
X21895011Y-84125011D02*
X31750000Y-93980000D01*
X-3665001Y-82009999D02*
X-3665001Y-83090001D01*
X-3080001Y-81424999D02*
X-3665001Y-82009999D01*
X-1125001Y-81424999D02*
X-3080001Y-81424999D01*
X0Y-82550000D02*
X-1125001Y-81424999D01*
X54610000Y-101600000D02*
X55955154Y-102945154D01*
X53340000Y-101600000D02*
X54610000Y-101600000D01*
X64770000Y-105410000D02*
X58420000Y-105410000D01*
X71120000Y-111760000D02*
X64770000Y-105410000D01*
X63500000Y-106680000D02*
X55880000Y-106680000D01*
X68580000Y-111760000D02*
X63500000Y-106680000D01*
X964989Y-80974989D02*
X2540000Y-82550000D01*
X-5169991Y-80974989D02*
X964989Y-80974989D01*
X-6205001Y-82009999D02*
X-5169991Y-80974989D01*
X-6205001Y-84320001D02*
X-6205001Y-82009999D01*
X-12159999Y-90274999D02*
X-6205001Y-84320001D01*
X-13240001Y-90274999D02*
X-12159999Y-90274999D01*
X-13825001Y-90859999D02*
X-13240001Y-90274999D01*
X-13825001Y-96642409D02*
X-13825001Y-90859999D01*
X-1175001Y-109292409D02*
X-13825001Y-96642409D01*
X-1175001Y-112324001D02*
X-1175001Y-109292409D01*
X2136056Y-115635058D02*
X-1175001Y-112324001D01*
X86763944Y-115635058D02*
X2136056Y-115635058D01*
X74385001Y-95505999D02*
X90075001Y-111195999D01*
X90075001Y-111195999D02*
X90075001Y-112324001D01*
X74385001Y-84741999D02*
X74385001Y-95505999D01*
X74008001Y-84364999D02*
X74385001Y-84741999D01*
X73311999Y-84364999D02*
X74008001Y-84364999D01*
X72934999Y-84741999D02*
X73311999Y-84364999D01*
X90075001Y-112324001D02*
X86763944Y-115635058D01*
X72934999Y-87059591D02*
X72934999Y-84741999D01*
X55779436Y-104215154D02*
X72934999Y-87059591D01*
X54685154Y-104215154D02*
X55779436Y-104215154D01*
X62699002Y-101600000D02*
X60960000Y-101600000D01*
X72295001Y-112324001D02*
X72295001Y-111195999D01*
X71684001Y-112935001D02*
X72295001Y-112324001D01*
X67215001Y-112935001D02*
X71684001Y-112935001D01*
X72295001Y-111195999D02*
X62699002Y-101600000D01*
X66040000Y-111760000D02*
X67215001Y-112935001D01*
X45575001Y-96375001D02*
X34290000Y-85090000D01*
X51925001Y-96375001D02*
X45575001Y-96375001D01*
X57225154Y-101675154D02*
X51925001Y-96375001D01*
X38100000Y-80010000D02*
X36830000Y-78740000D01*
X32475001Y-80735001D02*
X26670000Y-74930000D01*
X34834999Y-80735001D02*
X32475001Y-80735001D01*
X36830000Y-78740000D02*
X34834999Y-80735001D01*
X-14275010Y-97484990D02*
X-6350000Y-105410000D01*
X-14275010Y-88810008D02*
X-14275010Y-97484990D01*
X-13240001Y-87774999D02*
X-14275010Y-88810008D01*
X-10296409Y-87774999D02*
X-13240001Y-87774999D01*
X-8745001Y-86223591D02*
X-10296409Y-87774999D01*
X-8745001Y-82009999D02*
X-8745001Y-86223591D01*
X-7259982Y-80524980D02*
X-8745001Y-82009999D01*
X5594980Y-80524980D02*
X-7259982Y-80524980D01*
X7620000Y-82550000D02*
X5594980Y-80524980D01*
X-207153Y-103932847D02*
X0Y-104140000D01*
X-2332847Y-103932847D02*
X-207153Y-103932847D01*
X8890000Y-100330000D02*
X11430000Y-102870000D01*
X7620000Y-100330000D02*
X8890000Y-100330000D01*
X16510000Y-101600000D02*
X20320000Y-101600000D01*
X27215000Y-101600000D02*
X35560000Y-101600000D01*
X53340000Y-104140000D02*
X54402847Y-105202847D01*
X52070000Y-104140000D02*
X53340000Y-104140000D01*
X59690000Y-107950000D02*
X63500000Y-111760000D01*
X55880000Y-107950000D02*
X59690000Y-107950000D01*
X24674999Y-79284999D02*
X26594846Y-81204846D01*
X13425001Y-79284999D02*
X24674999Y-79284999D01*
X10160000Y-82550000D02*
X13425001Y-79284999D01*
X29134846Y-78664846D02*
X30404846Y-79934846D01*
X63104998Y-78740000D02*
X66040000Y-78740000D01*
X57294999Y-72930001D02*
X63104998Y-78740000D01*
X57294999Y-72139997D02*
X57294999Y-72930001D01*
X56420001Y-71264999D02*
X57294999Y-72139997D01*
X39074693Y-71264999D02*
X56420001Y-71264999D01*
X32944846Y-77394846D02*
X39074693Y-71264999D01*
X76003002Y-81280000D02*
X76200000Y-81280000D01*
X70923002Y-76200000D02*
X76003002Y-81280000D01*
X68580000Y-76200000D02*
X70923002Y-76200000D01*
X73660000Y-57150000D02*
X73660000Y-68580000D01*
X12700000Y-82550000D02*
X15240000Y-80010000D01*
X55804846Y-65964846D02*
X55880000Y-66040000D01*
X36754846Y-65964846D02*
X55804846Y-65964846D01*
X69544990Y-55574990D02*
X71120000Y-57150000D01*
X60870008Y-55574990D02*
X69544990Y-55574990D01*
X59834999Y-56609999D02*
X60870008Y-55574990D01*
X59834999Y-58275001D02*
X59834999Y-56609999D01*
X57150000Y-60960000D02*
X59834999Y-58275001D01*
D18*
X48260000Y-111760000D02*
X48260000Y-106680000D01*
X41910000Y-106680000D02*
X33020000Y-97790000D01*
X48260000Y-106680000D02*
X41910000Y-106680000D01*
X33020000Y-97790000D02*
X33020000Y-82550000D01*
X33020000Y-82550000D02*
X30480000Y-82550000D01*
X54610000Y-86360000D02*
X58420000Y-82550000D01*
X36830000Y-86360000D02*
X54610000Y-86360000D01*
X33020000Y-82550000D02*
X36830000Y-86360000D01*
X58420000Y-82550000D02*
X85090000Y-82550000D01*
X88900000Y-78740000D02*
X88900000Y-72390000D01*
X85090000Y-82550000D02*
X88900000Y-78740000D01*
X92670000Y-72390000D02*
X100330000Y-64730000D01*
X88900000Y-72390000D02*
X92670000Y-72390000D01*
X19069999Y-63519999D02*
X12700000Y-57150000D01*
X19069999Y-71139999D02*
X19069999Y-63519999D01*
X30480000Y-82550000D02*
X19069999Y-71139999D01*
X19030001Y-96539999D02*
X17780000Y-97790000D01*
X31769999Y-96539999D02*
X19030001Y-96539999D01*
X33020000Y-97790000D02*
X31769999Y-96539999D01*
X11390000Y-91400000D02*
X-12700000Y-91400000D01*
X17780000Y-97790000D02*
X11390000Y-91400000D01*
X88900000Y-72390000D02*
X86360000Y-72390000D01*
D17*
X67310000Y-58420000D02*
X67310000Y-80010000D01*
X66040000Y-57150000D02*
X67310000Y-58420000D01*
X66040000Y-58281370D02*
X66040000Y-57150000D01*
X55741370Y-68580000D02*
X66040000Y-58281370D01*
X33020000Y-68580000D02*
X55741370Y-68580000D01*
D18*
X50760000Y-108845694D02*
X50592847Y-109012847D01*
X50760000Y-106680000D02*
X50760000Y-108845694D01*
X52270047Y-110289953D02*
X50800000Y-111760000D01*
X52270047Y-110275742D02*
X52270047Y-110289953D01*
X88900000Y-50800000D02*
X55880000Y-50800000D01*
X100330000Y-62230000D02*
X88900000Y-50800000D01*
X55880000Y-53340000D02*
X55880000Y-57150000D01*
X20320000Y-69850000D02*
X22860000Y-72390000D01*
X20320000Y-64770000D02*
X20320000Y-69850000D01*
X17780000Y-74930000D02*
X20320000Y-77470000D01*
X17780000Y-73660000D02*
X17780000Y-74930000D01*
X34460153Y-89070153D02*
X34069847Y-88679847D01*
X34460153Y-90340153D02*
X34460153Y-89070153D01*
X-11810306Y-88900000D02*
X-11620153Y-88709847D01*
X-12700000Y-88900000D02*
X-11810306Y-88900000D01*
X8890000Y-87630000D02*
X19050000Y-87630000D01*
X25487152Y-91515154D02*
X26745154Y-91515154D01*
X21590000Y-87618002D02*
X25487152Y-91515154D01*
X21590000Y-85090000D02*
X21590000Y-87618002D01*
X30480000Y-88900000D02*
X31750000Y-90170000D01*
D17*
X68580000Y-72390000D02*
X77470000Y-81280000D01*
X77470000Y-97790000D02*
X91440000Y-111760000D01*
X77470000Y-85090000D02*
X77470000Y-97790000D01*
X1364999Y-112324001D02*
X4226046Y-115185048D01*
X1364999Y-111195999D02*
X1364999Y-112324001D01*
X-8745001Y-101085999D02*
X1364999Y-111195999D01*
X85474952Y-115185048D02*
X88900000Y-111760000D01*
X4226046Y-115185048D02*
X85474952Y-115185048D01*
X-8745001Y-96729999D02*
X-8745001Y-101085999D01*
X-8229992Y-96214990D02*
X-8745001Y-96729999D01*
X-1575010Y-96214990D02*
X-8229992Y-96214990D01*
X0Y-97790000D02*
X-1575010Y-96214990D01*
X6316037Y-114735039D02*
X83384961Y-114735039D01*
X3904999Y-112324001D02*
X6316037Y-114735039D01*
X3904999Y-111195999D02*
X3904999Y-112324001D01*
X-6205001Y-101085999D02*
X3904999Y-111195999D01*
X-6205001Y-97249999D02*
X-6205001Y-101085999D01*
X83384961Y-114735039D02*
X86360000Y-111760000D01*
X-5620001Y-96664999D02*
X-6205001Y-97249999D01*
X-3665001Y-96664999D02*
X-5620001Y-96664999D01*
X-2540000Y-97790000D02*
X-3665001Y-96664999D01*
X8406028Y-114285030D02*
X81294970Y-114285030D01*
X6444999Y-112324001D02*
X8406028Y-114285030D01*
X81294970Y-114285030D02*
X83820000Y-111760000D01*
X6444999Y-109314999D02*
X6444999Y-112324001D01*
X-5080000Y-97790000D02*
X6444999Y-109314999D01*
X76200000Y-73660000D02*
X82550000Y-80010000D01*
X76200000Y-72390000D02*
X76200000Y-73660000D01*
X82694999Y-65895001D02*
X82694999Y-53484999D01*
X76200000Y-72390000D02*
X82694999Y-65895001D01*
X82694999Y-53484999D02*
X81280000Y-52070000D01*
X81280000Y-52070000D02*
X19050000Y-52070000D01*
X15478588Y-52070000D02*
X-10160000Y-77708588D01*
X19050000Y-52070000D02*
X15478588Y-52070000D01*
X-10160000Y-77708588D02*
X-10160000Y-86360000D01*
X25400000Y-111760000D02*
X25400000Y-97790000D01*
X60960000Y-83820000D02*
X60960000Y-88900000D01*
X48260000Y-88900000D02*
X44450000Y-92710000D01*
X60960000Y-88900000D02*
X48260000Y-88900000D01*
X36300008Y-95250000D02*
X34290000Y-95250000D01*
X37559999Y-98915001D02*
X36974999Y-98330001D01*
X36974999Y-95924991D02*
X36300008Y-95250000D01*
X38640001Y-98915001D02*
X37559999Y-98915001D01*
X39225001Y-98330001D02*
X38640001Y-98915001D01*
X36974999Y-98330001D02*
X36974999Y-95924991D01*
X39225001Y-97249999D02*
X39225001Y-98330001D01*
X41225000Y-95250000D02*
X39225001Y-97249999D01*
X41910000Y-95250000D02*
X41225000Y-95250000D01*
X26745154Y-90245154D02*
X25475154Y-90245154D01*
X31750000Y-95250000D02*
X26745154Y-90245154D01*
X25400000Y-93980000D02*
X26670000Y-95250000D01*
X21590000Y-93980000D02*
X25400000Y-93980000D01*
X22860000Y-100330000D02*
X20320000Y-97790000D01*
X20320000Y-102870000D02*
X22860000Y-100330000D01*
X20320000Y-111760000D02*
X20320000Y-102870000D01*
X40640000Y-72390000D02*
X33020000Y-80010000D01*
X55880000Y-72390000D02*
X40640000Y-72390000D01*
X21590000Y-92710000D02*
X15240000Y-92710000D01*
X14064999Y-112324001D02*
X14675999Y-112935001D01*
X14064999Y-111221409D02*
X14064999Y-112324001D01*
X6494999Y-103651409D02*
X14064999Y-111221409D01*
X16604999Y-112935001D02*
X17780000Y-111760000D01*
X6494999Y-97249999D02*
X6494999Y-103651409D01*
X7079999Y-96664999D02*
X6494999Y-97249999D01*
X9034999Y-96664999D02*
X7079999Y-96664999D01*
X14675999Y-112935001D02*
X16604999Y-112935001D01*
X10160000Y-97790000D02*
X9034999Y-96664999D01*
X10160000Y-100330000D02*
X7620000Y-97790000D01*
X13970000Y-100330000D02*
X10160000Y-100330000D01*
X13970000Y-110490000D02*
X15240000Y-111760000D01*
X13970000Y-100330000D02*
X13970000Y-110490000D01*
X39464999Y-110584999D02*
X40640000Y-111760000D01*
X27375999Y-110584999D02*
X39464999Y-110584999D01*
X26670000Y-111290998D02*
X27375999Y-110584999D01*
X26670000Y-112229002D02*
X26670000Y-111290998D01*
X25513992Y-113385010D02*
X26670000Y-112229002D01*
X12586008Y-113385010D02*
X25513992Y-113385010D01*
X11524999Y-112324001D02*
X12586008Y-113385010D01*
X11524999Y-111195999D02*
X11524999Y-112324001D01*
X5080000Y-104751000D02*
X11524999Y-111195999D01*
X5080000Y-97790000D02*
X5080000Y-104751000D01*
X5080000Y-96520000D02*
X8890000Y-92710000D01*
X5080000Y-97790000D02*
X5080000Y-96520000D01*
X15240000Y-86360000D02*
X1270000Y-86360000D01*
X10160000Y-71120000D02*
X16510000Y-64770000D01*
X0Y-71120000D02*
X10160000Y-71120000D01*
X30480000Y-57150000D02*
X20320000Y-57150000D01*
X8984999Y-110584999D02*
X7620000Y-109220000D01*
X8984999Y-112324001D02*
X8984999Y-110584999D01*
X10496018Y-113835020D02*
X8984999Y-112324001D01*
X25864980Y-113835020D02*
X10496018Y-113835020D01*
X27940000Y-111760000D02*
X25864980Y-113835020D01*
X15240000Y-102870000D02*
X19050000Y-102870000D01*
X26670000Y-102870000D02*
X35560000Y-102870000D01*
X41910000Y-81280000D02*
X68580000Y-81280000D01*
X40640000Y-82550000D02*
X41910000Y-81280000D01*
X68776998Y-80010000D02*
X73660000Y-80010000D01*
X67957008Y-80829990D02*
X68776998Y-80010000D01*
X39820010Y-80829990D02*
X67957008Y-80829990D01*
X38100000Y-82550000D02*
X39820010Y-80829990D01*
X34645010Y-113385010D02*
X33020000Y-111760000D01*
X43293992Y-113385010D02*
X34645010Y-113385010D01*
X44355001Y-112324001D02*
X43293992Y-113385010D01*
X44355001Y-111385997D02*
X44355001Y-112324001D01*
X46284001Y-110584999D02*
X45155999Y-110584999D01*
X47084999Y-111385997D02*
X46284001Y-110584999D01*
X47695999Y-112935001D02*
X47084999Y-112324001D01*
X48824001Y-112935001D02*
X47695999Y-112935001D01*
X49435001Y-112324001D02*
X48824001Y-112935001D01*
X47084999Y-112324001D02*
X47084999Y-111385997D01*
X49435001Y-111195999D02*
X49435001Y-112324001D01*
X73660000Y-86971000D02*
X49435001Y-111195999D01*
X45155999Y-110584999D02*
X44355001Y-111385997D01*
X73660000Y-85090000D02*
X73660000Y-86971000D01*
X38100000Y-91440000D02*
X38100000Y-97790000D01*
X34290000Y-87630000D02*
X38100000Y-91440000D01*
X8890000Y-104140000D02*
X12700000Y-107950000D01*
X8890000Y-102870000D02*
X8890000Y-104140000D01*
X38100000Y-106680000D02*
X43180000Y-111760000D01*
X26670000Y-106680000D02*
X38100000Y-106680000D01*
X22860000Y-80010000D02*
X19050000Y-80010000D01*
X25400000Y-82550000D02*
X22860000Y-80010000D01*
X27940000Y-95250000D02*
X30480000Y-95250000D01*
X17780000Y-85090000D02*
X27940000Y-95250000D01*
X45720000Y-100179692D02*
X45720000Y-105410000D01*
X44525154Y-98984846D02*
X45720000Y-100179692D01*
X38569002Y-107950000D02*
X35560000Y-107950000D01*
X41815001Y-111195999D02*
X38569002Y-107950000D01*
X41815001Y-112324001D02*
X41815001Y-111195999D01*
X41204001Y-112935001D02*
X41815001Y-112324001D01*
X39644991Y-112935001D02*
X41204001Y-112935001D01*
X39370000Y-112660010D02*
X39644991Y-112935001D01*
D19*
X104750001Y-116180000D02*
X87297924Y-116180000D01*
X87303945Y-116175059D01*
X87327748Y-116146055D01*
X90299214Y-113174590D01*
X90345820Y-113199502D01*
X90465518Y-113235812D01*
X90590000Y-113248072D01*
X92290000Y-113248072D01*
X92414482Y-113235812D01*
X92534180Y-113199502D01*
X92644494Y-113140537D01*
X92741185Y-113061185D01*
X92820537Y-112964494D01*
X92879502Y-112854180D01*
X92915812Y-112734482D01*
X92928072Y-112610000D01*
X92928072Y-110910000D01*
X92915812Y-110785518D01*
X92879502Y-110665820D01*
X92820537Y-110555506D01*
X92741185Y-110458815D01*
X92644494Y-110379463D01*
X92534180Y-110320498D01*
X92414482Y-110284188D01*
X92290000Y-110271928D01*
X91026731Y-110271928D01*
X78230000Y-97475199D01*
X78230000Y-92971000D01*
X82489286Y-92971000D01*
X82489286Y-100241000D01*
X102930715Y-100241000D01*
X102930715Y-92971000D01*
X82489286Y-92971000D01*
X78230000Y-92971000D01*
X78230000Y-85793711D01*
X78273937Y-85749774D01*
X78387205Y-85580256D01*
X78465226Y-85391898D01*
X78505000Y-85191939D01*
X78505000Y-84988061D01*
X78465226Y-84788102D01*
X78387205Y-84599744D01*
X78273937Y-84430226D01*
X78129774Y-84286063D01*
X77960256Y-84172795D01*
X77771898Y-84094774D01*
X77571939Y-84055000D01*
X77368061Y-84055000D01*
X77168102Y-84094774D01*
X76979744Y-84172795D01*
X76810226Y-84286063D01*
X76666063Y-84430226D01*
X76552795Y-84599744D01*
X76474774Y-84788102D01*
X76435000Y-84988061D01*
X76435000Y-85191939D01*
X76474774Y-85391898D01*
X76552795Y-85580256D01*
X76666063Y-85749774D01*
X76710000Y-85793711D01*
X76710001Y-96756198D01*
X75145001Y-95191198D01*
X75145001Y-84779332D01*
X75148678Y-84741999D01*
X75134004Y-84593013D01*
X75090547Y-84449752D01*
X75055644Y-84384454D01*
X75019975Y-84317723D01*
X74925002Y-84201998D01*
X74895999Y-84178196D01*
X74571805Y-83854002D01*
X74548002Y-83824998D01*
X74432277Y-83730025D01*
X74300248Y-83659453D01*
X74156987Y-83615996D01*
X74045334Y-83604999D01*
X74045323Y-83604999D01*
X74008001Y-83601323D01*
X73970679Y-83604999D01*
X73349332Y-83604999D01*
X73311999Y-83601322D01*
X73274666Y-83604999D01*
X73163013Y-83615996D01*
X73019752Y-83659453D01*
X72887723Y-83730025D01*
X72771998Y-83824998D01*
X72748195Y-83854002D01*
X72423997Y-84178200D01*
X72394999Y-84201998D01*
X72371201Y-84230996D01*
X72371200Y-84230997D01*
X72300025Y-84317723D01*
X72229453Y-84449753D01*
X72223619Y-84468987D01*
X72185997Y-84593013D01*
X72182951Y-84623937D01*
X72171323Y-84741999D01*
X72175000Y-84779331D01*
X72174999Y-86744789D01*
X57966750Y-100953039D01*
X57884928Y-100871217D01*
X57715410Y-100757949D01*
X57527052Y-100679928D01*
X57327093Y-100640154D01*
X57264956Y-100640154D01*
X52488805Y-95864004D01*
X52465002Y-95835000D01*
X52349277Y-95740027D01*
X52217248Y-95669455D01*
X52181816Y-95658707D01*
X52235000Y-95391335D01*
X52235000Y-95108665D01*
X52179853Y-94831426D01*
X52071680Y-94570273D01*
X51914637Y-94335241D01*
X51714759Y-94135363D01*
X51482241Y-93980000D01*
X51714759Y-93824637D01*
X51914637Y-93624759D01*
X52071680Y-93389727D01*
X52179853Y-93128574D01*
X52235000Y-92851335D01*
X52235000Y-92568665D01*
X52179853Y-92291426D01*
X52071680Y-92030273D01*
X51914637Y-91795241D01*
X51714759Y-91595363D01*
X51482241Y-91440000D01*
X51714759Y-91284637D01*
X51914637Y-91084759D01*
X52071680Y-90849727D01*
X52179853Y-90588574D01*
X52235000Y-90311335D01*
X52235000Y-90028665D01*
X52179853Y-89751426D01*
X52141983Y-89660000D01*
X57078017Y-89660000D01*
X57040147Y-89751426D01*
X56985000Y-90028665D01*
X56985000Y-90311335D01*
X57040147Y-90588574D01*
X57148320Y-90849727D01*
X57305363Y-91084759D01*
X57505241Y-91284637D01*
X57737759Y-91440000D01*
X57505241Y-91595363D01*
X57305363Y-91795241D01*
X57148320Y-92030273D01*
X57040147Y-92291426D01*
X56985000Y-92568665D01*
X56985000Y-92851335D01*
X57040147Y-93128574D01*
X57148320Y-93389727D01*
X57305363Y-93624759D01*
X57505241Y-93824637D01*
X57737759Y-93980000D01*
X57505241Y-94135363D01*
X57305363Y-94335241D01*
X57148320Y-94570273D01*
X57040147Y-94831426D01*
X56985000Y-95108665D01*
X56985000Y-95391335D01*
X57040147Y-95668574D01*
X57148320Y-95929727D01*
X57305363Y-96164759D01*
X57505241Y-96364637D01*
X57737759Y-96520000D01*
X57505241Y-96675363D01*
X57305363Y-96875241D01*
X57148320Y-97110273D01*
X57040147Y-97371426D01*
X56985000Y-97648665D01*
X56985000Y-97931335D01*
X57040147Y-98208574D01*
X57148320Y-98469727D01*
X57305363Y-98704759D01*
X57505241Y-98904637D01*
X57740273Y-99061680D01*
X58001426Y-99169853D01*
X58278665Y-99225000D01*
X58561335Y-99225000D01*
X58838574Y-99169853D01*
X59099727Y-99061680D01*
X59334759Y-98904637D01*
X59534637Y-98704759D01*
X59691680Y-98469727D01*
X59799853Y-98208574D01*
X59855000Y-97931335D01*
X59855000Y-97648665D01*
X59799853Y-97371426D01*
X59691680Y-97110273D01*
X59534637Y-96875241D01*
X59334759Y-96675363D01*
X59102241Y-96520000D01*
X59334759Y-96364637D01*
X59534637Y-96164759D01*
X59691680Y-95929727D01*
X59799853Y-95668574D01*
X59855000Y-95391335D01*
X59855000Y-95108665D01*
X59799853Y-94831426D01*
X59691680Y-94570273D01*
X59534637Y-94335241D01*
X59334759Y-94135363D01*
X59102241Y-93980000D01*
X59334759Y-93824637D01*
X59534637Y-93624759D01*
X59691680Y-93389727D01*
X59799853Y-93128574D01*
X59855000Y-92851335D01*
X59855000Y-92568665D01*
X59799853Y-92291426D01*
X59691680Y-92030273D01*
X59534637Y-91795241D01*
X59334759Y-91595363D01*
X59102241Y-91440000D01*
X59334759Y-91284637D01*
X59534637Y-91084759D01*
X59691680Y-90849727D01*
X59799853Y-90588574D01*
X59855000Y-90311335D01*
X59855000Y-90028665D01*
X59799853Y-89751426D01*
X59761983Y-89660000D01*
X60922667Y-89660000D01*
X60960000Y-89663677D01*
X61108986Y-89649003D01*
X61252247Y-89605546D01*
X61384276Y-89534974D01*
X61500001Y-89440001D01*
X61594974Y-89324276D01*
X61665546Y-89192247D01*
X61709003Y-89048986D01*
X61720000Y-88937333D01*
X61723677Y-88900000D01*
X61720000Y-88862667D01*
X61720000Y-84523711D01*
X61763937Y-84479774D01*
X61877205Y-84310256D01*
X61955226Y-84121898D01*
X61995000Y-83921939D01*
X61995000Y-83718061D01*
X61955226Y-83518102D01*
X61920804Y-83435000D01*
X85046531Y-83435000D01*
X85090000Y-83439281D01*
X85133469Y-83435000D01*
X85133477Y-83435000D01*
X85263490Y-83422195D01*
X85430313Y-83371589D01*
X85584059Y-83289411D01*
X85718817Y-83178817D01*
X85746534Y-83145044D01*
X89495050Y-79396529D01*
X89528817Y-79368817D01*
X89582177Y-79303799D01*
X89639411Y-79234059D01*
X89721589Y-79080314D01*
X89772195Y-78913490D01*
X89774608Y-78888986D01*
X89785000Y-78783477D01*
X89785000Y-78783469D01*
X89789281Y-78740000D01*
X89785000Y-78696531D01*
X89785000Y-73524521D01*
X89814759Y-73504637D01*
X90014637Y-73304759D01*
X90034521Y-73275000D01*
X92626531Y-73275000D01*
X92670000Y-73279281D01*
X92713469Y-73275000D01*
X92713477Y-73275000D01*
X92843490Y-73262195D01*
X93010313Y-73211589D01*
X93164059Y-73129411D01*
X93298817Y-73018817D01*
X93326534Y-72985044D01*
X100153562Y-66158017D01*
X100188665Y-66165000D01*
X100471335Y-66165000D01*
X100748574Y-66109853D01*
X101009727Y-66001680D01*
X101244759Y-65844637D01*
X101444637Y-65644759D01*
X101601680Y-65409727D01*
X101709853Y-65148574D01*
X101765000Y-64871335D01*
X101765000Y-64588665D01*
X101709853Y-64311426D01*
X101601680Y-64050273D01*
X101444637Y-63815241D01*
X101244759Y-63615363D01*
X101044131Y-63481308D01*
X101071514Y-63466671D01*
X101143097Y-63222702D01*
X100330000Y-62409605D01*
X99516903Y-63222702D01*
X99588486Y-63466671D01*
X99617341Y-63480324D01*
X99415241Y-63615363D01*
X99215363Y-63815241D01*
X99058320Y-64050273D01*
X98950147Y-64311426D01*
X98895000Y-64588665D01*
X98895000Y-64871335D01*
X98901983Y-64906438D01*
X92303422Y-71505000D01*
X90034521Y-71505000D01*
X90014637Y-71475241D01*
X89814759Y-71275363D01*
X89579727Y-71118320D01*
X89318574Y-71010147D01*
X89041335Y-70955000D01*
X88758665Y-70955000D01*
X88481426Y-71010147D01*
X88220273Y-71118320D01*
X87985241Y-71275363D01*
X87785363Y-71475241D01*
X87765479Y-71505000D01*
X87494521Y-71505000D01*
X87474637Y-71475241D01*
X87274759Y-71275363D01*
X87039727Y-71118320D01*
X86778574Y-71010147D01*
X86501335Y-70955000D01*
X86218665Y-70955000D01*
X85941426Y-71010147D01*
X85680273Y-71118320D01*
X85445241Y-71275363D01*
X85245363Y-71475241D01*
X85090000Y-71707759D01*
X84934637Y-71475241D01*
X84734759Y-71275363D01*
X84499727Y-71118320D01*
X84238574Y-71010147D01*
X83961335Y-70955000D01*
X83678665Y-70955000D01*
X83401426Y-71010147D01*
X83140273Y-71118320D01*
X82905241Y-71275363D01*
X82705363Y-71475241D01*
X82550000Y-71707759D01*
X82394637Y-71475241D01*
X82194759Y-71275363D01*
X81959727Y-71118320D01*
X81698574Y-71010147D01*
X81421335Y-70955000D01*
X81138665Y-70955000D01*
X80861426Y-71010147D01*
X80600273Y-71118320D01*
X80365241Y-71275363D01*
X80165363Y-71475241D01*
X80010000Y-71707759D01*
X79854637Y-71475241D01*
X79654759Y-71275363D01*
X79419727Y-71118320D01*
X79158574Y-71010147D01*
X78881335Y-70955000D01*
X78709801Y-70955000D01*
X83206003Y-66458799D01*
X83235000Y-66435002D01*
X83329973Y-66319277D01*
X83400545Y-66187248D01*
X83444002Y-66043987D01*
X83454999Y-65932334D01*
X83454999Y-65932326D01*
X83458675Y-65895001D01*
X83454999Y-65857676D01*
X83454999Y-62300512D01*
X98889783Y-62300512D01*
X98931213Y-62580130D01*
X99026397Y-62846292D01*
X99093329Y-62971514D01*
X99337298Y-63043097D01*
X100150395Y-62230000D01*
X100509605Y-62230000D01*
X101322702Y-63043097D01*
X101566671Y-62971514D01*
X101687571Y-62716004D01*
X101756300Y-62441816D01*
X101770217Y-62159488D01*
X101728787Y-61879870D01*
X101633603Y-61613708D01*
X101566671Y-61488486D01*
X101322702Y-61416903D01*
X100509605Y-62230000D01*
X100150395Y-62230000D01*
X99337298Y-61416903D01*
X99093329Y-61488486D01*
X98972429Y-61743996D01*
X98903700Y-62018184D01*
X98889783Y-62300512D01*
X83454999Y-62300512D01*
X83454999Y-61237298D01*
X99516903Y-61237298D01*
X100330000Y-62050395D01*
X101143097Y-61237298D01*
X101071514Y-60993329D01*
X100816004Y-60872429D01*
X100541816Y-60803700D01*
X100259488Y-60789783D01*
X99979870Y-60831213D01*
X99713708Y-60926397D01*
X99588486Y-60993329D01*
X99516903Y-61237298D01*
X83454999Y-61237298D01*
X83454999Y-58540509D01*
X83678665Y-58585000D01*
X83961335Y-58585000D01*
X84238574Y-58529853D01*
X84499727Y-58421680D01*
X84734759Y-58264637D01*
X84934637Y-58064759D01*
X85090000Y-57832241D01*
X85245363Y-58064759D01*
X85445241Y-58264637D01*
X85680273Y-58421680D01*
X85941426Y-58529853D01*
X86218665Y-58585000D01*
X86501335Y-58585000D01*
X86778574Y-58529853D01*
X87039727Y-58421680D01*
X87274759Y-58264637D01*
X87473357Y-58066039D01*
X87474188Y-58074482D01*
X87510498Y-58194180D01*
X87569463Y-58304494D01*
X87648815Y-58401185D01*
X87745506Y-58480537D01*
X87855820Y-58539502D01*
X87975518Y-58575812D01*
X88100000Y-58588072D01*
X89700000Y-58588072D01*
X89824482Y-58575812D01*
X89944180Y-58539502D01*
X90054494Y-58480537D01*
X90151185Y-58401185D01*
X90230537Y-58304494D01*
X90289502Y-58194180D01*
X90325812Y-58074482D01*
X90338072Y-57950000D01*
X90338072Y-56350000D01*
X90325812Y-56225518D01*
X90289502Y-56105820D01*
X90230537Y-55995506D01*
X90151185Y-55898815D01*
X90054494Y-55819463D01*
X89944180Y-55760498D01*
X89824482Y-55724188D01*
X89700000Y-55711928D01*
X88100000Y-55711928D01*
X87975518Y-55724188D01*
X87855820Y-55760498D01*
X87745506Y-55819463D01*
X87648815Y-55898815D01*
X87569463Y-55995506D01*
X87510498Y-56105820D01*
X87474188Y-56225518D01*
X87473357Y-56233961D01*
X87274759Y-56035363D01*
X87039727Y-55878320D01*
X86778574Y-55770147D01*
X86501335Y-55715000D01*
X86218665Y-55715000D01*
X85941426Y-55770147D01*
X85680273Y-55878320D01*
X85445241Y-56035363D01*
X85245363Y-56235241D01*
X85090000Y-56467759D01*
X84934637Y-56235241D01*
X84734759Y-56035363D01*
X84499727Y-55878320D01*
X84238574Y-55770147D01*
X83961335Y-55715000D01*
X83678665Y-55715000D01*
X83454999Y-55759491D01*
X83454999Y-53522324D01*
X83458675Y-53484999D01*
X83454999Y-53447674D01*
X83454999Y-53447666D01*
X83444002Y-53336013D01*
X83400545Y-53192752D01*
X83329973Y-53060723D01*
X83235000Y-52944998D01*
X83206002Y-52921200D01*
X81843804Y-51559003D01*
X81820001Y-51529999D01*
X81704276Y-51435026D01*
X81572247Y-51364454D01*
X81428986Y-51320997D01*
X81317333Y-51310000D01*
X81317322Y-51310000D01*
X81280000Y-51306324D01*
X81242678Y-51310000D01*
X15515911Y-51310000D01*
X15478588Y-51306324D01*
X15441265Y-51310000D01*
X15441255Y-51310000D01*
X15329602Y-51320997D01*
X15186341Y-51364454D01*
X15054312Y-51435026D01*
X14938587Y-51529999D01*
X14914789Y-51558997D01*
X-10670997Y-77144784D01*
X-10700001Y-77168587D01*
X-10754504Y-77235000D01*
X-10794974Y-77284312D01*
X-10799568Y-77292907D01*
X-10865546Y-77416342D01*
X-10909003Y-77559603D01*
X-10920000Y-77671256D01*
X-10920000Y-77671266D01*
X-10923676Y-77708588D01*
X-10920000Y-77745910D01*
X-10919999Y-85656288D01*
X-10963937Y-85700226D01*
X-11077205Y-85869744D01*
X-11155226Y-86058102D01*
X-11195000Y-86258061D01*
X-11195000Y-86461939D01*
X-11155226Y-86661898D01*
X-11077205Y-86850256D01*
X-10967128Y-87014999D01*
X-13202676Y-87014999D01*
X-13240001Y-87011323D01*
X-13277326Y-87014999D01*
X-13277334Y-87014999D01*
X-13388987Y-87025996D01*
X-13532248Y-87069453D01*
X-13664277Y-87140025D01*
X-13780002Y-87234998D01*
X-13803800Y-87263996D01*
X-14786008Y-88246204D01*
X-14815011Y-88270007D01*
X-14870139Y-88337182D01*
X-14909984Y-88385732D01*
X-14935750Y-88433937D01*
X-14980556Y-88517762D01*
X-15024013Y-88661023D01*
X-15035010Y-88772676D01*
X-15035010Y-88772686D01*
X-15038686Y-88810008D01*
X-15035010Y-88847330D01*
X-15035009Y-97447658D01*
X-15038686Y-97484990D01*
X-15024012Y-97633975D01*
X-14980556Y-97777236D01*
X-14909984Y-97909266D01*
X-14865483Y-97963490D01*
X-14815010Y-98024991D01*
X-14786012Y-98048789D01*
X-7385000Y-105449802D01*
X-7385000Y-105511939D01*
X-7345226Y-105711898D01*
X-7267205Y-105900256D01*
X-7153937Y-106069774D01*
X-7009774Y-106213937D01*
X-6840256Y-106327205D01*
X-6651898Y-106405226D01*
X-6451939Y-106445000D01*
X-6248061Y-106445000D01*
X-6048102Y-106405226D01*
X-5859744Y-106327205D01*
X-5690226Y-106213937D01*
X-5546063Y-106069774D01*
X-5516573Y-106025639D01*
X-1935000Y-109607212D01*
X-1935000Y-110403247D01*
X-2106842Y-110332068D01*
X-2393740Y-110275000D01*
X-2686260Y-110275000D01*
X-2973158Y-110332068D01*
X-3243411Y-110444010D01*
X-3486632Y-110606525D01*
X-3693475Y-110813368D01*
X-3810000Y-110987760D01*
X-3926525Y-110813368D01*
X-4133368Y-110606525D01*
X-4376589Y-110444010D01*
X-4646842Y-110332068D01*
X-4933740Y-110275000D01*
X-5226260Y-110275000D01*
X-5513158Y-110332068D01*
X-5783411Y-110444010D01*
X-6026632Y-110606525D01*
X-6233475Y-110813368D01*
X-6350000Y-110987760D01*
X-6466525Y-110813368D01*
X-6673368Y-110606525D01*
X-6916589Y-110444010D01*
X-7186842Y-110332068D01*
X-7473740Y-110275000D01*
X-7766260Y-110275000D01*
X-8053158Y-110332068D01*
X-8323411Y-110444010D01*
X-8566632Y-110606525D01*
X-8773475Y-110813368D01*
X-8935990Y-111056589D01*
X-9047932Y-111326842D01*
X-9105000Y-111613740D01*
X-9105000Y-111906260D01*
X-9047932Y-112193158D01*
X-8935990Y-112463411D01*
X-8773475Y-112706632D01*
X-8566632Y-112913475D01*
X-8323411Y-113075990D01*
X-8053158Y-113187932D01*
X-7766260Y-113245000D01*
X-7473740Y-113245000D01*
X-7186842Y-113187932D01*
X-6916589Y-113075990D01*
X-6673368Y-112913475D01*
X-6466525Y-112706632D01*
X-6350000Y-112532240D01*
X-6233475Y-112706632D01*
X-6026632Y-112913475D01*
X-5783411Y-113075990D01*
X-5513158Y-113187932D01*
X-5226260Y-113245000D01*
X-4933740Y-113245000D01*
X-4646842Y-113187932D01*
X-4376589Y-113075990D01*
X-4133368Y-112913475D01*
X-3926525Y-112706632D01*
X-3810000Y-112532240D01*
X-3693475Y-112706632D01*
X-3486632Y-112913475D01*
X-3243411Y-113075990D01*
X-2973158Y-113187932D01*
X-2686260Y-113245000D01*
X-2393740Y-113245000D01*
X-2106842Y-113187932D01*
X-1836589Y-113075990D01*
X-1633508Y-112940295D01*
X1572257Y-116146061D01*
X1596055Y-116175059D01*
X1602076Y-116180000D01*
X-15850000Y-116180000D01*
X-15850000Y-50190000D01*
X104750000Y-50190000D01*
X104750001Y-116180000D01*
G04 #@! TA.AperFunction,Conductor*
D20*
G36*
X104750001Y-116180000D02*
G01*
X87297924Y-116180000D01*
X87303945Y-116175059D01*
X87327748Y-116146055D01*
X90299214Y-113174590D01*
X90345820Y-113199502D01*
X90465518Y-113235812D01*
X90590000Y-113248072D01*
X92290000Y-113248072D01*
X92414482Y-113235812D01*
X92534180Y-113199502D01*
X92644494Y-113140537D01*
X92741185Y-113061185D01*
X92820537Y-112964494D01*
X92879502Y-112854180D01*
X92915812Y-112734482D01*
X92928072Y-112610000D01*
X92928072Y-110910000D01*
X92915812Y-110785518D01*
X92879502Y-110665820D01*
X92820537Y-110555506D01*
X92741185Y-110458815D01*
X92644494Y-110379463D01*
X92534180Y-110320498D01*
X92414482Y-110284188D01*
X92290000Y-110271928D01*
X91026731Y-110271928D01*
X78230000Y-97475199D01*
X78230000Y-92971000D01*
X82489286Y-92971000D01*
X82489286Y-100241000D01*
X102930715Y-100241000D01*
X102930715Y-92971000D01*
X82489286Y-92971000D01*
X78230000Y-92971000D01*
X78230000Y-85793711D01*
X78273937Y-85749774D01*
X78387205Y-85580256D01*
X78465226Y-85391898D01*
X78505000Y-85191939D01*
X78505000Y-84988061D01*
X78465226Y-84788102D01*
X78387205Y-84599744D01*
X78273937Y-84430226D01*
X78129774Y-84286063D01*
X77960256Y-84172795D01*
X77771898Y-84094774D01*
X77571939Y-84055000D01*
X77368061Y-84055000D01*
X77168102Y-84094774D01*
X76979744Y-84172795D01*
X76810226Y-84286063D01*
X76666063Y-84430226D01*
X76552795Y-84599744D01*
X76474774Y-84788102D01*
X76435000Y-84988061D01*
X76435000Y-85191939D01*
X76474774Y-85391898D01*
X76552795Y-85580256D01*
X76666063Y-85749774D01*
X76710000Y-85793711D01*
X76710001Y-96756198D01*
X75145001Y-95191198D01*
X75145001Y-84779332D01*
X75148678Y-84741999D01*
X75134004Y-84593013D01*
X75090547Y-84449752D01*
X75055644Y-84384454D01*
X75019975Y-84317723D01*
X74925002Y-84201998D01*
X74895999Y-84178196D01*
X74571805Y-83854002D01*
X74548002Y-83824998D01*
X74432277Y-83730025D01*
X74300248Y-83659453D01*
X74156987Y-83615996D01*
X74045334Y-83604999D01*
X74045323Y-83604999D01*
X74008001Y-83601323D01*
X73970679Y-83604999D01*
X73349332Y-83604999D01*
X73311999Y-83601322D01*
X73274666Y-83604999D01*
X73163013Y-83615996D01*
X73019752Y-83659453D01*
X72887723Y-83730025D01*
X72771998Y-83824998D01*
X72748195Y-83854002D01*
X72423997Y-84178200D01*
X72394999Y-84201998D01*
X72371201Y-84230996D01*
X72371200Y-84230997D01*
X72300025Y-84317723D01*
X72229453Y-84449753D01*
X72223619Y-84468987D01*
X72185997Y-84593013D01*
X72182951Y-84623937D01*
X72171323Y-84741999D01*
X72175000Y-84779331D01*
X72174999Y-86744789D01*
X57966750Y-100953039D01*
X57884928Y-100871217D01*
X57715410Y-100757949D01*
X57527052Y-100679928D01*
X57327093Y-100640154D01*
X57264956Y-100640154D01*
X52488805Y-95864004D01*
X52465002Y-95835000D01*
X52349277Y-95740027D01*
X52217248Y-95669455D01*
X52181816Y-95658707D01*
X52235000Y-95391335D01*
X52235000Y-95108665D01*
X52179853Y-94831426D01*
X52071680Y-94570273D01*
X51914637Y-94335241D01*
X51714759Y-94135363D01*
X51482241Y-93980000D01*
X51714759Y-93824637D01*
X51914637Y-93624759D01*
X52071680Y-93389727D01*
X52179853Y-93128574D01*
X52235000Y-92851335D01*
X52235000Y-92568665D01*
X52179853Y-92291426D01*
X52071680Y-92030273D01*
X51914637Y-91795241D01*
X51714759Y-91595363D01*
X51482241Y-91440000D01*
X51714759Y-91284637D01*
X51914637Y-91084759D01*
X52071680Y-90849727D01*
X52179853Y-90588574D01*
X52235000Y-90311335D01*
X52235000Y-90028665D01*
X52179853Y-89751426D01*
X52141983Y-89660000D01*
X57078017Y-89660000D01*
X57040147Y-89751426D01*
X56985000Y-90028665D01*
X56985000Y-90311335D01*
X57040147Y-90588574D01*
X57148320Y-90849727D01*
X57305363Y-91084759D01*
X57505241Y-91284637D01*
X57737759Y-91440000D01*
X57505241Y-91595363D01*
X57305363Y-91795241D01*
X57148320Y-92030273D01*
X57040147Y-92291426D01*
X56985000Y-92568665D01*
X56985000Y-92851335D01*
X57040147Y-93128574D01*
X57148320Y-93389727D01*
X57305363Y-93624759D01*
X57505241Y-93824637D01*
X57737759Y-93980000D01*
X57505241Y-94135363D01*
X57305363Y-94335241D01*
X57148320Y-94570273D01*
X57040147Y-94831426D01*
X56985000Y-95108665D01*
X56985000Y-95391335D01*
X57040147Y-95668574D01*
X57148320Y-95929727D01*
X57305363Y-96164759D01*
X57505241Y-96364637D01*
X57737759Y-96520000D01*
X57505241Y-96675363D01*
X57305363Y-96875241D01*
X57148320Y-97110273D01*
X57040147Y-97371426D01*
X56985000Y-97648665D01*
X56985000Y-97931335D01*
X57040147Y-98208574D01*
X57148320Y-98469727D01*
X57305363Y-98704759D01*
X57505241Y-98904637D01*
X57740273Y-99061680D01*
X58001426Y-99169853D01*
X58278665Y-99225000D01*
X58561335Y-99225000D01*
X58838574Y-99169853D01*
X59099727Y-99061680D01*
X59334759Y-98904637D01*
X59534637Y-98704759D01*
X59691680Y-98469727D01*
X59799853Y-98208574D01*
X59855000Y-97931335D01*
X59855000Y-97648665D01*
X59799853Y-97371426D01*
X59691680Y-97110273D01*
X59534637Y-96875241D01*
X59334759Y-96675363D01*
X59102241Y-96520000D01*
X59334759Y-96364637D01*
X59534637Y-96164759D01*
X59691680Y-95929727D01*
X59799853Y-95668574D01*
X59855000Y-95391335D01*
X59855000Y-95108665D01*
X59799853Y-94831426D01*
X59691680Y-94570273D01*
X59534637Y-94335241D01*
X59334759Y-94135363D01*
X59102241Y-93980000D01*
X59334759Y-93824637D01*
X59534637Y-93624759D01*
X59691680Y-93389727D01*
X59799853Y-93128574D01*
X59855000Y-92851335D01*
X59855000Y-92568665D01*
X59799853Y-92291426D01*
X59691680Y-92030273D01*
X59534637Y-91795241D01*
X59334759Y-91595363D01*
X59102241Y-91440000D01*
X59334759Y-91284637D01*
X59534637Y-91084759D01*
X59691680Y-90849727D01*
X59799853Y-90588574D01*
X59855000Y-90311335D01*
X59855000Y-90028665D01*
X59799853Y-89751426D01*
X59761983Y-89660000D01*
X60922667Y-89660000D01*
X60960000Y-89663677D01*
X61108986Y-89649003D01*
X61252247Y-89605546D01*
X61384276Y-89534974D01*
X61500001Y-89440001D01*
X61594974Y-89324276D01*
X61665546Y-89192247D01*
X61709003Y-89048986D01*
X61720000Y-88937333D01*
X61723677Y-88900000D01*
X61720000Y-88862667D01*
X61720000Y-84523711D01*
X61763937Y-84479774D01*
X61877205Y-84310256D01*
X61955226Y-84121898D01*
X61995000Y-83921939D01*
X61995000Y-83718061D01*
X61955226Y-83518102D01*
X61920804Y-83435000D01*
X85046531Y-83435000D01*
X85090000Y-83439281D01*
X85133469Y-83435000D01*
X85133477Y-83435000D01*
X85263490Y-83422195D01*
X85430313Y-83371589D01*
X85584059Y-83289411D01*
X85718817Y-83178817D01*
X85746534Y-83145044D01*
X89495050Y-79396529D01*
X89528817Y-79368817D01*
X89582177Y-79303799D01*
X89639411Y-79234059D01*
X89721589Y-79080314D01*
X89772195Y-78913490D01*
X89774608Y-78888986D01*
X89785000Y-78783477D01*
X89785000Y-78783469D01*
X89789281Y-78740000D01*
X89785000Y-78696531D01*
X89785000Y-73524521D01*
X89814759Y-73504637D01*
X90014637Y-73304759D01*
X90034521Y-73275000D01*
X92626531Y-73275000D01*
X92670000Y-73279281D01*
X92713469Y-73275000D01*
X92713477Y-73275000D01*
X92843490Y-73262195D01*
X93010313Y-73211589D01*
X93164059Y-73129411D01*
X93298817Y-73018817D01*
X93326534Y-72985044D01*
X100153562Y-66158017D01*
X100188665Y-66165000D01*
X100471335Y-66165000D01*
X100748574Y-66109853D01*
X101009727Y-66001680D01*
X101244759Y-65844637D01*
X101444637Y-65644759D01*
X101601680Y-65409727D01*
X101709853Y-65148574D01*
X101765000Y-64871335D01*
X101765000Y-64588665D01*
X101709853Y-64311426D01*
X101601680Y-64050273D01*
X101444637Y-63815241D01*
X101244759Y-63615363D01*
X101044131Y-63481308D01*
X101071514Y-63466671D01*
X101143097Y-63222702D01*
X100330000Y-62409605D01*
X99516903Y-63222702D01*
X99588486Y-63466671D01*
X99617341Y-63480324D01*
X99415241Y-63615363D01*
X99215363Y-63815241D01*
X99058320Y-64050273D01*
X98950147Y-64311426D01*
X98895000Y-64588665D01*
X98895000Y-64871335D01*
X98901983Y-64906438D01*
X92303422Y-71505000D01*
X90034521Y-71505000D01*
X90014637Y-71475241D01*
X89814759Y-71275363D01*
X89579727Y-71118320D01*
X89318574Y-71010147D01*
X89041335Y-70955000D01*
X88758665Y-70955000D01*
X88481426Y-71010147D01*
X88220273Y-71118320D01*
X87985241Y-71275363D01*
X87785363Y-71475241D01*
X87765479Y-71505000D01*
X87494521Y-71505000D01*
X87474637Y-71475241D01*
X87274759Y-71275363D01*
X87039727Y-71118320D01*
X86778574Y-71010147D01*
X86501335Y-70955000D01*
X86218665Y-70955000D01*
X85941426Y-71010147D01*
X85680273Y-71118320D01*
X85445241Y-71275363D01*
X85245363Y-71475241D01*
X85090000Y-71707759D01*
X84934637Y-71475241D01*
X84734759Y-71275363D01*
X84499727Y-71118320D01*
X84238574Y-71010147D01*
X83961335Y-70955000D01*
X83678665Y-70955000D01*
X83401426Y-71010147D01*
X83140273Y-71118320D01*
X82905241Y-71275363D01*
X82705363Y-71475241D01*
X82550000Y-71707759D01*
X82394637Y-71475241D01*
X82194759Y-71275363D01*
X81959727Y-71118320D01*
X81698574Y-71010147D01*
X81421335Y-70955000D01*
X81138665Y-70955000D01*
X80861426Y-71010147D01*
X80600273Y-71118320D01*
X80365241Y-71275363D01*
X80165363Y-71475241D01*
X80010000Y-71707759D01*
X79854637Y-71475241D01*
X79654759Y-71275363D01*
X79419727Y-71118320D01*
X79158574Y-71010147D01*
X78881335Y-70955000D01*
X78709801Y-70955000D01*
X83206003Y-66458799D01*
X83235000Y-66435002D01*
X83329973Y-66319277D01*
X83400545Y-66187248D01*
X83444002Y-66043987D01*
X83454999Y-65932334D01*
X83454999Y-65932326D01*
X83458675Y-65895001D01*
X83454999Y-65857676D01*
X83454999Y-62300512D01*
X98889783Y-62300512D01*
X98931213Y-62580130D01*
X99026397Y-62846292D01*
X99093329Y-62971514D01*
X99337298Y-63043097D01*
X100150395Y-62230000D01*
X100509605Y-62230000D01*
X101322702Y-63043097D01*
X101566671Y-62971514D01*
X101687571Y-62716004D01*
X101756300Y-62441816D01*
X101770217Y-62159488D01*
X101728787Y-61879870D01*
X101633603Y-61613708D01*
X101566671Y-61488486D01*
X101322702Y-61416903D01*
X100509605Y-62230000D01*
X100150395Y-62230000D01*
X99337298Y-61416903D01*
X99093329Y-61488486D01*
X98972429Y-61743996D01*
X98903700Y-62018184D01*
X98889783Y-62300512D01*
X83454999Y-62300512D01*
X83454999Y-61237298D01*
X99516903Y-61237298D01*
X100330000Y-62050395D01*
X101143097Y-61237298D01*
X101071514Y-60993329D01*
X100816004Y-60872429D01*
X100541816Y-60803700D01*
X100259488Y-60789783D01*
X99979870Y-60831213D01*
X99713708Y-60926397D01*
X99588486Y-60993329D01*
X99516903Y-61237298D01*
X83454999Y-61237298D01*
X83454999Y-58540509D01*
X83678665Y-58585000D01*
X83961335Y-58585000D01*
X84238574Y-58529853D01*
X84499727Y-58421680D01*
X84734759Y-58264637D01*
X84934637Y-58064759D01*
X85090000Y-57832241D01*
X85245363Y-58064759D01*
X85445241Y-58264637D01*
X85680273Y-58421680D01*
X85941426Y-58529853D01*
X86218665Y-58585000D01*
X86501335Y-58585000D01*
X86778574Y-58529853D01*
X87039727Y-58421680D01*
X87274759Y-58264637D01*
X87473357Y-58066039D01*
X87474188Y-58074482D01*
X87510498Y-58194180D01*
X87569463Y-58304494D01*
X87648815Y-58401185D01*
X87745506Y-58480537D01*
X87855820Y-58539502D01*
X87975518Y-58575812D01*
X88100000Y-58588072D01*
X89700000Y-58588072D01*
X89824482Y-58575812D01*
X89944180Y-58539502D01*
X90054494Y-58480537D01*
X90151185Y-58401185D01*
X90230537Y-58304494D01*
X90289502Y-58194180D01*
X90325812Y-58074482D01*
X90338072Y-57950000D01*
X90338072Y-56350000D01*
X90325812Y-56225518D01*
X90289502Y-56105820D01*
X90230537Y-55995506D01*
X90151185Y-55898815D01*
X90054494Y-55819463D01*
X89944180Y-55760498D01*
X89824482Y-55724188D01*
X89700000Y-55711928D01*
X88100000Y-55711928D01*
X87975518Y-55724188D01*
X87855820Y-55760498D01*
X87745506Y-55819463D01*
X87648815Y-55898815D01*
X87569463Y-55995506D01*
X87510498Y-56105820D01*
X87474188Y-56225518D01*
X87473357Y-56233961D01*
X87274759Y-56035363D01*
X87039727Y-55878320D01*
X86778574Y-55770147D01*
X86501335Y-55715000D01*
X86218665Y-55715000D01*
X85941426Y-55770147D01*
X85680273Y-55878320D01*
X85445241Y-56035363D01*
X85245363Y-56235241D01*
X85090000Y-56467759D01*
X84934637Y-56235241D01*
X84734759Y-56035363D01*
X84499727Y-55878320D01*
X84238574Y-55770147D01*
X83961335Y-55715000D01*
X83678665Y-55715000D01*
X83454999Y-55759491D01*
X83454999Y-53522324D01*
X83458675Y-53484999D01*
X83454999Y-53447674D01*
X83454999Y-53447666D01*
X83444002Y-53336013D01*
X83400545Y-53192752D01*
X83329973Y-53060723D01*
X83235000Y-52944998D01*
X83206002Y-52921200D01*
X81843804Y-51559003D01*
X81820001Y-51529999D01*
X81704276Y-51435026D01*
X81572247Y-51364454D01*
X81428986Y-51320997D01*
X81317333Y-51310000D01*
X81317322Y-51310000D01*
X81280000Y-51306324D01*
X81242678Y-51310000D01*
X15515911Y-51310000D01*
X15478588Y-51306324D01*
X15441265Y-51310000D01*
X15441255Y-51310000D01*
X15329602Y-51320997D01*
X15186341Y-51364454D01*
X15054312Y-51435026D01*
X14938587Y-51529999D01*
X14914789Y-51558997D01*
X-10670997Y-77144784D01*
X-10700001Y-77168587D01*
X-10754504Y-77235000D01*
X-10794974Y-77284312D01*
X-10799568Y-77292907D01*
X-10865546Y-77416342D01*
X-10909003Y-77559603D01*
X-10920000Y-77671256D01*
X-10920000Y-77671266D01*
X-10923676Y-77708588D01*
X-10920000Y-77745910D01*
X-10919999Y-85656288D01*
X-10963937Y-85700226D01*
X-11077205Y-85869744D01*
X-11155226Y-86058102D01*
X-11195000Y-86258061D01*
X-11195000Y-86461939D01*
X-11155226Y-86661898D01*
X-11077205Y-86850256D01*
X-10967128Y-87014999D01*
X-13202676Y-87014999D01*
X-13240001Y-87011323D01*
X-13277326Y-87014999D01*
X-13277334Y-87014999D01*
X-13388987Y-87025996D01*
X-13532248Y-87069453D01*
X-13664277Y-87140025D01*
X-13780002Y-87234998D01*
X-13803800Y-87263996D01*
X-14786008Y-88246204D01*
X-14815011Y-88270007D01*
X-14870139Y-88337182D01*
X-14909984Y-88385732D01*
X-14935750Y-88433937D01*
X-14980556Y-88517762D01*
X-15024013Y-88661023D01*
X-15035010Y-88772676D01*
X-15035010Y-88772686D01*
X-15038686Y-88810008D01*
X-15035010Y-88847330D01*
X-15035009Y-97447658D01*
X-15038686Y-97484990D01*
X-15024012Y-97633975D01*
X-14980556Y-97777236D01*
X-14909984Y-97909266D01*
X-14865483Y-97963490D01*
X-14815010Y-98024991D01*
X-14786012Y-98048789D01*
X-7385000Y-105449802D01*
X-7385000Y-105511939D01*
X-7345226Y-105711898D01*
X-7267205Y-105900256D01*
X-7153937Y-106069774D01*
X-7009774Y-106213937D01*
X-6840256Y-106327205D01*
X-6651898Y-106405226D01*
X-6451939Y-106445000D01*
X-6248061Y-106445000D01*
X-6048102Y-106405226D01*
X-5859744Y-106327205D01*
X-5690226Y-106213937D01*
X-5546063Y-106069774D01*
X-5516573Y-106025639D01*
X-1935000Y-109607212D01*
X-1935000Y-110403247D01*
X-2106842Y-110332068D01*
X-2393740Y-110275000D01*
X-2686260Y-110275000D01*
X-2973158Y-110332068D01*
X-3243411Y-110444010D01*
X-3486632Y-110606525D01*
X-3693475Y-110813368D01*
X-3810000Y-110987760D01*
X-3926525Y-110813368D01*
X-4133368Y-110606525D01*
X-4376589Y-110444010D01*
X-4646842Y-110332068D01*
X-4933740Y-110275000D01*
X-5226260Y-110275000D01*
X-5513158Y-110332068D01*
X-5783411Y-110444010D01*
X-6026632Y-110606525D01*
X-6233475Y-110813368D01*
X-6350000Y-110987760D01*
X-6466525Y-110813368D01*
X-6673368Y-110606525D01*
X-6916589Y-110444010D01*
X-7186842Y-110332068D01*
X-7473740Y-110275000D01*
X-7766260Y-110275000D01*
X-8053158Y-110332068D01*
X-8323411Y-110444010D01*
X-8566632Y-110606525D01*
X-8773475Y-110813368D01*
X-8935990Y-111056589D01*
X-9047932Y-111326842D01*
X-9105000Y-111613740D01*
X-9105000Y-111906260D01*
X-9047932Y-112193158D01*
X-8935990Y-112463411D01*
X-8773475Y-112706632D01*
X-8566632Y-112913475D01*
X-8323411Y-113075990D01*
X-8053158Y-113187932D01*
X-7766260Y-113245000D01*
X-7473740Y-113245000D01*
X-7186842Y-113187932D01*
X-6916589Y-113075990D01*
X-6673368Y-112913475D01*
X-6466525Y-112706632D01*
X-6350000Y-112532240D01*
X-6233475Y-112706632D01*
X-6026632Y-112913475D01*
X-5783411Y-113075990D01*
X-5513158Y-113187932D01*
X-5226260Y-113245000D01*
X-4933740Y-113245000D01*
X-4646842Y-113187932D01*
X-4376589Y-113075990D01*
X-4133368Y-112913475D01*
X-3926525Y-112706632D01*
X-3810000Y-112532240D01*
X-3693475Y-112706632D01*
X-3486632Y-112913475D01*
X-3243411Y-113075990D01*
X-2973158Y-113187932D01*
X-2686260Y-113245000D01*
X-2393740Y-113245000D01*
X-2106842Y-113187932D01*
X-1836589Y-113075990D01*
X-1633508Y-112940295D01*
X1572257Y-116146061D01*
X1596055Y-116175059D01*
X1602076Y-116180000D01*
X-15850000Y-116180000D01*
X-15850000Y-50190000D01*
X104750000Y-50190000D01*
X104750001Y-116180000D01*
G37*
G04 #@! TD.AperFunction*
D19*
X50927000Y-111633000D02*
X50947000Y-111633000D01*
X50947000Y-111887000D01*
X50927000Y-111887000D01*
X50927000Y-113080155D01*
X51156890Y-113201476D01*
X51304099Y-113156825D01*
X51566920Y-113031641D01*
X51800269Y-112857588D01*
X51995178Y-112641355D01*
X52064805Y-112524466D01*
X52186525Y-112706632D01*
X52393368Y-112913475D01*
X52636589Y-113075990D01*
X52906842Y-113187932D01*
X53193740Y-113245000D01*
X53486260Y-113245000D01*
X53773158Y-113187932D01*
X54043411Y-113075990D01*
X54286632Y-112913475D01*
X54493475Y-112706632D01*
X54610000Y-112532240D01*
X54726525Y-112706632D01*
X54933368Y-112913475D01*
X55176589Y-113075990D01*
X55446842Y-113187932D01*
X55733740Y-113245000D01*
X56026260Y-113245000D01*
X56313158Y-113187932D01*
X56583411Y-113075990D01*
X56826632Y-112913475D01*
X57033475Y-112706632D01*
X57150000Y-112532240D01*
X57266525Y-112706632D01*
X57473368Y-112913475D01*
X57716589Y-113075990D01*
X57986842Y-113187932D01*
X58273740Y-113245000D01*
X58566260Y-113245000D01*
X58853158Y-113187932D01*
X59123411Y-113075990D01*
X59366632Y-112913475D01*
X59573475Y-112706632D01*
X59690000Y-112532240D01*
X59806525Y-112706632D01*
X60013368Y-112913475D01*
X60256589Y-113075990D01*
X60526842Y-113187932D01*
X60813740Y-113245000D01*
X61106260Y-113245000D01*
X61393158Y-113187932D01*
X61663411Y-113075990D01*
X61906632Y-112913475D01*
X62113475Y-112706632D01*
X62230000Y-112532240D01*
X62346525Y-112706632D01*
X62553368Y-112913475D01*
X62796589Y-113075990D01*
X63066842Y-113187932D01*
X63353740Y-113245000D01*
X63646260Y-113245000D01*
X63933158Y-113187932D01*
X64203411Y-113075990D01*
X64446632Y-112913475D01*
X64653475Y-112706632D01*
X64770000Y-112532240D01*
X64886525Y-112706632D01*
X65093368Y-112913475D01*
X65336589Y-113075990D01*
X65606842Y-113187932D01*
X65893740Y-113245000D01*
X66186260Y-113245000D01*
X66406408Y-113201210D01*
X66651202Y-113446004D01*
X66675000Y-113475002D01*
X66735959Y-113525030D01*
X49303043Y-113525030D01*
X49364002Y-113475002D01*
X49387804Y-113445999D01*
X49900817Y-112932987D01*
X50033080Y-113031641D01*
X50295901Y-113156825D01*
X50443110Y-113201476D01*
X50673000Y-113080155D01*
X50673000Y-111887000D01*
X50653000Y-111887000D01*
X50653000Y-111633000D01*
X50673000Y-111633000D01*
X50673000Y-111613000D01*
X50927000Y-111613000D01*
X50927000Y-111633000D01*
G04 #@! TA.AperFunction,Conductor*
D20*
G36*
X50927000Y-111633000D02*
G01*
X50947000Y-111633000D01*
X50947000Y-111887000D01*
X50927000Y-111887000D01*
X50927000Y-113080155D01*
X51156890Y-113201476D01*
X51304099Y-113156825D01*
X51566920Y-113031641D01*
X51800269Y-112857588D01*
X51995178Y-112641355D01*
X52064805Y-112524466D01*
X52186525Y-112706632D01*
X52393368Y-112913475D01*
X52636589Y-113075990D01*
X52906842Y-113187932D01*
X53193740Y-113245000D01*
X53486260Y-113245000D01*
X53773158Y-113187932D01*
X54043411Y-113075990D01*
X54286632Y-112913475D01*
X54493475Y-112706632D01*
X54610000Y-112532240D01*
X54726525Y-112706632D01*
X54933368Y-112913475D01*
X55176589Y-113075990D01*
X55446842Y-113187932D01*
X55733740Y-113245000D01*
X56026260Y-113245000D01*
X56313158Y-113187932D01*
X56583411Y-113075990D01*
X56826632Y-112913475D01*
X57033475Y-112706632D01*
X57150000Y-112532240D01*
X57266525Y-112706632D01*
X57473368Y-112913475D01*
X57716589Y-113075990D01*
X57986842Y-113187932D01*
X58273740Y-113245000D01*
X58566260Y-113245000D01*
X58853158Y-113187932D01*
X59123411Y-113075990D01*
X59366632Y-112913475D01*
X59573475Y-112706632D01*
X59690000Y-112532240D01*
X59806525Y-112706632D01*
X60013368Y-112913475D01*
X60256589Y-113075990D01*
X60526842Y-113187932D01*
X60813740Y-113245000D01*
X61106260Y-113245000D01*
X61393158Y-113187932D01*
X61663411Y-113075990D01*
X61906632Y-112913475D01*
X62113475Y-112706632D01*
X62230000Y-112532240D01*
X62346525Y-112706632D01*
X62553368Y-112913475D01*
X62796589Y-113075990D01*
X63066842Y-113187932D01*
X63353740Y-113245000D01*
X63646260Y-113245000D01*
X63933158Y-113187932D01*
X64203411Y-113075990D01*
X64446632Y-112913475D01*
X64653475Y-112706632D01*
X64770000Y-112532240D01*
X64886525Y-112706632D01*
X65093368Y-112913475D01*
X65336589Y-113075990D01*
X65606842Y-113187932D01*
X65893740Y-113245000D01*
X66186260Y-113245000D01*
X66406408Y-113201210D01*
X66651202Y-113446004D01*
X66675000Y-113475002D01*
X66735959Y-113525030D01*
X49303043Y-113525030D01*
X49364002Y-113475002D01*
X49387804Y-113445999D01*
X49900817Y-112932987D01*
X50033080Y-113031641D01*
X50295901Y-113156825D01*
X50443110Y-113201476D01*
X50673000Y-113080155D01*
X50673000Y-111887000D01*
X50653000Y-111887000D01*
X50653000Y-111633000D01*
X50673000Y-111633000D01*
X50673000Y-111613000D01*
X50927000Y-111613000D01*
X50927000Y-111633000D01*
G37*
G04 #@! TD.AperFunction*
D19*
X54884774Y-106981898D02*
X54962795Y-107170256D01*
X55059510Y-107315000D01*
X54962795Y-107459744D01*
X54884774Y-107648102D01*
X54845000Y-107848061D01*
X54845000Y-108051939D01*
X54884774Y-108251898D01*
X54962795Y-108440256D01*
X55076063Y-108609774D01*
X55220226Y-108753937D01*
X55389744Y-108867205D01*
X55578102Y-108945226D01*
X55778061Y-108985000D01*
X55981939Y-108985000D01*
X56181898Y-108945226D01*
X56370256Y-108867205D01*
X56539774Y-108753937D01*
X56583711Y-108710000D01*
X59375199Y-108710000D01*
X60940199Y-110275000D01*
X60813740Y-110275000D01*
X60526842Y-110332068D01*
X60256589Y-110444010D01*
X60013368Y-110606525D01*
X59806525Y-110813368D01*
X59690000Y-110987760D01*
X59573475Y-110813368D01*
X59366632Y-110606525D01*
X59123411Y-110444010D01*
X58853158Y-110332068D01*
X58566260Y-110275000D01*
X58273740Y-110275000D01*
X57986842Y-110332068D01*
X57716589Y-110444010D01*
X57473368Y-110606525D01*
X57266525Y-110813368D01*
X57150000Y-110987760D01*
X57033475Y-110813368D01*
X56826632Y-110606525D01*
X56583411Y-110444010D01*
X56313158Y-110332068D01*
X56026260Y-110275000D01*
X55733740Y-110275000D01*
X55446842Y-110332068D01*
X55176589Y-110444010D01*
X54933368Y-110606525D01*
X54726525Y-110813368D01*
X54610000Y-110987760D01*
X54493475Y-110813368D01*
X54286632Y-110606525D01*
X54043411Y-110444010D01*
X53773158Y-110332068D01*
X53486260Y-110275000D01*
X53193740Y-110275000D01*
X52906842Y-110332068D01*
X52636589Y-110444010D01*
X52393368Y-110606525D01*
X52186525Y-110813368D01*
X52064805Y-110995534D01*
X51995178Y-110878645D01*
X51800269Y-110662412D01*
X51566920Y-110488359D01*
X51330196Y-110375605D01*
X54858084Y-106847717D01*
X54884774Y-106981898D01*
G04 #@! TA.AperFunction,Conductor*
D20*
G36*
X54884774Y-106981898D02*
G01*
X54962795Y-107170256D01*
X55059510Y-107315000D01*
X54962795Y-107459744D01*
X54884774Y-107648102D01*
X54845000Y-107848061D01*
X54845000Y-108051939D01*
X54884774Y-108251898D01*
X54962795Y-108440256D01*
X55076063Y-108609774D01*
X55220226Y-108753937D01*
X55389744Y-108867205D01*
X55578102Y-108945226D01*
X55778061Y-108985000D01*
X55981939Y-108985000D01*
X56181898Y-108945226D01*
X56370256Y-108867205D01*
X56539774Y-108753937D01*
X56583711Y-108710000D01*
X59375199Y-108710000D01*
X60940199Y-110275000D01*
X60813740Y-110275000D01*
X60526842Y-110332068D01*
X60256589Y-110444010D01*
X60013368Y-110606525D01*
X59806525Y-110813368D01*
X59690000Y-110987760D01*
X59573475Y-110813368D01*
X59366632Y-110606525D01*
X59123411Y-110444010D01*
X58853158Y-110332068D01*
X58566260Y-110275000D01*
X58273740Y-110275000D01*
X57986842Y-110332068D01*
X57716589Y-110444010D01*
X57473368Y-110606525D01*
X57266525Y-110813368D01*
X57150000Y-110987760D01*
X57033475Y-110813368D01*
X56826632Y-110606525D01*
X56583411Y-110444010D01*
X56313158Y-110332068D01*
X56026260Y-110275000D01*
X55733740Y-110275000D01*
X55446842Y-110332068D01*
X55176589Y-110444010D01*
X54933368Y-110606525D01*
X54726525Y-110813368D01*
X54610000Y-110987760D01*
X54493475Y-110813368D01*
X54286632Y-110606525D01*
X54043411Y-110444010D01*
X53773158Y-110332068D01*
X53486260Y-110275000D01*
X53193740Y-110275000D01*
X52906842Y-110332068D01*
X52636589Y-110444010D01*
X52393368Y-110606525D01*
X52186525Y-110813368D01*
X52064805Y-110995534D01*
X51995178Y-110878645D01*
X51800269Y-110662412D01*
X51566920Y-110488359D01*
X51330196Y-110375605D01*
X54858084Y-106847717D01*
X54884774Y-106981898D01*
G37*
G04 #@! TD.AperFunction*
D19*
X33988102Y-86085226D02*
X34188061Y-86125000D01*
X34250199Y-86125000D01*
X45011206Y-96886009D01*
X45035000Y-96915002D01*
X45063993Y-96938796D01*
X45063997Y-96938800D01*
X45126385Y-96990000D01*
X45150725Y-97009975D01*
X45282754Y-97080547D01*
X45426015Y-97124004D01*
X45537668Y-97135001D01*
X45537677Y-97135001D01*
X45575000Y-97138677D01*
X45612323Y-97135001D01*
X49530007Y-97135001D01*
X49448754Y-97306913D01*
X49408096Y-97440961D01*
X49530085Y-97663000D01*
X50673000Y-97663000D01*
X50673000Y-97643000D01*
X50927000Y-97643000D01*
X50927000Y-97663000D01*
X52069915Y-97663000D01*
X52094128Y-97618929D01*
X56190154Y-101714956D01*
X56190154Y-101777093D01*
X56223193Y-101943193D01*
X56057093Y-101910154D01*
X55994956Y-101910154D01*
X55173804Y-101089003D01*
X55150001Y-101059999D01*
X55034276Y-100965026D01*
X54902247Y-100894454D01*
X54758986Y-100850997D01*
X54647333Y-100840000D01*
X54647322Y-100840000D01*
X54610000Y-100836324D01*
X54572678Y-100840000D01*
X54043711Y-100840000D01*
X53999774Y-100796063D01*
X53830256Y-100682795D01*
X53641898Y-100604774D01*
X53441939Y-100565000D01*
X53238061Y-100565000D01*
X53038102Y-100604774D01*
X52849744Y-100682795D01*
X52680226Y-100796063D01*
X52536063Y-100940226D01*
X52422795Y-101109744D01*
X52344774Y-101298102D01*
X52305000Y-101498061D01*
X52305000Y-101701939D01*
X52344774Y-101901898D01*
X52422795Y-102090256D01*
X52536063Y-102259774D01*
X52680226Y-102403937D01*
X52849744Y-102517205D01*
X53038102Y-102595226D01*
X53238061Y-102635000D01*
X53441939Y-102635000D01*
X53641898Y-102595226D01*
X53830256Y-102517205D01*
X53999774Y-102403937D01*
X54043711Y-102360000D01*
X54295199Y-102360000D01*
X54920154Y-102984956D01*
X54920154Y-103047093D01*
X54953193Y-103213193D01*
X54787093Y-103180154D01*
X54583215Y-103180154D01*
X54383256Y-103219928D01*
X54194898Y-103297949D01*
X54025380Y-103411217D01*
X53881217Y-103555380D01*
X53861532Y-103584841D01*
X53764276Y-103505026D01*
X53632247Y-103434454D01*
X53488986Y-103390997D01*
X53377333Y-103380000D01*
X53377322Y-103380000D01*
X53340000Y-103376324D01*
X53302678Y-103380000D01*
X52773711Y-103380000D01*
X52729774Y-103336063D01*
X52560256Y-103222795D01*
X52371898Y-103144774D01*
X52171939Y-103105000D01*
X51968061Y-103105000D01*
X51768102Y-103144774D01*
X51579744Y-103222795D01*
X51410226Y-103336063D01*
X51266063Y-103480226D01*
X51152795Y-103649744D01*
X51074774Y-103838102D01*
X51035000Y-104038061D01*
X51035000Y-104241939D01*
X51074774Y-104441898D01*
X51152795Y-104630256D01*
X51266063Y-104799774D01*
X51410226Y-104943937D01*
X51579744Y-105057205D01*
X51768102Y-105135226D01*
X51968061Y-105175000D01*
X52171939Y-105175000D01*
X52371898Y-105135226D01*
X52560256Y-105057205D01*
X52729774Y-104943937D01*
X52773711Y-104900000D01*
X53025199Y-104900000D01*
X53367847Y-105242649D01*
X53367847Y-105304786D01*
X53407621Y-105504745D01*
X53485642Y-105693103D01*
X53598910Y-105862621D01*
X53646244Y-105909955D01*
X49145000Y-110411199D01*
X49145000Y-107814521D01*
X49174759Y-107794637D01*
X49296694Y-107672702D01*
X49946903Y-107672702D01*
X50018486Y-107916671D01*
X50273996Y-108037571D01*
X50548184Y-108106300D01*
X50830512Y-108120217D01*
X51110130Y-108078787D01*
X51376292Y-107983603D01*
X51501514Y-107916671D01*
X51573097Y-107672702D01*
X50760000Y-106859605D01*
X49946903Y-107672702D01*
X49296694Y-107672702D01*
X49374637Y-107594759D01*
X49508692Y-107394131D01*
X49523329Y-107421514D01*
X49767298Y-107493097D01*
X50580395Y-106680000D01*
X50939605Y-106680000D01*
X51752702Y-107493097D01*
X51996671Y-107421514D01*
X52117571Y-107166004D01*
X52186300Y-106891816D01*
X52200217Y-106609488D01*
X52158787Y-106329870D01*
X52063603Y-106063708D01*
X51996671Y-105938486D01*
X51752702Y-105866903D01*
X50939605Y-106680000D01*
X50580395Y-106680000D01*
X49767298Y-105866903D01*
X49523329Y-105938486D01*
X49509676Y-105967341D01*
X49374637Y-105765241D01*
X49296694Y-105687298D01*
X49946903Y-105687298D01*
X50760000Y-106500395D01*
X51573097Y-105687298D01*
X51501514Y-105443329D01*
X51246004Y-105322429D01*
X50971816Y-105253700D01*
X50689488Y-105239783D01*
X50409870Y-105281213D01*
X50143708Y-105376397D01*
X50018486Y-105443329D01*
X49946903Y-105687298D01*
X49296694Y-105687298D01*
X49174759Y-105565363D01*
X48939727Y-105408320D01*
X48678574Y-105300147D01*
X48401335Y-105245000D01*
X48118665Y-105245000D01*
X47841426Y-105300147D01*
X47580273Y-105408320D01*
X47345241Y-105565363D01*
X47145363Y-105765241D01*
X47125479Y-105795000D01*
X46680804Y-105795000D01*
X46715226Y-105711898D01*
X46755000Y-105511939D01*
X46755000Y-105308061D01*
X46715226Y-105108102D01*
X46637205Y-104919744D01*
X46523937Y-104750226D01*
X46480000Y-104706289D01*
X46480000Y-100217014D01*
X46483676Y-100179691D01*
X46480000Y-100142368D01*
X46480000Y-100142359D01*
X46469003Y-100030706D01*
X46425546Y-99887445D01*
X46354974Y-99755416D01*
X46341811Y-99739377D01*
X46283799Y-99668688D01*
X46283795Y-99668684D01*
X46260001Y-99639691D01*
X46231009Y-99615898D01*
X45560154Y-98945044D01*
X45560154Y-98882907D01*
X45520380Y-98682948D01*
X45442359Y-98494590D01*
X45329091Y-98325072D01*
X45184928Y-98180909D01*
X45122265Y-98139039D01*
X49408096Y-98139039D01*
X49448754Y-98273087D01*
X49568963Y-98527420D01*
X49736481Y-98753414D01*
X49944869Y-98942385D01*
X50186119Y-99087070D01*
X50450960Y-99181909D01*
X50673000Y-99060624D01*
X50673000Y-97917000D01*
X50927000Y-97917000D01*
X50927000Y-99060624D01*
X51149040Y-99181909D01*
X51413881Y-99087070D01*
X51655131Y-98942385D01*
X51863519Y-98753414D01*
X52031037Y-98527420D01*
X52151246Y-98273087D01*
X52191904Y-98139039D01*
X52069915Y-97917000D01*
X50927000Y-97917000D01*
X50673000Y-97917000D01*
X49530085Y-97917000D01*
X49408096Y-98139039D01*
X45122265Y-98139039D01*
X45015410Y-98067641D01*
X44827052Y-97989620D01*
X44627093Y-97949846D01*
X44423215Y-97949846D01*
X44223256Y-97989620D01*
X44034898Y-98067641D01*
X43865380Y-98180909D01*
X43721217Y-98325072D01*
X43607949Y-98494590D01*
X43529928Y-98682948D01*
X43490154Y-98882907D01*
X43490154Y-99086785D01*
X43529928Y-99286744D01*
X43607949Y-99475102D01*
X43721217Y-99644620D01*
X43865380Y-99788783D01*
X44034898Y-99902051D01*
X44223256Y-99980072D01*
X44423215Y-100019846D01*
X44485352Y-100019846D01*
X44960000Y-100494495D01*
X44960001Y-104706288D01*
X44916063Y-104750226D01*
X44802795Y-104919744D01*
X44724774Y-105108102D01*
X44685000Y-105308061D01*
X44685000Y-105511939D01*
X44724774Y-105711898D01*
X44759196Y-105795000D01*
X42276579Y-105795000D01*
X35705708Y-99224130D01*
X35978574Y-99169853D01*
X36239727Y-99061680D01*
X36474759Y-98904637D01*
X36474796Y-98904600D01*
X36996199Y-99426003D01*
X37019998Y-99455002D01*
X37048996Y-99478800D01*
X37135722Y-99549975D01*
X37193760Y-99580997D01*
X37267752Y-99620547D01*
X37411013Y-99664004D01*
X37522666Y-99675001D01*
X37522676Y-99675001D01*
X37559999Y-99678677D01*
X37597322Y-99675001D01*
X38602679Y-99675001D01*
X38640001Y-99678677D01*
X38677323Y-99675001D01*
X38677334Y-99675001D01*
X38788987Y-99664004D01*
X38932248Y-99620547D01*
X39064277Y-99549975D01*
X39180002Y-99455002D01*
X39203804Y-99425999D01*
X39725204Y-98904600D01*
X39725241Y-98904637D01*
X39960273Y-99061680D01*
X40221426Y-99169853D01*
X40498665Y-99225000D01*
X40781335Y-99225000D01*
X41058574Y-99169853D01*
X41319727Y-99061680D01*
X41554759Y-98904637D01*
X41754637Y-98704759D01*
X41911680Y-98469727D01*
X42019853Y-98208574D01*
X42075000Y-97931335D01*
X42075000Y-97648665D01*
X42019853Y-97371426D01*
X41911680Y-97110273D01*
X41754637Y-96875241D01*
X41554759Y-96675363D01*
X41319727Y-96518320D01*
X41115907Y-96433895D01*
X41397476Y-96152326D01*
X41419744Y-96167205D01*
X41608102Y-96245226D01*
X41808061Y-96285000D01*
X42011939Y-96285000D01*
X42211898Y-96245226D01*
X42400256Y-96167205D01*
X42569774Y-96053937D01*
X42713937Y-95909774D01*
X42827205Y-95740256D01*
X42905226Y-95551898D01*
X42945000Y-95351939D01*
X42945000Y-95148061D01*
X42905226Y-94948102D01*
X42827205Y-94759744D01*
X42713937Y-94590226D01*
X42569774Y-94446063D01*
X42400256Y-94332795D01*
X42211898Y-94254774D01*
X42011939Y-94215000D01*
X41808061Y-94215000D01*
X41608102Y-94254774D01*
X41419744Y-94332795D01*
X41250226Y-94446063D01*
X41208323Y-94487966D01*
X41187675Y-94490000D01*
X41187667Y-94490000D01*
X41076014Y-94500997D01*
X40932753Y-94544454D01*
X40800724Y-94615026D01*
X40684999Y-94709999D01*
X40661201Y-94738997D01*
X38860000Y-96540199D01*
X38860000Y-91477325D01*
X38863676Y-91440000D01*
X38860000Y-91402675D01*
X38860000Y-91402667D01*
X38849003Y-91291014D01*
X38805546Y-91147753D01*
X38734974Y-91015724D01*
X38640001Y-90899999D01*
X38611004Y-90876202D01*
X35325000Y-87590199D01*
X35325000Y-87528061D01*
X35285226Y-87328102D01*
X35207205Y-87139744D01*
X35093937Y-86970226D01*
X34949774Y-86826063D01*
X34780256Y-86712795D01*
X34591898Y-86634774D01*
X34391939Y-86595000D01*
X34188061Y-86595000D01*
X33988102Y-86634774D01*
X33905000Y-86669196D01*
X33905000Y-86050804D01*
X33988102Y-86085226D01*
G04 #@! TA.AperFunction,Conductor*
D20*
G36*
X33988102Y-86085226D02*
G01*
X34188061Y-86125000D01*
X34250199Y-86125000D01*
X45011206Y-96886009D01*
X45035000Y-96915002D01*
X45063993Y-96938796D01*
X45063997Y-96938800D01*
X45126385Y-96990000D01*
X45150725Y-97009975D01*
X45282754Y-97080547D01*
X45426015Y-97124004D01*
X45537668Y-97135001D01*
X45537677Y-97135001D01*
X45575000Y-97138677D01*
X45612323Y-97135001D01*
X49530007Y-97135001D01*
X49448754Y-97306913D01*
X49408096Y-97440961D01*
X49530085Y-97663000D01*
X50673000Y-97663000D01*
X50673000Y-97643000D01*
X50927000Y-97643000D01*
X50927000Y-97663000D01*
X52069915Y-97663000D01*
X52094128Y-97618929D01*
X56190154Y-101714956D01*
X56190154Y-101777093D01*
X56223193Y-101943193D01*
X56057093Y-101910154D01*
X55994956Y-101910154D01*
X55173804Y-101089003D01*
X55150001Y-101059999D01*
X55034276Y-100965026D01*
X54902247Y-100894454D01*
X54758986Y-100850997D01*
X54647333Y-100840000D01*
X54647322Y-100840000D01*
X54610000Y-100836324D01*
X54572678Y-100840000D01*
X54043711Y-100840000D01*
X53999774Y-100796063D01*
X53830256Y-100682795D01*
X53641898Y-100604774D01*
X53441939Y-100565000D01*
X53238061Y-100565000D01*
X53038102Y-100604774D01*
X52849744Y-100682795D01*
X52680226Y-100796063D01*
X52536063Y-100940226D01*
X52422795Y-101109744D01*
X52344774Y-101298102D01*
X52305000Y-101498061D01*
X52305000Y-101701939D01*
X52344774Y-101901898D01*
X52422795Y-102090256D01*
X52536063Y-102259774D01*
X52680226Y-102403937D01*
X52849744Y-102517205D01*
X53038102Y-102595226D01*
X53238061Y-102635000D01*
X53441939Y-102635000D01*
X53641898Y-102595226D01*
X53830256Y-102517205D01*
X53999774Y-102403937D01*
X54043711Y-102360000D01*
X54295199Y-102360000D01*
X54920154Y-102984956D01*
X54920154Y-103047093D01*
X54953193Y-103213193D01*
X54787093Y-103180154D01*
X54583215Y-103180154D01*
X54383256Y-103219928D01*
X54194898Y-103297949D01*
X54025380Y-103411217D01*
X53881217Y-103555380D01*
X53861532Y-103584841D01*
X53764276Y-103505026D01*
X53632247Y-103434454D01*
X53488986Y-103390997D01*
X53377333Y-103380000D01*
X53377322Y-103380000D01*
X53340000Y-103376324D01*
X53302678Y-103380000D01*
X52773711Y-103380000D01*
X52729774Y-103336063D01*
X52560256Y-103222795D01*
X52371898Y-103144774D01*
X52171939Y-103105000D01*
X51968061Y-103105000D01*
X51768102Y-103144774D01*
X51579744Y-103222795D01*
X51410226Y-103336063D01*
X51266063Y-103480226D01*
X51152795Y-103649744D01*
X51074774Y-103838102D01*
X51035000Y-104038061D01*
X51035000Y-104241939D01*
X51074774Y-104441898D01*
X51152795Y-104630256D01*
X51266063Y-104799774D01*
X51410226Y-104943937D01*
X51579744Y-105057205D01*
X51768102Y-105135226D01*
X51968061Y-105175000D01*
X52171939Y-105175000D01*
X52371898Y-105135226D01*
X52560256Y-105057205D01*
X52729774Y-104943937D01*
X52773711Y-104900000D01*
X53025199Y-104900000D01*
X53367847Y-105242649D01*
X53367847Y-105304786D01*
X53407621Y-105504745D01*
X53485642Y-105693103D01*
X53598910Y-105862621D01*
X53646244Y-105909955D01*
X49145000Y-110411199D01*
X49145000Y-107814521D01*
X49174759Y-107794637D01*
X49296694Y-107672702D01*
X49946903Y-107672702D01*
X50018486Y-107916671D01*
X50273996Y-108037571D01*
X50548184Y-108106300D01*
X50830512Y-108120217D01*
X51110130Y-108078787D01*
X51376292Y-107983603D01*
X51501514Y-107916671D01*
X51573097Y-107672702D01*
X50760000Y-106859605D01*
X49946903Y-107672702D01*
X49296694Y-107672702D01*
X49374637Y-107594759D01*
X49508692Y-107394131D01*
X49523329Y-107421514D01*
X49767298Y-107493097D01*
X50580395Y-106680000D01*
X50939605Y-106680000D01*
X51752702Y-107493097D01*
X51996671Y-107421514D01*
X52117571Y-107166004D01*
X52186300Y-106891816D01*
X52200217Y-106609488D01*
X52158787Y-106329870D01*
X52063603Y-106063708D01*
X51996671Y-105938486D01*
X51752702Y-105866903D01*
X50939605Y-106680000D01*
X50580395Y-106680000D01*
X49767298Y-105866903D01*
X49523329Y-105938486D01*
X49509676Y-105967341D01*
X49374637Y-105765241D01*
X49296694Y-105687298D01*
X49946903Y-105687298D01*
X50760000Y-106500395D01*
X51573097Y-105687298D01*
X51501514Y-105443329D01*
X51246004Y-105322429D01*
X50971816Y-105253700D01*
X50689488Y-105239783D01*
X50409870Y-105281213D01*
X50143708Y-105376397D01*
X50018486Y-105443329D01*
X49946903Y-105687298D01*
X49296694Y-105687298D01*
X49174759Y-105565363D01*
X48939727Y-105408320D01*
X48678574Y-105300147D01*
X48401335Y-105245000D01*
X48118665Y-105245000D01*
X47841426Y-105300147D01*
X47580273Y-105408320D01*
X47345241Y-105565363D01*
X47145363Y-105765241D01*
X47125479Y-105795000D01*
X46680804Y-105795000D01*
X46715226Y-105711898D01*
X46755000Y-105511939D01*
X46755000Y-105308061D01*
X46715226Y-105108102D01*
X46637205Y-104919744D01*
X46523937Y-104750226D01*
X46480000Y-104706289D01*
X46480000Y-100217014D01*
X46483676Y-100179691D01*
X46480000Y-100142368D01*
X46480000Y-100142359D01*
X46469003Y-100030706D01*
X46425546Y-99887445D01*
X46354974Y-99755416D01*
X46341811Y-99739377D01*
X46283799Y-99668688D01*
X46283795Y-99668684D01*
X46260001Y-99639691D01*
X46231009Y-99615898D01*
X45560154Y-98945044D01*
X45560154Y-98882907D01*
X45520380Y-98682948D01*
X45442359Y-98494590D01*
X45329091Y-98325072D01*
X45184928Y-98180909D01*
X45122265Y-98139039D01*
X49408096Y-98139039D01*
X49448754Y-98273087D01*
X49568963Y-98527420D01*
X49736481Y-98753414D01*
X49944869Y-98942385D01*
X50186119Y-99087070D01*
X50450960Y-99181909D01*
X50673000Y-99060624D01*
X50673000Y-97917000D01*
X50927000Y-97917000D01*
X50927000Y-99060624D01*
X51149040Y-99181909D01*
X51413881Y-99087070D01*
X51655131Y-98942385D01*
X51863519Y-98753414D01*
X52031037Y-98527420D01*
X52151246Y-98273087D01*
X52191904Y-98139039D01*
X52069915Y-97917000D01*
X50927000Y-97917000D01*
X50673000Y-97917000D01*
X49530085Y-97917000D01*
X49408096Y-98139039D01*
X45122265Y-98139039D01*
X45015410Y-98067641D01*
X44827052Y-97989620D01*
X44627093Y-97949846D01*
X44423215Y-97949846D01*
X44223256Y-97989620D01*
X44034898Y-98067641D01*
X43865380Y-98180909D01*
X43721217Y-98325072D01*
X43607949Y-98494590D01*
X43529928Y-98682948D01*
X43490154Y-98882907D01*
X43490154Y-99086785D01*
X43529928Y-99286744D01*
X43607949Y-99475102D01*
X43721217Y-99644620D01*
X43865380Y-99788783D01*
X44034898Y-99902051D01*
X44223256Y-99980072D01*
X44423215Y-100019846D01*
X44485352Y-100019846D01*
X44960000Y-100494495D01*
X44960001Y-104706288D01*
X44916063Y-104750226D01*
X44802795Y-104919744D01*
X44724774Y-105108102D01*
X44685000Y-105308061D01*
X44685000Y-105511939D01*
X44724774Y-105711898D01*
X44759196Y-105795000D01*
X42276579Y-105795000D01*
X35705708Y-99224130D01*
X35978574Y-99169853D01*
X36239727Y-99061680D01*
X36474759Y-98904637D01*
X36474796Y-98904600D01*
X36996199Y-99426003D01*
X37019998Y-99455002D01*
X37048996Y-99478800D01*
X37135722Y-99549975D01*
X37193760Y-99580997D01*
X37267752Y-99620547D01*
X37411013Y-99664004D01*
X37522666Y-99675001D01*
X37522676Y-99675001D01*
X37559999Y-99678677D01*
X37597322Y-99675001D01*
X38602679Y-99675001D01*
X38640001Y-99678677D01*
X38677323Y-99675001D01*
X38677334Y-99675001D01*
X38788987Y-99664004D01*
X38932248Y-99620547D01*
X39064277Y-99549975D01*
X39180002Y-99455002D01*
X39203804Y-99425999D01*
X39725204Y-98904600D01*
X39725241Y-98904637D01*
X39960273Y-99061680D01*
X40221426Y-99169853D01*
X40498665Y-99225000D01*
X40781335Y-99225000D01*
X41058574Y-99169853D01*
X41319727Y-99061680D01*
X41554759Y-98904637D01*
X41754637Y-98704759D01*
X41911680Y-98469727D01*
X42019853Y-98208574D01*
X42075000Y-97931335D01*
X42075000Y-97648665D01*
X42019853Y-97371426D01*
X41911680Y-97110273D01*
X41754637Y-96875241D01*
X41554759Y-96675363D01*
X41319727Y-96518320D01*
X41115907Y-96433895D01*
X41397476Y-96152326D01*
X41419744Y-96167205D01*
X41608102Y-96245226D01*
X41808061Y-96285000D01*
X42011939Y-96285000D01*
X42211898Y-96245226D01*
X42400256Y-96167205D01*
X42569774Y-96053937D01*
X42713937Y-95909774D01*
X42827205Y-95740256D01*
X42905226Y-95551898D01*
X42945000Y-95351939D01*
X42945000Y-95148061D01*
X42905226Y-94948102D01*
X42827205Y-94759744D01*
X42713937Y-94590226D01*
X42569774Y-94446063D01*
X42400256Y-94332795D01*
X42211898Y-94254774D01*
X42011939Y-94215000D01*
X41808061Y-94215000D01*
X41608102Y-94254774D01*
X41419744Y-94332795D01*
X41250226Y-94446063D01*
X41208323Y-94487966D01*
X41187675Y-94490000D01*
X41187667Y-94490000D01*
X41076014Y-94500997D01*
X40932753Y-94544454D01*
X40800724Y-94615026D01*
X40684999Y-94709999D01*
X40661201Y-94738997D01*
X38860000Y-96540199D01*
X38860000Y-91477325D01*
X38863676Y-91440000D01*
X38860000Y-91402675D01*
X38860000Y-91402667D01*
X38849003Y-91291014D01*
X38805546Y-91147753D01*
X38734974Y-91015724D01*
X38640001Y-90899999D01*
X38611004Y-90876202D01*
X35325000Y-87590199D01*
X35325000Y-87528061D01*
X35285226Y-87328102D01*
X35207205Y-87139744D01*
X35093937Y-86970226D01*
X34949774Y-86826063D01*
X34780256Y-86712795D01*
X34591898Y-86634774D01*
X34391939Y-86595000D01*
X34188061Y-86595000D01*
X33988102Y-86634774D01*
X33905000Y-86669196D01*
X33905000Y-86050804D01*
X33988102Y-86085226D01*
G37*
G04 #@! TD.AperFunction*
D19*
X33988102Y-88625226D02*
X34188061Y-88665000D01*
X34250199Y-88665000D01*
X37340000Y-91754802D01*
X37340001Y-95215190D01*
X36863811Y-94739002D01*
X36840009Y-94709999D01*
X36724284Y-94615026D01*
X36592255Y-94544454D01*
X36448994Y-94500997D01*
X36337341Y-94490000D01*
X36337330Y-94490000D01*
X36300008Y-94486324D01*
X36262686Y-94490000D01*
X34993711Y-94490000D01*
X34949774Y-94446063D01*
X34780256Y-94332795D01*
X34591898Y-94254774D01*
X34391939Y-94215000D01*
X34188061Y-94215000D01*
X33988102Y-94254774D01*
X33905000Y-94289196D01*
X33905000Y-88590804D01*
X33988102Y-88625226D01*
G04 #@! TA.AperFunction,Conductor*
D20*
G36*
X33988102Y-88625226D02*
G01*
X34188061Y-88665000D01*
X34250199Y-88665000D01*
X37340000Y-91754802D01*
X37340001Y-95215190D01*
X36863811Y-94739002D01*
X36840009Y-94709999D01*
X36724284Y-94615026D01*
X36592255Y-94544454D01*
X36448994Y-94500997D01*
X36337341Y-94490000D01*
X36337330Y-94490000D01*
X36300008Y-94486324D01*
X36262686Y-94490000D01*
X34993711Y-94490000D01*
X34949774Y-94446063D01*
X34780256Y-94332795D01*
X34591898Y-94254774D01*
X34391939Y-94215000D01*
X34188061Y-94215000D01*
X33988102Y-94254774D01*
X33905000Y-94289196D01*
X33905000Y-88590804D01*
X33988102Y-88625226D01*
G37*
G04 #@! TD.AperFunction*
D19*
X26180353Y-89485154D02*
X26178865Y-89485154D01*
X26134928Y-89441217D01*
X25965410Y-89327949D01*
X25777052Y-89249928D01*
X25577093Y-89210154D01*
X25373215Y-89210154D01*
X25173256Y-89249928D01*
X24984898Y-89327949D01*
X24815380Y-89441217D01*
X24671217Y-89585380D01*
X24557949Y-89754898D01*
X24479928Y-89943256D01*
X24440154Y-90143215D01*
X24440154Y-90347093D01*
X24479928Y-90547052D01*
X24557949Y-90735410D01*
X24671217Y-90904928D01*
X24815380Y-91049091D01*
X24984898Y-91162359D01*
X25173256Y-91240380D01*
X25373215Y-91280154D01*
X25577093Y-91280154D01*
X25777052Y-91240380D01*
X25965410Y-91162359D01*
X26134928Y-91049091D01*
X26178865Y-91005154D01*
X26430353Y-91005154D01*
X29850819Y-94425621D01*
X29820226Y-94446063D01*
X29776289Y-94490000D01*
X28254802Y-94490000D01*
X18815000Y-85050199D01*
X18815000Y-84988061D01*
X18794502Y-84885011D01*
X21580210Y-84885011D01*
X26180353Y-89485154D01*
G04 #@! TA.AperFunction,Conductor*
D20*
G36*
X26180353Y-89485154D02*
G01*
X26178865Y-89485154D01*
X26134928Y-89441217D01*
X25965410Y-89327949D01*
X25777052Y-89249928D01*
X25577093Y-89210154D01*
X25373215Y-89210154D01*
X25173256Y-89249928D01*
X24984898Y-89327949D01*
X24815380Y-89441217D01*
X24671217Y-89585380D01*
X24557949Y-89754898D01*
X24479928Y-89943256D01*
X24440154Y-90143215D01*
X24440154Y-90347093D01*
X24479928Y-90547052D01*
X24557949Y-90735410D01*
X24671217Y-90904928D01*
X24815380Y-91049091D01*
X24984898Y-91162359D01*
X25173256Y-91240380D01*
X25373215Y-91280154D01*
X25577093Y-91280154D01*
X25777052Y-91240380D01*
X25965410Y-91162359D01*
X26134928Y-91049091D01*
X26178865Y-91005154D01*
X26430353Y-91005154D01*
X29850819Y-94425621D01*
X29820226Y-94446063D01*
X29776289Y-94490000D01*
X28254802Y-94490000D01*
X18815000Y-85050199D01*
X18815000Y-84988061D01*
X18794502Y-84885011D01*
X21580210Y-84885011D01*
X26180353Y-89485154D01*
G37*
G04 #@! TD.AperFunction*
D19*
X-3193791Y-84636013D02*
X-3169992Y-84665012D01*
X-3054267Y-84759985D01*
X-2922238Y-84830557D01*
X-2778977Y-84874014D01*
X-2667324Y-84885011D01*
X-2667315Y-84885011D01*
X-2629992Y-84888687D01*
X-2592669Y-84885011D01*
X16765498Y-84885011D01*
X16745000Y-84988061D01*
X16745000Y-85191939D01*
X16784774Y-85391898D01*
X16862795Y-85580256D01*
X16976063Y-85749774D01*
X17120226Y-85893937D01*
X17289744Y-86007205D01*
X17478102Y-86085226D01*
X17678061Y-86125000D01*
X17740199Y-86125000D01*
X24835198Y-93220000D01*
X22494013Y-93220000D01*
X22507205Y-93200256D01*
X22585226Y-93011898D01*
X22625000Y-92811939D01*
X22625000Y-92608061D01*
X22585226Y-92408102D01*
X22507205Y-92219744D01*
X22393937Y-92050226D01*
X22249774Y-91906063D01*
X22080256Y-91792795D01*
X21891898Y-91714774D01*
X21691939Y-91675000D01*
X21488061Y-91675000D01*
X21288102Y-91714774D01*
X21099744Y-91792795D01*
X20930226Y-91906063D01*
X20886289Y-91950000D01*
X15943711Y-91950000D01*
X15899774Y-91906063D01*
X15730256Y-91792795D01*
X15541898Y-91714774D01*
X15341939Y-91675000D01*
X15138061Y-91675000D01*
X14938102Y-91714774D01*
X14749744Y-91792795D01*
X14580226Y-91906063D01*
X14436063Y-92050226D01*
X14322795Y-92219744D01*
X14244774Y-92408102D01*
X14205000Y-92608061D01*
X14205000Y-92811939D01*
X14242613Y-93001035D01*
X12046534Y-90804956D01*
X12018817Y-90771183D01*
X11884059Y-90660589D01*
X11730313Y-90578411D01*
X11563490Y-90527805D01*
X11433477Y-90515000D01*
X11433469Y-90515000D01*
X11390000Y-90510719D01*
X11346531Y-90515000D01*
X-11325199Y-90515000D01*
X-7068260Y-86258061D01*
X235000Y-86258061D01*
X235000Y-86461939D01*
X274774Y-86661898D01*
X352795Y-86850256D01*
X466063Y-87019774D01*
X610226Y-87163937D01*
X779744Y-87277205D01*
X968102Y-87355226D01*
X1168061Y-87395000D01*
X1371939Y-87395000D01*
X1571898Y-87355226D01*
X1760256Y-87277205D01*
X1929774Y-87163937D01*
X1973711Y-87120000D01*
X14536289Y-87120000D01*
X14580226Y-87163937D01*
X14749744Y-87277205D01*
X14938102Y-87355226D01*
X15138061Y-87395000D01*
X15341939Y-87395000D01*
X15541898Y-87355226D01*
X15730256Y-87277205D01*
X15899774Y-87163937D01*
X16043937Y-87019774D01*
X16157205Y-86850256D01*
X16235226Y-86661898D01*
X16275000Y-86461939D01*
X16275000Y-86258061D01*
X16235226Y-86058102D01*
X16157205Y-85869744D01*
X16043937Y-85700226D01*
X15899774Y-85556063D01*
X15730256Y-85442795D01*
X15541898Y-85364774D01*
X15341939Y-85325000D01*
X15138061Y-85325000D01*
X14938102Y-85364774D01*
X14749744Y-85442795D01*
X14580226Y-85556063D01*
X14536289Y-85600000D01*
X1973711Y-85600000D01*
X1929774Y-85556063D01*
X1760256Y-85442795D01*
X1571898Y-85364774D01*
X1371939Y-85325000D01*
X1168061Y-85325000D01*
X968102Y-85364774D01*
X779744Y-85442795D01*
X610226Y-85556063D01*
X466063Y-85700226D01*
X352795Y-85869744D01*
X274774Y-86058102D01*
X235000Y-86258061D01*
X-7068260Y-86258061D01*
X-5693997Y-84883799D01*
X-5665000Y-84860002D01*
X-5613914Y-84797754D01*
X-5570027Y-84744278D01*
X-5499455Y-84612248D01*
X-5493620Y-84593013D01*
X-5455998Y-84468987D01*
X-5445001Y-84357334D01*
X-5445001Y-84357324D01*
X-5441325Y-84320001D01*
X-5445001Y-84282678D01*
X-5445001Y-83940509D01*
X-5221335Y-83985000D01*
X-4938665Y-83985000D01*
X-4661426Y-83929853D01*
X-4400273Y-83821680D01*
X-4165241Y-83664637D01*
X-4165204Y-83664600D01*
X-3193791Y-84636013D01*
G04 #@! TA.AperFunction,Conductor*
D20*
G36*
X-3193791Y-84636013D02*
G01*
X-3169992Y-84665012D01*
X-3054267Y-84759985D01*
X-2922238Y-84830557D01*
X-2778977Y-84874014D01*
X-2667324Y-84885011D01*
X-2667315Y-84885011D01*
X-2629992Y-84888687D01*
X-2592669Y-84885011D01*
X16765498Y-84885011D01*
X16745000Y-84988061D01*
X16745000Y-85191939D01*
X16784774Y-85391898D01*
X16862795Y-85580256D01*
X16976063Y-85749774D01*
X17120226Y-85893937D01*
X17289744Y-86007205D01*
X17478102Y-86085226D01*
X17678061Y-86125000D01*
X17740199Y-86125000D01*
X24835198Y-93220000D01*
X22494013Y-93220000D01*
X22507205Y-93200256D01*
X22585226Y-93011898D01*
X22625000Y-92811939D01*
X22625000Y-92608061D01*
X22585226Y-92408102D01*
X22507205Y-92219744D01*
X22393937Y-92050226D01*
X22249774Y-91906063D01*
X22080256Y-91792795D01*
X21891898Y-91714774D01*
X21691939Y-91675000D01*
X21488061Y-91675000D01*
X21288102Y-91714774D01*
X21099744Y-91792795D01*
X20930226Y-91906063D01*
X20886289Y-91950000D01*
X15943711Y-91950000D01*
X15899774Y-91906063D01*
X15730256Y-91792795D01*
X15541898Y-91714774D01*
X15341939Y-91675000D01*
X15138061Y-91675000D01*
X14938102Y-91714774D01*
X14749744Y-91792795D01*
X14580226Y-91906063D01*
X14436063Y-92050226D01*
X14322795Y-92219744D01*
X14244774Y-92408102D01*
X14205000Y-92608061D01*
X14205000Y-92811939D01*
X14242613Y-93001035D01*
X12046534Y-90804956D01*
X12018817Y-90771183D01*
X11884059Y-90660589D01*
X11730313Y-90578411D01*
X11563490Y-90527805D01*
X11433477Y-90515000D01*
X11433469Y-90515000D01*
X11390000Y-90510719D01*
X11346531Y-90515000D01*
X-11325199Y-90515000D01*
X-7068260Y-86258061D01*
X235000Y-86258061D01*
X235000Y-86461939D01*
X274774Y-86661898D01*
X352795Y-86850256D01*
X466063Y-87019774D01*
X610226Y-87163937D01*
X779744Y-87277205D01*
X968102Y-87355226D01*
X1168061Y-87395000D01*
X1371939Y-87395000D01*
X1571898Y-87355226D01*
X1760256Y-87277205D01*
X1929774Y-87163937D01*
X1973711Y-87120000D01*
X14536289Y-87120000D01*
X14580226Y-87163937D01*
X14749744Y-87277205D01*
X14938102Y-87355226D01*
X15138061Y-87395000D01*
X15341939Y-87395000D01*
X15541898Y-87355226D01*
X15730256Y-87277205D01*
X15899774Y-87163937D01*
X16043937Y-87019774D01*
X16157205Y-86850256D01*
X16235226Y-86661898D01*
X16275000Y-86461939D01*
X16275000Y-86258061D01*
X16235226Y-86058102D01*
X16157205Y-85869744D01*
X16043937Y-85700226D01*
X15899774Y-85556063D01*
X15730256Y-85442795D01*
X15541898Y-85364774D01*
X15341939Y-85325000D01*
X15138061Y-85325000D01*
X14938102Y-85364774D01*
X14749744Y-85442795D01*
X14580226Y-85556063D01*
X14536289Y-85600000D01*
X1973711Y-85600000D01*
X1929774Y-85556063D01*
X1760256Y-85442795D01*
X1571898Y-85364774D01*
X1371939Y-85325000D01*
X1168061Y-85325000D01*
X968102Y-85364774D01*
X779744Y-85442795D01*
X610226Y-85556063D01*
X466063Y-85700226D01*
X352795Y-85869744D01*
X274774Y-86058102D01*
X235000Y-86258061D01*
X-7068260Y-86258061D01*
X-5693997Y-84883799D01*
X-5665000Y-84860002D01*
X-5613914Y-84797754D01*
X-5570027Y-84744278D01*
X-5499455Y-84612248D01*
X-5493620Y-84593013D01*
X-5455998Y-84468987D01*
X-5445001Y-84357334D01*
X-5445001Y-84357324D01*
X-5441325Y-84320001D01*
X-5445001Y-84282678D01*
X-5445001Y-83940509D01*
X-5221335Y-83985000D01*
X-4938665Y-83985000D01*
X-4661426Y-83929853D01*
X-4400273Y-83821680D01*
X-4165241Y-83664637D01*
X-4165204Y-83664600D01*
X-3193791Y-84636013D01*
G37*
G04 #@! TD.AperFunction*
D19*
X31905363Y-83464759D02*
X32105241Y-83664637D01*
X32135001Y-83684522D01*
X32135000Y-93019196D01*
X32051898Y-92984774D01*
X31851939Y-92945000D01*
X31789802Y-92945000D01*
X23279802Y-84435001D01*
X28732677Y-84435001D01*
X28769999Y-84438677D01*
X28807321Y-84435001D01*
X28807332Y-84435001D01*
X28918985Y-84424004D01*
X29062246Y-84380547D01*
X29194275Y-84309975D01*
X29310000Y-84215002D01*
X29333802Y-84185999D01*
X29739038Y-83780764D01*
X29800273Y-83821680D01*
X30061426Y-83929853D01*
X30338665Y-83985000D01*
X30621335Y-83985000D01*
X30898574Y-83929853D01*
X31159727Y-83821680D01*
X31394759Y-83664637D01*
X31594637Y-83464759D01*
X31614521Y-83435000D01*
X31885479Y-83435000D01*
X31905363Y-83464759D01*
G04 #@! TA.AperFunction,Conductor*
D20*
G36*
X31905363Y-83464759D02*
G01*
X32105241Y-83664637D01*
X32135001Y-83684522D01*
X32135000Y-93019196D01*
X32051898Y-92984774D01*
X31851939Y-92945000D01*
X31789802Y-92945000D01*
X23279802Y-84435001D01*
X28732677Y-84435001D01*
X28769999Y-84438677D01*
X28807321Y-84435001D01*
X28807332Y-84435001D01*
X28918985Y-84424004D01*
X29062246Y-84380547D01*
X29194275Y-84309975D01*
X29310000Y-84215002D01*
X29333802Y-84185999D01*
X29739038Y-83780764D01*
X29800273Y-83821680D01*
X30061426Y-83929853D01*
X30338665Y-83985000D01*
X30621335Y-83985000D01*
X30898574Y-83929853D01*
X31159727Y-83821680D01*
X31394759Y-83664637D01*
X31594637Y-83464759D01*
X31614521Y-83435000D01*
X31885479Y-83435000D01*
X31905363Y-83464759D01*
G37*
G04 #@! TD.AperFunction*
D19*
X-12506253Y-88885858D02*
X-12520395Y-88900000D01*
X-12506253Y-88914143D01*
X-12685858Y-89093748D01*
X-12700000Y-89079605D01*
X-12714143Y-89093748D01*
X-12893748Y-88914143D01*
X-12879605Y-88900000D01*
X-12893748Y-88885858D01*
X-12714143Y-88706253D01*
X-12700000Y-88720395D01*
X-12685858Y-88706253D01*
X-12506253Y-88885858D01*
G04 #@! TA.AperFunction,Conductor*
D20*
G36*
X-12506253Y-88885858D02*
G01*
X-12520395Y-88900000D01*
X-12506253Y-88914143D01*
X-12685858Y-89093748D01*
X-12700000Y-89079605D01*
X-12714143Y-89093748D01*
X-12893748Y-88914143D01*
X-12879605Y-88900000D01*
X-12893748Y-88885858D01*
X-12714143Y-88706253D01*
X-12700000Y-88720395D01*
X-12685858Y-88706253D01*
X-12506253Y-88885858D01*
G37*
G04 #@! TD.AperFunction*
D19*
X18015000Y-80111939D02*
X18054774Y-80311898D01*
X18132795Y-80500256D01*
X18246063Y-80669774D01*
X18390226Y-80813937D01*
X18559744Y-80927205D01*
X18748102Y-81005226D01*
X18948061Y-81045000D01*
X19151939Y-81045000D01*
X19351898Y-81005226D01*
X19540256Y-80927205D01*
X19709774Y-80813937D01*
X19753711Y-80770000D01*
X22545199Y-80770000D01*
X22890199Y-81115000D01*
X22718665Y-81115000D01*
X22441426Y-81170147D01*
X22180273Y-81278320D01*
X21945241Y-81435363D01*
X21745363Y-81635241D01*
X21588320Y-81870273D01*
X21583933Y-81880865D01*
X21472385Y-81694869D01*
X21283414Y-81486481D01*
X21057420Y-81318963D01*
X20803087Y-81198754D01*
X20669039Y-81158096D01*
X20447000Y-81280085D01*
X20447000Y-82423000D01*
X20467000Y-82423000D01*
X20467000Y-82677000D01*
X20447000Y-82677000D01*
X20447000Y-82697000D01*
X20193000Y-82697000D01*
X20193000Y-82677000D01*
X20173000Y-82677000D01*
X20173000Y-82423000D01*
X20193000Y-82423000D01*
X20193000Y-81280085D01*
X19970961Y-81158096D01*
X19836913Y-81198754D01*
X19582580Y-81318963D01*
X19356586Y-81486481D01*
X19167615Y-81694869D01*
X19056067Y-81880865D01*
X19051680Y-81870273D01*
X18894637Y-81635241D01*
X18694759Y-81435363D01*
X18459727Y-81278320D01*
X18198574Y-81170147D01*
X17921335Y-81115000D01*
X17638665Y-81115000D01*
X17361426Y-81170147D01*
X17100273Y-81278320D01*
X16865241Y-81435363D01*
X16665363Y-81635241D01*
X16510000Y-81867759D01*
X16354637Y-81635241D01*
X16154759Y-81435363D01*
X15919727Y-81278320D01*
X15658574Y-81170147D01*
X15381335Y-81115000D01*
X15209803Y-81115000D01*
X15279803Y-81045000D01*
X15341939Y-81045000D01*
X15541898Y-81005226D01*
X15730256Y-80927205D01*
X15899774Y-80813937D01*
X16043937Y-80669774D01*
X16157205Y-80500256D01*
X16235226Y-80311898D01*
X16275000Y-80111939D01*
X16275000Y-80044999D01*
X18015000Y-80044999D01*
X18015000Y-80111939D01*
G04 #@! TA.AperFunction,Conductor*
D20*
G36*
X18015000Y-80111939D02*
G01*
X18054774Y-80311898D01*
X18132795Y-80500256D01*
X18246063Y-80669774D01*
X18390226Y-80813937D01*
X18559744Y-80927205D01*
X18748102Y-81005226D01*
X18948061Y-81045000D01*
X19151939Y-81045000D01*
X19351898Y-81005226D01*
X19540256Y-80927205D01*
X19709774Y-80813937D01*
X19753711Y-80770000D01*
X22545199Y-80770000D01*
X22890199Y-81115000D01*
X22718665Y-81115000D01*
X22441426Y-81170147D01*
X22180273Y-81278320D01*
X21945241Y-81435363D01*
X21745363Y-81635241D01*
X21588320Y-81870273D01*
X21583933Y-81880865D01*
X21472385Y-81694869D01*
X21283414Y-81486481D01*
X21057420Y-81318963D01*
X20803087Y-81198754D01*
X20669039Y-81158096D01*
X20447000Y-81280085D01*
X20447000Y-82423000D01*
X20467000Y-82423000D01*
X20467000Y-82677000D01*
X20447000Y-82677000D01*
X20447000Y-82697000D01*
X20193000Y-82697000D01*
X20193000Y-82677000D01*
X20173000Y-82677000D01*
X20173000Y-82423000D01*
X20193000Y-82423000D01*
X20193000Y-81280085D01*
X19970961Y-81158096D01*
X19836913Y-81198754D01*
X19582580Y-81318963D01*
X19356586Y-81486481D01*
X19167615Y-81694869D01*
X19056067Y-81880865D01*
X19051680Y-81870273D01*
X18894637Y-81635241D01*
X18694759Y-81435363D01*
X18459727Y-81278320D01*
X18198574Y-81170147D01*
X17921335Y-81115000D01*
X17638665Y-81115000D01*
X17361426Y-81170147D01*
X17100273Y-81278320D01*
X16865241Y-81435363D01*
X16665363Y-81635241D01*
X16510000Y-81867759D01*
X16354637Y-81635241D01*
X16154759Y-81435363D01*
X15919727Y-81278320D01*
X15658574Y-81170147D01*
X15381335Y-81115000D01*
X15209803Y-81115000D01*
X15279803Y-81045000D01*
X15341939Y-81045000D01*
X15541898Y-81005226D01*
X15730256Y-80927205D01*
X15899774Y-80813937D01*
X16043937Y-80669774D01*
X16157205Y-80500256D01*
X16235226Y-80311898D01*
X16275000Y-80111939D01*
X16275000Y-80044999D01*
X18015000Y-80044999D01*
X18015000Y-80111939D01*
G37*
G04 #@! TD.AperFunction*
D19*
X10825996Y-57838986D02*
X10853859Y-57930838D01*
X10869453Y-57982247D01*
X10940025Y-58114277D01*
X10979870Y-58162827D01*
X11034998Y-58230002D01*
X11064002Y-58253805D01*
X16545196Y-63735000D01*
X16408061Y-63735000D01*
X16208102Y-63774774D01*
X16019744Y-63852795D01*
X15850226Y-63966063D01*
X15706063Y-64110226D01*
X15592795Y-64279744D01*
X15514774Y-64468102D01*
X15475000Y-64668061D01*
X15475000Y-64730198D01*
X9845199Y-70360000D01*
X703711Y-70360000D01*
X659774Y-70316063D01*
X490256Y-70202795D01*
X301898Y-70124774D01*
X101939Y-70085000D01*
X-101939Y-70085000D01*
X-301898Y-70124774D01*
X-490256Y-70202795D01*
X-659774Y-70316063D01*
X-803937Y-70460226D01*
X-917205Y-70629744D01*
X-995226Y-70818102D01*
X-1035000Y-71018061D01*
X-1035000Y-71221939D01*
X-995226Y-71421898D01*
X-917205Y-71610256D01*
X-803937Y-71779774D01*
X-659774Y-71923937D01*
X-490256Y-72037205D01*
X-301898Y-72115226D01*
X-101939Y-72155000D01*
X101939Y-72155000D01*
X301898Y-72115226D01*
X490256Y-72037205D01*
X659774Y-71923937D01*
X703711Y-71880000D01*
X10122678Y-71880000D01*
X10160000Y-71883676D01*
X10197322Y-71880000D01*
X10197333Y-71880000D01*
X10308986Y-71869003D01*
X10452247Y-71825546D01*
X10584276Y-71754974D01*
X10700001Y-71660001D01*
X10723804Y-71630997D01*
X16549802Y-65805000D01*
X16611939Y-65805000D01*
X16811898Y-65765226D01*
X17000256Y-65687205D01*
X17169774Y-65573937D01*
X17313937Y-65429774D01*
X17427205Y-65260256D01*
X17505226Y-65071898D01*
X17545000Y-64871939D01*
X17545000Y-64734804D01*
X17734990Y-64924794D01*
X17734989Y-71340852D01*
X17731313Y-71378175D01*
X17734989Y-71415497D01*
X17734989Y-71415507D01*
X17745986Y-71527160D01*
X17780518Y-71640998D01*
X17789443Y-71670421D01*
X17860015Y-71802451D01*
X17897191Y-71847750D01*
X17954988Y-71918176D01*
X17983992Y-71941979D01*
X24567011Y-78524999D01*
X13462326Y-78524999D01*
X13425001Y-78521323D01*
X13387676Y-78524999D01*
X13387668Y-78524999D01*
X13276015Y-78535996D01*
X13132754Y-78579453D01*
X13000725Y-78650025D01*
X12885000Y-78744998D01*
X12861202Y-78773996D01*
X10483886Y-81151312D01*
X10301335Y-81115000D01*
X10018665Y-81115000D01*
X9741426Y-81170147D01*
X9480273Y-81278320D01*
X9245241Y-81435363D01*
X9045363Y-81635241D01*
X8890000Y-81867759D01*
X8734637Y-81635241D01*
X8534759Y-81435363D01*
X8299727Y-81278320D01*
X8038574Y-81170147D01*
X7761335Y-81115000D01*
X7478665Y-81115000D01*
X7296114Y-81151312D01*
X6158784Y-80013983D01*
X6134981Y-79984979D01*
X6019256Y-79890006D01*
X5887227Y-79819434D01*
X5743966Y-79775977D01*
X5632313Y-79764980D01*
X5632302Y-79764980D01*
X5594980Y-79761304D01*
X5557658Y-79764980D01*
X-7222660Y-79764980D01*
X-7259983Y-79761304D01*
X-7297305Y-79764980D01*
X-7297315Y-79764980D01*
X-7408968Y-79775977D01*
X-7547502Y-79818000D01*
X-7552229Y-79819434D01*
X-7684259Y-79890006D01*
X-7720773Y-79919973D01*
X-7799983Y-79984979D01*
X-7823781Y-80013977D01*
X-9255998Y-81446195D01*
X-9285002Y-81469998D01*
X-9336410Y-81532639D01*
X-9379975Y-81585723D01*
X-9400000Y-81623187D01*
X-9400000Y-78023389D01*
X4653389Y-63970000D01*
X11261928Y-63970000D01*
X11261928Y-65570000D01*
X11274188Y-65694482D01*
X11310498Y-65814180D01*
X11369463Y-65924494D01*
X11448815Y-66021185D01*
X11545506Y-66100537D01*
X11655820Y-66159502D01*
X11775518Y-66195812D01*
X11900000Y-66208072D01*
X13500000Y-66208072D01*
X13624482Y-66195812D01*
X13744180Y-66159502D01*
X13854494Y-66100537D01*
X13951185Y-66021185D01*
X14030537Y-65924494D01*
X14089502Y-65814180D01*
X14125812Y-65694482D01*
X14138072Y-65570000D01*
X14138072Y-63970000D01*
X14125812Y-63845518D01*
X14089502Y-63725820D01*
X14030537Y-63615506D01*
X13951185Y-63518815D01*
X13854494Y-63439463D01*
X13744180Y-63380498D01*
X13624482Y-63344188D01*
X13500000Y-63331928D01*
X11900000Y-63331928D01*
X11775518Y-63344188D01*
X11655820Y-63380498D01*
X11545506Y-63439463D01*
X11448815Y-63518815D01*
X11369463Y-63615506D01*
X11310498Y-63725820D01*
X11274188Y-63845518D01*
X11261928Y-63970000D01*
X4653389Y-63970000D01*
X10822267Y-57801123D01*
X10825996Y-57838986D01*
G04 #@! TA.AperFunction,Conductor*
D20*
G36*
X10825996Y-57838986D02*
G01*
X10853859Y-57930838D01*
X10869453Y-57982247D01*
X10940025Y-58114277D01*
X10979870Y-58162827D01*
X11034998Y-58230002D01*
X11064002Y-58253805D01*
X16545196Y-63735000D01*
X16408061Y-63735000D01*
X16208102Y-63774774D01*
X16019744Y-63852795D01*
X15850226Y-63966063D01*
X15706063Y-64110226D01*
X15592795Y-64279744D01*
X15514774Y-64468102D01*
X15475000Y-64668061D01*
X15475000Y-64730198D01*
X9845199Y-70360000D01*
X703711Y-70360000D01*
X659774Y-70316063D01*
X490256Y-70202795D01*
X301898Y-70124774D01*
X101939Y-70085000D01*
X-101939Y-70085000D01*
X-301898Y-70124774D01*
X-490256Y-70202795D01*
X-659774Y-70316063D01*
X-803937Y-70460226D01*
X-917205Y-70629744D01*
X-995226Y-70818102D01*
X-1035000Y-71018061D01*
X-1035000Y-71221939D01*
X-995226Y-71421898D01*
X-917205Y-71610256D01*
X-803937Y-71779774D01*
X-659774Y-71923937D01*
X-490256Y-72037205D01*
X-301898Y-72115226D01*
X-101939Y-72155000D01*
X101939Y-72155000D01*
X301898Y-72115226D01*
X490256Y-72037205D01*
X659774Y-71923937D01*
X703711Y-71880000D01*
X10122678Y-71880000D01*
X10160000Y-71883676D01*
X10197322Y-71880000D01*
X10197333Y-71880000D01*
X10308986Y-71869003D01*
X10452247Y-71825546D01*
X10584276Y-71754974D01*
X10700001Y-71660001D01*
X10723804Y-71630997D01*
X16549802Y-65805000D01*
X16611939Y-65805000D01*
X16811898Y-65765226D01*
X17000256Y-65687205D01*
X17169774Y-65573937D01*
X17313937Y-65429774D01*
X17427205Y-65260256D01*
X17505226Y-65071898D01*
X17545000Y-64871939D01*
X17545000Y-64734804D01*
X17734990Y-64924794D01*
X17734989Y-71340852D01*
X17731313Y-71378175D01*
X17734989Y-71415497D01*
X17734989Y-71415507D01*
X17745986Y-71527160D01*
X17780518Y-71640998D01*
X17789443Y-71670421D01*
X17860015Y-71802451D01*
X17897191Y-71847750D01*
X17954988Y-71918176D01*
X17983992Y-71941979D01*
X24567011Y-78524999D01*
X13462326Y-78524999D01*
X13425001Y-78521323D01*
X13387676Y-78524999D01*
X13387668Y-78524999D01*
X13276015Y-78535996D01*
X13132754Y-78579453D01*
X13000725Y-78650025D01*
X12885000Y-78744998D01*
X12861202Y-78773996D01*
X10483886Y-81151312D01*
X10301335Y-81115000D01*
X10018665Y-81115000D01*
X9741426Y-81170147D01*
X9480273Y-81278320D01*
X9245241Y-81435363D01*
X9045363Y-81635241D01*
X8890000Y-81867759D01*
X8734637Y-81635241D01*
X8534759Y-81435363D01*
X8299727Y-81278320D01*
X8038574Y-81170147D01*
X7761335Y-81115000D01*
X7478665Y-81115000D01*
X7296114Y-81151312D01*
X6158784Y-80013983D01*
X6134981Y-79984979D01*
X6019256Y-79890006D01*
X5887227Y-79819434D01*
X5743966Y-79775977D01*
X5632313Y-79764980D01*
X5632302Y-79764980D01*
X5594980Y-79761304D01*
X5557658Y-79764980D01*
X-7222660Y-79764980D01*
X-7259983Y-79761304D01*
X-7297305Y-79764980D01*
X-7297315Y-79764980D01*
X-7408968Y-79775977D01*
X-7547502Y-79818000D01*
X-7552229Y-79819434D01*
X-7684259Y-79890006D01*
X-7720773Y-79919973D01*
X-7799983Y-79984979D01*
X-7823781Y-80013977D01*
X-9255998Y-81446195D01*
X-9285002Y-81469998D01*
X-9336410Y-81532639D01*
X-9379975Y-81585723D01*
X-9400000Y-81623187D01*
X-9400000Y-78023389D01*
X4653389Y-63970000D01*
X11261928Y-63970000D01*
X11261928Y-65570000D01*
X11274188Y-65694482D01*
X11310498Y-65814180D01*
X11369463Y-65924494D01*
X11448815Y-66021185D01*
X11545506Y-66100537D01*
X11655820Y-66159502D01*
X11775518Y-66195812D01*
X11900000Y-66208072D01*
X13500000Y-66208072D01*
X13624482Y-66195812D01*
X13744180Y-66159502D01*
X13854494Y-66100537D01*
X13951185Y-66021185D01*
X14030537Y-65924494D01*
X14089502Y-65814180D01*
X14125812Y-65694482D01*
X14138072Y-65570000D01*
X14138072Y-63970000D01*
X14125812Y-63845518D01*
X14089502Y-63725820D01*
X14030537Y-63615506D01*
X13951185Y-63518815D01*
X13854494Y-63439463D01*
X13744180Y-63380498D01*
X13624482Y-63344188D01*
X13500000Y-63331928D01*
X11900000Y-63331928D01*
X11775518Y-63344188D01*
X11655820Y-63380498D01*
X11545506Y-63439463D01*
X11448815Y-63518815D01*
X11369463Y-63615506D01*
X11310498Y-63725820D01*
X11274188Y-63845518D01*
X11261928Y-63970000D01*
X4653389Y-63970000D01*
X10822267Y-57801123D01*
X10825996Y-57838986D01*
G37*
G04 #@! TD.AperFunction*
D19*
X66550001Y-71048017D02*
X66458574Y-71010147D01*
X66181335Y-70955000D01*
X65898665Y-70955000D01*
X65621426Y-71010147D01*
X65360273Y-71118320D01*
X65125241Y-71275363D01*
X64925363Y-71475241D01*
X64770000Y-71707759D01*
X64614637Y-71475241D01*
X64414759Y-71275363D01*
X64179727Y-71118320D01*
X63918574Y-71010147D01*
X63641335Y-70955000D01*
X63358665Y-70955000D01*
X63081426Y-71010147D01*
X62820273Y-71118320D01*
X62585241Y-71275363D01*
X62385363Y-71475241D01*
X62230000Y-71707759D01*
X62074637Y-71475241D01*
X61874759Y-71275363D01*
X61639727Y-71118320D01*
X61378574Y-71010147D01*
X61101335Y-70955000D01*
X60818665Y-70955000D01*
X60541426Y-71010147D01*
X60280273Y-71118320D01*
X60045241Y-71275363D01*
X59845363Y-71475241D01*
X59690000Y-71707759D01*
X59534637Y-71475241D01*
X59334759Y-71275363D01*
X59099727Y-71118320D01*
X58838574Y-71010147D01*
X58561335Y-70955000D01*
X58278665Y-70955000D01*
X58001426Y-71010147D01*
X57740273Y-71118320D01*
X57505241Y-71275363D01*
X57505204Y-71275400D01*
X56983804Y-70754001D01*
X56960002Y-70724998D01*
X56844277Y-70630025D01*
X56712248Y-70559453D01*
X56568987Y-70515996D01*
X56457334Y-70504999D01*
X56457323Y-70504999D01*
X56420001Y-70501323D01*
X56382679Y-70504999D01*
X39112018Y-70504999D01*
X39074693Y-70501323D01*
X39037368Y-70504999D01*
X39037360Y-70504999D01*
X38925707Y-70515996D01*
X38782446Y-70559453D01*
X38650417Y-70630025D01*
X38534692Y-70724998D01*
X38510894Y-70753996D01*
X32905045Y-76359846D01*
X32842907Y-76359846D01*
X32642948Y-76399620D01*
X32454590Y-76477641D01*
X32285072Y-76590909D01*
X32140909Y-76735072D01*
X32027641Y-76904590D01*
X31949620Y-77092948D01*
X31909846Y-77292907D01*
X31909846Y-77496785D01*
X31949620Y-77696744D01*
X32027641Y-77885102D01*
X32140909Y-78054620D01*
X32285072Y-78198783D01*
X32454590Y-78312051D01*
X32642948Y-78390072D01*
X32842907Y-78429846D01*
X33046785Y-78429846D01*
X33246744Y-78390072D01*
X33435102Y-78312051D01*
X33604620Y-78198783D01*
X33748783Y-78054620D01*
X33862051Y-77885102D01*
X33940072Y-77696744D01*
X33979846Y-77496785D01*
X33979846Y-77434647D01*
X39389495Y-72024999D01*
X39930199Y-72024999D01*
X32980199Y-78975000D01*
X32918061Y-78975000D01*
X32718102Y-79014774D01*
X32529744Y-79092795D01*
X32360226Y-79206063D01*
X32216063Y-79350226D01*
X32195621Y-79380819D01*
X27705000Y-74890199D01*
X27705000Y-74828061D01*
X27665226Y-74628102D01*
X27587205Y-74439744D01*
X27473937Y-74270226D01*
X27329774Y-74126063D01*
X27160256Y-74012795D01*
X26971898Y-73934774D01*
X26771939Y-73895000D01*
X26568061Y-73895000D01*
X26368102Y-73934774D01*
X26179744Y-74012795D01*
X26010226Y-74126063D01*
X25866063Y-74270226D01*
X25752795Y-74439744D01*
X25674774Y-74628102D01*
X25635000Y-74828061D01*
X25635000Y-75031939D01*
X25674774Y-75231898D01*
X25752795Y-75420256D01*
X25866063Y-75589774D01*
X26010226Y-75733937D01*
X26179744Y-75847205D01*
X26368102Y-75925226D01*
X26568061Y-75965000D01*
X26630199Y-75965000D01*
X28505666Y-77840467D01*
X28475072Y-77860909D01*
X28330909Y-78005072D01*
X28217641Y-78174590D01*
X28139620Y-78362948D01*
X28099846Y-78562907D01*
X28099846Y-78766785D01*
X28137459Y-78955880D01*
X19954999Y-70773421D01*
X19954999Y-66157902D01*
X20108184Y-66196300D01*
X20390512Y-66210217D01*
X20670130Y-66168787D01*
X20936292Y-66073603D01*
X21061514Y-66006671D01*
X21133097Y-65762702D01*
X20320000Y-64949605D01*
X20305858Y-64963748D01*
X20126253Y-64784143D01*
X20140395Y-64770000D01*
X20126253Y-64755858D01*
X20305858Y-64576253D01*
X20320000Y-64590395D01*
X20334143Y-64576253D01*
X20513748Y-64755858D01*
X20499605Y-64770000D01*
X21312702Y-65583097D01*
X21556671Y-65511514D01*
X21677571Y-65256004D01*
X21746300Y-64981816D01*
X21760217Y-64699488D01*
X21718787Y-64419870D01*
X21623603Y-64153708D01*
X21563800Y-64041823D01*
X59204746Y-64041823D01*
X56854405Y-66392164D01*
X56875226Y-66341898D01*
X56915000Y-66141939D01*
X56915000Y-65938061D01*
X56875226Y-65738102D01*
X56797205Y-65549744D01*
X56683937Y-65380226D01*
X56539774Y-65236063D01*
X56370256Y-65122795D01*
X56181898Y-65044774D01*
X55981939Y-65005000D01*
X55778061Y-65005000D01*
X55578102Y-65044774D01*
X55389744Y-65122795D01*
X55266946Y-65204846D01*
X37458557Y-65204846D01*
X37414620Y-65160909D01*
X37245102Y-65047641D01*
X37056744Y-64969620D01*
X36856785Y-64929846D01*
X36652907Y-64929846D01*
X36452948Y-64969620D01*
X36264590Y-65047641D01*
X36095072Y-65160909D01*
X35950909Y-65305072D01*
X35837641Y-65474590D01*
X35759620Y-65662948D01*
X35719846Y-65862907D01*
X35719846Y-66066785D01*
X35759620Y-66266744D01*
X35837641Y-66455102D01*
X35950909Y-66624620D01*
X36095072Y-66768783D01*
X36264590Y-66882051D01*
X36452948Y-66960072D01*
X36652907Y-66999846D01*
X36856785Y-66999846D01*
X37056744Y-66960072D01*
X37245102Y-66882051D01*
X37414620Y-66768783D01*
X37458557Y-66724846D01*
X55101135Y-66724846D01*
X55220226Y-66843937D01*
X55389744Y-66957205D01*
X55578102Y-67035226D01*
X55778061Y-67075000D01*
X55981939Y-67075000D01*
X56181898Y-67035226D01*
X56232164Y-67014405D01*
X55426569Y-67820000D01*
X33723711Y-67820000D01*
X33679774Y-67776063D01*
X33510256Y-67662795D01*
X33321898Y-67584774D01*
X33121939Y-67545000D01*
X32918061Y-67545000D01*
X32718102Y-67584774D01*
X32529744Y-67662795D01*
X32360226Y-67776063D01*
X32216063Y-67920226D01*
X32102795Y-68089744D01*
X32024774Y-68278102D01*
X31985000Y-68478061D01*
X31985000Y-68681939D01*
X32024774Y-68881898D01*
X32102795Y-69070256D01*
X32216063Y-69239774D01*
X32360226Y-69383937D01*
X32529744Y-69497205D01*
X32718102Y-69575226D01*
X32918061Y-69615000D01*
X33121939Y-69615000D01*
X33321898Y-69575226D01*
X33510256Y-69497205D01*
X33679774Y-69383937D01*
X33723711Y-69340000D01*
X55704048Y-69340000D01*
X55741370Y-69343676D01*
X55778692Y-69340000D01*
X55778703Y-69340000D01*
X55890356Y-69329003D01*
X56033617Y-69285546D01*
X56165646Y-69214974D01*
X56281371Y-69120001D01*
X56305174Y-69090997D01*
X66550000Y-58846172D01*
X66550001Y-71048017D01*
G04 #@! TA.AperFunction,Conductor*
D20*
G36*
X66550001Y-71048017D02*
G01*
X66458574Y-71010147D01*
X66181335Y-70955000D01*
X65898665Y-70955000D01*
X65621426Y-71010147D01*
X65360273Y-71118320D01*
X65125241Y-71275363D01*
X64925363Y-71475241D01*
X64770000Y-71707759D01*
X64614637Y-71475241D01*
X64414759Y-71275363D01*
X64179727Y-71118320D01*
X63918574Y-71010147D01*
X63641335Y-70955000D01*
X63358665Y-70955000D01*
X63081426Y-71010147D01*
X62820273Y-71118320D01*
X62585241Y-71275363D01*
X62385363Y-71475241D01*
X62230000Y-71707759D01*
X62074637Y-71475241D01*
X61874759Y-71275363D01*
X61639727Y-71118320D01*
X61378574Y-71010147D01*
X61101335Y-70955000D01*
X60818665Y-70955000D01*
X60541426Y-71010147D01*
X60280273Y-71118320D01*
X60045241Y-71275363D01*
X59845363Y-71475241D01*
X59690000Y-71707759D01*
X59534637Y-71475241D01*
X59334759Y-71275363D01*
X59099727Y-71118320D01*
X58838574Y-71010147D01*
X58561335Y-70955000D01*
X58278665Y-70955000D01*
X58001426Y-71010147D01*
X57740273Y-71118320D01*
X57505241Y-71275363D01*
X57505204Y-71275400D01*
X56983804Y-70754001D01*
X56960002Y-70724998D01*
X56844277Y-70630025D01*
X56712248Y-70559453D01*
X56568987Y-70515996D01*
X56457334Y-70504999D01*
X56457323Y-70504999D01*
X56420001Y-70501323D01*
X56382679Y-70504999D01*
X39112018Y-70504999D01*
X39074693Y-70501323D01*
X39037368Y-70504999D01*
X39037360Y-70504999D01*
X38925707Y-70515996D01*
X38782446Y-70559453D01*
X38650417Y-70630025D01*
X38534692Y-70724998D01*
X38510894Y-70753996D01*
X32905045Y-76359846D01*
X32842907Y-76359846D01*
X32642948Y-76399620D01*
X32454590Y-76477641D01*
X32285072Y-76590909D01*
X32140909Y-76735072D01*
X32027641Y-76904590D01*
X31949620Y-77092948D01*
X31909846Y-77292907D01*
X31909846Y-77496785D01*
X31949620Y-77696744D01*
X32027641Y-77885102D01*
X32140909Y-78054620D01*
X32285072Y-78198783D01*
X32454590Y-78312051D01*
X32642948Y-78390072D01*
X32842907Y-78429846D01*
X33046785Y-78429846D01*
X33246744Y-78390072D01*
X33435102Y-78312051D01*
X33604620Y-78198783D01*
X33748783Y-78054620D01*
X33862051Y-77885102D01*
X33940072Y-77696744D01*
X33979846Y-77496785D01*
X33979846Y-77434647D01*
X39389495Y-72024999D01*
X39930199Y-72024999D01*
X32980199Y-78975000D01*
X32918061Y-78975000D01*
X32718102Y-79014774D01*
X32529744Y-79092795D01*
X32360226Y-79206063D01*
X32216063Y-79350226D01*
X32195621Y-79380819D01*
X27705000Y-74890199D01*
X27705000Y-74828061D01*
X27665226Y-74628102D01*
X27587205Y-74439744D01*
X27473937Y-74270226D01*
X27329774Y-74126063D01*
X27160256Y-74012795D01*
X26971898Y-73934774D01*
X26771939Y-73895000D01*
X26568061Y-73895000D01*
X26368102Y-73934774D01*
X26179744Y-74012795D01*
X26010226Y-74126063D01*
X25866063Y-74270226D01*
X25752795Y-74439744D01*
X25674774Y-74628102D01*
X25635000Y-74828061D01*
X25635000Y-75031939D01*
X25674774Y-75231898D01*
X25752795Y-75420256D01*
X25866063Y-75589774D01*
X26010226Y-75733937D01*
X26179744Y-75847205D01*
X26368102Y-75925226D01*
X26568061Y-75965000D01*
X26630199Y-75965000D01*
X28505666Y-77840467D01*
X28475072Y-77860909D01*
X28330909Y-78005072D01*
X28217641Y-78174590D01*
X28139620Y-78362948D01*
X28099846Y-78562907D01*
X28099846Y-78766785D01*
X28137459Y-78955880D01*
X19954999Y-70773421D01*
X19954999Y-66157902D01*
X20108184Y-66196300D01*
X20390512Y-66210217D01*
X20670130Y-66168787D01*
X20936292Y-66073603D01*
X21061514Y-66006671D01*
X21133097Y-65762702D01*
X20320000Y-64949605D01*
X20305858Y-64963748D01*
X20126253Y-64784143D01*
X20140395Y-64770000D01*
X20126253Y-64755858D01*
X20305858Y-64576253D01*
X20320000Y-64590395D01*
X20334143Y-64576253D01*
X20513748Y-64755858D01*
X20499605Y-64770000D01*
X21312702Y-65583097D01*
X21556671Y-65511514D01*
X21677571Y-65256004D01*
X21746300Y-64981816D01*
X21760217Y-64699488D01*
X21718787Y-64419870D01*
X21623603Y-64153708D01*
X21563800Y-64041823D01*
X59204746Y-64041823D01*
X56854405Y-66392164D01*
X56875226Y-66341898D01*
X56915000Y-66141939D01*
X56915000Y-65938061D01*
X56875226Y-65738102D01*
X56797205Y-65549744D01*
X56683937Y-65380226D01*
X56539774Y-65236063D01*
X56370256Y-65122795D01*
X56181898Y-65044774D01*
X55981939Y-65005000D01*
X55778061Y-65005000D01*
X55578102Y-65044774D01*
X55389744Y-65122795D01*
X55266946Y-65204846D01*
X37458557Y-65204846D01*
X37414620Y-65160909D01*
X37245102Y-65047641D01*
X37056744Y-64969620D01*
X36856785Y-64929846D01*
X36652907Y-64929846D01*
X36452948Y-64969620D01*
X36264590Y-65047641D01*
X36095072Y-65160909D01*
X35950909Y-65305072D01*
X35837641Y-65474590D01*
X35759620Y-65662948D01*
X35719846Y-65862907D01*
X35719846Y-66066785D01*
X35759620Y-66266744D01*
X35837641Y-66455102D01*
X35950909Y-66624620D01*
X36095072Y-66768783D01*
X36264590Y-66882051D01*
X36452948Y-66960072D01*
X36652907Y-66999846D01*
X36856785Y-66999846D01*
X37056744Y-66960072D01*
X37245102Y-66882051D01*
X37414620Y-66768783D01*
X37458557Y-66724846D01*
X55101135Y-66724846D01*
X55220226Y-66843937D01*
X55389744Y-66957205D01*
X55578102Y-67035226D01*
X55778061Y-67075000D01*
X55981939Y-67075000D01*
X56181898Y-67035226D01*
X56232164Y-67014405D01*
X55426569Y-67820000D01*
X33723711Y-67820000D01*
X33679774Y-67776063D01*
X33510256Y-67662795D01*
X33321898Y-67584774D01*
X33121939Y-67545000D01*
X32918061Y-67545000D01*
X32718102Y-67584774D01*
X32529744Y-67662795D01*
X32360226Y-67776063D01*
X32216063Y-67920226D01*
X32102795Y-68089744D01*
X32024774Y-68278102D01*
X31985000Y-68478061D01*
X31985000Y-68681939D01*
X32024774Y-68881898D01*
X32102795Y-69070256D01*
X32216063Y-69239774D01*
X32360226Y-69383937D01*
X32529744Y-69497205D01*
X32718102Y-69575226D01*
X32918061Y-69615000D01*
X33121939Y-69615000D01*
X33321898Y-69575226D01*
X33510256Y-69497205D01*
X33679774Y-69383937D01*
X33723711Y-69340000D01*
X55704048Y-69340000D01*
X55741370Y-69343676D01*
X55778692Y-69340000D01*
X55778703Y-69340000D01*
X55890356Y-69329003D01*
X56033617Y-69285546D01*
X56165646Y-69214974D01*
X56281371Y-69120001D01*
X56305174Y-69090997D01*
X66550000Y-58846172D01*
X66550001Y-71048017D01*
G37*
G04 #@! TD.AperFunction*
D19*
X81935000Y-53799802D02*
X81935000Y-55868078D01*
X81698574Y-55770147D01*
X81421335Y-55715000D01*
X81138665Y-55715000D01*
X80861426Y-55770147D01*
X80600273Y-55878320D01*
X80365241Y-56035363D01*
X80165363Y-56235241D01*
X80010000Y-56467759D01*
X79854637Y-56235241D01*
X79654759Y-56035363D01*
X79419727Y-55878320D01*
X79158574Y-55770147D01*
X78881335Y-55715000D01*
X78598665Y-55715000D01*
X78321426Y-55770147D01*
X78060273Y-55878320D01*
X77825241Y-56035363D01*
X77625363Y-56235241D01*
X77470000Y-56467759D01*
X77314637Y-56235241D01*
X77114759Y-56035363D01*
X76879727Y-55878320D01*
X76618574Y-55770147D01*
X76341335Y-55715000D01*
X76058665Y-55715000D01*
X75781426Y-55770147D01*
X75520273Y-55878320D01*
X75285241Y-56035363D01*
X75085363Y-56235241D01*
X74930000Y-56467759D01*
X74774637Y-56235241D01*
X74574759Y-56035363D01*
X74339727Y-55878320D01*
X74078574Y-55770147D01*
X73801335Y-55715000D01*
X73518665Y-55715000D01*
X73241426Y-55770147D01*
X72980273Y-55878320D01*
X72745241Y-56035363D01*
X72545363Y-56235241D01*
X72390000Y-56467759D01*
X72234637Y-56235241D01*
X72034759Y-56035363D01*
X71799727Y-55878320D01*
X71538574Y-55770147D01*
X71261335Y-55715000D01*
X70978665Y-55715000D01*
X70796114Y-55751312D01*
X70108794Y-55063993D01*
X70084991Y-55034989D01*
X69969266Y-54940016D01*
X69837237Y-54869444D01*
X69693976Y-54825987D01*
X69582323Y-54814990D01*
X69582312Y-54814990D01*
X69544990Y-54811314D01*
X69507668Y-54814990D01*
X60907333Y-54814990D01*
X60870008Y-54811314D01*
X60832683Y-54814990D01*
X60832675Y-54814990D01*
X60721022Y-54825987D01*
X60577761Y-54869444D01*
X60445732Y-54940016D01*
X60330007Y-55034989D01*
X60306209Y-55063987D01*
X59334796Y-56035400D01*
X59334759Y-56035363D01*
X59099727Y-55878320D01*
X58838574Y-55770147D01*
X58561335Y-55715000D01*
X58278665Y-55715000D01*
X58001426Y-55770147D01*
X57740273Y-55878320D01*
X57505241Y-56035363D01*
X57305363Y-56235241D01*
X57148320Y-56470273D01*
X57143933Y-56480865D01*
X57032385Y-56294869D01*
X56843414Y-56086481D01*
X56617420Y-55918963D01*
X56363087Y-55798754D01*
X56229039Y-55758096D01*
X56007000Y-55880085D01*
X56007000Y-57023000D01*
X56027000Y-57023000D01*
X56027000Y-57277000D01*
X56007000Y-57277000D01*
X56007000Y-58419915D01*
X56229039Y-58541904D01*
X56363087Y-58501246D01*
X56617420Y-58381037D01*
X56843414Y-58213519D01*
X57032385Y-58005131D01*
X57143933Y-57819135D01*
X57148320Y-57829727D01*
X57305363Y-58064759D01*
X57505241Y-58264637D01*
X57740273Y-58421680D01*
X58001426Y-58529853D01*
X58278665Y-58585000D01*
X58450198Y-58585000D01*
X57110199Y-59925000D01*
X57048061Y-59925000D01*
X56848102Y-59964774D01*
X56659744Y-60042795D01*
X56490226Y-60156063D01*
X56346063Y-60300226D01*
X56232795Y-60469744D01*
X56154774Y-60658102D01*
X56115000Y-60858061D01*
X56115000Y-61061939D01*
X56154774Y-61261898D01*
X56232795Y-61450256D01*
X56346063Y-61619774D01*
X56490226Y-61763937D01*
X56659744Y-61877205D01*
X56848102Y-61955226D01*
X57048061Y-61995000D01*
X57251939Y-61995000D01*
X57451898Y-61955226D01*
X57640256Y-61877205D01*
X57809774Y-61763937D01*
X57953937Y-61619774D01*
X58067205Y-61450256D01*
X58145226Y-61261898D01*
X58185000Y-61061939D01*
X58185000Y-60999801D01*
X60346003Y-58838799D01*
X60375000Y-58815002D01*
X60401331Y-58782918D01*
X60469973Y-58699278D01*
X60540545Y-58567248D01*
X60548233Y-58541904D01*
X60551293Y-58531816D01*
X60818665Y-58585000D01*
X61101335Y-58585000D01*
X61378574Y-58529853D01*
X61639727Y-58421680D01*
X61874759Y-58264637D01*
X62074637Y-58064759D01*
X62230000Y-57832241D01*
X62385363Y-58064759D01*
X62585241Y-58264637D01*
X62820273Y-58421680D01*
X63024093Y-58506105D01*
X59008376Y-62521823D01*
X20811627Y-62521823D01*
X15298469Y-57008665D01*
X18885000Y-57008665D01*
X18885000Y-57291335D01*
X18940147Y-57568574D01*
X19048320Y-57829727D01*
X19205363Y-58064759D01*
X19405241Y-58264637D01*
X19640273Y-58421680D01*
X19901426Y-58529853D01*
X20178665Y-58585000D01*
X20461335Y-58585000D01*
X20738574Y-58529853D01*
X20999727Y-58421680D01*
X21234759Y-58264637D01*
X21434637Y-58064759D01*
X21538043Y-57910000D01*
X28991928Y-57910000D01*
X28991928Y-58000000D01*
X29004188Y-58124482D01*
X29040498Y-58244180D01*
X29099463Y-58354494D01*
X29178815Y-58451185D01*
X29275506Y-58530537D01*
X29385820Y-58589502D01*
X29458380Y-58611513D01*
X29326525Y-58743368D01*
X29164010Y-58986589D01*
X29052068Y-59256842D01*
X28995000Y-59543740D01*
X28995000Y-59836260D01*
X29052068Y-60123158D01*
X29164010Y-60393411D01*
X29326525Y-60636632D01*
X29533368Y-60843475D01*
X29776589Y-61005990D01*
X30046842Y-61117932D01*
X30333740Y-61175000D01*
X30626260Y-61175000D01*
X30913158Y-61117932D01*
X31183411Y-61005990D01*
X31426632Y-60843475D01*
X31633475Y-60636632D01*
X31795990Y-60393411D01*
X31907932Y-60123158D01*
X31965000Y-59836260D01*
X31965000Y-59543740D01*
X31907932Y-59256842D01*
X31795990Y-58986589D01*
X31633475Y-58743368D01*
X31501620Y-58611513D01*
X31574180Y-58589502D01*
X31684494Y-58530537D01*
X31781185Y-58451185D01*
X31860537Y-58354494D01*
X31919502Y-58244180D01*
X31955812Y-58124482D01*
X31968072Y-58000000D01*
X31968072Y-57499040D01*
X54488091Y-57499040D01*
X54582930Y-57763881D01*
X54727615Y-58005131D01*
X54916586Y-58213519D01*
X55142580Y-58381037D01*
X55396913Y-58501246D01*
X55530961Y-58541904D01*
X55753000Y-58419915D01*
X55753000Y-57277000D01*
X54609376Y-57277000D01*
X54488091Y-57499040D01*
X31968072Y-57499040D01*
X31968072Y-56800960D01*
X54488091Y-56800960D01*
X54609376Y-57023000D01*
X55753000Y-57023000D01*
X55753000Y-55880085D01*
X55530961Y-55758096D01*
X55396913Y-55798754D01*
X55142580Y-55918963D01*
X54916586Y-56086481D01*
X54727615Y-56294869D01*
X54582930Y-56536119D01*
X54488091Y-56800960D01*
X31968072Y-56800960D01*
X31968072Y-56300000D01*
X31955812Y-56175518D01*
X31919502Y-56055820D01*
X31860537Y-55945506D01*
X31781185Y-55848815D01*
X31684494Y-55769463D01*
X31574180Y-55710498D01*
X31454482Y-55674188D01*
X31330000Y-55661928D01*
X29630000Y-55661928D01*
X29505518Y-55674188D01*
X29385820Y-55710498D01*
X29275506Y-55769463D01*
X29178815Y-55848815D01*
X29099463Y-55945506D01*
X29040498Y-56055820D01*
X29004188Y-56175518D01*
X28991928Y-56300000D01*
X28991928Y-56390000D01*
X21538043Y-56390000D01*
X21434637Y-56235241D01*
X21234759Y-56035363D01*
X20999727Y-55878320D01*
X20738574Y-55770147D01*
X20461335Y-55715000D01*
X20178665Y-55715000D01*
X19901426Y-55770147D01*
X19640273Y-55878320D01*
X19405241Y-56035363D01*
X19205363Y-56235241D01*
X19048320Y-56470273D01*
X18940147Y-56731426D01*
X18885000Y-57008665D01*
X15298469Y-57008665D01*
X13803805Y-55514002D01*
X13780002Y-55484998D01*
X13664277Y-55390025D01*
X13532248Y-55319453D01*
X13388987Y-55275996D01*
X13351123Y-55272267D01*
X15793390Y-52830000D01*
X80965199Y-52830000D01*
X81935000Y-53799802D01*
G04 #@! TA.AperFunction,Conductor*
D20*
G36*
X81935000Y-53799802D02*
G01*
X81935000Y-55868078D01*
X81698574Y-55770147D01*
X81421335Y-55715000D01*
X81138665Y-55715000D01*
X80861426Y-55770147D01*
X80600273Y-55878320D01*
X80365241Y-56035363D01*
X80165363Y-56235241D01*
X80010000Y-56467759D01*
X79854637Y-56235241D01*
X79654759Y-56035363D01*
X79419727Y-55878320D01*
X79158574Y-55770147D01*
X78881335Y-55715000D01*
X78598665Y-55715000D01*
X78321426Y-55770147D01*
X78060273Y-55878320D01*
X77825241Y-56035363D01*
X77625363Y-56235241D01*
X77470000Y-56467759D01*
X77314637Y-56235241D01*
X77114759Y-56035363D01*
X76879727Y-55878320D01*
X76618574Y-55770147D01*
X76341335Y-55715000D01*
X76058665Y-55715000D01*
X75781426Y-55770147D01*
X75520273Y-55878320D01*
X75285241Y-56035363D01*
X75085363Y-56235241D01*
X74930000Y-56467759D01*
X74774637Y-56235241D01*
X74574759Y-56035363D01*
X74339727Y-55878320D01*
X74078574Y-55770147D01*
X73801335Y-55715000D01*
X73518665Y-55715000D01*
X73241426Y-55770147D01*
X72980273Y-55878320D01*
X72745241Y-56035363D01*
X72545363Y-56235241D01*
X72390000Y-56467759D01*
X72234637Y-56235241D01*
X72034759Y-56035363D01*
X71799727Y-55878320D01*
X71538574Y-55770147D01*
X71261335Y-55715000D01*
X70978665Y-55715000D01*
X70796114Y-55751312D01*
X70108794Y-55063993D01*
X70084991Y-55034989D01*
X69969266Y-54940016D01*
X69837237Y-54869444D01*
X69693976Y-54825987D01*
X69582323Y-54814990D01*
X69582312Y-54814990D01*
X69544990Y-54811314D01*
X69507668Y-54814990D01*
X60907333Y-54814990D01*
X60870008Y-54811314D01*
X60832683Y-54814990D01*
X60832675Y-54814990D01*
X60721022Y-54825987D01*
X60577761Y-54869444D01*
X60445732Y-54940016D01*
X60330007Y-55034989D01*
X60306209Y-55063987D01*
X59334796Y-56035400D01*
X59334759Y-56035363D01*
X59099727Y-55878320D01*
X58838574Y-55770147D01*
X58561335Y-55715000D01*
X58278665Y-55715000D01*
X58001426Y-55770147D01*
X57740273Y-55878320D01*
X57505241Y-56035363D01*
X57305363Y-56235241D01*
X57148320Y-56470273D01*
X57143933Y-56480865D01*
X57032385Y-56294869D01*
X56843414Y-56086481D01*
X56617420Y-55918963D01*
X56363087Y-55798754D01*
X56229039Y-55758096D01*
X56007000Y-55880085D01*
X56007000Y-57023000D01*
X56027000Y-57023000D01*
X56027000Y-57277000D01*
X56007000Y-57277000D01*
X56007000Y-58419915D01*
X56229039Y-58541904D01*
X56363087Y-58501246D01*
X56617420Y-58381037D01*
X56843414Y-58213519D01*
X57032385Y-58005131D01*
X57143933Y-57819135D01*
X57148320Y-57829727D01*
X57305363Y-58064759D01*
X57505241Y-58264637D01*
X57740273Y-58421680D01*
X58001426Y-58529853D01*
X58278665Y-58585000D01*
X58450198Y-58585000D01*
X57110199Y-59925000D01*
X57048061Y-59925000D01*
X56848102Y-59964774D01*
X56659744Y-60042795D01*
X56490226Y-60156063D01*
X56346063Y-60300226D01*
X56232795Y-60469744D01*
X56154774Y-60658102D01*
X56115000Y-60858061D01*
X56115000Y-61061939D01*
X56154774Y-61261898D01*
X56232795Y-61450256D01*
X56346063Y-61619774D01*
X56490226Y-61763937D01*
X56659744Y-61877205D01*
X56848102Y-61955226D01*
X57048061Y-61995000D01*
X57251939Y-61995000D01*
X57451898Y-61955226D01*
X57640256Y-61877205D01*
X57809774Y-61763937D01*
X57953937Y-61619774D01*
X58067205Y-61450256D01*
X58145226Y-61261898D01*
X58185000Y-61061939D01*
X58185000Y-60999801D01*
X60346003Y-58838799D01*
X60375000Y-58815002D01*
X60401331Y-58782918D01*
X60469973Y-58699278D01*
X60540545Y-58567248D01*
X60548233Y-58541904D01*
X60551293Y-58531816D01*
X60818665Y-58585000D01*
X61101335Y-58585000D01*
X61378574Y-58529853D01*
X61639727Y-58421680D01*
X61874759Y-58264637D01*
X62074637Y-58064759D01*
X62230000Y-57832241D01*
X62385363Y-58064759D01*
X62585241Y-58264637D01*
X62820273Y-58421680D01*
X63024093Y-58506105D01*
X59008376Y-62521823D01*
X20811627Y-62521823D01*
X15298469Y-57008665D01*
X18885000Y-57008665D01*
X18885000Y-57291335D01*
X18940147Y-57568574D01*
X19048320Y-57829727D01*
X19205363Y-58064759D01*
X19405241Y-58264637D01*
X19640273Y-58421680D01*
X19901426Y-58529853D01*
X20178665Y-58585000D01*
X20461335Y-58585000D01*
X20738574Y-58529853D01*
X20999727Y-58421680D01*
X21234759Y-58264637D01*
X21434637Y-58064759D01*
X21538043Y-57910000D01*
X28991928Y-57910000D01*
X28991928Y-58000000D01*
X29004188Y-58124482D01*
X29040498Y-58244180D01*
X29099463Y-58354494D01*
X29178815Y-58451185D01*
X29275506Y-58530537D01*
X29385820Y-58589502D01*
X29458380Y-58611513D01*
X29326525Y-58743368D01*
X29164010Y-58986589D01*
X29052068Y-59256842D01*
X28995000Y-59543740D01*
X28995000Y-59836260D01*
X29052068Y-60123158D01*
X29164010Y-60393411D01*
X29326525Y-60636632D01*
X29533368Y-60843475D01*
X29776589Y-61005990D01*
X30046842Y-61117932D01*
X30333740Y-61175000D01*
X30626260Y-61175000D01*
X30913158Y-61117932D01*
X31183411Y-61005990D01*
X31426632Y-60843475D01*
X31633475Y-60636632D01*
X31795990Y-60393411D01*
X31907932Y-60123158D01*
X31965000Y-59836260D01*
X31965000Y-59543740D01*
X31907932Y-59256842D01*
X31795990Y-58986589D01*
X31633475Y-58743368D01*
X31501620Y-58611513D01*
X31574180Y-58589502D01*
X31684494Y-58530537D01*
X31781185Y-58451185D01*
X31860537Y-58354494D01*
X31919502Y-58244180D01*
X31955812Y-58124482D01*
X31968072Y-58000000D01*
X31968072Y-57499040D01*
X54488091Y-57499040D01*
X54582930Y-57763881D01*
X54727615Y-58005131D01*
X54916586Y-58213519D01*
X55142580Y-58381037D01*
X55396913Y-58501246D01*
X55530961Y-58541904D01*
X55753000Y-58419915D01*
X55753000Y-57277000D01*
X54609376Y-57277000D01*
X54488091Y-57499040D01*
X31968072Y-57499040D01*
X31968072Y-56800960D01*
X54488091Y-56800960D01*
X54609376Y-57023000D01*
X55753000Y-57023000D01*
X55753000Y-55880085D01*
X55530961Y-55758096D01*
X55396913Y-55798754D01*
X55142580Y-55918963D01*
X54916586Y-56086481D01*
X54727615Y-56294869D01*
X54582930Y-56536119D01*
X54488091Y-56800960D01*
X31968072Y-56800960D01*
X31968072Y-56300000D01*
X31955812Y-56175518D01*
X31919502Y-56055820D01*
X31860537Y-55945506D01*
X31781185Y-55848815D01*
X31684494Y-55769463D01*
X31574180Y-55710498D01*
X31454482Y-55674188D01*
X31330000Y-55661928D01*
X29630000Y-55661928D01*
X29505518Y-55674188D01*
X29385820Y-55710498D01*
X29275506Y-55769463D01*
X29178815Y-55848815D01*
X29099463Y-55945506D01*
X29040498Y-56055820D01*
X29004188Y-56175518D01*
X28991928Y-56300000D01*
X28991928Y-56390000D01*
X21538043Y-56390000D01*
X21434637Y-56235241D01*
X21234759Y-56035363D01*
X20999727Y-55878320D01*
X20738574Y-55770147D01*
X20461335Y-55715000D01*
X20178665Y-55715000D01*
X19901426Y-55770147D01*
X19640273Y-55878320D01*
X19405241Y-56035363D01*
X19205363Y-56235241D01*
X19048320Y-56470273D01*
X18940147Y-56731426D01*
X18885000Y-57008665D01*
X15298469Y-57008665D01*
X13803805Y-55514002D01*
X13780002Y-55484998D01*
X13664277Y-55390025D01*
X13532248Y-55319453D01*
X13388987Y-55275996D01*
X13351123Y-55272267D01*
X15793390Y-52830000D01*
X80965199Y-52830000D01*
X81935000Y-53799802D01*
G37*
G04 #@! TD.AperFunction*
M02*
