G04 #@! TF.GenerationSoftware,KiCad,Pcbnew,5.1.8-db9833491~88~ubuntu20.04.1*
G04 #@! TF.CreationDate,2020-12-16T12:59:07+01:00*
G04 #@! TF.ProjectId,dtZ80,64745a38-302e-46b6-9963-61645f706362,1*
G04 #@! TF.SameCoordinates,Original*
G04 #@! TF.FileFunction,Soldermask,Top*
G04 #@! TF.FilePolarity,Negative*
%FSLAX46Y46*%
G04 Gerber Fmt 4.6, Leading zero omitted, Abs format (unit mm)*
G04 Created by KiCad (PCBNEW 5.1.8-db9833491~88~ubuntu20.04.1) date 2020-12-16 12:59:07*
%MOMM*%
%LPD*%
G01*
G04 APERTURE LIST*
%ADD10C,1.600000*%
%ADD11O,1.700000X1.700000*%
%ADD12R,1.700000X1.700000*%
%ADD13R,1.600000X1.600000*%
%ADD14O,1.600000X1.600000*%
G04 APERTURE END LIST*
D10*
X100330000Y-64730000D03*
X100330000Y-62230000D03*
X-12700000Y-91400000D03*
X-12700000Y-88900000D03*
X50760000Y-106680000D03*
X48260000Y-106680000D03*
D11*
X-7620000Y-111760000D03*
X-5080000Y-111760000D03*
X-2540000Y-111760000D03*
X0Y-111760000D03*
X2540000Y-111760000D03*
X5080000Y-111760000D03*
X7620000Y-111760000D03*
X10160000Y-111760000D03*
X12700000Y-111760000D03*
X15240000Y-111760000D03*
X17780000Y-111760000D03*
X20320000Y-111760000D03*
X22860000Y-111760000D03*
X25400000Y-111760000D03*
X27940000Y-111760000D03*
X30480000Y-111760000D03*
X33020000Y-111760000D03*
X35560000Y-111760000D03*
X38100000Y-111760000D03*
X40640000Y-111760000D03*
X43180000Y-111760000D03*
X45720000Y-111760000D03*
X48260000Y-111760000D03*
X50800000Y-111760000D03*
X53340000Y-111760000D03*
X55880000Y-111760000D03*
X58420000Y-111760000D03*
X60960000Y-111760000D03*
X63500000Y-111760000D03*
X66040000Y-111760000D03*
X68580000Y-111760000D03*
X71120000Y-111760000D03*
X73660000Y-111760000D03*
X76200000Y-111760000D03*
X78740000Y-111760000D03*
X81280000Y-111760000D03*
X83820000Y-111760000D03*
X86360000Y-111760000D03*
X88900000Y-111760000D03*
D12*
X91440000Y-111760000D03*
D11*
X30480000Y-59690000D03*
D12*
X30480000Y-57150000D03*
D13*
X50800000Y-82550000D03*
D14*
X58420000Y-97790000D03*
X50800000Y-85090000D03*
X58420000Y-95250000D03*
X50800000Y-87630000D03*
X58420000Y-92710000D03*
X50800000Y-90170000D03*
X58420000Y-90170000D03*
X50800000Y-92710000D03*
X58420000Y-87630000D03*
X50800000Y-95250000D03*
X58420000Y-85090000D03*
X50800000Y-97790000D03*
X58420000Y-82550000D03*
D10*
X20320000Y-64770000D03*
X20320000Y-57150000D03*
X12700000Y-57150000D03*
D13*
X12700000Y-64770000D03*
D14*
X88900000Y-72390000D03*
X55880000Y-57150000D03*
X86360000Y-72390000D03*
X58420000Y-57150000D03*
X83820000Y-72390000D03*
X60960000Y-57150000D03*
X81280000Y-72390000D03*
X63500000Y-57150000D03*
X78740000Y-72390000D03*
X66040000Y-57150000D03*
X76200000Y-72390000D03*
X68580000Y-57150000D03*
X73660000Y-72390000D03*
X71120000Y-57150000D03*
X71120000Y-72390000D03*
X73660000Y-57150000D03*
X68580000Y-72390000D03*
X76200000Y-57150000D03*
X66040000Y-72390000D03*
X78740000Y-57150000D03*
X63500000Y-72390000D03*
X81280000Y-57150000D03*
X60960000Y-72390000D03*
X83820000Y-57150000D03*
X58420000Y-72390000D03*
X86360000Y-57150000D03*
X55880000Y-72390000D03*
D13*
X88900000Y-57150000D03*
D14*
X-7620000Y-82550000D03*
X40640000Y-97790000D03*
X-5080000Y-82550000D03*
X38100000Y-97790000D03*
X-2540000Y-82550000D03*
X35560000Y-97790000D03*
X0Y-82550000D03*
X33020000Y-97790000D03*
X2540000Y-82550000D03*
X30480000Y-97790000D03*
X5080000Y-82550000D03*
X27940000Y-97790000D03*
X7620000Y-82550000D03*
X25400000Y-97790000D03*
X10160000Y-82550000D03*
X22860000Y-97790000D03*
X12700000Y-82550000D03*
X20320000Y-97790000D03*
X15240000Y-82550000D03*
X17780000Y-97790000D03*
X17780000Y-82550000D03*
X15240000Y-97790000D03*
X20320000Y-82550000D03*
X12700000Y-97790000D03*
X22860000Y-82550000D03*
X10160000Y-97790000D03*
X25400000Y-82550000D03*
X7620000Y-97790000D03*
X27940000Y-82550000D03*
X5080000Y-97790000D03*
X30480000Y-82550000D03*
X2540000Y-97790000D03*
X33020000Y-82550000D03*
X0Y-97790000D03*
X35560000Y-82550000D03*
X-2540000Y-97790000D03*
X38100000Y-82550000D03*
X-5080000Y-97790000D03*
X40640000Y-82550000D03*
D13*
X-7620000Y-97790000D03*
M02*
