M48
; DRILL file {KiCad 5.1.8-db9833491~88~ubuntu20.04.1} date Wed Dec 16 12:59:24 2020
; FORMAT={-:-/ absolute / inch / decimal}
; #@! TF.CreationDate,2020-12-16T12:59:24+01:00
; #@! TF.GenerationSoftware,Kicad,Pcbnew,5.1.8-db9833491~88~ubuntu20.04.1
; #@! TF.FileFunction,Plated,1,2,PTH
FMAT,2
INCH
T1C0.0157
T2C0.0315
T3C0.0394
%
G90
G05
T1
X-0.4575Y-3.4925
X-0.4Y-3.4
X-0.25Y-4.15
X-0.0918Y-4.0918
X0.0Y-2.8
X0.0Y-4.1
X0.05Y-3.4
X0.3Y-3.95
X0.3Y-4.3
X0.35Y-3.45
X0.35Y-3.65
X0.35Y-4.05
X0.45Y-4.05
X0.5Y-4.25
X0.55Y-3.95
X0.6Y-3.15
X0.6Y-3.4
X0.6Y-3.65
X0.6Y-4.05
X0.65Y-2.55
X0.65Y-4.0
X0.7Y-2.9
X0.7Y-3.35
X0.75Y-3.15
X0.75Y-3.45
X0.75Y-4.05
X0.8Y-3.05
X0.8Y-4.0
X0.85Y-3.35
X0.85Y-3.65
X0.85Y-3.7
X0.9Y-2.85
X0.9Y-3.95
X1.003Y-3.553
X1.047Y-3.197
X1.05Y-2.95
X1.05Y-3.75
X1.05Y-4.05
X1.05Y-4.2
X1.053Y-3.603
X1.0715Y-4.0
X1.147Y-3.097
X1.197Y-3.147
X1.2Y-3.5
X1.2Y-3.75
X1.25Y-3.55
X1.25Y-3.7
X1.25Y-3.75
X1.297Y-3.047
X1.3Y-2.7
X1.3Y-3.15
X1.3413Y-3.4913
X1.35Y-3.35
X1.35Y-3.45
X1.35Y-3.75
X1.3567Y-3.5567
X1.4Y-4.0
X1.4Y-4.05
X1.4Y-4.25
X1.447Y-2.597
X1.5Y-3.15
X1.55Y-4.4354
X1.65Y-3.75
X1.75Y-3.65
X1.753Y-3.897
X1.8Y-4.15
X1.9918Y-4.2918
X2.05Y-4.1
X2.0579Y-4.3416
X2.1Y-4.0
X2.1418Y-4.1418
X2.153Y-4.103
X2.2Y-2.0
X2.2Y-2.1
X2.2Y-2.6
X2.2Y-4.2
X2.2Y-4.25
X2.203Y-4.053
X2.25Y-2.4
X2.253Y-4.003
X2.3Y-4.15
X2.4Y-3.3
X2.4Y-4.0
X2.5Y-3.15
X2.6Y-3.1
X2.65Y-3.15
X2.7Y-3.0
X2.7Y-3.2
X2.9Y-2.7
X2.9Y-3.15
X2.9Y-3.35
X3.0Y-3.2
X3.05Y-3.2
X3.05Y-3.35
X3.1Y-4.1
X3.25Y-3.15
T2
X1.9Y-4.2
X1.9984Y-4.2
X2.0Y-3.25
X2.0Y-3.35
X2.0Y-3.45
X2.0Y-3.55
X2.0Y-3.65
X2.0Y-3.75
X2.0Y-3.85
X2.3Y-3.25
X2.3Y-3.35
X2.3Y-3.45
X2.3Y-3.55
X2.3Y-3.65
X2.3Y-3.75
X2.3Y-3.85
X2.2Y-2.25
X2.2Y-2.85
X2.3Y-2.25
X2.3Y-2.85
X2.4Y-2.25
X2.4Y-2.85
X2.5Y-2.25
X2.5Y-2.85
X2.6Y-2.25
X2.6Y-2.85
X2.7Y-2.25
X2.7Y-2.85
X2.8Y-2.25
X2.8Y-2.85
X2.9Y-2.25
X2.9Y-2.85
X3.0Y-2.25
X3.0Y-2.85
X3.1Y-2.25
X3.1Y-2.85
X3.2Y-2.25
X3.2Y-2.85
X3.3Y-2.25
X3.3Y-2.85
X3.4Y-2.25
X3.4Y-2.85
X3.5Y-2.25
X3.5Y-2.85
X-0.5Y-3.5
X-0.5Y-3.5984
X0.5Y-2.25
X0.5Y-2.55
X0.8Y-2.25
X0.8Y-2.55
X-0.3Y-3.25
X-0.3Y-3.85
X-0.2Y-3.25
X-0.2Y-3.85
X-0.1Y-3.25
X-0.1Y-3.85
X0.0Y-3.25
X0.0Y-3.85
X0.1Y-3.25
X0.1Y-3.85
X0.2Y-3.25
X0.2Y-3.85
X0.3Y-3.25
X0.3Y-3.85
X0.4Y-3.25
X0.4Y-3.85
X0.5Y-3.25
X0.5Y-3.85
X0.6Y-3.25
X0.6Y-3.85
X0.7Y-3.25
X0.7Y-3.85
X0.8Y-3.25
X0.8Y-3.85
X0.9Y-3.25
X0.9Y-3.85
X1.0Y-3.25
X1.0Y-3.85
X1.1Y-3.25
X1.1Y-3.85
X1.2Y-3.25
X1.2Y-3.85
X1.3Y-3.25
X1.3Y-3.85
X1.4Y-3.25
X1.4Y-3.85
X1.5Y-3.25
X1.5Y-3.85
X1.6Y-3.25
X1.6Y-3.85
X3.95Y-2.45
X3.95Y-2.5484
T3
X-0.3Y-4.4
X-0.2Y-4.4
X-0.1Y-4.4
X0.0Y-4.4
X0.1Y-4.4
X0.2Y-4.4
X0.3Y-4.4
X0.4Y-4.4
X0.5Y-4.4
X0.6Y-4.4
X0.7Y-4.4
X0.8Y-4.4
X0.9Y-4.4
X1.0Y-4.4
X1.1Y-4.4
X1.2Y-4.4
X1.3Y-4.4
X1.4Y-4.4
X1.5Y-4.4
X1.6Y-4.4
X1.7Y-4.4
X1.8Y-4.4
X1.9Y-4.4
X2.0Y-4.4
X2.1Y-4.4
X2.2Y-4.4
X2.3Y-4.4
X2.4Y-4.4
X2.5Y-4.4
X2.6Y-4.4
X2.7Y-4.4
X2.8Y-4.4
X2.9Y-4.4
X3.0Y-4.4
X3.1Y-4.4
X3.2Y-4.4
X3.3Y-4.4
X3.4Y-4.4
X3.5Y-4.4
X3.6Y-4.4
X1.2Y-2.25
X1.2Y-2.35
T0
M30
