G04 #@! TF.GenerationSoftware,KiCad,Pcbnew,5.1.8-db9833491~88~ubuntu20.04.1*
G04 #@! TF.CreationDate,2020-12-16T12:57:10+01:00*
G04 #@! TF.ProjectId,dtZ80-memory,64745a38-302d-46d6-956d-6f72792e6b69,rev?*
G04 #@! TF.SameCoordinates,Original*
G04 #@! TF.FileFunction,Soldermask,Top*
G04 #@! TF.FilePolarity,Negative*
%FSLAX46Y46*%
G04 Gerber Fmt 4.6, Leading zero omitted, Abs format (unit mm)*
G04 Created by KiCad (PCBNEW 5.1.8-db9833491~88~ubuntu20.04.1) date 2020-12-16 12:57:10*
%MOMM*%
%LPD*%
G01*
G04 APERTURE LIST*
%ADD10O,1.600000X1.600000*%
%ADD11R,1.600000X1.600000*%
%ADD12O,1.700000X1.700000*%
%ADD13R,1.700000X1.700000*%
%ADD14C,1.600000*%
G04 APERTURE END LIST*
D10*
X95250000Y-104140000D03*
X87630000Y-119380000D03*
X95250000Y-106680000D03*
X87630000Y-116840000D03*
X95250000Y-109220000D03*
X87630000Y-114300000D03*
X95250000Y-111760000D03*
X87630000Y-111760000D03*
X95250000Y-114300000D03*
X87630000Y-109220000D03*
X95250000Y-116840000D03*
X87630000Y-106680000D03*
X95250000Y-119380000D03*
D11*
X87630000Y-104140000D03*
D10*
X168910000Y-119380000D03*
X135890000Y-104140000D03*
X166370000Y-119380000D03*
X138430000Y-104140000D03*
X163830000Y-119380000D03*
X140970000Y-104140000D03*
X161290000Y-119380000D03*
X143510000Y-104140000D03*
X158750000Y-119380000D03*
X146050000Y-104140000D03*
X156210000Y-119380000D03*
X148590000Y-104140000D03*
X153670000Y-119380000D03*
X151130000Y-104140000D03*
X151130000Y-119380000D03*
X153670000Y-104140000D03*
X148590000Y-119380000D03*
X156210000Y-104140000D03*
X146050000Y-119380000D03*
X158750000Y-104140000D03*
X143510000Y-119380000D03*
X161290000Y-104140000D03*
X140970000Y-119380000D03*
X163830000Y-104140000D03*
X138430000Y-119380000D03*
X166370000Y-104140000D03*
X135890000Y-119380000D03*
D11*
X168910000Y-104140000D03*
D10*
X115570000Y-104140000D03*
X107950000Y-119380000D03*
X115570000Y-106680000D03*
X107950000Y-116840000D03*
X115570000Y-109220000D03*
X107950000Y-114300000D03*
X115570000Y-111760000D03*
X107950000Y-111760000D03*
X115570000Y-114300000D03*
X107950000Y-109220000D03*
X115570000Y-116840000D03*
X107950000Y-106680000D03*
X115570000Y-119380000D03*
D11*
X107950000Y-104140000D03*
D12*
X85090000Y-146050000D03*
X87630000Y-146050000D03*
X90170000Y-146050000D03*
X92710000Y-146050000D03*
X95250000Y-146050000D03*
X97790000Y-146050000D03*
X100330000Y-146050000D03*
X102870000Y-146050000D03*
X105410000Y-146050000D03*
X107950000Y-146050000D03*
X110490000Y-146050000D03*
X113030000Y-146050000D03*
X115570000Y-146050000D03*
X118110000Y-146050000D03*
X120650000Y-146050000D03*
X123190000Y-146050000D03*
X125730000Y-146050000D03*
X128270000Y-146050000D03*
X130810000Y-146050000D03*
X133350000Y-146050000D03*
X135890000Y-146050000D03*
X138430000Y-146050000D03*
X140970000Y-146050000D03*
X143510000Y-146050000D03*
X146050000Y-146050000D03*
X148590000Y-146050000D03*
X151130000Y-146050000D03*
X153670000Y-146050000D03*
X156210000Y-146050000D03*
X158750000Y-146050000D03*
X161290000Y-146050000D03*
X163830000Y-146050000D03*
X166370000Y-146050000D03*
X168910000Y-146050000D03*
X171450000Y-146050000D03*
X173990000Y-146050000D03*
X176530000Y-146050000D03*
X179070000Y-146050000D03*
X181610000Y-146050000D03*
D13*
X184150000Y-146050000D03*
D14*
X127000000Y-112990000D03*
X127000000Y-110490000D03*
X143470000Y-138430000D03*
X140970000Y-138430000D03*
M02*
