G04 #@! TF.GenerationSoftware,KiCad,Pcbnew,5.1.8-db9833491~88~ubuntu20.04.1*
G04 #@! TF.CreationDate,2020-12-16T12:57:10+01:00*
G04 #@! TF.ProjectId,dtZ80-memory,64745a38-302d-46d6-956d-6f72792e6b69,rev?*
G04 #@! TF.SameCoordinates,Original*
G04 #@! TF.FileFunction,Legend,Top*
G04 #@! TF.FilePolarity,Positive*
%FSLAX46Y46*%
G04 Gerber Fmt 4.6, Leading zero omitted, Abs format (unit mm)*
G04 Created by KiCad (PCBNEW 5.1.8-db9833491~88~ubuntu20.04.1) date 2020-12-16 12:57:10*
%MOMM*%
%LPD*%
G01*
G04 APERTURE LIST*
%ADD10C,0.120000*%
%ADD11C,0.150000*%
G04 APERTURE END LIST*
D10*
X90440000Y-102810000D02*
X88790000Y-102810000D01*
X88790000Y-102810000D02*
X88790000Y-120710000D01*
X88790000Y-120710000D02*
X94090000Y-120710000D01*
X94090000Y-120710000D02*
X94090000Y-102810000D01*
X94090000Y-102810000D02*
X92440000Y-102810000D01*
X86300000Y-102750000D02*
X86300000Y-120770000D01*
X86300000Y-120770000D02*
X96580000Y-120770000D01*
X96580000Y-120770000D02*
X96580000Y-102750000D01*
X96580000Y-102750000D02*
X86300000Y-102750000D01*
X92440000Y-102810000D02*
G75*
G02*
X90440000Y-102810000I-1000000J0D01*
G01*
X170240000Y-110760000D02*
X170240000Y-105300000D01*
X170240000Y-105300000D02*
X134560000Y-105300000D01*
X134560000Y-105300000D02*
X134560000Y-118220000D01*
X134560000Y-118220000D02*
X170240000Y-118220000D01*
X170240000Y-118220000D02*
X170240000Y-112760000D01*
X170300000Y-102810000D02*
X134500000Y-102810000D01*
X134500000Y-102810000D02*
X134500000Y-120710000D01*
X134500000Y-120710000D02*
X170300000Y-120710000D01*
X170300000Y-120710000D02*
X170300000Y-102810000D01*
X170240000Y-112760000D02*
G75*
G02*
X170240000Y-110760000I0J1000000D01*
G01*
X110760000Y-102810000D02*
X109110000Y-102810000D01*
X109110000Y-102810000D02*
X109110000Y-120710000D01*
X109110000Y-120710000D02*
X114410000Y-120710000D01*
X114410000Y-120710000D02*
X114410000Y-102810000D01*
X114410000Y-102810000D02*
X112760000Y-102810000D01*
X106620000Y-102750000D02*
X106620000Y-120770000D01*
X106620000Y-120770000D02*
X116900000Y-120770000D01*
X116900000Y-120770000D02*
X116900000Y-102750000D01*
X116900000Y-102750000D02*
X106620000Y-102750000D01*
X112760000Y-102810000D02*
G75*
G02*
X110760000Y-102810000I-1000000J0D01*
G01*
X83760000Y-144720000D02*
X83760000Y-147380000D01*
X182880000Y-144720000D02*
X83760000Y-144720000D01*
X182880000Y-147380000D02*
X83760000Y-147380000D01*
X182880000Y-144720000D02*
X182880000Y-147380000D01*
X184150000Y-144720000D02*
X185480000Y-144720000D01*
X185480000Y-144720000D02*
X185480000Y-146050000D01*
X128120000Y-110120000D02*
X128120000Y-113360000D01*
X125880000Y-110120000D02*
X125880000Y-113360000D01*
X128120000Y-110120000D02*
X128055000Y-110120000D01*
X125945000Y-110120000D02*
X125880000Y-110120000D01*
X128120000Y-113360000D02*
X128055000Y-113360000D01*
X125945000Y-113360000D02*
X125880000Y-113360000D01*
X140600000Y-137310000D02*
X143840000Y-137310000D01*
X140600000Y-139550000D02*
X143840000Y-139550000D01*
X140600000Y-137310000D02*
X140600000Y-137375000D01*
X140600000Y-139485000D02*
X140600000Y-139550000D01*
X143840000Y-137310000D02*
X143840000Y-137375000D01*
X143840000Y-139485000D02*
X143840000Y-139550000D01*
D11*
X90678095Y-101262380D02*
X90678095Y-102071904D01*
X90725714Y-102167142D01*
X90773333Y-102214761D01*
X90868571Y-102262380D01*
X91059047Y-102262380D01*
X91154285Y-102214761D01*
X91201904Y-102167142D01*
X91249523Y-102071904D01*
X91249523Y-101262380D01*
X91630476Y-101262380D02*
X92249523Y-101262380D01*
X91916190Y-101643333D01*
X92059047Y-101643333D01*
X92154285Y-101690952D01*
X92201904Y-101738571D01*
X92249523Y-101833809D01*
X92249523Y-102071904D01*
X92201904Y-102167142D01*
X92154285Y-102214761D01*
X92059047Y-102262380D01*
X91773333Y-102262380D01*
X91678095Y-102214761D01*
X91630476Y-102167142D01*
X170692380Y-112521904D02*
X171501904Y-112521904D01*
X171597142Y-112474285D01*
X171644761Y-112426666D01*
X171692380Y-112331428D01*
X171692380Y-112140952D01*
X171644761Y-112045714D01*
X171597142Y-111998095D01*
X171501904Y-111950476D01*
X170692380Y-111950476D01*
X170787619Y-111521904D02*
X170740000Y-111474285D01*
X170692380Y-111379047D01*
X170692380Y-111140952D01*
X170740000Y-111045714D01*
X170787619Y-110998095D01*
X170882857Y-110950476D01*
X170978095Y-110950476D01*
X171120952Y-110998095D01*
X171692380Y-111569523D01*
X171692380Y-110950476D01*
X110998095Y-101262380D02*
X110998095Y-102071904D01*
X111045714Y-102167142D01*
X111093333Y-102214761D01*
X111188571Y-102262380D01*
X111379047Y-102262380D01*
X111474285Y-102214761D01*
X111521904Y-102167142D01*
X111569523Y-102071904D01*
X111569523Y-101262380D01*
X112569523Y-102262380D02*
X111998095Y-102262380D01*
X112283809Y-102262380D02*
X112283809Y-101262380D01*
X112188571Y-101405238D01*
X112093333Y-101500476D01*
X111998095Y-101548095D01*
X185932380Y-146383333D02*
X186646666Y-146383333D01*
X186789523Y-146430952D01*
X186884761Y-146526190D01*
X186932380Y-146669047D01*
X186932380Y-146764285D01*
X186932380Y-145383333D02*
X186932380Y-145954761D01*
X186932380Y-145669047D02*
X185932380Y-145669047D01*
X186075238Y-145764285D01*
X186170476Y-145859523D01*
X186218095Y-145954761D01*
X129607142Y-111906666D02*
X129654761Y-111954285D01*
X129702380Y-112097142D01*
X129702380Y-112192380D01*
X129654761Y-112335238D01*
X129559523Y-112430476D01*
X129464285Y-112478095D01*
X129273809Y-112525714D01*
X129130952Y-112525714D01*
X128940476Y-112478095D01*
X128845238Y-112430476D01*
X128750000Y-112335238D01*
X128702380Y-112192380D01*
X128702380Y-112097142D01*
X128750000Y-111954285D01*
X128797619Y-111906666D01*
X128797619Y-111525714D02*
X128750000Y-111478095D01*
X128702380Y-111382857D01*
X128702380Y-111144761D01*
X128750000Y-111049523D01*
X128797619Y-111001904D01*
X128892857Y-110954285D01*
X128988095Y-110954285D01*
X129130952Y-111001904D01*
X129702380Y-111573333D01*
X129702380Y-110954285D01*
X142053333Y-136537142D02*
X142005714Y-136584761D01*
X141862857Y-136632380D01*
X141767619Y-136632380D01*
X141624761Y-136584761D01*
X141529523Y-136489523D01*
X141481904Y-136394285D01*
X141434285Y-136203809D01*
X141434285Y-136060952D01*
X141481904Y-135870476D01*
X141529523Y-135775238D01*
X141624761Y-135680000D01*
X141767619Y-135632380D01*
X141862857Y-135632380D01*
X142005714Y-135680000D01*
X142053333Y-135727619D01*
X143005714Y-136632380D02*
X142434285Y-136632380D01*
X142720000Y-136632380D02*
X142720000Y-135632380D01*
X142624761Y-135775238D01*
X142529523Y-135870476D01*
X142434285Y-135918095D01*
M02*
