M48
; DRILL file {KiCad 5.1.9+dfsg1-1} date Thu May  6 20:04:54 2021
; FORMAT={-:-/ absolute / metric / decimal}
; #@! TF.CreationDate,2021-05-06T20:04:54+02:00
; #@! TF.GenerationSoftware,Kicad,Pcbnew,5.1.9+dfsg1-1
; #@! TF.FileFunction,Plated,1,2,PTH
FMAT,2
METRIC
T1C0.400
T2C0.800
T3C0.900
T4C1.000
T5C1.200
T6C1.300
T7C3.200
%
G90
G05
T1
X45.72Y-68.58
X46.355Y-51.435
X46.99Y-101.6
X46.99Y-114.3
X46.99Y-118.11
X47.037Y-63.845
X47.625Y-51.435
X48.26Y-40.64
X48.895Y-71.755
X49.53Y-89.535
X50.147Y-84.429
X50.165Y-74.93
X50.71Y-85.255
X50.8Y-38.1
X50.8Y-90.805
X50.8Y-118.11
X50.8Y-157.48
X50.996Y-65.844
X51.345Y-93.908
X51.435Y-86.36
X51.894Y-88.059
X52.07Y-67.31
X52.07Y-92.075
X52.07Y-130.81
X52.07Y-133.35
X52.07Y-137.16
X52.07Y-146.05
X52.07Y-147.32
X52.07Y-154.94
X52.16Y-82.55
X52.16Y-85.18
X52.705Y-69.215
X52.705Y-72.39
X52.705Y-78.74
X52.926Y-70.94
X52.965Y-74.389
X53.34Y-41.91
X53.34Y-87.63
X53.34Y-89.535
X53.34Y-96.52
X53.34Y-100.33
X53.34Y-102.87
X53.58Y-93.759
X53.86Y-85.18
X54.174Y-48.407
X54.61Y-64.77
X54.61Y-67.31
X54.61Y-104.14
X54.61Y-134.62
X54.61Y-149.86
X54.61Y-31.05
X55.232Y-27.913
X55.245Y-42.545
X55.245Y-45.72
X55.367Y-47.503
X55.88Y-38.1
X55.88Y-39.37
X55.88Y-60.96
X55.88Y-101.6
X55.88Y-124.46
X55.97Y-44.353
X57.006Y-38.244
X57.099Y-80.107
X57.15Y-68.49
X57.15Y-128.4
X57.15Y-129.54
X57.15Y-132.08
X57.63Y-75.935
X57.695Y-143.12
X57.785Y-40.64
X57.785Y-70.485
X57.785Y-74.295
X57.785Y-78.74
X58.072Y-38.286
X58.322Y-83.283
X58.363Y-51.552
X58.42Y-109.22
X58.42Y-147.32
X58.42Y-148.59
X58.42Y-151.13
X58.51Y-49.44
X58.517Y-133.447
X58.6Y-132.038
X58.684Y-106.86
X58.965Y-53.34
X59.055Y-35.56
X59.055Y-38.735
X59.055Y-69.215
X59.219Y-32.96
X59.428Y-79.357
X59.651Y-85.242
X59.69Y-50.8
X59.69Y-81.28
X59.69Y-90.17
X59.69Y-107.95
X59.69Y-120.65
X59.69Y-129.54
X59.69Y-153.67
X59.724Y-101.6
X59.78Y-76.733
X59.842Y-144.932
X59.96Y-49.166
X60.325Y-39.37
X60.325Y-88.9
X60.367Y-83.365
X60.782Y-35.957
X60.842Y-100.425
X60.96Y-33.655
X60.96Y-43.18
X60.96Y-73.66
X60.96Y-86.36
X60.96Y-106.045
X60.96Y-114.3
X60.96Y-118.11
X61.043Y-71.845
X61.108Y-49.043
X61.131Y-108.415
X61.219Y-103.825
X61.591Y-102.896
X61.595Y-74.93
X62.083Y-47.92
X62.23Y-41.275
X62.23Y-62.23
X62.23Y-120.65
X62.23Y-129.54
X62.327Y-35.657
X62.46Y-109.546
X62.865Y-46.707
X63.055Y-38.142
X63.38Y-100.853
X63.491Y-102.753
X63.5Y-39.37
X64.135Y-98.425
X64.135Y-104.14
X64.139Y-33.892
X64.68Y-36.758
X64.77Y-41.91
X64.77Y-45.72
X64.77Y-123.19
X64.77Y-132.08
X64.92Y-83.82
X64.92Y-88.9
X64.92Y-86.36
X65.068Y-135.781
X65.392Y-33.047
X65.405Y-37.465
X65.405Y-39.76
X65.405Y-65.405
X65.416Y-58.675
X65.565Y-101.048
X65.685Y-115.675
X65.779Y-61.925
X65.844Y-98.248
X65.95Y-48.26
X66.021Y-129.474
X66.04Y-43.18
X66.04Y-78.105
X66.04Y-81.28
X66.04Y-88.9
X66.04Y-91.44
X66.04Y-116.84
X66.04Y-118.11
X66.04Y-120.65
X66.675Y-54.61
X66.675Y-60.96
X66.697Y-36.665
X66.715Y-73.115
X66.88Y-133.35
X67.149Y-66.389
X67.218Y-131.988
X67.22Y-74.93
X67.238Y-102.325
X67.31Y-41.91
X67.31Y-45.72
X67.31Y-69.215
X67.31Y-80.01
X67.31Y-83.82
X67.31Y-92.71
X67.31Y-99.06
X67.31Y-114.3
X67.407Y-90.267
X67.45Y-55.242
X67.462Y-130.087
X67.487Y-107.008
X67.85Y-52.158
X67.945Y-101.6
X68.345Y-106.475
X68.425Y-49.508
X68.58Y-43.18
X68.58Y-64.135
X68.58Y-72.39
X68.58Y-91.44
X68.58Y-109.22
X68.58Y-124.46
X68.58Y-133.35
X68.845Y-132.207
X69.01Y-113.938
X69.215Y-57.15
X69.585Y-105.496
X69.665Y-59.05
X69.85Y-78.105
X69.85Y-80.555
X69.85Y-104.14
X69.85Y-107.95
X69.85Y-118.11
X69.85Y-144.78
X70.016Y-130.644
X70.485Y-34.925
X70.485Y-40.64
X70.485Y-43.815
X70.485Y-99.695
X70.665Y-53.443
X71.12Y-33.2
X71.12Y-45.72
X71.12Y-81.28
X71.12Y-83.82
X71.12Y-106.68
X71.12Y-115.57
X71.12Y-129.54
X71.12Y-167.64
X71.21Y-38.1
X71.755Y-64.135
X71.755Y-104.775
X72.3Y-44.378
X72.3Y-46.99
X72.317Y-94.053
X72.348Y-115.39
X72.39Y-92.075
X72.39Y-96.52
X72.39Y-116.84
X73.025Y-40.64
X73.025Y-45.085
X73.025Y-62.23
X73.186Y-65.056
X73.4Y-109.22
X73.455Y-94.166
X73.464Y-102.674
X73.563Y-116.743
X73.564Y-105.661
X73.66Y-133.35
X73.75Y-35.56
X73.75Y-36.83
X73.75Y-90.17
X74.173Y-75.687
X74.812Y-33.127
X74.817Y-96.638
X74.93Y-64.135
X74.93Y-66.04
X74.93Y-71.755
X74.93Y-92.71
X74.93Y-114.3
X74.93Y-118.11
X74.93Y-124.46
X75.475Y-95.885
X75.565Y-102.235
X76.063Y-100.335
X76.11Y-104.293
X76.2Y-50.165
X76.2Y-53.975
X76.2Y-58.42
X76.2Y-74.93
X76.2Y-87.63
X76.2Y-97.155
X76.2Y-138.43
X76.242Y-116.66
X76.281Y-108.006
X76.493Y-64.59
X76.835Y-62.865
X76.959Y-101.608
X77.398Y-67.873
X77.47Y-60.96
X77.47Y-78.74
X77.47Y-90.17
X77.47Y-121.92
X77.47Y-130.81
X77.47Y-138.43
X77.47Y-147.32
X77.527Y-115.485
X77.91Y-93.755
X77.919Y-103.368
X78.105Y-68.58
X78.105Y-97.155
X78.74Y-58.42
X78.74Y-72.48
X78.74Y-104.14
X78.74Y-115.57
X78.74Y-129.54
X79.375Y-64.135
X79.892Y-33.127
X79.927Y-76.098
X80.01Y-45.72
X80.01Y-78.74
X80.01Y-95.795
X80.01Y-114.3
X80.01Y-119.38
X80.01Y-133.35
X80.01Y-137.16
X80.01Y-143.51
X80.093Y-70.575
X80.577Y-115.892
X80.645Y-68.58
X81.223Y-62.531
X81.28Y-34.29
X81.28Y-36.83
X81.28Y-40.64
X81.28Y-43.18
X81.28Y-95.16
X81.28Y-118.11
X81.28Y-124.46
X81.28Y-129.54
X81.28Y-142.24
X81.317Y-107.77
X81.46Y-106.722
X81.915Y-99.695
X82.037Y-73.782
X82.293Y-110.305
X82.55Y-54.61
X82.55Y-58.42
X82.55Y-64.77
X82.55Y-67.31
X82.55Y-71.755
X82.55Y-78.74
X82.55Y-81.37
X82.55Y-115.57
X82.55Y-119.38
X82.55Y-134.62
X82.688Y-113.708
X82.99Y-96.96
X83.018Y-108.708
X83.629Y-117.753
X83.778Y-59.51
X83.778Y-63.68
X83.82Y-34.29
X83.82Y-60.96
X83.82Y-62.23
X83.82Y-77.47
X83.82Y-88.9
X83.82Y-107.95
X83.82Y-120.65
X83.82Y-147.32
X84.25Y-115.197
X84.455Y-122.555
X85.09Y-54.61
X85.09Y-76.835
X85.09Y-102.87
X85.09Y-119.38
X85.09Y-120.65
X85.09Y-129.54
X85.09Y-133.35
X85.246Y-115.11
X85.286Y-75.126
X85.321Y-80.414
X85.343Y-35.059
X85.725Y-45.72
X85.725Y-72.39
X85.725Y-95.885
X86.23Y-106.68
X86.36Y-63.5
X86.36Y-66.04
X86.36Y-80.01
X86.36Y-88.9
X86.36Y-115.57
X86.36Y-121.92
X86.36Y-146.05
X86.8Y-69.02
X86.929Y-98.053
X86.995Y-81.915
X87.45Y-119.338
X87.63Y-35.56
X87.63Y-66.04
X87.63Y-77.47
X87.63Y-109.22
X87.63Y-121.92
X87.72Y-135.89
X87.72Y-138.43
X87.727Y-62.133
X88.021Y-72.3
X88.265Y-75.565
X88.265Y-83.185
X88.646Y-140.96
X88.682Y-67.138
X88.9Y-60.96
X88.9Y-64.77
X88.9Y-81.28
X88.9Y-94.615
X88.9Y-115.57
X88.9Y-119.38
X88.9Y-144.145
X88.942Y-114.12
X88.99Y-88.9
X88.996Y-100.685
X89.036Y-72.3
X89.117Y-71.298
X89.313Y-43.641
X89.607Y-81.987
X89.63Y-51.717
X89.63Y-57.15
X90.08Y-52.714
X90.088Y-106.456
X90.096Y-141.145
X90.17Y-63.5
X90.17Y-74.93
X90.17Y-90.17
X90.17Y-104.14
X90.17Y-119.38
X90.17Y-123.19
X90.277Y-34.207
X90.496Y-70.352
X90.683Y-101.087
X90.805Y-80.01
X91.043Y-35.738
X91.218Y-42.745
X91.318Y-67.823
X91.44Y-34.29
X91.44Y-40.64
X91.44Y-69.85
X91.44Y-74.93
X91.44Y-99.695
X91.44Y-132.08
X91.512Y-80.717
X91.931Y-148.099
X92.075Y-62.23
X92.075Y-83.82
X92.389Y-109.85
X92.56Y-69.61
X92.615Y-97.115
X92.638Y-78.65
X92.71Y-72.39
X92.71Y-87.63
X92.71Y-92.71
X92.71Y-107.95
X92.71Y-115.12
X92.71Y-133.35
X92.8Y-54.61
X92.8Y-57.15
X92.89Y-34.248
X92.905Y-68.385
X93.016Y-61.044
X93.053Y-81.965
X93.345Y-79.375
X93.345Y-83.415
X93.785Y-86.555
X93.98Y-36.83
X93.98Y-45.72
X93.98Y-67.31
X93.98Y-72.39
X93.98Y-76.2
X93.98Y-91.44
X93.98Y-99.06
X94.036Y-129.621
X94.493Y-149.347
X94.564Y-80.742
X95.16Y-86.995
X95.16Y-91.44
X95.25Y-64.135
X95.25Y-79.375
X95.25Y-95.25
X95.25Y-104.775
X95.25Y-146.05
X95.25Y-114.317
X95.636Y-109.22
X95.636Y-111.417
X95.636Y-112.417
X96.099Y-147.728
X96.52Y-38.1
X96.52Y-53.34
X96.52Y-59.69
X96.52Y-69.85
X96.52Y-73.025
X96.52Y-95.25
X96.52Y-116.84
X96.52Y-121.92
X96.52Y-123.19
X96.52Y-128.27
X96.52Y-129.54
X96.52Y-142.24
X96.52Y-145.105
X96.52Y-149.86
X96.52Y-168.91
X96.61Y-92.698
X96.617Y-63.449
X96.715Y-64.575
X97.155Y-146.685
X97.565Y-88.285
X97.58Y-85.09
X97.595Y-58.225
X97.598Y-104.532
X97.646Y-103.534
X97.67Y-62.86
X97.79Y-39.37
X97.79Y-60.96
X97.79Y-80.645
X97.79Y-106.68
X97.79Y-119.38
X98.03Y-97.053
X98.425Y-89.535
X98.61Y-122.555
X98.97Y-106.68
X99.048Y-104.267
X99.06Y-53.34
X99.06Y-137.16
X99.06Y-144.78
X99.255Y-67.115
X99.695Y-102.87
X99.695Y-109.22
X100.33Y-50.8
X100.33Y-62.865
X100.33Y-67.31
X100.455Y-107.899
X100.525Y-60.765
X100.748Y-82.329
X100.965Y-157.48
X101.087Y-75.687
X101.135Y-113.054
X101.204Y-116.492
X101.6Y-43.18
X101.6Y-58.42
X101.6Y-62.865
X101.6Y-106.68
X101.6Y-121.92
X101.6Y-132.08
X101.6Y-137.16
X101.653Y-97.931
X102.235Y-55.245
X102.235Y-60.96
X102.235Y-71.12
X102.235Y-74.295
X102.235Y-96.52
X102.366Y-79.264
X102.715Y-86.601
X102.773Y-102.819
X102.806Y-67.33
X102.811Y-111.574
X102.827Y-133.17
X102.87Y-85.09
X102.87Y-94.615
X102.87Y-167.64
X103.069Y-97.783
X103.348Y-80.247
X103.5Y-106.68
X103.505Y-117.475
X104.14Y-40.64
X104.14Y-46.99
X104.14Y-49.53
X104.14Y-57.15
X104.14Y-58.42
X104.14Y-64.045
X104.14Y-69.85
X104.14Y-88.9
X104.14Y-103.505
X104.14Y-134.62
X104.14Y-137.16
X104.14Y-142.24
X104.14Y-144.78
X104.14Y-166.37
X104.155Y-66.554
X104.213Y-93.907
X104.261Y-111.833
X104.335Y-95.055
X104.775Y-55.245
X104.775Y-60.96
X104.775Y-120.65
X104.96Y-71.12
X105.313Y-127.051
X105.32Y-106.752
X105.41Y-66.315
X105.41Y-86.36
X105.41Y-113.967
X105.41Y-130.81
X105.41Y-133.35
X105.41Y-143.51
X105.415Y-68.665
X105.59Y-117.061
X105.67Y-98.864
X106.039Y-89.597
X106.045Y-74.93
X106.045Y-97.155
X106.045Y-106.045
X106.045Y-123.19
X106.165Y-101.085
X106.671Y-87.196
X106.68Y-48.26
X106.68Y-52.07
X106.68Y-58.42
X106.68Y-64.135
X106.68Y-120.65
X106.68Y-142.24
X106.68Y-148.59
X106.777Y-115.667
X106.833Y-108.495
X107.315Y-73.66
X107.315Y-128.995
X107.548Y-102.895
X107.707Y-114.692
X107.83Y-75.69
X107.895Y-116.895
X107.95Y-46.99
X107.95Y-60.96
X107.95Y-66.675
X107.95Y-112.395
X107.95Y-133.35
X107.95Y-135.89
X107.95Y-137.16
X107.95Y-139.7
X107.95Y-147.32
X107.95Y-149.86
X107.95Y-155.575
X107.95Y-162.56
X107.992Y-68.4
X109.22Y-34.925
X109.22Y-44.45
X109.22Y-45.72
X109.22Y-52.07
X109.22Y-55.88
X109.22Y-59.055
X109.22Y-135.89
X109.512Y-100.994
X110.393Y-80.696
X110.424Y-83.923
X110.49Y-60.96
X110.49Y-63.5
X110.49Y-70.485
X110.49Y-77.47
X110.49Y-82.55
X110.49Y-88.9
X110.49Y-118.2
X110.49Y-119.38
X110.49Y-133.35
X110.49Y-160.02
X110.49Y-167.64
X110.5Y-130.819
X110.532Y-68.4
X110.687Y-125.533
X110.903Y-101.627
X111.125Y-72.39
X111.125Y-96.43
X111.485Y-150.585
X111.573Y-130.623
X111.76Y-52.07
X111.76Y-55.88
X111.76Y-80.01
X111.76Y-120.65
X111.76Y-123.19
X111.76Y-125.73
X111.76Y-139.7
X111.76Y-157.48
X111.76Y-166.37
X111.85Y-99.06
X112.395Y-59.055
X112.395Y-66.04
X112.395Y-102.87
X112.395Y-104.775
X112.395Y-111.125
X112.395Y-117.475
X112.527Y-127.767
X112.58Y-60.96
X112.806Y-140.97
X112.85Y-132.08
X112.941Y-74.868
X113.026Y-112.517
X113.03Y-48.26
X113.03Y-73.025
X113.03Y-123.19
X113.03Y-137.16
X113.03Y-143.51
X113.03Y-148.59
X113.03Y-162.56
X113.03Y-165.1
X113.12Y-115.66
X113.226Y-79.814
X113.226Y-164.026
X113.338Y-78.5
X113.545Y-107.846
X113.652Y-82.928
X113.665Y-154.305
X113.845Y-114.526
X113.91Y-133.35
X114.3Y-68.58
X114.3Y-117.475
X114.3Y-120.015
X114.3Y-125.73
X114.3Y-128.905
X114.3Y-130.81
X114.3Y-137.16
X114.3Y-139.7
X114.306Y-104.33
X114.39Y-151.855
X114.845Y-111.125
X115.57Y-81.28
X115.57Y-162.56
X115.57Y-166.37
X115.667Y-116.789
X115.765Y-117.915
X116.205Y-119.38
X116.656Y-78.835
X116.788Y-104.086
X116.84Y-52.07
X116.84Y-76.2
X116.84Y-114.935
X116.84Y-121.92
X116.84Y-124.46
X116.84Y-129.54
X116.84Y-137.16
X116.84Y-139.7
X116.937Y-163.927
X116.97Y-93.98
X117.033Y-68.193
X117.11Y-106.14
X117.23Y-86.241
X117.475Y-73.025
X117.475Y-109.22
X117.566Y-103.459
X118.11Y-66.04
X118.11Y-69.85
X118.11Y-112.395
X118.625Y-73.973
X118.745Y-115.57
X118.745Y-136.525
X118.84Y-92.71
X119.055Y-108.469
X119.184Y-140.774
X119.38Y-52.07
X119.38Y-86.995
X119.38Y-91.44
X119.38Y-120.015
X119.38Y-130.81
X119.38Y-143.51
X119.38Y-146.05
X119.56Y-107.566
X119.575Y-112.835
X119.624Y-70.577
X119.672Y-73.952
X119.725Y-139.161
X120.015Y-80.645
X120.015Y-94.615
X120.21Y-68.775
X120.65Y-54.61
X120.65Y-63.5
X120.65Y-65.405
X120.65Y-110.49
X120.65Y-118.11
X120.65Y-125.73
X120.65Y-132.08
X120.65Y-137.16
X120.65Y-142.24
X120.65Y-151.13
X120.65Y-166.37
X120.721Y-71.631
X120.917Y-86.716
X121.285Y-75.565
X121.285Y-88.9
X121.285Y-90.805
X121.285Y-140.335
X121.48Y-124.265
X121.48Y-130.37
X121.725Y-133.203
X121.818Y-135.289
X121.845Y-85.165
X121.92Y-46.99
X121.92Y-111.76
X121.92Y-121.92
X121.92Y-128.905
X121.962Y-164.92
X122.187Y-131.077
X122.555Y-137.16
X122.768Y-49.118
X123.092Y-133.887
X123.19Y-124.46
X123.19Y-127.0
X123.19Y-143.51
X123.19Y-148.59
X123.19Y-162.56
X123.19Y-163.83
X123.19Y-168.91
X123.233Y-132.13
X123.289Y-138.499
X123.975Y-102.475
X124.249Y-126.91
X124.308Y-51.521
X124.46Y-46.99
X124.46Y-113.03
X124.46Y-120.65
X124.46Y-125.73
X124.46Y-130.81
X124.46Y-135.89
X124.46Y-167.64
X124.46Y-170.0
X124.64Y-134.44
X125.095Y-78.74
X125.095Y-97.79
X125.465Y-111.633
X125.64Y-130.81
X125.73Y-50.8
X125.73Y-56.894
X125.73Y-68.58
X125.73Y-75.565
X125.73Y-91.44
X125.73Y-126.91
X125.73Y-138.43
X125.73Y-151.13
X125.802Y-82.622
X125.878Y-102.415
X126.088Y-140.45
X126.365Y-133.35
X126.903Y-73.757
X126.925Y-119.455
X127.0Y-83.82
X127.0Y-100.965
X127.0Y-111.76
X127.0Y-125.73
X127.0Y-143.51
X127.0Y-165.1
X127.075Y-109.295
X128.27Y-49.53
X128.27Y-71.12
X128.27Y-80.01
X128.27Y-81.915
X128.27Y-87.63
X128.27Y-91.44
X128.27Y-95.885
X128.27Y-111.76
X128.27Y-134.62
X128.27Y-148.59
X128.367Y-101.651
X128.654Y-140.875
X128.905Y-100.33
X129.233Y-118.29
X129.384Y-63.608
X129.54Y-40.64
X129.54Y-44.45
X129.54Y-46.99
X129.54Y-93.345
X129.54Y-102.87
X129.54Y-104.14
X129.54Y-113.03
X129.54Y-130.81
X129.54Y-132.08
X129.54Y-142.24
X129.54Y-144.65
X129.54Y-165.1
X129.54Y-167.64
X129.593Y-74.786
X129.72Y-134.578
X130.413Y-101.166
X130.453Y-63.652
X130.81Y-98.425
X130.81Y-116.97
X130.81Y-128.27
X130.81Y-134.62
X130.81Y-140.97
X130.895Y-113.337
X131.45Y-40.556
X131.786Y-62.524
X131.952Y-130.18
X132.08Y-97.155
X132.08Y-102.87
X132.08Y-124.46
X132.08Y-132.08
X132.08Y-139.7
X132.08Y-151.13
X132.08Y-165.1
X132.08Y-167.64
X132.271Y-134.053
X132.715Y-99.155
X133.35Y-36.83
X133.35Y-40.64
X133.35Y-43.18
X133.35Y-63.5
X133.35Y-92.71
X133.35Y-110.49
X133.35Y-118.11
X133.35Y-119.38
X133.35Y-129.54
X133.35Y-140.97
X133.35Y-163.83
X133.53Y-124.157
X133.798Y-114.244
X133.984Y-72.147
X133.985Y-97.79
X134.62Y-38.1
X134.62Y-44.45
X134.62Y-87.63
X134.62Y-101.6
X134.62Y-104.585
X134.62Y-143.51
X134.62Y-151.13
X134.62Y-165.1
X134.992Y-118.835
X135.109Y-116.935
X135.195Y-73.358
X135.306Y-100.233
X135.376Y-123.946
X135.596Y-65.064
X135.89Y-35.56
X135.89Y-66.04
X135.89Y-111.76
X135.89Y-132.08
X135.89Y-139.7
X135.89Y-140.97
X135.89Y-163.83
X136.71Y-67.31
X136.964Y-70.046
X137.085Y-114.225
X137.16Y-58.42
X137.16Y-73.66
X137.16Y-75.565
X137.16Y-92.71
X137.16Y-95.885
X137.16Y-110.49
X137.16Y-130.81
X137.16Y-143.51
X137.251Y-154.475
X138.06Y-85.507
X138.43Y-34.29
X138.43Y-41.91
X138.43Y-57.15
X138.43Y-124.46
X138.43Y-133.35
X138.43Y-139.7
X139.515Y-67.192
X139.7Y-64.77
X139.7Y-66.04
X139.7Y-104.14
X139.7Y-140.97
X139.7Y-157.48
X139.7Y-168.91
X139.758Y-152.733
X139.827Y-154.183
X140.898Y-110.418
X140.957Y-34.153
X140.97Y-67.31
X140.97Y-102.87
X140.97Y-133.35
X140.97Y-139.7
X140.97Y-149.86
X140.97Y-167.64
X141.605Y-74.93
X141.605Y-82.55
X141.605Y-97.155
X141.605Y-111.125
X141.706Y-104.632
X142.24Y-68.58
X142.24Y-124.46
X142.24Y-134.62
X142.24Y-140.97
X142.24Y-154.94
X142.376Y-109.544
X142.398Y-72.501
X142.51Y-85.553
X142.51Y-87.453
X142.875Y-79.375
X142.875Y-107.315
X143.51Y-74.93
X143.51Y-92.71
X143.51Y-99.06
X143.51Y-139.7
X143.51Y-156.21
X143.618Y-88.419
X143.803Y-66.138
X143.811Y-103.96
X143.875Y-108.999
X144.145Y-84.455
X144.145Y-105.41
X144.3Y-86.709
X144.622Y-88.45
X144.78Y-57.15
X144.78Y-62.23
X144.78Y-100.33
X144.78Y-106.68
X144.78Y-158.75
X144.798Y-66.038
X145.979Y-88.592
X146.05Y-140.97
X146.05Y-152.4
X146.05Y-157.48
X146.05Y-167.64
X146.05Y-168.91
X146.146Y-62.521
X146.485Y-90.025
X147.218Y-94.082
X147.261Y-87.721
X147.32Y-60.96
X147.32Y-104.14
X147.32Y-106.68
X147.32Y-119.38
X147.32Y-133.35
X147.32Y-152.4
X147.395Y-72.465
X148.319Y-89.416
X148.515Y-159.945
X148.59Y-77.47
X148.59Y-130.81
X148.59Y-134.62
X148.59Y-140.97
X148.59Y-142.24
X148.59Y-147.32
X149.86Y-68.58
X149.86Y-73.66
X149.86Y-88.9
X149.86Y-97.79
X149.86Y-101.6
X149.86Y-105.41
X149.86Y-116.84
X149.86Y-143.51
X149.86Y-168.91
X149.957Y-59.593
X150.056Y-77.274
X151.0Y-58.42
X151.13Y-52.07
X151.13Y-68.58
X151.13Y-74.93
X151.13Y-77.47
X151.13Y-82.55
X151.13Y-128.27
X151.13Y-129.54
X151.13Y-130.81
X151.13Y-139.7
X151.13Y-142.24
X151.569Y-133.789
X152.325Y-72.465
X152.4Y-31.75
X152.4Y-33.02
X152.4Y-87.63
X152.4Y-107.95
X152.4Y-110.49
X152.4Y-119.38
X152.4Y-140.97
X152.4Y-152.4
X152.4Y-154.94
X152.4Y-158.75
X152.58Y-103.17
X152.839Y-132.519
X153.025Y-106.232
X153.568Y-100.432
X153.627Y-143.55
X153.67Y-95.689
X153.67Y-114.3
X153.67Y-125.73
X153.67Y-168.91
X154.359Y-142.869
X154.94Y-86.36
X154.94Y-96.52
X154.94Y-109.22
X154.94Y-111.76
X154.94Y-119.38
X154.94Y-124.46
X154.94Y-132.08
X154.94Y-140.97
X154.94Y-156.21
X154.94Y-158.75
X154.94Y-65.785
X155.014Y-107.77
X155.015Y-67.235
X155.025Y-105.87
X156.111Y-118.74
X156.198Y-107.996
X156.21Y-62.23
X156.21Y-66.04
X156.21Y-72.39
X156.21Y-85.09
X156.21Y-88.9
X156.21Y-93.98
X156.21Y-104.14
X156.21Y-116.84
X156.21Y-125.73
X156.21Y-151.13
X156.21Y-156.21
X156.39Y-109.262
X157.035Y-168.465
X157.281Y-105.218
X157.48Y-73.66
X157.48Y-100.33
X157.48Y-109.22
X157.48Y-128.27
X157.48Y-142.24
X157.48Y-158.75
X157.48Y-165.1
X158.306Y-118.799
X158.655Y-103.857
X158.75Y-88.9
X158.75Y-107.95
X158.75Y-111.76
X158.75Y-127.0
X159.046Y-102.408
X160.02Y-68.58
X160.02Y-74.93
X160.02Y-96.52
X160.02Y-113.03
X160.02Y-118.11
X160.02Y-142.24
X160.02Y-148.59
X160.02Y-154.94
X160.02Y-156.21
X160.02Y-166.37
X160.02Y-167.64
X161.29Y-67.31
X161.29Y-128.27
X161.29Y-139.7
X162.56Y-114.3
X162.56Y-140.97
X162.56Y-152.4
X162.974Y-86.774
X163.634Y-139.896
X163.83Y-69.85
X163.83Y-72.39
X163.83Y-113.03
X163.83Y-115.57
X163.83Y-137.16
X163.83Y-158.75
X163.83Y-162.56
X163.927Y-86.457
X164.465Y-81.915
X165.0Y-167.5
X165.1Y-85.09
X165.1Y-118.11
X165.1Y-121.92
X165.1Y-132.08
X165.1Y-137.16
X165.1Y-140.97
X165.296Y-119.576
X166.328Y-142.42
X166.37Y-53.34
X166.37Y-81.28
X166.37Y-95.25
X166.37Y-107.95
X166.37Y-111.76
X166.37Y-127.0
X166.37Y-140.97
X166.476Y-159.975
X167.46Y-113.072
X167.64Y-34.29
X167.64Y-38.1
X167.64Y-40.64
X167.64Y-44.45
X167.64Y-46.99
X167.64Y-64.77
X167.64Y-82.55
X167.64Y-86.36
X167.64Y-124.46
X167.64Y-162.69
X167.682Y-123.01
X168.5Y-169.0
X168.91Y-82.55
X168.91Y-91.44
X168.91Y-113.03
X168.91Y-147.32
X168.91Y-149.86
X168.91Y-152.4
X169.545Y-86.995
X170.132Y-123.261
X170.18Y-80.01
X170.18Y-85.09
X170.18Y-106.68
X170.18Y-113.03
X170.18Y-130.81
X170.18Y-162.69
X170.693Y-122.433
X171.45Y-43.18
X171.45Y-109.22
X171.45Y-113.03
X171.45Y-128.27
X171.45Y-138.43
X171.45Y-140.97
X171.521Y-121.872
X172.72Y-105.41
X172.72Y-116.84
X172.72Y-123.19
X172.72Y-127.0
X172.72Y-139.7
X173.112Y-113.03
X173.661Y-116.502
X173.99Y-38.1
X173.99Y-91.44
X173.99Y-105.41
X173.99Y-121.92
X173.99Y-124.46
X173.99Y-132.08
X174.109Y-112.953
X175.26Y-74.93
X175.26Y-81.28
X175.26Y-83.82
X175.26Y-86.36
X175.26Y-110.49
X176.53Y-31.75
X176.53Y-71.12
X176.53Y-82.55
X176.53Y-85.09
X176.53Y-87.63
X176.53Y-105.41
X176.53Y-119.38
X176.53Y-134.62
X176.53Y-138.43
X176.53Y-162.56
X177.8Y-66.04
X177.8Y-68.58
X177.8Y-76.2
X177.8Y-77.47
X177.8Y-86.36
X177.8Y-90.17
X177.8Y-114.3
X177.8Y-118.11
X177.8Y-121.92
X177.8Y-123.19
X177.8Y-142.24
X177.8Y-158.75
X179.07Y-63.5
X179.07Y-115.57
X179.07Y-116.84
X179.07Y-119.38
X179.07Y-130.81
X179.07Y-135.89
X179.07Y-138.43
X179.07Y-140.748
X179.07Y-142.24
X179.07Y-158.75
X180.34Y-91.44
X180.34Y-134.62
X180.34Y-140.97
X181.61Y-105.41
X181.61Y-118.11
X181.61Y-119.38
X181.61Y-120.65
X182.88Y-123.19
X182.88Y-133.35
X182.88Y-135.89
X182.88Y-158.75
X184.15Y-90.17
X184.15Y-121.92
X184.15Y-129.54
X185.42Y-60.96
X185.42Y-124.46
X185.42Y-128.27
X185.42Y-142.24
X185.42Y-158.75
X186.69Y-119.38
X186.69Y-120.65
X186.69Y-127.0
X186.69Y-129.54
X186.69Y-132.08
X186.69Y-138.43
X187.764Y-135.694
X187.96Y-60.96
X187.96Y-125.73
X187.96Y-133.35
X189.23Y-116.84
X189.23Y-119.38
X189.23Y-124.46
X190.5Y-66.04
X190.5Y-113.03
X190.5Y-115.57
X190.5Y-120.65
X190.5Y-128.27
X190.5Y-132.08
X190.5Y-134.62
X191.77Y-105.41
X191.77Y-123.19
X191.77Y-132.08
X191.77Y-137.16
X191.77Y-144.78
X193.04Y-115.57
X193.04Y-120.65
X193.04Y-152.4
X194.31Y-113.03
X194.31Y-152.4
X195.58Y-156.21
X195.58Y-158.75
X196.85Y-59.69
X196.85Y-105.41
X196.997Y-165.003
X198.12Y-69.85
X198.12Y-118.11
X199.39Y-113.03
X199.39Y-115.57
X201.75Y-49.488
X201.93Y-143.51
X203.2Y-48.26
X203.2Y-90.17
X203.5Y-57.15
X204.47Y-46.99
X204.47Y-49.53
X204.47Y-55.88
X204.47Y-60.96
X204.47Y-120.65
X204.5Y-145.5
X205.74Y-49.53
X206.43Y-43.074
X207.0Y-145.0
X208.28Y-82.55
X208.28Y-139.7
X209.55Y-71.12
X209.679Y-66.099
X210.247Y-64.571
X210.7Y-53.53
X210.778Y-67.49
X210.82Y-49.53
X210.82Y-52.07
X210.82Y-55.88
X210.82Y-72.39
X210.82Y-82.55
X210.862Y-48.08
X212.09Y-46.99
X212.09Y-52.07
X212.09Y-58.42
X212.09Y-63.5
X212.09Y-132.08
X213.36Y-50.8
X213.36Y-55.88
X213.36Y-69.85
X213.36Y-76.2
X213.36Y-81.28
X214.5Y-123.5
X214.57Y-60.96
X214.63Y-46.99
X214.63Y-49.53
X214.63Y-59.69
X214.63Y-67.31
X214.63Y-73.66
X214.63Y-142.24
X215.004Y-70.69
X215.716Y-65.2
X215.9Y-63.5
X215.9Y-120.65
X216.99Y-62.188
X217.17Y-46.99
X217.17Y-52.07
X217.17Y-60.96
X217.17Y-69.85
X217.17Y-76.2
X218.0Y-122.0
X218.222Y-72.39
X218.44Y-64.77
X218.44Y-86.36
X218.813Y-74.385
X219.71Y-41.91
X219.71Y-67.31
X219.71Y-76.2
X219.71Y-80.01
X219.71Y-87.63
X220.929Y-71.696
X220.98Y-59.085
X220.98Y-64.77
X220.98Y-73.66
X220.98Y-74.93
X220.98Y-96.52
X222.12Y-66.04
X222.175Y-57.075
X222.19Y-62.32
X222.25Y-52.07
X222.25Y-147.32
X224.79Y-132.08
X225.327Y-57.15
X226.018Y-60.78
X226.06Y-38.1
X226.06Y-50.8
X226.06Y-53.34
X226.06Y-62.23
X226.06Y-67.31
X226.06Y-72.39
X226.06Y-74.93
X227.33Y-64.77
X227.33Y-66.04
X227.33Y-140.97
X227.427Y-76.297
X227.518Y-68.94
X228.558Y-72.57
X228.6Y-59.69
X228.6Y-62.23
X228.6Y-71.12
X228.6Y-74.93
X228.6Y-130.81
X229.396Y-64.805
X229.87Y-61.115
X229.87Y-68.58
X229.87Y-69.85
X229.87Y-72.39
X229.87Y-132.08
X231.14Y-59.69
X231.14Y-64.77
X231.14Y-66.04
X232.41Y-53.34
X232.41Y-54.43
X232.41Y-148.59
X233.368Y-52.5
X233.68Y-50.8
X234.95Y-53.34
X236.22Y-52.07
X236.318Y-54.483
T2
X41.91Y-130.81
X41.91Y-140.97
X41.91Y-143.59
X41.91Y-148.59
X44.45Y-36.83
X44.45Y-46.99
X44.45Y-50.8
X44.45Y-60.96
X44.45Y-111.76
X44.45Y-127.0
X46.99Y-111.76
X46.99Y-127.0
X46.99Y-132.08
X46.99Y-134.62
X46.99Y-137.16
X46.99Y-139.7
X46.99Y-142.24
X46.99Y-144.78
X46.99Y-147.32
X46.99Y-149.86
X46.99Y-152.4
X46.99Y-154.94
X46.99Y-157.48
X46.99Y-160.02
X46.99Y-162.56
X46.99Y-165.1
X49.53Y-111.76
X49.53Y-127.0
X52.07Y-58.42
X52.07Y-63.42
X52.07Y-111.76
X52.07Y-127.0
X53.34Y-38.1
X53.34Y-45.72
X53.34Y-53.34
X54.61Y-111.76
X54.61Y-127.0
X55.88Y-72.39
X55.88Y-74.93
X55.88Y-77.47
X55.88Y-80.01
X55.88Y-82.55
X55.88Y-85.09
X55.88Y-87.63
X55.88Y-90.17
X55.88Y-92.71
X55.88Y-95.25
X57.14Y-53.34
X57.15Y-99.06
X57.15Y-111.76
X57.15Y-127.0
X58.42Y-58.42
X58.42Y-63.42
X59.69Y-111.76
X59.69Y-127.0
X60.96Y-38.1
X60.96Y-45.72
X62.15Y-99.06
X62.23Y-111.76
X62.23Y-127.0
X62.23Y-132.08
X62.23Y-134.62
X62.23Y-137.16
X62.23Y-139.7
X62.23Y-142.24
X62.23Y-144.78
X62.23Y-147.32
X62.23Y-149.86
X62.23Y-152.4
X62.23Y-154.94
X62.23Y-157.48
X62.23Y-160.02
X62.23Y-162.56
X62.23Y-165.1
X63.5Y-72.39
X63.5Y-74.93
X63.5Y-77.47
X63.5Y-80.01
X63.5Y-82.55
X63.5Y-85.09
X63.5Y-87.63
X63.5Y-90.17
X63.5Y-92.71
X63.5Y-95.25
X63.5Y-106.68
X64.77Y-111.76
X64.77Y-127.0
X67.31Y-111.76
X67.31Y-127.0
X68.58Y-62.23
X68.58Y-66.04
X69.85Y-86.36
X69.85Y-90.17
X69.85Y-93.98
X69.85Y-97.79
X69.85Y-101.6
X69.85Y-111.76
X69.85Y-127.0
X72.39Y-111.76
X72.39Y-127.0
X73.66Y-106.68
X74.93Y-111.76
X74.93Y-127.0
X77.47Y-106.68
X77.47Y-111.76
X77.47Y-127.0
X78.74Y-62.23
X78.74Y-66.04
X80.01Y-86.36
X80.01Y-90.17
X80.01Y-93.98
X80.01Y-97.79
X80.01Y-101.6
X80.01Y-111.76
X80.01Y-127.0
X82.55Y-111.76
X82.55Y-127.0
X85.09Y-111.76
X85.09Y-127.0
X87.63Y-106.68
X87.63Y-111.76
X87.63Y-127.0
X90.17Y-111.76
X90.17Y-127.0
X92.71Y-111.76
X92.71Y-127.0
X97.79Y-110.57
X97.79Y-115.57
X100.33Y-83.82
X100.33Y-86.36
X100.33Y-88.9
X100.33Y-91.44
X100.33Y-93.98
X100.33Y-96.52
X100.33Y-99.06
X104.22Y-161.29
X107.95Y-83.82
X107.95Y-86.36
X107.95Y-88.9
X107.95Y-91.44
X107.95Y-93.98
X107.95Y-96.52
X107.95Y-99.06
X109.22Y-161.29
X114.3Y-29.21
X114.3Y-44.45
X115.57Y-54.61
X115.57Y-57.15
X115.57Y-59.69
X115.57Y-62.23
X115.57Y-64.77
X115.57Y-67.31
X115.57Y-69.85
X115.57Y-72.39
X115.57Y-74.93
X115.57Y-77.47
X115.57Y-83.82
X115.57Y-86.36
X115.57Y-88.9
X115.57Y-91.44
X115.57Y-93.98
X115.57Y-96.52
X115.57Y-99.06
X116.84Y-29.21
X116.84Y-44.45
X119.38Y-29.21
X119.38Y-44.45
X121.92Y-29.21
X121.92Y-44.45
X123.19Y-54.61
X123.19Y-57.15
X123.19Y-59.69
X123.19Y-62.23
X123.19Y-64.77
X123.19Y-67.31
X123.19Y-69.85
X123.19Y-72.39
X123.19Y-74.93
X123.19Y-77.47
X123.19Y-83.82
X123.19Y-86.36
X123.19Y-88.9
X123.19Y-91.44
X123.19Y-93.98
X123.19Y-96.52
X123.19Y-99.06
X123.19Y-107.95
X123.19Y-115.57
X124.46Y-29.21
X124.46Y-44.45
X125.73Y-107.95
X125.73Y-115.57
X127.0Y-121.92
X127.0Y-137.16
X127.0Y-146.05
X127.0Y-161.29
X128.27Y-99.06
X128.27Y-107.95
X128.27Y-115.57
X129.54Y-121.92
X129.54Y-137.16
X129.54Y-146.05
X129.54Y-161.29
X130.81Y-107.95
X130.81Y-115.57
X132.08Y-68.58
X132.08Y-71.12
X132.08Y-73.66
X132.08Y-76.2
X132.08Y-78.74
X132.08Y-81.28
X132.08Y-83.82
X132.08Y-121.92
X132.08Y-137.16
X132.08Y-146.05
X132.08Y-161.29
X133.35Y-107.95
X133.35Y-115.57
X134.62Y-121.92
X134.62Y-137.16
X134.62Y-146.05
X134.62Y-161.29
X135.89Y-107.95
X135.89Y-115.57
X137.16Y-121.92
X137.16Y-137.16
X137.16Y-146.05
X137.16Y-161.29
X138.43Y-99.06
X138.43Y-107.95
X138.43Y-115.57
X139.7Y-68.58
X139.7Y-71.12
X139.7Y-73.66
X139.7Y-76.2
X139.7Y-78.74
X139.7Y-81.28
X139.7Y-83.82
X139.7Y-121.92
X139.7Y-137.16
X139.7Y-146.05
X139.7Y-161.29
X140.97Y-107.95
X140.97Y-115.57
X141.05Y-165.1
X142.24Y-35.56
X142.24Y-39.37
X142.24Y-43.18
X142.24Y-46.99
X142.24Y-50.8
X142.24Y-54.61
X142.24Y-58.42
X142.24Y-62.23
X142.24Y-121.92
X142.24Y-137.16
X142.24Y-146.05
X142.24Y-161.29
X144.78Y-121.92
X144.78Y-137.16
X144.78Y-146.05
X144.78Y-161.29
X146.05Y-68.58
X146.05Y-71.12
X146.05Y-73.66
X146.05Y-76.2
X146.05Y-78.74
X146.05Y-81.28
X146.05Y-83.82
X146.05Y-165.1
X147.32Y-121.92
X147.32Y-137.16
X147.32Y-146.05
X147.32Y-161.29
X149.86Y-121.92
X149.86Y-137.16
X149.86Y-146.05
X149.86Y-161.29
X152.4Y-35.56
X152.4Y-39.37
X152.4Y-43.18
X152.4Y-46.99
X152.4Y-50.8
X152.4Y-54.61
X152.4Y-58.42
X152.4Y-62.23
X152.4Y-121.92
X152.4Y-137.16
X152.4Y-146.05
X152.4Y-161.29
X153.67Y-68.58
X153.67Y-71.12
X153.67Y-73.66
X153.67Y-76.2
X153.67Y-78.74
X153.67Y-81.28
X153.67Y-83.82
X153.67Y-165.1
X154.94Y-121.92
X154.94Y-137.16
X154.94Y-146.05
X154.94Y-161.29
X157.48Y-121.92
X157.48Y-137.16
X157.48Y-146.05
X157.48Y-161.29
X160.02Y-121.92
X160.02Y-137.16
X160.02Y-146.05
X160.02Y-161.29
X162.56Y-146.05
X162.56Y-161.29
X163.83Y-73.66
X163.83Y-78.66
X163.83Y-165.1
X165.1Y-146.05
X165.1Y-161.29
X167.64Y-146.05
X167.64Y-161.29
X170.18Y-146.05
X170.18Y-161.29
X172.72Y-64.77
X172.72Y-67.31
X172.72Y-69.85
X172.72Y-72.39
X172.72Y-74.93
X172.72Y-77.47
X172.72Y-80.01
X172.72Y-82.55
X172.72Y-85.09
X172.72Y-87.63
X172.72Y-146.05
X172.72Y-161.29
X174.07Y-93.98
X175.26Y-146.05
X175.26Y-161.29
X179.07Y-93.98
X180.34Y-64.77
X180.34Y-67.31
X180.34Y-69.85
X180.34Y-72.39
X180.34Y-74.93
X180.34Y-77.47
X180.34Y-80.01
X180.34Y-82.55
X180.34Y-85.09
X180.34Y-87.63
X181.61Y-138.43
X181.61Y-148.59
X181.61Y-152.48
X181.61Y-157.48
X185.42Y-92.71
X185.42Y-100.33
X186.69Y-46.99
X186.69Y-57.15
X187.96Y-80.01
X187.96Y-87.63
X187.96Y-92.71
X187.96Y-100.33
X190.5Y-80.01
X190.5Y-87.63
X190.5Y-92.71
X190.5Y-100.33
X191.77Y-44.45
X191.77Y-62.23
X191.77Y-66.67
X191.77Y-70.72
X191.77Y-74.77
X191.94Y-52.07
X191.94Y-57.15
X193.04Y-80.01
X193.04Y-87.63
X193.04Y-92.71
X193.04Y-100.33
X194.27Y-44.45
X195.58Y-80.01
X195.58Y-87.63
X195.58Y-92.71
X195.58Y-100.33
X198.12Y-80.01
X198.12Y-87.63
X198.12Y-92.71
X198.12Y-100.33
X199.39Y-44.45
X199.39Y-132.08
X199.39Y-142.24
X200.66Y-80.01
X200.66Y-87.63
X200.66Y-92.71
X200.66Y-100.33
X201.89Y-44.45
X201.93Y-62.23
X201.93Y-66.67
X201.93Y-70.72
X201.93Y-74.77
X202.1Y-52.07
X202.1Y-57.15
X203.2Y-80.01
X203.2Y-87.63
X203.2Y-92.71
X203.2Y-100.33
X204.47Y-134.62
X204.47Y-139.62
X208.28Y-30.48
X208.28Y-33.02
X208.28Y-35.56
X208.28Y-38.1
X208.28Y-40.64
X208.28Y-43.18
X208.28Y-45.72
X208.28Y-48.26
X208.28Y-50.8
X208.28Y-53.34
X208.28Y-55.88
X208.28Y-58.42
X208.28Y-60.96
X208.28Y-63.5
X208.28Y-66.04
X208.28Y-68.58
X208.28Y-71.12
X208.28Y-73.66
X208.28Y-76.2
X208.28Y-78.74
X210.05Y-138.43
X212.17Y-127.0
X213.36Y-83.82
X217.17Y-127.0
X218.36Y-83.82
X220.21Y-138.43
X223.52Y-30.48
X223.52Y-33.02
X223.52Y-35.56
X223.52Y-38.1
X223.52Y-40.64
X223.52Y-43.18
X223.52Y-45.72
X223.52Y-48.26
X223.52Y-50.8
X223.52Y-53.34
X223.52Y-55.88
X223.52Y-58.42
X223.52Y-60.96
X223.52Y-63.5
X223.52Y-66.04
X223.52Y-68.58
X223.52Y-71.12
X223.52Y-73.66
X223.52Y-76.2
X223.52Y-78.74
X224.79Y-146.13
X224.79Y-151.13
X226.06Y-137.16
X226.06Y-160.02
X228.6Y-143.51
X228.6Y-146.05
X228.6Y-148.59
X228.6Y-151.13
X236.22Y-137.16
X236.22Y-143.51
X236.22Y-146.05
X236.22Y-148.59
X236.22Y-151.13
X236.22Y-160.02
T3
X218.44Y-160.02
X220.98Y-160.02
T4
X41.91Y-152.4
X41.91Y-154.94
X41.91Y-157.48
X41.91Y-160.02
X41.91Y-162.56
X44.45Y-71.12
X44.45Y-73.66
X44.45Y-76.2
X44.45Y-78.74
X44.45Y-81.28
X44.45Y-83.82
X44.45Y-86.36
X44.45Y-92.71
X44.45Y-95.25
X44.45Y-97.79
X44.45Y-100.33
X44.45Y-102.87
X44.45Y-105.41
X46.99Y-71.12
X46.99Y-73.66
X46.99Y-76.2
X46.99Y-78.74
X46.99Y-81.28
X46.99Y-83.82
X46.99Y-86.36
X49.53Y-92.71
X49.53Y-95.25
X49.53Y-97.79
X49.53Y-100.33
X49.53Y-102.87
X49.53Y-105.41
X50.8Y-29.21
X50.8Y-31.75
X53.34Y-29.21
X53.34Y-31.75
X55.88Y-29.21
X55.88Y-31.75
X58.42Y-29.21
X58.42Y-31.75
X60.96Y-29.21
X60.96Y-31.75
X63.5Y-29.21
X63.5Y-31.75
X64.77Y-52.07
X64.77Y-54.61
X66.04Y-29.21
X66.04Y-31.75
X68.58Y-29.21
X68.58Y-31.75
X68.58Y-36.83
X68.58Y-39.37
X71.12Y-29.21
X71.12Y-31.75
X72.39Y-52.07
X72.39Y-54.61
X73.66Y-29.21
X73.66Y-31.75
X76.2Y-29.21
X76.2Y-31.75
X76.2Y-36.83
X76.2Y-39.37
X78.74Y-29.21
X78.74Y-31.75
X80.01Y-52.07
X80.01Y-54.61
X81.28Y-29.21
X81.28Y-31.75
X83.82Y-29.21
X83.82Y-31.75
X83.82Y-36.83
X83.82Y-39.37
X83.82Y-41.91
X86.36Y-29.21
X86.36Y-31.75
X87.63Y-52.07
X87.63Y-54.61
X88.9Y-29.21
X88.9Y-31.75
X91.44Y-29.21
X91.44Y-31.75
X92.71Y-102.87
X92.71Y-105.41
X93.98Y-29.21
X93.98Y-31.75
X96.52Y-29.21
X96.52Y-31.75
X99.06Y-29.21
X99.06Y-31.75
X101.6Y-121.92
X101.6Y-124.46
X101.6Y-127.0
X101.6Y-129.54
X101.6Y-132.08
X101.6Y-134.62
X101.6Y-137.16
X101.6Y-139.7
X101.6Y-142.24
X101.6Y-144.78
X101.6Y-147.32
X101.6Y-149.86
X101.6Y-152.4
X101.6Y-154.94
X101.6Y-171.45
X104.14Y-171.45
X106.68Y-171.45
X109.22Y-171.45
X109.855Y-106.68
X109.855Y-109.22
X111.76Y-171.45
X114.3Y-171.45
X114.935Y-106.68
X114.935Y-109.22
X116.84Y-121.92
X116.84Y-124.46
X116.84Y-127.0
X116.84Y-129.54
X116.84Y-132.08
X116.84Y-134.62
X116.84Y-137.16
X116.84Y-139.7
X116.84Y-142.24
X116.84Y-144.78
X116.84Y-147.32
X116.84Y-149.86
X116.84Y-152.4
X116.84Y-154.94
X116.84Y-171.45
X119.38Y-171.45
X121.92Y-171.45
X124.46Y-171.45
X127.0Y-171.45
X129.54Y-171.45
X132.08Y-171.45
X134.62Y-171.45
X137.16Y-29.21
X137.16Y-31.75
X137.16Y-171.45
X139.7Y-171.45
X142.24Y-171.45
X144.78Y-171.45
X147.32Y-171.45
X148.59Y-29.21
X149.86Y-171.45
X151.13Y-29.21
X152.4Y-171.45
X153.67Y-29.21
X154.94Y-171.45
X156.21Y-29.21
X157.48Y-171.45
X158.75Y-29.21
X160.02Y-171.45
X161.29Y-29.21
X162.56Y-171.45
X163.83Y-29.21
X165.1Y-171.45
X166.37Y-29.21
X167.64Y-171.45
X168.91Y-29.21
X170.18Y-171.45
X171.45Y-29.21
X172.72Y-171.45
X173.99Y-29.21
X175.26Y-171.45
X176.53Y-29.21
X177.8Y-171.45
X179.07Y-29.21
X180.34Y-171.45
X181.61Y-29.21
X182.88Y-171.45
X184.15Y-29.21
X185.42Y-171.45
X186.69Y-29.21
X187.96Y-171.45
X190.5Y-171.45
X193.04Y-171.45
X195.58Y-171.45
X198.12Y-171.45
X200.66Y-171.45
X207.01Y-156.21
X207.01Y-158.75
X207.01Y-167.64
X207.01Y-170.18
X215.9Y-167.64
X215.9Y-172.14
X222.4Y-167.64
X222.4Y-172.14
X225.5Y-92.71
X225.5Y-95.25
X225.5Y-97.79
X225.5Y-100.33
X225.5Y-102.87
X232.41Y-55.88
X232.41Y-58.42
X232.41Y-60.96
X232.41Y-63.5
X232.41Y-66.04
X232.41Y-68.58
X232.41Y-71.12
X232.41Y-73.66
X232.41Y-76.2
X234.95Y-55.88
X234.95Y-58.42
X234.95Y-60.96
X234.95Y-63.5
X234.95Y-66.04
X234.95Y-68.58
X234.95Y-71.12
X234.95Y-73.66
X234.95Y-76.2
X234.95Y-113.03
X234.95Y-115.57
X234.95Y-118.11
X234.95Y-120.65
X234.95Y-123.19
X234.95Y-125.73
X234.95Y-128.27
X234.95Y-130.81
T5
X230.27Y-38.18
X230.27Y-40.68
X230.27Y-45.68
X230.27Y-48.18
X235.276Y-43.18
T6
X161.37Y-102.87
X163.87Y-92.87
X166.37Y-102.87
T7
X43.18Y-30.48
X43.18Y-170.18
X68.0Y-138.5
X68.0Y-172.0
X93.0Y-138.5
X93.0Y-172.0
X230.5Y-93.5
X230.5Y-102.5
X233.68Y-30.48
X233.68Y-170.18
T0
M30
