%FSLAX45Y45*%
G04 Gerber Fmt 4.5, Leading zero omitted, Abs format (unit mm)*
G04 Created by KiCad (PCBNEW 5.1.9+dfsg1-1) date 2021-05-06 21:29:57*
%MOMM*%
%LPD*%
G01*
G04 APERTURE LIST*
%TA.AperFunction,Profile*%
%ADD10C,0.150000*%
%TD*%
%ADD11C,0.200000*%
%ADD12C,0.300000*%
G04 APERTURE END LIST*
D10*
X23876000Y-2540000D02*
X23876000Y-17526000D01*
X3810000Y-17526000D02*
X3810000Y-2540000D01*
X23876000Y-17526000D02*
X3810000Y-17526000D01*
X3810000Y-2540000D02*
X23876000Y-2540000D01*
D11*
D12*
X4088928Y-17999214D02*
X4088928Y-17699214D01*
X4160357Y-17699214D01*
X4203214Y-17713500D01*
X4231786Y-17742072D01*
X4246071Y-17770643D01*
X4260357Y-17827786D01*
X4260357Y-17870643D01*
X4246071Y-17927786D01*
X4231786Y-17956357D01*
X4203214Y-17984929D01*
X4160357Y-17999214D01*
X4088928Y-17999214D01*
X4388928Y-17999214D02*
X4388928Y-17799214D01*
X4388928Y-17856357D02*
X4403214Y-17827786D01*
X4417500Y-17813500D01*
X4446071Y-17799214D01*
X4474643Y-17799214D01*
X4574643Y-17999214D02*
X4574643Y-17799214D01*
X4574643Y-17699214D02*
X4560357Y-17713500D01*
X4574643Y-17727786D01*
X4588928Y-17713500D01*
X4574643Y-17699214D01*
X4574643Y-17727786D01*
X4760357Y-17999214D02*
X4731786Y-17984929D01*
X4717500Y-17956357D01*
X4717500Y-17699214D01*
X4917500Y-17999214D02*
X4888928Y-17984929D01*
X4874643Y-17956357D01*
X4874643Y-17699214D01*
X5260357Y-17999214D02*
X5260357Y-17699214D01*
X5360357Y-17913500D01*
X5460357Y-17699214D01*
X5460357Y-17999214D01*
X5731786Y-17999214D02*
X5731786Y-17842072D01*
X5717500Y-17813500D01*
X5688928Y-17799214D01*
X5631786Y-17799214D01*
X5603214Y-17813500D01*
X5731786Y-17984929D02*
X5703214Y-17999214D01*
X5631786Y-17999214D01*
X5603214Y-17984929D01*
X5588928Y-17956357D01*
X5588928Y-17927786D01*
X5603214Y-17899214D01*
X5631786Y-17884929D01*
X5703214Y-17884929D01*
X5731786Y-17870643D01*
X5874643Y-17799214D02*
X5874643Y-18099214D01*
X5874643Y-17813500D02*
X5903214Y-17799214D01*
X5960357Y-17799214D01*
X5988928Y-17813500D01*
X6003214Y-17827786D01*
X6017500Y-17856357D01*
X6017500Y-17942072D01*
X6003214Y-17970643D01*
X5988928Y-17984929D01*
X5960357Y-17999214D01*
X5903214Y-17999214D01*
X5874643Y-17984929D01*
X6146071Y-17970643D02*
X6160357Y-17984929D01*
X6146071Y-17999214D01*
X6131786Y-17984929D01*
X6146071Y-17970643D01*
X6146071Y-17999214D01*
X6146071Y-17813500D02*
X6160357Y-17827786D01*
X6146071Y-17842072D01*
X6131786Y-17827786D01*
X6146071Y-17813500D01*
X6146071Y-17842072D01*
M02*
