M48
; DRILL file {KiCad 5.1.9-73d0e3b20d~88~ubuntu20.04.1} date Sun Feb  7 22:22:40 2021
; FORMAT={-:-/ absolute / inch / decimal}
; #@! TF.CreationDate,2021-02-07T22:22:40+01:00
; #@! TF.GenerationSoftware,Kicad,Pcbnew,5.1.9-73d0e3b20d~88~ubuntu20.04.1
FMAT,2
INCH
T1C0.0157
T2C0.0276
T3C0.0295
T4C0.0315
T5C0.0354
T6C0.0394
T7C0.0906
%
G90
G05
T1
X1.9Y-7.35
X1.95Y-5.9
X1.95Y-6.9
X2.1Y-7.45
X2.15Y-6.05
X2.15Y-7.45
X2.2Y-5.45
X2.2Y-6.5
X2.2Y-6.8
X2.2Y-7.75
X2.25Y-4.9
X2.25Y-5.35
X2.25Y-5.8
X2.25Y-6.0
X2.25Y-6.15
X2.3Y-7.4
X2.35Y-6.4
X2.35Y-7.6
X2.4Y-4.85
X2.45Y-5.6
X2.4927Y-6.2669
X2.5Y-5.45
X2.5Y-5.75
X2.5Y-6.15
X2.5Y-6.2
X2.55Y-4.85
X2.55Y-6.05
X2.55Y-6.3
X2.5949Y-6.65
X2.6Y-5.1
X2.6Y-5.6
X2.6Y-6.5
X2.75Y-5.05
X2.75Y-5.9
X2.75Y-6.0
X2.75Y-6.1
X2.7962Y-5.5038
X2.8Y-4.2
X2.8Y-5.95
X2.8Y-6.0
X2.8Y-7.7
X2.85Y-3.9
X2.85Y-5.45
X2.85Y-6.15
X2.85Y-6.25
X2.85Y-7.0
X2.9Y-5.5
X2.9Y-6.05
X2.9Y-6.25
X2.9Y-7.7
X2.95Y-3.6
X2.95Y-3.8
X2.95Y-5.65
X2.95Y-5.85
X2.95Y-5.9
X3.0Y-5.25
X3.05Y-4.3
X3.05Y-5.45
X3.05Y-5.75
X3.05Y-7.7
X3.053Y-6.747
X3.0551Y-6.5
X3.15Y-6.3
X3.15Y-6.7
X3.15Y-6.85
X3.1647Y-6.5147
X3.2Y-5.9
X3.2Y-7.15
X3.2Y-7.35
X3.2061Y-6.4485
X3.25Y-5.25
X3.25Y-7.4
X3.2961Y-6.0039
X3.3Y-6.1
X3.3Y-6.2
X3.35Y-6.15
X3.353Y-6.747
X3.3987Y-6.149
X3.4Y-6.0
X3.4Y-6.3
X3.4Y-6.35
X3.4Y-6.5
X3.4Y-7.1
X3.4429Y-6.2517
X3.4429Y-6.2017
X3.4456Y-6.409
X3.4489Y-6.0989
X3.45Y-7.1
X3.4785Y-5.9702
X3.4972Y-6.0559
X3.5Y-6.2
X3.5Y-6.3
X3.5Y-7.0
X3.5Y-7.3
X3.5Y-7.4
X3.5013Y-6.3571
X3.5017Y-6.1429
X3.5077Y-7.1577
X3.55Y-5.85
X3.55Y-6.15
X3.55Y-6.45
X3.55Y-6.75
X3.55Y-6.95
X3.55Y-7.3
X3.5571Y-6.0017
X3.5621Y-6.2533
X3.6Y-6.1
X3.6Y-7.1
X3.6Y-7.15
X3.6Y-7.3
X3.6Y-7.5
X3.6017Y-6.2071
X3.65Y-6.15
X3.65Y-6.2
X3.65Y-6.55
X3.65Y-6.7
X3.65Y-7.05
X3.6983Y-7.4571
X3.7Y-5.65
X3.7Y-6.65
X3.7Y-7.15
X3.7Y-7.4
X3.75Y-6.45
X3.75Y-6.65
X3.75Y-6.8
X3.75Y-7.05
X3.75Y-7.4
X3.8Y-6.15
X3.8Y-6.4
X3.8Y-6.45
X3.8Y-7.2
X3.8Y-7.3
X3.8Y-7.55
X3.8Y-7.75
X3.8429Y-6.1983
X3.85Y-5.9
X3.85Y-6.7
X3.85Y-6.75
X3.85Y-6.8
X3.85Y-7.1
X3.85Y-7.35
X3.9Y-6.15
X3.9Y-6.4
X3.9Y-6.75
X3.9Y-7.05
X3.9Y-7.25
X3.9Y-7.4
X3.9449Y-6.1
X3.95Y-5.6
X3.95Y-5.9
X3.95Y-5.95
X3.95Y-6.0
X3.95Y-6.4
X3.95Y-6.5
X3.95Y-7.3
X3.95Y-7.45
X3.9515Y-5.7515
X3.9538Y-6.8038
X3.9571Y-6.7483
X3.9785Y-6.2176
X4.0Y-4.75
X4.0Y-4.85
X4.0Y-5.45
X4.0Y-6.6
X4.0Y-6.7
X4.0Y-7.05
X4.0Y-7.1
X4.05Y-5.05
X4.05Y-5.9
X4.05Y-6.0
X4.05Y-6.45
X4.05Y-6.6
X4.05Y-7.2
X4.05Y-7.3
X4.05Y-7.4
X4.1Y-5.4
X4.1Y-5.55
X4.1Y-5.95
X4.1Y-6.5
X4.15Y-3.35
X4.15Y-5.45
X4.15Y-6.25
X4.15Y-6.45
X4.15Y-6.7
X4.15Y-6.75
X4.15Y-7.2
X4.15Y-7.35
X4.2Y-3.25
X4.2Y-5.9
X4.2Y-7.3
X4.2Y-7.35
X4.25Y-5.5
X4.25Y-5.7
X4.25Y-6.8
X4.3Y-6.05
X4.3Y-6.45
X4.3Y-7.2
X4.35Y-5.5
X4.35Y-5.7
X4.35Y-7.3
X4.4Y-3.5
X4.4Y-3.55
X4.4Y-6.45
X4.4Y-6.75
X4.45Y-7.0
X4.45Y-7.7
X4.5Y-5.15
X4.5Y-7.25
X4.5Y-7.5
X4.5376Y-7.1146
X4.55Y-5.65
X4.55Y-5.7
X4.55Y-5.8
X4.55Y-5.95
X4.55Y-7.25
X4.55Y-7.35
X4.5637Y-7.0603
X4.6Y-4.65
X4.6Y-5.2
X4.6Y-5.75
X4.6Y-5.9
X4.6Y-5.95
X4.6Y-6.75
X4.6Y-6.8
X4.6Y-7.0
X4.6491Y-6.799
X4.65Y-4.85
X4.65Y-6.2
X4.65Y-6.4
X4.65Y-6.7
X4.65Y-7.05
X4.7Y-4.7939
X4.7Y-4.95
X4.7Y-5.25
X4.7Y-5.7
X4.7Y-5.75
X4.7Y-6.8449
X4.7Y-7.0
X4.75Y-5.95
X4.75Y-6.4
X4.75Y-6.8
X4.75Y-7.05
X4.7577Y-6.6423
X4.8Y-4.65
X4.8Y-5.25
X4.8Y-5.9
X4.8Y-6.45
X4.8Y-6.9551
X4.8Y-7.05
X4.85Y-4.8
X4.85Y-6.8
X4.9Y-5.0
X4.9Y-7.4
X4.9077Y-6.9923
X4.9423Y-6.4077
X4.9429Y-4.8983
X4.95Y-4.05
X4.95Y-4.15
X4.95Y-4.6
X4.95Y-4.85
X4.95Y-5.15
X4.95Y-5.9
X4.95Y-6.35
X4.95Y-6.8
X4.95Y-7.1
X5.0Y-4.9
X5.0Y-4.95
X5.0Y-7.4
X5.0423Y-6.5077
X5.05Y-4.05
X5.05Y-4.15
X5.05Y-6.25
X5.1Y-4.0
X5.1Y-6.35
X5.1Y-6.95
X5.15Y-5.2
X5.15Y-6.5
X5.2Y-4.15
X5.2Y-5.1551
X5.2Y-5.25
X5.2Y-6.45
X5.25Y-3.95
X5.25Y-6.45
X5.25Y-7.05
X5.3Y-5.25
X5.3Y-6.4
X5.4Y-5.2
X5.4Y-5.5
X5.45Y-3.95
X5.45Y-4.1
X5.45Y-5.2
X5.45Y-5.45
X5.45Y-6.95
X5.5Y-3.8
X5.5Y-3.9
X5.5Y-4.0
X5.5Y-4.1
X5.5Y-4.2
X5.5Y-4.3
X5.5Y-6.85
X5.5017Y-3.9429
X5.55Y-3.75
X5.55Y-3.8
X5.55Y-4.0
X5.55Y-4.2
X5.6Y-5.1
X5.6Y-5.2
X5.65Y-4.55
X5.65Y-5.1
X5.65Y-5.4
X5.7Y-4.65
X5.7Y-7.05
X5.75Y-3.4
X5.75Y-3.8
X5.75Y-3.9
X5.75Y-4.05
X5.85Y-4.1
X5.95Y-3.85
X5.95Y-4.1
X6.0Y-3.9
X6.0Y-4.05
X6.1Y-4.9
X6.1Y-5.05
X6.35Y-3.45
X6.35Y-3.5
X6.4Y-4.05
X6.45Y-3.45
X6.45Y-3.5
T2
X2.05Y-4.25
X2.2Y-4.7
X2.25Y-4.25
X2.4Y-4.7
X2.6Y-4.45
X2.8Y-4.45
X2.85Y-5.15
X2.85Y-5.35
X2.85Y-5.7
X2.85Y-5.9
X2.9Y-7.25
X3.1Y-7.25
X3.6169Y-5.35
X3.8169Y-5.35
X4.65Y-7.15
X4.85Y-7.15
X5.35Y-4.55
X5.35Y-4.75
X5.35Y-5.6
X5.35Y-5.8
X5.55Y-5.6
X5.55Y-5.8
X5.9Y-4.55
X5.9Y-4.75
X5.9Y-4.95
X5.9Y-5.15
X6.15Y-4.2
X6.35Y-4.2
T3
X5.9Y-5.4
X5.9Y-5.7
X5.95Y-5.35
X5.95Y-5.45
X5.95Y-5.65
X5.95Y-5.75
T4
X2.05Y-5.35
X2.05Y-5.45
X2.05Y-5.55
X2.05Y-5.65
X2.05Y-5.75
X2.05Y-5.85
X2.05Y-5.95
X2.05Y-6.05
X2.05Y-6.15
X2.05Y-6.25
X2.05Y-6.35
X2.05Y-6.45
X2.05Y-6.55
X2.05Y-6.65
X2.05Y-6.75
X2.05Y-6.85
X2.05Y-6.95
X2.05Y-7.05
X2.05Y-7.15
X2.05Y-7.25
X2.15Y-5.1
X2.3469Y-5.1
X2.65Y-5.35
X2.65Y-5.45
X2.65Y-5.55
X2.65Y-5.65
X2.65Y-5.75
X2.65Y-5.85
X2.65Y-5.95
X2.65Y-6.05
X2.65Y-6.15
X2.65Y-6.25
X2.65Y-6.35
X2.65Y-6.45
X2.65Y-6.55
X2.65Y-6.65
X2.65Y-6.75
X2.65Y-6.85
X2.65Y-6.95
X2.65Y-7.05
X2.65Y-7.15
X2.65Y-7.25
X3.0Y-6.3
X3.0Y-6.4
X3.0Y-6.5
X3.0Y-6.6
X3.0Y-6.7
X3.0Y-6.8
X3.0Y-6.9
X3.0Y-7.0
X3.05Y-5.1531
X3.05Y-5.35
X3.3Y-6.3
X3.3Y-6.4
X3.3Y-6.5
X3.3Y-6.6
X3.3Y-6.7
X3.3Y-6.8
X3.3Y-6.9
X3.3Y-7.0
X3.35Y-5.1531
X3.35Y-5.35
X3.6Y-6.3
X3.6Y-6.9
X3.7Y-6.3
X3.7Y-6.9
X3.8Y-6.3
X3.8Y-6.9
X3.9Y-5.7
X3.9Y-6.3
X3.9Y-6.9
X4.0Y-6.1
X4.0Y-6.3
X4.0Y-6.9
X4.0921Y-5.7
X4.1Y-6.3
X4.1Y-6.9
X4.1969Y-6.1
X4.2Y-6.3
X4.2Y-6.9
X4.3Y-6.3
X4.3Y-6.9
X4.4Y-5.15
X4.4Y-5.3469
X4.4Y-6.3
X4.4Y-6.9
X4.5Y-6.3
X4.5Y-6.9
X4.55Y-3.35
X4.55Y-3.45
X4.55Y-3.55
X4.55Y-3.65
X4.55Y-3.75
X4.55Y-3.85
X4.55Y-3.95
X4.55Y-4.05
X4.55Y-4.15
X4.55Y-4.25
X4.6Y-5.1
X4.6Y-5.4
X4.6Y-6.3
X4.6Y-6.9
X4.65Y-7.4
X4.7Y-5.1
X4.7Y-5.4
X4.7Y-6.3
X4.7Y-6.9
X4.8Y-5.1
X4.8Y-5.4
X4.8Y-6.3
X4.8Y-6.9
X4.8469Y-7.4
X4.85Y-3.35
X4.85Y-3.45
X4.85Y-3.55
X4.85Y-3.65
X4.85Y-3.75
X4.85Y-3.85
X4.85Y-3.95
X4.85Y-4.05
X4.85Y-4.15
X4.85Y-4.25
X4.9Y-5.1
X4.9Y-5.4
X4.9Y-6.3
X4.9Y-6.9
X5.0Y-5.1
X5.0Y-5.4
X5.1Y-5.1
X5.1Y-5.4
X5.2Y-5.1
X5.2Y-5.4
X5.3Y-5.1
X5.3Y-5.4
X5.35Y-3.35
X5.35Y-3.45
X5.35Y-3.55
X5.35Y-3.65
X5.35Y-3.75
X5.35Y-3.85
X5.35Y-3.95
X5.35Y-4.05
X5.35Y-4.15
X5.35Y-4.25
X5.4Y-5.1
X5.4Y-5.4
X5.5Y-5.1
X5.5Y-5.4
X5.55Y-6.05
X5.55Y-6.15
X5.55Y-6.25
X5.55Y-6.35
X5.55Y-6.45
X5.55Y-6.55
X5.55Y-6.65
X5.65Y-3.35
X5.65Y-3.45
X5.65Y-3.55
X5.65Y-3.65
X5.65Y-3.75
X5.65Y-3.85
X5.65Y-3.95
X5.65Y-4.05
X5.65Y-4.15
X5.65Y-4.25
X5.85Y-6.05
X5.85Y-6.15
X5.85Y-6.25
X5.85Y-6.35
X5.85Y-6.45
X5.85Y-6.55
X5.85Y-6.65
X6.15Y-3.35
X6.15Y-3.95
X6.25Y-3.35
X6.25Y-3.95
X6.35Y-3.35
X6.35Y-3.95
X6.45Y-3.35
X6.45Y-3.95
X6.55Y-3.35
X6.55Y-3.95
T5
X6.2035Y-4.6712
X6.2035Y-4.935
X6.3016Y-4.6712
X6.3016Y-4.7519
X6.3016Y-4.8543
X6.3016Y-4.935
T6
X2.2Y-3.45
X2.2Y-3.55
X2.2Y-4.0
X2.3Y-3.45
X2.3Y-3.55
X2.3Y-4.0
X2.4Y-3.45
X2.4Y-3.55
X2.4Y-4.0
X2.5Y-3.45
X2.5Y-3.55
X2.5Y-4.0
X2.5Y-7.6
X2.6Y-3.45
X2.6Y-3.55
X2.6Y-4.0
X2.6Y-7.6
X2.7Y-3.45
X2.7Y-3.55
X2.7Y-4.0
X2.7Y-7.6
X2.8Y-3.45
X2.8Y-3.55
X2.8Y-7.6
X2.9Y-7.6
X3.0Y-7.6
X3.1Y-7.6
X3.2Y-7.6
X3.3Y-7.6
X3.4Y-7.6
X3.5Y-7.6
X3.6Y-7.6
X3.7Y-4.2
X3.7Y-4.3
X3.7Y-7.6
X3.8Y-7.6
X3.9Y-7.6
X4.0Y-7.6
X4.1Y-7.6
X4.2Y-7.6
X4.3Y-7.6
X4.4Y-7.6
X4.5Y-7.6
X4.6Y-7.6
X4.7Y-7.6
X4.8Y-7.6
X4.9Y-7.6
X5.0Y-7.6
X5.1Y-7.6
X5.2Y-7.6
X5.3Y-7.6
X5.4Y-7.6
X5.5Y-7.6
X5.6Y-7.6
X5.7Y-7.6
X5.8Y-7.6
X5.9Y-7.6
X6.0Y-7.6
X6.1Y-7.6
X6.2Y-7.6
X6.3Y-7.6
X6.4Y-6.75
X6.4Y-6.85
X6.4Y-6.95
X6.4Y-7.05
X6.4Y-7.15
X6.4Y-7.6
T7
X6.4197Y-4.537
X6.4197Y-5.0692
X6.4516Y-4.8031
T0
M30
