%TF.GenerationSoftware,KiCad,Pcbnew,5.1.9-73d0e3b20d~88~ubuntu20.04.1*%
%TF.CreationDate,2021-02-07T22:21:29+01:00*%
%TF.ProjectId,simple-output,73696d70-6c65-42d6-9f75-747075742e6b,rev?*%
%TF.SameCoordinates,Original*%
%TF.FileFunction,Soldermask,Top*%
%TF.FilePolarity,Negative*%
%FSLAX46Y46*%
G04 Gerber Fmt 4.6, Leading zero omitted, Abs format (unit mm)*
G04 Created by KiCad (PCBNEW 5.1.9-73d0e3b20d~88~ubuntu20.04.1) date 2021-02-07 22:21:29*
%MOMM*%
%LPD*%
G01*
G04 APERTURE LIST*
%ADD10O,1.700000X1.700000*%
%ADD11R,1.700000X1.700000*%
%ADD12O,1.400000X1.400000*%
%ADD13C,1.400000*%
%ADD14R,1.600000X1.600000*%
%ADD15O,1.600000X1.600000*%
%ADD16C,1.500000*%
%ADD17C,3.721100*%
%ADD18C,1.521460*%
%ADD19R,1.800000X1.100000*%
%ADD20C,1.600000*%
%ADD21O,1.524000X2.524000*%
%ADD22R,1.524000X2.524000*%
G04 APERTURE END LIST*
D10*
%TO.C,J5*%
X162560000Y-181610000D03*
X162560000Y-179070000D03*
X162560000Y-176530000D03*
X162560000Y-173990000D03*
D11*
X162560000Y-171450000D03*
%TD*%
D12*
%TO.C,R14*%
X135890000Y-147320000D03*
D13*
X140970000Y-147320000D03*
%TD*%
D12*
%TO.C,R13*%
X135890000Y-142240000D03*
D13*
X140970000Y-142240000D03*
%TD*%
D14*
%TO.C,IC1*%
X52070000Y-135890000D03*
D15*
X67310000Y-184150000D03*
X52070000Y-138430000D03*
X67310000Y-181610000D03*
X52070000Y-140970000D03*
X67310000Y-179070000D03*
X52070000Y-143510000D03*
X67310000Y-176530000D03*
X52070000Y-146050000D03*
X67310000Y-173990000D03*
X52070000Y-148590000D03*
X67310000Y-171450000D03*
X52070000Y-151130000D03*
X67310000Y-168910000D03*
X52070000Y-153670000D03*
X67310000Y-166370000D03*
X52070000Y-156210000D03*
X67310000Y-163830000D03*
X52070000Y-158750000D03*
X67310000Y-161290000D03*
X52070000Y-161290000D03*
X67310000Y-158750000D03*
X52070000Y-163830000D03*
X67310000Y-156210000D03*
X52070000Y-166370000D03*
X67310000Y-153670000D03*
X52070000Y-168910000D03*
X67310000Y-151130000D03*
X52070000Y-171450000D03*
X67310000Y-148590000D03*
X52070000Y-173990000D03*
X67310000Y-146050000D03*
X52070000Y-176530000D03*
X67310000Y-143510000D03*
X52070000Y-179070000D03*
X67310000Y-140970000D03*
X52070000Y-181610000D03*
X67310000Y-138430000D03*
X52070000Y-184150000D03*
X67310000Y-135890000D03*
%TD*%
D16*
%TO.C,Y1*%
X103940000Y-144780000D03*
X99060000Y-144780000D03*
%TD*%
D17*
%TO.C,J4*%
X163060380Y-115239800D03*
X163060380Y-128757680D03*
D18*
X157568900Y-125349000D03*
X157568900Y-118648480D03*
X160060640Y-125349000D03*
X160060640Y-118648480D03*
X160060640Y-120698260D03*
X160060640Y-123299220D03*
%TD*%
D19*
%TO.C,Q2*%
X151530000Y-146050000D03*
G36*
G01*
X152155000Y-144060000D02*
X150905000Y-144060000D01*
G75*
G02*
X150630000Y-143785000I0J275000D01*
G01*
X150630000Y-143235000D01*
G75*
G02*
X150905000Y-142960000I275000J0D01*
G01*
X152155000Y-142960000D01*
G75*
G02*
X152430000Y-143235000I0J-275000D01*
G01*
X152430000Y-143785000D01*
G75*
G02*
X152155000Y-144060000I-275000J0D01*
G01*
G37*
G36*
G01*
X150085000Y-145330000D02*
X148835000Y-145330000D01*
G75*
G02*
X148560000Y-145055000I0J275000D01*
G01*
X148560000Y-144505000D01*
G75*
G02*
X148835000Y-144230000I275000J0D01*
G01*
X150085000Y-144230000D01*
G75*
G02*
X150360000Y-144505000I0J-275000D01*
G01*
X150360000Y-145055000D01*
G75*
G02*
X150085000Y-145330000I-275000J0D01*
G01*
G37*
%TD*%
%TO.C,Q1*%
X151530000Y-138430000D03*
G36*
G01*
X152155000Y-136440000D02*
X150905000Y-136440000D01*
G75*
G02*
X150630000Y-136165000I0J275000D01*
G01*
X150630000Y-135615000D01*
G75*
G02*
X150905000Y-135340000I275000J0D01*
G01*
X152155000Y-135340000D01*
G75*
G02*
X152430000Y-135615000I0J-275000D01*
G01*
X152430000Y-136165000D01*
G75*
G02*
X152155000Y-136440000I-275000J0D01*
G01*
G37*
G36*
G01*
X150085000Y-137710000D02*
X148835000Y-137710000D01*
G75*
G02*
X148560000Y-137435000I0J275000D01*
G01*
X148560000Y-136885000D01*
G75*
G02*
X148835000Y-136610000I275000J0D01*
G01*
X150085000Y-136610000D01*
G75*
G02*
X150360000Y-136885000I0J-275000D01*
G01*
X150360000Y-137435000D01*
G75*
G02*
X150085000Y-137710000I-275000J0D01*
G01*
G37*
%TD*%
D12*
%TO.C,R12*%
X149860000Y-130810000D03*
D13*
X149860000Y-125730000D03*
%TD*%
D12*
%TO.C,R11*%
X149860000Y-115570000D03*
D13*
X149860000Y-120650000D03*
%TD*%
D12*
%TO.C,R7*%
X72390000Y-149860000D03*
D13*
X72390000Y-144780000D03*
%TD*%
D20*
%TO.C,C5*%
X59610000Y-129540000D03*
X54610000Y-129540000D03*
%TD*%
%TO.C,C4*%
X111760000Y-135810000D03*
X111760000Y-130810000D03*
%TD*%
%TO.C,C1*%
X106600000Y-154940000D03*
X101600000Y-154940000D03*
%TD*%
D15*
%TO.C,U8*%
X116840000Y-129540000D03*
X139700000Y-137160000D03*
X119380000Y-129540000D03*
X137160000Y-137160000D03*
X121920000Y-129540000D03*
X134620000Y-137160000D03*
X124460000Y-129540000D03*
X132080000Y-137160000D03*
X127000000Y-129540000D03*
X129540000Y-137160000D03*
X129540000Y-129540000D03*
X127000000Y-137160000D03*
X132080000Y-129540000D03*
X124460000Y-137160000D03*
X134620000Y-129540000D03*
X121920000Y-137160000D03*
X137160000Y-129540000D03*
X119380000Y-137160000D03*
X139700000Y-129540000D03*
D14*
X116840000Y-137160000D03*
%TD*%
D11*
%TO.C,J1*%
X162560000Y-193040000D03*
D10*
X160020000Y-193040000D03*
X157480000Y-193040000D03*
X154940000Y-193040000D03*
X152400000Y-193040000D03*
X149860000Y-193040000D03*
X147320000Y-193040000D03*
X144780000Y-193040000D03*
X142240000Y-193040000D03*
X139700000Y-193040000D03*
X137160000Y-193040000D03*
X134620000Y-193040000D03*
X132080000Y-193040000D03*
X129540000Y-193040000D03*
X127000000Y-193040000D03*
X124460000Y-193040000D03*
X121920000Y-193040000D03*
X119380000Y-193040000D03*
X116840000Y-193040000D03*
X114300000Y-193040000D03*
X111760000Y-193040000D03*
X109220000Y-193040000D03*
X106680000Y-193040000D03*
X104140000Y-193040000D03*
X101600000Y-193040000D03*
X99060000Y-193040000D03*
X96520000Y-193040000D03*
X93980000Y-193040000D03*
X91440000Y-193040000D03*
X88900000Y-193040000D03*
X86360000Y-193040000D03*
X83820000Y-193040000D03*
X81280000Y-193040000D03*
X78740000Y-193040000D03*
X76200000Y-193040000D03*
X73660000Y-193040000D03*
X71120000Y-193040000D03*
X68580000Y-193040000D03*
X66040000Y-193040000D03*
X63500000Y-193040000D03*
%TD*%
D12*
%TO.C,R5*%
X73660000Y-184150000D03*
D13*
X78740000Y-184150000D03*
%TD*%
D12*
%TO.C,R10*%
X118110000Y-181610000D03*
D13*
X123190000Y-181610000D03*
%TD*%
D12*
%TO.C,R2*%
X156210000Y-106680000D03*
D13*
X161290000Y-106680000D03*
%TD*%
D14*
%TO.C,IC2*%
X91440000Y-175260000D03*
D15*
X124460000Y-160020000D03*
X93980000Y-175260000D03*
X121920000Y-160020000D03*
X96520000Y-175260000D03*
X119380000Y-160020000D03*
X99060000Y-175260000D03*
X116840000Y-160020000D03*
X101600000Y-175260000D03*
X114300000Y-160020000D03*
X104140000Y-175260000D03*
X111760000Y-160020000D03*
X106680000Y-175260000D03*
X109220000Y-160020000D03*
X109220000Y-175260000D03*
X106680000Y-160020000D03*
X111760000Y-175260000D03*
X104140000Y-160020000D03*
X114300000Y-175260000D03*
X101600000Y-160020000D03*
X116840000Y-175260000D03*
X99060000Y-160020000D03*
X119380000Y-175260000D03*
X96520000Y-160020000D03*
X121920000Y-175260000D03*
X93980000Y-160020000D03*
X124460000Y-175260000D03*
X91440000Y-160020000D03*
%TD*%
D10*
%TO.C,J1_5VtoSerial1*%
X93980000Y-109220000D03*
D11*
X93980000Y-106680000D03*
%TD*%
%TO.C,J3*%
X55880000Y-101600000D03*
D10*
X58420000Y-101600000D03*
X60960000Y-101600000D03*
X63500000Y-101600000D03*
X66040000Y-101600000D03*
X68580000Y-101600000D03*
%TD*%
D11*
%TO.C,J2*%
X55880000Y-90170000D03*
D10*
X55880000Y-87630000D03*
X58420000Y-90170000D03*
X58420000Y-87630000D03*
X60960000Y-90170000D03*
X60960000Y-87630000D03*
X63500000Y-90170000D03*
X63500000Y-87630000D03*
X66040000Y-90170000D03*
X66040000Y-87630000D03*
X68580000Y-90170000D03*
X68580000Y-87630000D03*
X71120000Y-90170000D03*
X71120000Y-87630000D03*
%TD*%
D14*
%TO.C,U1*%
X140970000Y-153670000D03*
D15*
X148590000Y-168910000D03*
X140970000Y-156210000D03*
X148590000Y-166370000D03*
X140970000Y-158750000D03*
X148590000Y-163830000D03*
X140970000Y-161290000D03*
X148590000Y-161290000D03*
X140970000Y-163830000D03*
X148590000Y-158750000D03*
X140970000Y-166370000D03*
X148590000Y-156210000D03*
X140970000Y-168910000D03*
X148590000Y-153670000D03*
%TD*%
D21*
%TO.C,U5*%
X156210000Y-85090000D03*
X158750000Y-85090000D03*
X161290000Y-85090000D03*
X163830000Y-85090000D03*
X166370000Y-85090000D03*
X166370000Y-100330000D03*
X163830000Y-100330000D03*
X161290000Y-100330000D03*
X158750000Y-100330000D03*
D22*
X156210000Y-100330000D03*
%TD*%
D15*
%TO.C,U4*%
X115570000Y-107950000D03*
X123190000Y-85090000D03*
X115570000Y-105410000D03*
X123190000Y-87630000D03*
X115570000Y-102870000D03*
X123190000Y-90170000D03*
X115570000Y-100330000D03*
X123190000Y-92710000D03*
X115570000Y-97790000D03*
X123190000Y-95250000D03*
X115570000Y-95250000D03*
X123190000Y-97790000D03*
X115570000Y-92710000D03*
X123190000Y-100330000D03*
X115570000Y-90170000D03*
X123190000Y-102870000D03*
X115570000Y-87630000D03*
X123190000Y-105410000D03*
X115570000Y-85090000D03*
D14*
X123190000Y-107950000D03*
%TD*%
D15*
%TO.C,U3*%
X135890000Y-107950000D03*
X143510000Y-85090000D03*
X135890000Y-105410000D03*
X143510000Y-87630000D03*
X135890000Y-102870000D03*
X143510000Y-90170000D03*
X135890000Y-100330000D03*
X143510000Y-92710000D03*
X135890000Y-97790000D03*
X143510000Y-95250000D03*
X135890000Y-95250000D03*
X143510000Y-97790000D03*
X135890000Y-92710000D03*
X143510000Y-100330000D03*
X135890000Y-90170000D03*
X143510000Y-102870000D03*
X135890000Y-87630000D03*
X143510000Y-105410000D03*
X135890000Y-85090000D03*
D14*
X143510000Y-107950000D03*
%TD*%
%TO.C,U2*%
X76200000Y-160020000D03*
D15*
X83820000Y-177800000D03*
X76200000Y-162560000D03*
X83820000Y-175260000D03*
X76200000Y-165100000D03*
X83820000Y-172720000D03*
X76200000Y-167640000D03*
X83820000Y-170180000D03*
X76200000Y-170180000D03*
X83820000Y-167640000D03*
X76200000Y-172720000D03*
X83820000Y-165100000D03*
X76200000Y-175260000D03*
X83820000Y-162560000D03*
X76200000Y-177800000D03*
X83820000Y-160020000D03*
%TD*%
D12*
%TO.C,R9*%
X52070000Y-107950000D03*
D13*
X57150000Y-107950000D03*
%TD*%
D12*
%TO.C,R6*%
X71120000Y-113030000D03*
D13*
X66040000Y-113030000D03*
%TD*%
D12*
%TO.C,R4*%
X96950000Y-135890000D03*
D13*
X91870000Y-135890000D03*
%TD*%
D12*
%TO.C,R8*%
X55880000Y-119380000D03*
D13*
X60960000Y-119380000D03*
%TD*%
D12*
%TO.C,R3*%
X72390000Y-130810000D03*
D13*
X72390000Y-135890000D03*
%TD*%
D12*
%TO.C,R1*%
X135890000Y-120650000D03*
D13*
X135890000Y-115570000D03*
%TD*%
D20*
%TO.C,C6*%
X85090000Y-130890000D03*
X85090000Y-135890000D03*
%TD*%
%TO.C,C3*%
X77470000Y-130890000D03*
X77470000Y-135890000D03*
%TD*%
%TO.C,C2*%
X123110000Y-187960000D03*
X118110000Y-187960000D03*
%TD*%
M02*
