G04 #@! TF.GenerationSoftware,KiCad,Pcbnew,5.1.9-73d0e3b20d~88~ubuntu20.04.1*
G04 #@! TF.CreationDate,2021-02-07T22:25:47+01:00*
G04 #@! TF.ProjectId,dtZ80,64745a38-302e-46b6-9963-61645f706362,1*
G04 #@! TF.SameCoordinates,PX60e4b00PY6bcb370*
G04 #@! TF.FileFunction,Soldermask,Top*
G04 #@! TF.FilePolarity,Negative*
%FSLAX46Y46*%
G04 Gerber Fmt 4.6, Leading zero omitted, Abs format (unit mm)*
G04 Created by KiCad (PCBNEW 5.1.9-73d0e3b20d~88~ubuntu20.04.1) date 2021-02-07 22:25:47*
%MOMM*%
%LPD*%
G01*
G04 APERTURE LIST*
G04 #@! TA.AperFunction,Profile*
%ADD10C,0.050000*%
G04 #@! TD*
%ADD11C,1.500000*%
%ADD12O,1.700000X1.700000*%
%ADD13R,1.700000X1.700000*%
%ADD14C,1.600000*%
%ADD15R,1.600000X1.600000*%
%ADD16O,1.600000X1.600000*%
%ADD17O,1.400000X1.400000*%
%ADD18C,1.400000*%
G04 APERTURE END LIST*
D10*
X-11430000Y0D02*
X-139700000Y0D01*
X-11430000Y88900000D02*
X-11430000Y0D01*
X-139700000Y88900000D02*
X-139700000Y0D01*
X-11430000Y88900000D02*
X-139700000Y88900000D01*
D11*
X-95260000Y74930000D03*
X-99060000Y74930000D03*
D12*
X-29210000Y57150000D03*
X-62230000Y72390000D03*
X-31750000Y57150000D03*
X-59690000Y72390000D03*
X-34290000Y57150000D03*
X-57150000Y72390000D03*
X-36830000Y57150000D03*
X-54610000Y72390000D03*
X-39370000Y57150000D03*
X-52070000Y72390000D03*
X-41910000Y57150000D03*
X-49530000Y72390000D03*
X-44450000Y57150000D03*
X-46990000Y72390000D03*
X-46990000Y57150000D03*
X-44450000Y72390000D03*
X-49530000Y57150000D03*
X-41910000Y72390000D03*
X-52070000Y57150000D03*
X-39370000Y72390000D03*
X-54610000Y57150000D03*
X-36830000Y72390000D03*
X-57150000Y57150000D03*
X-34290000Y72390000D03*
X-59690000Y57150000D03*
X-31750000Y72390000D03*
X-62230000Y57150000D03*
D13*
X-29210000Y72390000D03*
D14*
X-90170000Y44450000D03*
X-90170000Y52070000D03*
X-97790000Y52070000D03*
D15*
X-97790000Y44450000D03*
D16*
X-55880000Y34290000D03*
X-63500000Y19050000D03*
X-55880000Y31750000D03*
X-63500000Y21590000D03*
X-55880000Y29210000D03*
X-63500000Y24130000D03*
X-55880000Y26670000D03*
X-63500000Y26670000D03*
X-55880000Y24130000D03*
X-63500000Y29210000D03*
X-55880000Y21590000D03*
X-63500000Y31750000D03*
X-55880000Y19050000D03*
D15*
X-63500000Y34290000D03*
D16*
X-125730000Y34290000D03*
X-77470000Y19050000D03*
X-123190000Y34290000D03*
X-80010000Y19050000D03*
X-120650000Y34290000D03*
X-82550000Y19050000D03*
X-118110000Y34290000D03*
X-85090000Y19050000D03*
X-115570000Y34290000D03*
X-87630000Y19050000D03*
X-113030000Y34290000D03*
X-90170000Y19050000D03*
X-110490000Y34290000D03*
X-92710000Y19050000D03*
X-107950000Y34290000D03*
X-95250000Y19050000D03*
X-105410000Y34290000D03*
X-97790000Y19050000D03*
X-102870000Y34290000D03*
X-100330000Y19050000D03*
X-100330000Y34290000D03*
X-102870000Y19050000D03*
X-97790000Y34290000D03*
X-105410000Y19050000D03*
X-95250000Y34290000D03*
X-107950000Y19050000D03*
X-92710000Y34290000D03*
X-110490000Y19050000D03*
X-90170000Y34290000D03*
X-113030000Y19050000D03*
X-87630000Y34290000D03*
X-115570000Y19050000D03*
X-85090000Y34290000D03*
X-118110000Y19050000D03*
X-82550000Y34290000D03*
X-120650000Y19050000D03*
X-80010000Y34290000D03*
X-123190000Y19050000D03*
X-77470000Y34290000D03*
D15*
X-125730000Y19050000D03*
D12*
X-76200000Y58420000D03*
D13*
X-76200000Y55880000D03*
D14*
X-15240000Y63540000D03*
X-15240000Y66040000D03*
X-134620000Y25440000D03*
X-134620000Y27940000D03*
X-67350000Y11430000D03*
X-69850000Y11430000D03*
D16*
X-121920000Y81280000D03*
X-106680000Y73660000D03*
X-119380000Y81280000D03*
X-109220000Y73660000D03*
X-116840000Y81280000D03*
X-111760000Y73660000D03*
X-114300000Y81280000D03*
X-114300000Y73660000D03*
X-111760000Y81280000D03*
X-116840000Y73660000D03*
X-109220000Y81280000D03*
X-119380000Y73660000D03*
X-106680000Y81280000D03*
D15*
X-121920000Y73660000D03*
D16*
X-72390000Y80010000D03*
X-80010000Y64770000D03*
X-72390000Y77470000D03*
X-80010000Y67310000D03*
X-72390000Y74930000D03*
X-80010000Y69850000D03*
X-72390000Y72390000D03*
X-80010000Y72390000D03*
X-72390000Y69850000D03*
X-80010000Y74930000D03*
X-72390000Y67310000D03*
X-80010000Y77470000D03*
X-72390000Y64770000D03*
D15*
X-80010000Y80010000D03*
D17*
X-90170000Y74930000D03*
D18*
X-85090000Y74930000D03*
D17*
X-99060000Y81280000D03*
D18*
X-93980000Y81280000D03*
D12*
X-106680000Y50800000D03*
D13*
X-106680000Y53340000D03*
D12*
X-113030000Y50800000D03*
D13*
X-113030000Y53340000D03*
D12*
X-119380000Y50800000D03*
D13*
X-119380000Y53340000D03*
D12*
X-125730000Y50800000D03*
D13*
X-125730000Y53340000D03*
D12*
X-87630000Y83820000D03*
D13*
X-87630000Y81280000D03*
D12*
X-125730000Y5080000D03*
X-123190000Y5080000D03*
X-120650000Y5080000D03*
X-118110000Y5080000D03*
X-115570000Y5080000D03*
X-113030000Y5080000D03*
X-110490000Y5080000D03*
X-107950000Y5080000D03*
X-105410000Y5080000D03*
X-102870000Y5080000D03*
X-100330000Y5080000D03*
X-97790000Y5080000D03*
X-95250000Y5080000D03*
X-92710000Y5080000D03*
X-90170000Y5080000D03*
X-87630000Y5080000D03*
X-85090000Y5080000D03*
X-82550000Y5080000D03*
X-80010000Y5080000D03*
X-77470000Y5080000D03*
X-74930000Y5080000D03*
X-72390000Y5080000D03*
X-69850000Y5080000D03*
X-67310000Y5080000D03*
X-64770000Y5080000D03*
X-62230000Y5080000D03*
X-59690000Y5080000D03*
X-57150000Y5080000D03*
X-54610000Y5080000D03*
X-52070000Y5080000D03*
X-49530000Y5080000D03*
X-46990000Y5080000D03*
X-44450000Y5080000D03*
X-41910000Y5080000D03*
X-39370000Y5080000D03*
X-36830000Y5080000D03*
X-34290000Y5080000D03*
X-31750000Y5080000D03*
X-29210000Y5080000D03*
D13*
X-26670000Y5080000D03*
D14*
X-92710000Y62310000D03*
X-92710000Y67310000D03*
X-101600000Y62310000D03*
X-101600000Y67310000D03*
M02*
