M48
; DRILL file {KiCad 5.1.8-db9833491~88~ubuntu20.04.1} date Wed Dec 16 12:57:37 2020
; FORMAT={-:-/ absolute / inch / decimal}
; #@! TF.CreationDate,2020-12-16T12:57:37+01:00
; #@! TF.GenerationSoftware,Kicad,Pcbnew,5.1.8-db9833491~88~ubuntu20.04.1
; #@! TF.FileFunction,Plated,1,2,PTH
FMAT,2
INCH
T1C0.0157
T2C0.0315
T3C0.0394
%
G90
G05
T1
X4.55Y-5.1
X4.6Y-5.0
X4.65Y-4.35
X4.65Y-4.7
X4.65Y-4.8
X4.7Y-5.0
X4.7Y-5.05
X4.7Y-5.65
X4.75Y-4.75
X4.85Y-5.4
X4.9Y-4.6
X5.0Y-4.55
X5.0Y-5.3
X5.1Y-4.55
X5.1Y-4.6
X5.2Y-4.6
X5.25Y-5.55
X5.3Y-4.9
X5.3Y-5.1
X5.35Y-4.45
X5.55Y-4.45
X5.55Y-4.6
X5.6Y-4.55
X5.65Y-4.5
X6.05Y-4.5
X6.55Y-5.25
X6.65Y-5.45
T2
X4.25Y-4.1
X4.25Y-4.2
X4.25Y-4.3
X4.25Y-4.4
X4.25Y-4.5
X4.25Y-4.6
X4.25Y-4.7
X4.55Y-4.1
X4.55Y-4.2
X4.55Y-4.3
X4.55Y-4.4
X4.55Y-4.5
X4.55Y-4.6
X4.55Y-4.7
X5.0Y-4.35
X5.0Y-4.4484
X5.55Y-5.45
X5.6484Y-5.45
X5.35Y-4.1
X5.35Y-4.7
X5.45Y-4.1
X5.45Y-4.7
X5.55Y-4.1
X5.55Y-4.7
X5.65Y-4.1
X5.65Y-4.7
X5.75Y-4.1
X5.75Y-4.7
X5.85Y-4.1
X5.85Y-4.7
X5.95Y-4.1
X5.95Y-4.7
X6.05Y-4.1
X6.05Y-4.7
X6.15Y-4.1
X6.15Y-4.7
X6.25Y-4.1
X6.25Y-4.7
X6.35Y-4.1
X6.35Y-4.7
X6.45Y-4.1
X6.45Y-4.7
X6.55Y-4.1
X6.55Y-4.7
X6.65Y-4.1
X6.65Y-4.7
X3.45Y-4.1
X3.45Y-4.2
X3.45Y-4.3
X3.45Y-4.4
X3.45Y-4.5
X3.45Y-4.6
X3.45Y-4.7
X3.75Y-4.1
X3.75Y-4.2
X3.75Y-4.3
X3.75Y-4.4
X3.75Y-4.5
X3.75Y-4.6
X3.75Y-4.7
T3
X3.35Y-5.75
X3.45Y-5.75
X3.55Y-5.75
X3.65Y-5.75
X3.75Y-5.75
X3.85Y-5.75
X3.95Y-5.75
X4.05Y-5.75
X4.15Y-5.75
X4.25Y-5.75
X4.35Y-5.75
X4.45Y-5.75
X4.55Y-5.75
X4.65Y-5.75
X4.75Y-5.75
X4.85Y-5.75
X4.95Y-5.75
X5.05Y-5.75
X5.15Y-5.75
X5.25Y-5.75
X5.35Y-5.75
X5.45Y-5.75
X5.55Y-5.75
X5.65Y-5.75
X5.75Y-5.75
X5.85Y-5.75
X5.95Y-5.75
X6.05Y-5.75
X6.15Y-5.75
X6.25Y-5.75
X6.35Y-5.75
X6.45Y-5.75
X6.55Y-5.75
X6.65Y-5.75
X6.75Y-5.75
X6.85Y-5.75
X6.95Y-5.75
X7.05Y-5.75
X7.15Y-5.75
X7.25Y-5.75
T0
M30
